<?xml version="1.0" encoding="utf-8"?>
<!-- Generator: Adobe Illustrator 22.1.0, SVG Export Plug-In . SVG Version: 6.00 Build 0)  -->
<svg version="1.1" id="图层_1" xmlns="http://www.w3.org/2000/svg" xmlns:xlink="http://www.w3.org/1999/xlink" x="0px" y="0px"
	 viewBox="0 0 1003.2 722.4" style="enable-background:new 0 0 1003.2 722.4;" xml:space="preserve">
<style type="text/css">
	.st0{clip-path:url(#SVGID_2_);fill:#F4F3D4;}
	.st1{clip-path:url(#SVGID_2_);fill:#8B616C;}
	.st2{clip-path:url(#SVGID_2_);fill:#E264A3;}
	.st3{clip-path:url(#SVGID_2_);fill:#DDC3B1;}
	.st4{clip-path:url(#SVGID_2_);fill:#E9BC9B;}
	.st5{clip-path:url(#SVGID_2_);fill:#8E5139;}
	.st6{clip-path:url(#SVGID_2_);fill:#FFFFFF;}
	.st7{clip-path:url(#SVGID_2_);fill:#CEAE88;}
	.st8{clip-path:url(#SVGID_2_);fill:#C1C189;}
	.st9{clip-path:url(#SVGID_2_);fill:#E0E0A3;}
	.st10{clip-path:url(#SVGID_2_);fill:#FDD759;}
	.st11{clip-path:url(#SVGID_2_);fill:#E57C48;}
	.st12{clip-path:url(#SVGID_2_);fill:#EFBB54;}
	.st13{clip-path:url(#SVGID_2_);fill:#FBE97B;}
	.st14{clip-path:url(#SVGID_2_);fill:#E1E1A5;}
	.st15{clip-path:url(#SVGID_2_);fill:#DFDFA3;}
	.st16{clip-path:url(#SVGID_2_);fill:#E0E0A4;}
	.st17{clip-path:url(#SVGID_2_);fill:#E0E0A5;}
	.st18{clip-path:url(#SVGID_2_);fill:#D46629;}
	.st19{clip-path:url(#SVGID_2_);fill:#F6F6B4;}
	.st20{clip-path:url(#SVGID_2_);fill:#114458;}
	.st21{clip-path:url(#SVGID_2_);fill:#ABBFC6;}
	.st22{clip-path:url(#SVGID_2_);fill:#BEBE87;}
	.st23{clip-path:url(#SVGID_2_);fill:#CECE94;}
	.st24{clip-path:url(#SVGID_2_);fill:#ACBFC6;}
	.st25{clip-path:url(#SVGID_2_);fill:#ABBEC5;}
	.st26{clip-path:url(#SVGID_2_);fill:#E1E2E4;}
	.st27{clip-path:url(#SVGID_2_);fill:#F5F6F7;}
	.st28{clip-path:url(#SVGID_2_);fill:#FDFDFD;}
	.st29{clip-path:url(#SVGID_2_);fill:#ECECEE;}
	.st30{clip-path:url(#SVGID_2_);fill:#EBEBED;}
	.st31{clip-path:url(#SVGID_2_);fill:#124559;}
	.st32{clip-path:url(#SVGID_2_);fill:#D6D8E4;}
	.st33{clip-path:url(#SVGID_2_);fill:#A9BDC4;}
	.st34{clip-path:url(#SVGID_2_);fill:#134559;}
	.st35{clip-path:url(#SVGID_2_);fill:#F4F5F6;}
	.st36{clip-path:url(#SVGID_2_);fill:#F2F4F5;}
	.st37{clip-path:url(#SVGID_2_);fill:#F3F4F6;}
	.st38{clip-path:url(#SVGID_2_);fill:#F1F3F4;}
	.st39{clip-path:url(#SVGID_2_);fill:#124458;}
	.st40{clip-path:url(#SVGID_2_);fill:#547886;}
	.st41{clip-path:url(#SVGID_2_);fill:#406979;}
</style>
<g>
	<defs>
		<rect id="SVGID_1_" width="1003.2" height="732.3"/>
	</defs>
	<clipPath id="SVGID_2_">
		<use xlink:href="#SVGID_1_"  style="overflow:visible;"/>
	</clipPath>
	<path class="st0" d="M1004,1.7v402.1c-5.5,0.7-10.8-1.1-15.9-2.5c-17.9-4.9-36.2-5.9-54.6-6c-12.5-0.1-25-0.8-37.5,0.7
		c-10,1.1-19.5,4.7-29.1,7.4c-9.7,2.7-19.2,5.8-28.2,10.2c-2.1,1-4.3,2-6.7,2.3c-4.1,1.7-8.2,1-12.3,0.1c-17.7-4-35.7-5.5-53.5-8.1
		c-1.7-0.2-3.3-0.4-4.7-1.4c-10.9-13-21.9-26-33.2-38.6c-5.4-6-9.6-13-15.5-18.6c-2-1.9-2.3-4.7-2.7-7.3
		c-2.4-14.8-4.3-29.7-5.1-44.8c-0.2-3.8-1.1-7.5-0.9-11.2c0.2-3.7-1.5-6.4-4.7-7.6c-9.1-3.5-18.4-6.4-28.4-4
		c-3.2,0.8-5.9,2.5-7.7,5.3c-2,3-3.6,6.3-5.1,9.6c-1.6,3.4-3,7.1-5.7,9.7c-7.2,7-7.3,15.4-5.3,24.3c2.1,9.8,0.7,19.7,1.8,29.6
		c0.6,5.2-2.3,9.1-7.3,11c-8.6,3.5-15.7,9.5-23.4,14.4c-4.2,2.7-6.6,6.5-6.9,11.7c-0.2,4.8-2.4,9.1-4.8,13.2
		c-0.8,1.4-1.9,2.4-3.5,2.7c-0.9,0.2-1.8,0.1-2.7,0c-1.1-0.2-2.1-0.6-3.2-0.5c-1.1,0-2.2-0.1-3.3-0.5c-13.6-4.5-25.5,0-36.6,7.3
		c-8,5.2-16.3,8.9-25.7,10.2c-5,0.7-9.6-0.9-14.3-2.1c-13.2-3.4-25.5-9.4-38.4-13.7c-12.7-4.3-25.7-7.2-39.3-6.5
		c-6.1,0.3-12,1.8-18,3.2c-2.4,0.6-4.4,2.2-6.1,4.2c-1.2,1.4-2.3,2.8-4.3,3c-3.7-0.6-5.3-3.4-6.6-6.3c-2.7-5.9-4.5-12.2-4.6-18.5
		c-0.2-14.5-1-29-2.9-43.3c-1.9-14.7-4.9-29.3-9.6-43.5c-3.5-10.4-8.7-19.8-14.4-29.1c-1.8-2.9-2.2-5.5,0.1-8.4
		c1.6-2,0.6-3.3-1.8-3.7c-0.3,0-0.6-0.1-0.8-0.1c-11.2,0.8-22.2-1.5-33.3-1.9c-13.5-0.5-26.9-0.6-40.4-1.9
		c-11.2-1.1-22.5-1-33.7-1.8c-2.5-0.2-4.6,1.2-6,3.3c-3.5,5.2-8.3,9.4-11.4,14.9c-1.4,2.4-3.5,4-6,5c-4.3,1.9-8.4,4.4-12.7,6.3
		c-3,1.3-4.6,3.4-5,7c-0.8,8.5-4.1,16.4-6.5,24.6c-6.4,22.2-12.9,44.4-19.4,66.5c-0.9,2.9-1.5,5.9-3.2,8.6c-0.9,1.2-2,2-3.4,2.1
		c-5.5,0.3-11,1.1-16.4-0.7c-4.4-2.4-5.9-6.7-6.6-11.1c-1.3-7.9-3.7-15.7-4.2-23.8c-0.3-4.2-1.3-8.2-2.4-12.3
		c-1.7-6.6-6.1-9.6-12.6-10.3c-2.8-0.3-5.6-0.1-8.3-0.2c-2.9,0-4.9-1-6-4.1c-1.2-3.6-2.8-4-5.3-1.4c-2.7,2.8-6,4.5-9.4,6.1
		c-3.7,1.8-7.7,3.4-11,6c-9.2,7.1-20.1,7.5-30.9,8.3c-7.8,0.6-11.6-2.5-13.6-9.8c-0.9-3.2-3-4.4-6-4.9c-10.7-1.5-21.4-3.2-32.2-4.4
		c-6.6-0.7-13.2-1.9-19.8-2.6c-1.6-0.2-2.9-0.9-3.9-2.2V138.8c2.3-2.2,5.2-1.6,8-1.6c54,0,108,0,162,0c4.6,0,9.2-0.1,13.8,0
		c3.7,0.1,7.2-1,10.4-2.6c7.1-3.4,9.9-9.2,8.5-17.1c-1.7-7.8-7.3-11.2-14.6-12.6c-1.7-0.3-3.2-0.9-3.9-2.7
		c-1.5-5.1,0.2-10.1,0.1-15.2c-0.1-1.8-0.1-3.2-1.6-4.3c-0.6-8.3-6.1-11.2-13.4-13.1c-7-1.8-13.8-1.1-20.7-0.5c-2.7-2-4.9-0.2-7.2,1
		c-4.7,2.3-8.5,6-13.2,8.3c-3.1,0.4-5.2-1.6-7.5-3.1c-11.7-7.7-24.2-12.9-38.7-12.1c-5.4,0.3-10.8,0.5-16.2,1
		c-2.2-0.9-4.3-0.5-6.4,0.3c-6.7,2.6-12.4,6.8-17,12.2c-3.5,4.3-7.5,8-11.8,11.5c-9.1,3.5-18.6,4.9-28,7c-1,0.2-1.9-0.1-2.7-0.8V1.7
		c1.4-0.8,3-0.4,4.5-0.4c331.4,0,662.8,0,994.2,0C1001,1.3,1002.6,0.9,1004,1.7"/>
	<path class="st1" d="M1004,545.9v138.8c-1.7,0.8-3-0.2-4.3-1c-19.3-11.1-38.7-22.1-58-33.2c-22.1-12.7-44.2-25.4-66.3-38
		c-15.4-8.7-30.6-17.7-46-26.4c-18.5-10.6-37-21.2-55.5-31.8c-19.9-11.4-39.9-22.8-59.8-34.3c-27.6-15.9-55.4-31.7-83-47.6
		c-15.9-9.1-31.9-18.2-47.8-27.5c-1.2-0.7-2.4-1.4-3.4-2.5c-1.1-1.3-0.9-2.2,0.7-2.9c4.7-1.2,9.4-0.5,14.1-0.6
		c6.2-0.1,12.5-0.2,18.7,0.1c6.1,0.1,12.1-0.2,18.2-0.1c2.8,0.1,5.5,0,8.2,0.7c23.7,7,47.6,13.6,71.4,20.5
		c37.4,10.8,74.9,21.5,112.4,32.2c23.2,6.6,46.3,13.2,69.5,19.8c26,7.4,51.9,14.9,77.9,22.3c9.2,2.6,18.4,5.4,27.7,8
		C1000.8,543.1,1003,543.6,1004,545.9"/>
	<path class="st1" d="M0.8,741.5v-36.8c0.4-0.3,0.7-0.8,1-1.2c0.2-0.3,0.5-0.5,0.8-0.8c0.4-0.4,0.9-0.7,1.4-1
		c32.4-19.7,65-38.9,97.5-58.4c37.3-22.5,74.8-44.8,112.2-67.1c33.6-20.1,67.2-40.1,100.8-60.1c25-14.9,49.9-29.9,74.9-44.8
		c17-10.1,33.7-20.8,51-30.3c0.8-0.4,1.7-0.7,2.6-0.9c5.2-0.6,10.5-0.4,15.7-0.1c2.1,0.1,4.1,0.2,6.2-0.3c0.7-0.1,1.4,0,2,0.3
		c1.8,2.8-0.9,3.6-2.3,4.7c-14.6,11.6-29.1,23.3-43.7,35c-35.2,28.2-70.5,56.4-105.7,84.5c-32,25.6-64,51.1-95.9,76.7
		c-33.5,27-67.2,53.7-100.7,80.8c-7.9,6.4-15.9,12.7-23.8,19c-1.1,0.9-2.2,1.7-3.6,1.9c-28.5,0.1-57.1,0-85.6,0
		C3.8,742.8,2.1,742.9,0.8,741.5"/>
	<path class="st2" d="M579.3,440.9c8.7,5.5,17.7,10.3,26.6,15.5c19,11,38,21.9,57,32.8c15.5,8.9,31.1,17.7,46.7,26.6
		c17.2,9.9,34.3,19.9,51.6,29.8c21.2,12.1,42.5,24.1,63.7,36.3c16.9,9.7,33.6,19.5,50.5,29.2c17.1,9.8,34.3,19.5,51.4,29.2
		c12.3,7,24.5,14.2,36.8,21.2c12.2,7,24.3,13.9,36.5,20.8c1.3,0.8,2.6,1.6,3.9,2.4v56.8c-0.8,0.6-1.7,1-2.7,0.9
		c-15.6-0.4-31.1,0.1-46.7-0.3c-2.9-0.2-5.1-1.9-7.3-3.7c-24.9-19.5-49.9-38.9-74.7-58.4c-32.3-25.4-64.7-50.6-97.1-76
		c-26.5-20.8-53.2-41.4-79.7-62.2c-32.2-25.3-64.6-50.3-96.7-75.7c-9.1-7.2-18.4-14.1-27.3-21.4c-1.4-1.2-3.9-2.3-2-4.9
		c2.9-1.1,5.8-1.1,8.7-0.1C578.9,440.1,579.2,440.4,579.3,440.9"/>
	<path class="st3" d="M442.3,441.2l-1.7,1c-5.2,0.7-10.5,0.7-15.8,0.5c-4.6-0.2-8.8,1-12.9,2.7c-31.2,13-62.7,25.5-94,38.4
		c-34.4,14.1-68.9,28.1-103.3,42.1c-38.8,15.8-77.6,31.7-116.5,47.4c-29.9,12.1-59.9,24.2-89.8,36.6c-2,0.8-4,2.1-6.3,1.9
		c-0.4-0.1-0.8-0.4-1.1-0.7V497.4c0.5-0.3,0.9-0.2,1.3,0.2c1.2,1.7,1,3.7,1,5.6c0.1,6.4,0.1,12.8,0,19.2c-0.1,3.3,1.4,4.2,4.4,3.4
		c11.6-2.9,23.3-5.3,35-8c19.1-4.4,38.2-8.9,57.4-13.2c17.8-4,35.6-8.1,53.3-12.3c22.1-5.2,44.3-10.1,66.4-15.2
		c32.6-7.6,65.2-15,97.7-22.5c17.8-4.1,35.6-8,53.3-12.3c3.5-0.8,7.3-0.4,10.3-2.9c2-0.7,4.1-0.6,6.2-0.6c15.2,0,30.5,0,45.7,0
		c2.6,0,5.2,0.7,7.9,0.4C441.9,439.4,442.9,439.7,442.3,441.2"/>
	<path class="st4" d="M443.5,440.1c-1.3,1.2-2.9,0.7-4.4,0.7c-17.7,0-35.3,0-53,0.1c-1.3,0-2.5,0.1-3.8,0.1
		c-3.2,1.7-6.8,1.3-10.1,1.4c-7.2,0.3-14.3-0.1-21.5,0.4c-4.2-1.1-8.6-0.9-12.9-0.6c-7.2,0.5-14.5,0.3-21.7,0.2
		c-6-0.7-12-0.5-17.9-0.2c-8.4,0.4-16.7,0.3-25,0.3c-87.3,0-174.6,0-261.9,0c-2.9,0-5.9,0.6-8.4-1.7v-18.4
		c6.4-4.9,13.8-7.7,21.2-10.5c30.7-11.8,62.8-17.2,95.2-20.8c17.4-1.9,34.9-3.1,52.5-3.2c1.1,0,2.2,0.5,3.3,0.3
		c3,1.3,6.3,0.7,9.4,0.8c2.1,0.1,4.2-0.1,6.2,0c1.6,0.1,2.6-0.6,3.5-1.7c21.4,0.9,42.8,1.4,64.1,3.3c31.5,2.8,62.7,7.4,93.6,14.4
		c26.5,6,52.4,14,77.1,25.6c3.8,1.8,7.5,3.8,11,5.9C441.5,437.5,443.1,438.3,443.5,440.1"/>
	<path class="st5" d="M173,387.9c-0.7,1.6-2.1,1.1-3.3,1.2c-4.9,0.2-9.7,0.2-14.6,0.5c-15.6,0.8-31.1,2-46.6,3.9
		c-8.4,1-16.9,2.1-25.2,3.6c-14.9,2.6-29.7,5.8-44.3,10.3c-9.3,2.9-18.4,6.2-27.3,10.2c-2.5,1.1-5,2.4-7.5,3.7
		c-1.1,0.6-2.1,1.4-3.5,0.9v-99.5c2.4,1,4.9,0.8,7.4,1.1c12.8,1.7,25.7,3.3,38.5,5c4.3,0.6,8.5,1.5,12.8,2c2.6,0.3,3.9,1.8,4.4,4.2
		c0.1,0.7,0.3,1.3,0.5,2c0.5,1.7-0.2,3.9,1.5,5c2.6,1.6,5.1,3.1,8.5,3.1c4.7-0.1,9.4-1,14.1-1.3c6.4-0.5,12.1-2.6,17.4-6.2
		c4.6-3.1,9.5-5.8,14.6-7.9c2.4-1,4.3-2.5,5.7-4.6c1-1.5,2.4-2.1,4.2-2.1c2.1,0,3.6,0.4,3.6,2.9c0,0.5,0.4,1.1,0.4,1.6
		c0,2.4,1.4,3,3.5,2.9c2.6-0.2,5.3-0.2,7.9-0.2c4.2,0,8.1,1.4,11.3,3.7c2.4,1.7,3.2,5.1,4.1,8c1,3.2,2.1,6.4,2.1,9.8
		c0,7.3,2.7,14.2,3.5,21.4c0.4,3.3,1.2,6.5,2.3,9.7C169.9,384.8,171,386.7,173,387.9"/>
	<path class="st2" d="M1004,545.9c-3.6-2.2-7.9-2.7-11.8-3.9c-17.3-5.1-34.7-9.9-52.1-14.8c-13.5-3.8-27-7.7-40.5-11.6
		c-12.7-3.7-25.3-7.4-38-11.1c-12.1-3.5-24.3-6.8-36.5-10.3c-12-3.4-24-7-36-10.4c-8.8-2.5-17.6-5-26.5-7.5c-9.4-2.7-18.7-5.3-28-8
		c-7.1-2-14.2-4.1-21.2-6.1c-10.3-3-20.5-6-30.8-8.9c-6.8-1.9-13.7-3.7-20.5-5.7c-7.2-2.1-14.4-4.2-21.6-6.4
		c0.3-2.1,2.1-2.2,3.5-2.2c14,0,28-1,41.9,0.6c21.4,4.2,42.9,7.7,64.4,11.7c33,6.1,66,11.9,99,17.9c27.5,5,55,10,82.6,14.9
		c22.2,3.9,44.4,8,66.5,11.9c2.2,0.4,4.5,0.7,5.6,3V545.9z"/>
	<path class="st6" d="M0.8,94.5c8.6-2,17.3-3.9,25.8-6c1.7-0.4,3.7-0.1,5.1-1.4c1-1.1,2.5-1.4,3.8-1.3c4.5,0.4,6.8-2.2,8.7-5.7
		c3.7-6.9,9.1-12.1,16.2-15.5c0.5-0.3,1-0.5,1.6-0.7c0.3-0.1,0.7-0.2,1-0.3c0.7-0.1,1.3-0.4,2-0.5c0.3,0,0.6,0.2,0.9,0.4
		c3.2-1,6.4-1.8,9.8-1.6c5.5,0.3,11-0.9,16.5-0.1c1.6,0.2,3.3,0.4,4.9,0.9c7.5,2.4,15,4.7,21.8,8.9c2.6,1.6,4.7,3.8,7.5,5.2
		c1,0.5,1.9,1,3.1,1c0.2,0,0.3,0,0.5-0.1c0.3-0.1,0.7-0.1,1,0c0.5,0.1,1,0.2,1.5,0.5c0.5,0.2,1,0.5,1.4,0.7c2,0.8,2.8-0.6,3.5-2
		c1.9-3.8,4.9-6.3,8.6-8.1c0.5-0.3,1.1-0.5,1.6-0.6c0.4,0,0.8,0.1,1.1,0.3c9.7-2.8,19.2-1.7,28.4,2.2c5.4,2.3,7.6,6.2,6.9,12.2
		c1.4,1.5,0.7,3.1,0.3,4.7c-0.3,1.2-0.9,2.3-1.3,3.5c-0.8,2.4-2.9,4.5-2.9,6.8c0,2.9,4.4,1.8,5.4,4.3c0.9,1,2,1.5,3.3,1.5
		c4.9,0,8.5,3,12.4,5.4c2.7,1.6,2,4.6,2.7,7.1c0,0.2,0,0.4,0,0.7c0,0.4,0,0.9,0,1.3c-0.9,2.7-2.9,4.2-5.2,5.6
		c-4.1,1.9-8.4,2.6-13,2.6c-59.1,0-118.3,0-177.4,0c-2.6,0-5.4,0.4-7.5-1.7V94.5z"/>
	<path class="st4" d="M686.4,441.2c-14.6-1.3-29.3-0.3-44-0.6c-0.7,0-1.4,0.1-1.9,0.6c-4.6-1.1-9.4-0.6-14-0.6
		c-4.3-0.1-8.6-0.1-12.9-0.1c-0.3-3.4,2.3-4.5,4.7-5.6c5-2.2,10.2-3.6,15.6-4.4c6.5-0.9,12.7-2.8,18.7-5.7
		c10.2-4.8,20.7-8.9,31.3-12.6c11.4-4.1,23.4-6.9,35.8-7.5c9.8-0.5,19.7-2,29.5-1.5c4.2,0.2,8.7-0.2,12.5,2.3
		c3.4,1.5,7.1,0.8,10.6,1.6c5.5,1.1,11.2,1.4,16.8,2c5,0.6,10.1,1.4,15.1,2.4c6.8,1.3,13.5,2.6,20.3,3.9c2.5,0.5,4.9-0.1,7.4-0.6
		c7.6,2.8,15.5,4,23.4,5.8c12.9,3,25.7,6.3,38.7,8.7c6.2,1.1,12.3,2.6,18.6,2.3c7.3-0.4,14.4,1.2,21.6,1.6c10.6,0.6,21-2,31.5-2.7
		c11.6-0.9,22.8-3.4,33.9-6.5c1.5-0.4,3-0.9,4.5-0.1v16.7c-2.2,2.1-4.9,1.7-7.5,1.7c-42,0-84.1,0-126.1,0c-41.3,0-82.7,0.1-124-0.1
		c-8.5,0-17-0.7-25.4-0.1c-10.4,0.2-20.9,0.5-31.2-0.9C688.6,441,687.5,440.9,686.4,441.2"/>
	<path class="st3" d="M0.8,440.6c102.4,0,204.8,0,307.3,0c2.1,0,4.2,0,6.3,0c-0.4,2.2-2.3,2.1-3.9,2.4c-10.7,1.7-21.6,2.6-32.3,4.1
		c-17.2,2.3-34.5,4.1-51.8,6.2c-16,2-32.1,3.7-48.1,5.7c-16,2-32.1,3.8-48.1,5.8c-16.7,2.1-33.4,3.9-50.2,6
		c-15.7,1.9-31.5,3.7-47.2,5.8c-8.4,1.2-16.9,1.7-25.3,3c-2.3,0.4-4.8,0.4-6.7-1.4V440.6z"/>
	<path class="st5" d="M1004,423.9c-6.9,2.6-14.1,4.2-21.2,5.8c-7.4,1.6-14.9,1.9-22.3,2.7c-4.4,0.5-8.7,1.6-13.2,1.9
		c-7.4,0.5-14.7,0.7-22.1-0.4c-4-0.6-8-0.6-12.1-0.6c-7.3,0.1-14.4-1.2-21.4-3.1c-4.3-1.1-8.7-1.8-13.1-2.4
		c-6.1-0.9-11.8-3-17.8-4.4c-4.2-1-8.4-2-12.6-2.6c-5.1-0.7-9.9-2.7-14.9-3.8c-0.8-0.2-2.5-0.4-1.4-2.1c2.9-1.2,5.9-2.4,8.7-3.8
		c6.1-3,12.6-5.1,19.1-7.1c10.5-3.3,21-6.2,31.6-8.8c4.7-1.1,9.7-1.3,14.5-1.4c11.3-0.1,22.5-0.1,33.8,0.1
		c10.8,0.2,21.6,1.3,32.4,2.3c4.5,0.4,8.6,2.1,13,3.1c3.8,0.8,7.6,1.7,11.5,2.2c2.7,0.3,5.1,1.4,7.5,2.4V423.9z"/>
	<path class="st7" d="M720.6,440.6c30.1,0,60.1,0,90.2,0c64.4,0,128.8,0,193.3,0v35.1c-1.4,1.3-3.1,1-4.8,0.8
		c-32.6-4-65.2-8-97.8-11.9c-28.5-3.4-56.9-7-85.4-10.5c-25.3-3.1-50.6-6.1-75.8-9.2c-5.1-0.6-10.2-1.3-15.3-2
		C723.2,442.8,721.1,443.1,720.6,440.6"/>
	<path class="st1" d="M720.6,440.6c3.3,1.4,6.8,1.1,10.2,1.6c9.9,1.4,19.9,1.9,29.7,3.6c9.6,1.6,19.3,2.3,28.9,3.7
		c8.5,1.2,17,2.3,25.6,2.9c4.6,0.4,9.1,1.2,13.6,1.8c4,0.5,8,0.9,12,1.4c7.4,0.9,14.9,1.6,22.3,2.8c4,0.6,8,1,12,1.3
		c5.7,0.4,11.2,1.8,16.9,2.2c6.4,0.4,12.6,1.8,19,2.2c4.8,0.3,9.7,0.9,14.4,1.8c4,0.8,8,0.7,12,1.3c7.9,1.3,16,1.8,23.9,3.2
		c2.3,0.4,4.7,0.4,7.1,0.6c6,0.5,11.8,1.6,17.7,2.2c6.1,0.6,12.1,1.3,18.1,2.5v23.4c-5.9-2.2-12.2-2.7-18.3-3.8
		c-9-1.6-18-3.4-27.1-4.9c-15.6-2.6-31.2-5.2-46.8-8.2c-10.8-2.1-21.6-4-32.4-6c-13.9-2.6-27.9-4.9-41.8-7.4
		c-15.4-2.8-30.8-6-46.3-8.5c-10.8-1.8-21.6-4.1-32.4-5.7c-10.6-1.6-21-3.9-31.6-5.8c-10.8-2-21.6-3.8-32.4-5.7
		c-2.9-0.5-5.7-1.2-8.6-1.8c1.4-1,2.9-0.6,4.4-0.6C700.8,440.6,710.7,440.6,720.6,440.6"/>
	<path class="st1" d="M0.8,478.2c4.9,0.3,9.7-0.4,14.5-1.3c3.7-0.6,7.4-1,11.2-1.2c6.4-0.3,12.6-1.7,19-2.3c8.4-0.7,16.8-2,25.2-2.9
		c6.9-0.8,13.8-1.5,20.6-2.6c3.7-0.6,7.4-1.3,11.1-1.4c5.9-0.2,11.5-1.7,17.3-2.1c5.8-0.4,11.5-1.4,17.3-2.2
		c5.1-0.6,10.2-0.9,15.3-1.9c4.4-0.8,8.8-0.7,13.2-1.4c7.9-1.3,16-1.8,23.9-3.2c3.5-0.6,7.2-1,10.8-1.1c5.7-0.2,11.2-1.7,16.9-2.1
		c6.3-0.5,12.7-1.4,19-2.1c4.8-0.6,9.7-1,14.4-1.9c4-0.8,8-0.7,12-1.3c8.4-1.2,16.8-2.1,25.1-3.3c5.6-0.8,11.3-1.1,16.9-1.9
		c3.3-0.5,6.6-0.3,9.8-1.6c9.9,0,19.9,0,29.8,0c1.5,0,3.1-0.3,4.4,0.6c-0.6,1.2-1.7,1.4-2.8,1.8c-0.7,0.2-1.3,0.4-2,0.6
		c-17.2,3-34.4,5.6-51.5,8.4c-54.6,8.8-109.2,17.5-163.7,26.4c-36,5.8-72.1,11.5-108,17.5c-4.1,0.7-8.3,1.2-12.4,2
		c-2.1,0.4-4.4,1.1-6.4-0.4l-0.4,0l-0.4,0.1V478.2z"/>
	<path class="st8" d="M0.8,124.6c4,0,8.1,0.1,12.1,0.1c56.4,0,112.8,0,169.2,0.1c6.1,0,11.9-0.6,17.5-2.8c2.7,1.2,1.7,3.2,0.8,4.7
		c-1.9,3.4-5,5.6-8.8,6.6c-4.6,1.2-9.2,2.1-14,2.1c-55.8,0-111.7,0-167.5,0c-3.3,0-6.8,0.3-9.4-2.5V124.6z"/>
	<path class="st9" d="M0.8,132.9c8.3,1.4,16.6,0.8,25,0.8c50.8,0.1,101.7,0,152.5,0.1c4.7,0,9.1-1.1,13.5-2.1c3.4-0.7,5.8-3.2,7.7-6
		c0.8-1.1,1.6-2.4,0.1-3.7c1-1.8,3.3-2.6,3.5-4.9c0.2-0.3,0.5-0.6,0.7-0.9c0,0,0-0.1,0-0.1c2.6,2.7,2,6,1.3,9.1
		c-0.9,4-3.1,7.4-6.8,9.6c-4.3,2.5-8.7,4.1-13.8,4.1c-61.3,0-122.5,0-183.8,0V132.9z"/>
	<path class="st6" d="M1004,1.7c-1.3,0-2.5,0-3.8,0c-331.9,0-663.8,0-995.7,0c-1.3,0-2.5,0-3.8,0C1,1.4,0.4,0.8,1.3,0.8
		c1.1,0,2.2,0,3.3,0c331.9,0,663.8,0,995.7,0.1C1001.5,0.9,1003.1-0.1,1004,1.7"/>
	<path class="st10" d="M0.8,611.1c0.3,0,0.6,0,0.9,0.1c1.5,1.5,1.6,3.5,1.6,5.5c0,27.3,0,54.6,0,81.9c0,1.9-0.5,3.6-1,5.3
		c-0.3,0.7-0.9,0.8-1.6,0.9V611.1z"/>
	<path class="st11" d="M442.8,439.2c-11.7-6.8-24.1-12.3-36.9-17c-13.3-4.9-26.8-9-40.5-12.5c-8-2-16-3.8-24-5.7
		c-6.6-1.5-13.3-2.7-20-3.8c-8.1-1.4-16.2-2.8-24.3-3.9c-8.3-1.1-16.6-2.1-24.9-3.2c-14.4-1.8-28.9-2.1-43.2-3.8
		c-1.5-0.2-3.1-0.1-4.7-0.2c-10.9-0.3-21.9-0.5-32.8-0.8c-1.4,0-3,0.3-3.2-1.8c6.9-22.9,13.8-45.8,20.7-68.7
		c2.1-6.9,4.2-13.9,6.3-20.8c1.1-3.7,2.5-7.4,2.1-11.4c-0.2-1.8,0.7-2.9,2.1-3.8c2.1-1.4,4.2-2.7,6.6-3.6c4.5-1.6,8.5-4.5,13-6.1
		c1.6-0.6,2.2-2.1,2.9-3.5c3.2-6.3,8.9-10.7,12.8-16.5c1.3-1.9,3.8-2.4,6.1-2.2c13.3,0.7,26.7,1.4,40,2.3c14.6,1,29.2,1.2,43.9,1.8
		c1.3,0,2.6,0,3.8,0.2c5.9,1,11.8,1.6,17.8,1.3c2.1-0.1,4.3,0.1,6.4,0.1c1.7,0.1,2.6,1,3,2.5c0.5,1.6,0.2,3-1.2,4.1
		c-3,2.4-3.1,2.5-1,5.5c4.1,5.7,7,12.1,10.8,17.9c0.3,0.5,0.6,0.9,0.8,1.5c4.7,13.4,8.9,26.9,11.5,40.9c2.5,13.4,3.4,27,4.5,40.5
		c0.4,4.7,0.4,9.4,0.5,14.2c0.2,6.5,1.8,12.6,3.8,18.7c1.2,3.5,3.2,6.1,6.4,8c6.6,2.3,12.1,6.5,18.1,9.9
		c11.6,6.6,22.5,14.4,35.2,19.1c0.9,0.3,1.8,0.8,2.2,1.8c-1.1,0.8-2.4,0.6-3.7,0.6c-6.7,0-13.5-0.1-20.2-0.2
		C443.6,440.1,443.4,439.5,442.8,439.2"/>
	<path class="st11" d="M761.7,405.5c-2.9,0.2-5.8-0.2-8.7-0.6c-4.8-0.7-9.8-0.7-14.5-0.1c-5.4,0.8-10.8,0.9-16.2,1.2
		c-5.9,0.3-11.5,1.5-17.3,2.2c-3.8,0.5-7.5,2.1-11.3,2.8c-7.8,1.3-14.7,4.8-21.8,7.8c-3.4,1.4-6.7,3-10.5,3.8c-3.8,0.8-7.4,3-11,4.9
		c-5.4,2.9-11.3,3.7-17.1,4.8c-5.2,0.9-10.3,2.3-15.2,4.2c-2,0.8-3.3,2.4-4.5,4.1c-9.8,0-19.6,0.1-29.4,0.1c-1.6,0-3.3,0.2-4.9,0.3
		c0,0,0-0.3,0-0.3c-0.7-3.5,1.4-5.9,3.5-8c8.3-8.1,14.9-17.4,20.2-27.7c1.2-0.2,1.9-1,2.4-2.1c2.5-5,5-9.9,4.8-15.8
		c-0.1-2.9,1.6-5,3.5-6.9c2.9-2.9,6-5.7,9.9-7.5c1.8-0.8,3.6-1.7,4.9-3.1c2.9-3,6.6-4.5,10.2-6.2c8.2-3.8,9.5-3.7,8.7-14.5
		c-0.2-2.4-0.3-4.7-0.3-7.1c0.1-10.9-1.6-21.6-2.9-32.4c-0.2-1.3,0.2-2.1,1-3c6.4-7.3,10.7-15.8,14.9-24.5c2.8-5.9,7.3-9.5,14.3-9.9
		c4.9-0.3,9.7-0.4,14.4,1.5c1.1,0.4,2.2,0.4,3.3,0.5c2.4,0.2,4.6,1,6.8,1.9c4.9,2.1,7.8,5.2,7,11.2c-0.6,4.5,1,9.1,1,13.7
		c0.1,9.6,1.9,19.1,3,28.6c0.6,5.4,1.2,10.8,2.6,16c0.3,1.2,0.6,2.6,1.7,3.2c2.9,1.7,4.6,4.4,6.5,6.9c8.7,11.6,18.7,22.1,27.9,33.2
		c3.6,4.3,7.3,8.4,10.9,12.6C760.5,402.7,761.8,403.7,761.7,405.5"/>
	<path class="st12" d="M831.5,204.9c-33.1,0-60.1-26.9-60.1-60.1c0-33.1,26.9-60.1,60.1-60.1c33.1,0,60.1,26.9,60.1,60.1
		C891.6,177.9,864.6,204.9,831.5,204.9"/>
	<path class="st13" d="M831.5,92.3c29,0,52.5,23.5,52.5,52.5c0,29-23.5,52.5-52.5,52.5c-29,0-52.5-23.5-52.5-52.5
		C779,115.8,802.5,92.3,831.5,92.3 M831.5,77.2c-18.1,0-35,7-47.8,19.8C771,109.8,764,126.7,764,144.8c0,18.1,7,35,19.8,47.8
		c12.8,12.8,29.7,19.8,47.8,19.8c18.1,0,35-7,47.8-19.8c12.8-12.8,19.8-29.7,19.8-47.8c0-18.1-7-35-19.8-47.8
		C866.6,84.3,849.6,77.2,831.5,77.2"/>
	<path class="st6" d="M615.3,68.5c6.4-1.3,12.7-2.6,19.1-3.7c2.6-0.4,5.3,0.4,7.7-1.2c0.4-0.6,1-1.1,1.7-1.1
		c5.9-0.1,8.4-3.8,10.4-8.8c2.2-5.3,7-8.4,11.9-11c2.3-1.2,4.6-2.4,7.1-3.4c0.3-0.2,0.7-0.3,1.1-0.3c0.3-0.1,0.7-0.2,1-0.4
		c0.7-0.2,1.3-0.6,1.9-0.7c0.6-0.1,1.3-0.1,1.9-0.3c0.6-0.1,1.2-0.2,1.8-0.4c0.3-0.1,0.6-0.2,0.9-0.2c0.3,0,0.6,0,0.9,0
		c0.1,0,0.3,0,0.4,0c3.5,0.3,6.9-0.8,10.4-0.9c10.5-0.4,20.3,1.8,29.9,5.9c8.1,3.5,15.8,7.4,22.7,13c2.9,2.4,3.1,2.2,6,0.1
		c6.2-4.6,13.4-7.1,20.6-9.6c1.3-0.5,2.7-0.7,4-1.1c2.9-0.9,5.8-1.6,9-0.9c2.5,0.6,5.3,0.3,7.9,0.2c5.2-0.2,10.4,0.6,15.2,2.1
		c7.9,2.5,14,7.3,16,15.9c0.8,3.3-0.5,6.3-1,9.4c-0.6,3.4-0.5,3.8,3,4.4c5.3,0.9,10.6,2.1,15.7,4c5.9,2.2,8.8,6.4,9.2,12.5
		c-0.1,2.2-1.9,2.9-3.3,4.1c-0.7,0.5-1.4,1.1-2,1.8c-0.7,0.7-1.4,1.3-2.3,1.7c-0.4,0.2-0.8,0.3-1.2,0.4c-1.1,0.3-2.2,0.8-3.4,1
		c-2.2,0.4-4.4,0.3-6.7,0.3c-73,0-146,0-219,0.1c-5.7,0-11.1-1.1-16.4-2.9c-3-1-5.5-2.6-7.2-5.4c-0.3-0.4-0.5-0.9-0.7-1.4
		c-0.2-0.5-0.3-0.9-0.4-1.4c-0.1-2.5-0.5-5.1-0.1-7.7c1.6-5.2,5.4-8.2,10.1-10.3c0.5-0.3,1-0.6,1.5-0.8c0.5-0.2,1-0.4,1.5-0.6
		c0.5-0.1,0.9-0.3,1.4-0.4c0.6-0.1,1.2-0.3,1.8-0.4c0.4-0.1,0.9-0.3,1.3-0.4c0.3-0.1,0.6-0.3,0.9-0.4c0.4-0.2,0.9-0.4,1.4-0.5
		c0.5-0.1,1-0.1,1.6-0.1c1,0.1,1.7-0.5,2.6-0.7C614,67.7,614.7,67.8,615.3,68.5"/>
	<path class="st5" d="M603.2,404.9c0.8,1.2,0.4,2.2-0.3,3.4c-5.2,9.1-11.1,17.8-19,24.9c-2.3,2-2.9,5-4.5,7.4
		c-3.4,0.1-6.8,0.2-10.2,0.3c-4.5,2.4-9.3,0.9-14,1c-1.6,0.4-3.2-0.1-4.9,0.3c-1.6,0.2-3.2-0.6-4.8-0.2c-1.2,0-2.4-0.2-3.6,0.1
		c-8.8,0.1-17.7,0.4-26.5-0.2c-1,0-2.1,0-3.1,0c-9.9,0.6-19.9,0.2-29.9,0.2c-1.2-0.2-2.4-0.5-3.6-0.2c-1.4-0.2-2.8,0.3-4.2,0.2
		c-2.4-0.7-5.2,0.7-7.4-1.3c-0.5,0-0.9,0-1.4-0.1c-5.6-1.4-10.7-3.9-15.6-6.8c-12-7.1-24-14.5-36-21.7c-1.1-0.7-2-1.5-2.8-2.5
		c0.8-1,1.6-1.9,2.4-2.9c3.4-4.6,8.2-6.4,13.7-6.6c1.7-0.1,3.3-0.3,4.9-0.8c3.2-1,6.4-1.7,9.8-1.1c1.3,0.3,2.8,0.3,4.2,0.1
		c7.5-0.7,14.7,1.1,21.7,3.3c4.1,1.3,8.4,2.1,12.5,3.3c3.9,1.1,7.5,2.9,11.2,4.5c5.7,2.5,11.3,5.1,17.6,6.1c3,0.5,5.8,1.9,8.7,2.9
		c1.2,0.4,2.4,0.7,3.6,1.1c6.4,2.2,12.5,0.4,18.7-1c6.4-1.5,11.6-5.2,16.9-8.8c4.7-3.2,9.7-5.3,15.1-6.7c3.5-0.9,6.8-2.4,10.6-2
		c2.8,0.2,5.5,0.3,8.2,1.2c2.2,0.8,4.6,1,6.9,1.4c0.6,0.3,1.4,0.1,2,0.4C601.2,404.6,602.2,404.7,603.2,404.9"/>
	<path class="st9" d="M610.3,69.3l-1.7,0.1c-0.3,0.2-0.6,0.5-0.9,0.7c-0.3,0.1-0.5,0.1-0.8,0.1c-0.3,0.2-0.6,0.5-0.9,0.6
		c-0.8,0.1-1.6,0.1-2.4,0.2c-0.3,0.2-0.6,0.4-0.9,0.7c-0.5,0.1-1.1,0.1-1.6,0.2c-0.3,0.2-0.6,0.5-0.9,0.8c-4.3,2.1-7.8,5-10.1,9.2
		c-1.7,2.2-2.9,4.7-3.6,7.4c-1.6,6.2,0.9,12.2,6.7,15.1c3.6,1.8,7.4,3,11.6,3c76.7,0,153.4,0,230,0c7.7,0,13-5,13-12.1
		c1.3-1.2,2.7-2.3,4-3.5c3.1,2.8,2.2,6.2,0.9,9.2c-3.4,8.1-10.2,11.7-18.6,12.7c-0.8,0.1-1.7,0-2.5,0c-74.2,0-148.4,0-222.6,0
		c-5.6,0-11.1-1.2-16.3-3.1c-7.3-2.7-11.5-10-11.7-16.7c-0.2-9.6,4.3-16.1,12.3-20.6c6.3-3.5,13.1-5.2,20.1-6.3
		c0.9-0.1,2.5-0.6,1.9,1.5c-0.8,0-1.7,0.1-2.5,0.1C612.1,69.3,611,68.7,610.3,69.3"/>
	<path class="st14" d="M682.2,37.5c-0.3,0.1-0.6,0.1-0.8,0.1c-0.4,0.5-1.2,0.3-1.7,0.7l-2.5,0.2c-0.5,0.5-1.2,0.3-1.7,0.8l0,0
		c-0.2,0.3-0.5,0.5-0.8,0.7c-5.1,1.9-9.8,4.5-14.1,7.7c-2.8,2.1-5.4,4.9-6.2,8.5c-1.2,5.7-5.2,7.2-10.2,7.3c-0.7,0-1.4,0-2.1,0
		c-0.7-0.1-1.5,0.1-1.9-0.5c-0.5-0.8,0.3-1.2,0.9-1.5c3.1-1.6,5.1-4.2,7-7c3.3-5,7.8-8.5,13-11.4c5.6-3.1,11.5-5.6,17.8-6.8
		c1.5-0.3,3-0.8,4.3,0.5c0,0,0,0,0,0C682.8,37.1,682.5,37.3,682.2,37.5"/>
	<path class="st15" d="M61.9,65c-7.6,3.8-13.4,9.3-17.2,17c-1.8,3.5-4.5,5.5-8.7,5c-1.4-0.2-2.8,0-4.2,0c-0.3-0.3-0.5-0.9-0.1-1.1
		c5.2-2.2,7.7-7.1,11.3-10.9c5.8-6,12.2-10.8,20.5-12.8c1.3-0.3,2.2-0.3,2.5,1.2c-0.3,0.1-0.5,0.1-0.8,0.1c-0.4,0.5-1.2,0.3-1.7,0.8
		c-0.3,0-0.5,0.1-0.8,0.1C62.5,64.6,62.2,64.9,61.9,65"/>
	<path class="st16" d="M185.5,102.1c-0.9-0.2-1.9-0.3-2.8-0.6c-5.5-1.7-5.4-1.6-2.8-6.6c1.9-3.8,3.9-7.7,4.2-12.1
		c1.4-0.7,2.2,0,2.3,1.3c0.1,2.9,0.3,5.9-0.1,8.8c-0.4,2.6-1,5.2,0,7.8C186.5,101.2,185.9,101.7,185.5,102.1"/>
	<path class="st17" d="M132,78.6c-0.5-0.1-1.1-0.1-1.6-0.2c-0.3-0.2-0.6-0.4-0.9-0.7c0,0,0,0,0,0c0.1-0.7,0.4-1.3,1-1.7
		c3.7-2.4,7.3-4.8,11-7.2c1.9-1.2,4-1.9,6.2-2c1.2-0.1,1.4,0.6,1,1.6c-0.3,0.1-0.5,0.1-0.8,0.1c-0.3,0.3-0.6,0.5-0.9,0.7
		c-0.6,0.4-1.1,1-1.7,1.2c-3.9,1.3-5.7,4.5-7.4,7.9c-1.7,3.2-1.7,3.2-5.1,1C132.6,79.1,132.3,78.9,132,78.6"/>
	<path class="st18" d="M600,404.4c-0.7,0.3-1.4,0.3-2-0.4C598.8,403.8,599.5,403.8,600,404.4"/>
	<path class="st2" d="M4,702.8c-1-1.2-0.7-2.6-0.7-4c0-29.6,0-59.1,0-88.7c7.6-3.1,15.1-6.1,22.7-9.2c13.6-5.6,27.2-11.2,40.8-16.7
		c9.2-3.8,18.6-7.4,27.8-11.1c10.6-4.4,21.2-8.9,31.9-13.2c10.5-4.3,21.2-8.2,31.6-12.7c8.3-3.5,16.6-7,25-10.3
		c10.6-4.2,21-8.7,31.7-12.8c8.3-3.1,16.4-6.8,24.6-10.2c9.1-3.7,18.3-7.3,27.4-11c10.6-4.4,21.2-8.9,31.9-13.2
		c8.5-3.5,17-6.7,25.5-10.1c10.5-4.3,21-8.7,31.6-13c6.7-2.7,13.4-5.3,20.1-8c8.9-3.6,17.7-7.3,26.5-11c5.6-2.3,11.1-5.5,17-6.6
		c7.4-1.4,24.7-0.7,23.1,0.3c13-7.7-26,15.6-39,23.4c-16.6,9.9-33.2,19.7-49.8,29.6c-11.9,7.1-23.8,14.4-35.7,21.5
		c-11.3,6.8-22.7,13.5-34,20.3c-12.4,7.4-24.8,14.8-37.2,22.2c-13.7,8.2-27.4,16.4-41.2,24.6c-10.9,6.5-21.7,13-32.5,19.5
		c-16.6,9.9-33.2,19.7-49.8,29.6c-11.9,7.1-23.8,14.3-35.7,21.4c-19.2,11.5-38.4,22.9-57.6,34.4C22.4,692,15,696.5,7.6,701
		c-0.8,0.5-1.8,0.8-2.7,1.1c-0.3,0.2-0.6,0.4-0.9,0.6L4,702.8z"/>
	<path class="st2" d="M467.1,440.8c2.7-0.1,5.4-0.5,8,0.3c0.2,1.6-0.9,2.5-2,3.4c-16.7,15.3-33.6,30.5-50.4,45.8
		c-16.4,14.9-32.8,29.7-49.2,44.6c-16.2,14.7-32.4,29.3-48.7,43.9c-12.5,11.3-24.9,22.6-37.4,33.9c-13.2,11.9-26.4,23.9-39.6,35.9
		c-22.9,20.7-45.8,41.4-68.7,62.3c-9.9,9-19.9,17.9-29.8,26.8c-1.2,1.1-2.5,2.2-4,3c-0.7,0.4-1.5,0.4-2.2,0.6
		c-15.2,0-30.4,0.1-45.5,0.1c-1.7,0-3.3-0.1-5-0.1c6.5-6.1,13.7-11.4,20.6-16.9c28-22.5,56-44.9,84-67.3c24-19.2,48.1-38.3,72-57.5
		c21.8-17.5,43.6-35,65.4-52.5c17.1-13.7,34.4-27.3,51.5-41.1c21.8-17.5,43.6-35,65.4-52.5C456.8,449.3,462.2,445.3,467.1,440.8"/>
	<path class="st10" d="M2.5,703.8c0.3-0.2,0.6-0.4,0.9-0.6C3.1,703.4,2.8,703.6,2.5,703.8"/>
	<path class="st1" d="M554.5,440.9c4.9-0.3,9.7-0.3,14.6,0c5.6,5.1,11.7,9.5,17.6,14.1c22.2,17.4,44.5,34.7,66.8,52.1
		c26.1,20.4,52.1,40.8,78.2,61.2c23.9,18.7,47.8,37.3,71.7,55.9c21.8,17,43.6,34.1,65.4,51.1c22.2,17.4,44.4,34.8,66.7,52.2
		c5.8,4.5,11.7,9,17.5,13.5c-3.4,0.8-6.9,0.4-10.4,0.4c-15.4,0.2-30.8,0.1-46.3,0.3c-11.2,0.1-22.5,0.3-33.7,0.5
		c-2,0-3.9-0.1-5.4-1.6c-2.2-0.9-4-2.4-5.7-4.1c-34-34.1-68.4-67.8-102.7-101.6c-26.5-26.2-52.8-52.7-79.6-78.7
		c-24-23.2-47.3-47.2-71.2-70.5c-13.6-13.2-27.1-26.4-40.4-39.8C556.1,444.6,554,443.4,554.5,440.9"/>
	<path class="st2" d="M345.3,441.6c1.1-0.1,2.2-0.3,3.4-0.4c10.6-1.1,21.1-0.4,31.7-0.5c-0.4,2-2.2,2-3.6,2.2
		c-13.2,2.6-26.2,5.9-39.3,8.9c-5.7,1.3-11.4,2.6-17.1,3.8c-7.9,1.7-15.7,3.7-23.5,5.4c-9.2,2.1-18.4,4.1-27.6,6.2
		c-4.7,1.1-9.4,2.3-14.2,3.4c-12.7,2.9-25.5,5.5-38.2,8.5c-9.8,2.4-19.7,4.6-29.6,6.9c-9.7,2.2-19.6,4.1-29.2,6.6
		c-5.4,1.4-10.8,2.5-16.2,3.9c-9,2.3-18.2,3.7-27.2,6.1c-8.2,2.2-16.5,3.8-24.7,5.8c-8.6,2.1-17.4,3.5-25.9,5.9
		c-7.4,2-14.8,3.6-22.2,5.3c-5.1,1.2-10.2,2.6-15.4,3.5c-7.1,1.3-14.1,3.1-21.1,4.7c-3.4,0.7-3.7,0.5-3.7-2.8
		c-0.1-9.2,0-18.4,0-27.6c6.6-1.1,13.2-2.2,19.7-3.3c11.1-1.9,22.2-3.8,33.3-5.6c8-1.3,15.9-2.4,23.9-3.6c6.5-1,12.9-2.1,19.3-3.2
		c7.6-1.2,15.1-2.4,22.7-3.6c6.6-1,13.2-2.1,19.8-3.2c8.1-1.3,16.2-2.7,24.3-4c8.4-1.4,16.7-2.7,25.1-4.1c11.7-1.8,23.4-3.4,35-5.5
		c10.9-2,22-3.5,32.9-5.5c7.4-1.3,14.8-2.4,22.2-3.5c7.1-1.1,14.3-2.3,21.4-3.5c8.5-1.4,17-2.7,25.5-4c5.9-0.9,11.8-1.9,17.7-2.9
		C344.8,441.8,345,441.7,345.3,441.6"/>
	<path class="st19" d="M63.5,64.3c0.4-0.6,1-0.8,1.7-0.8C64.8,64.1,64.2,64.3,63.5,64.3"/>
	<path class="st19" d="M203.9,116.2c-0.2,0.3-0.5,0.6-0.7,0.9C203.5,116.7,203.7,116.4,203.9,116.2"/>
	<path class="st19" d="M132,78.6c0.3,0.2,0.6,0.5,0.9,0.7C132.6,79.1,132.3,78.9,132,78.6"/>
	<path class="st19" d="M129.6,77.8c0.3,0.2,0.6,0.4,0.9,0.7C130.1,78.2,129.8,78,129.6,77.8"/>
	<path class="st19" d="M147.1,69.3c0.3-0.2,0.6-0.5,0.9-0.7C147.7,68.8,147.4,69.1,147.1,69.3"/>
	<path class="st19" d="M61.9,65c0.3-0.2,0.6-0.4,0.8-0.7C62.4,64.6,62.1,64.8,61.9,65"/>
	<path class="st4" d="M345.3,441.6c-0.2,0.3-0.4,0.4-0.7,0.3C344.7,441.7,345,441.6,345.3,441.6"/>
	<path class="st20" d="M514.8,440.8c9.3-0.3,18.6-0.3,27.9,0c3.1,1.8,5.2,4.6,7.4,7.3c30.5,37.1,61,74.2,91.5,111.3
		c19.3,23.4,38.5,46.9,57.8,70.4c28.1,34.2,56.2,68.5,84.3,102.6c2.2,2.6,5.6,4.7,5.2,9c-27.8,0-55.5,0-83.3,0.1
		c-1.6-0.6-3.3-0.3-5-0.3c-64.8,0-129.6,0-194.4,0c-1.6,0-3.3,0.5-4.9-0.5c-1.3-6-0.8-12.1-0.4-18.1c0.4-5.4,0.6-10.7,0.6-16.1
		c0-2.7,0.3-5.2,1.4-7.7c2.8-3.8,6.8-5.8,11.1-6.8c8.9-2.1,17.9-3.6,27.1-4.4c11.9-1,23.9-1.1,35.3-5.4c8.6-3.3,16-7.8,20.4-16.2
		c1.4-2.7,2.4-5.6,2.8-8.7c0.1-0.6,0.2-1.3,0.4-1.9c0.9-3.4,0.8-6.7,0.1-10.1c-0.2-0.6-0.3-1.2-0.3-1.8c0-1-0.3-2-0.6-2.9
		c-3-9.8-8.7-18-15.3-25.7c-4.1-4.8-8.4-9.3-11.9-14.6c-1.2-1.9-2.3-3.8-3-6c-0.1-0.4-0.2-0.9-0.2-1.3c-0.1-2.5,0-4.9,0-7.4
		c0.1-2.8,1.8-4.9,3.3-7.1c1.3-1.8,0.9-3-0.9-4c-8.1-4.4-15.7-9.5-23.8-13.9c-2.1-1.2-4.2-1.2-6.4-0.8c-8.6,1.5-17.2,1.4-25.7-0.4
		c-2.7-0.6-5.6-0.9-6.7-4.2c-1-4.2,0.3-8.3,0.3-12.4c0-16.6,1.2-33.3,1.9-49.9c0.7-16,0.8-32.1,2.6-48.1
		C513.8,443.3,513.6,441.8,514.8,440.8"/>
	<path class="st2" d="M554.5,440.9c8.1,8.1,16.1,16.2,24.2,24.2c13.2,13.1,26.5,26.2,39.8,39.3c16.9,16.7,33.9,33.4,50.8,50.1
		c18.3,18.1,36.5,36.3,54.8,54.4c24.8,24.5,49.7,49,74.6,73.6c19,18.8,38,37.6,56.9,56.4c0.6,0.6,1.1,1.3,1.6,1.9
		c-12.9,0-25.8,0.1-38.7,0.1c-2.2,0-4.4,0.5-6.6-0.6c-2.2,0.3-3.1-1.5-4.3-2.8c-17-19.3-33.9-38.7-50.9-58.1
		c-14.6-16.6-29.2-33.3-43.7-50c-13.2-15.2-26.6-30.3-40-45.4c-10.3-11.7-20.4-23.5-30.7-35.2c-12.7-14.4-25.4-28.8-37.9-43.3
		c-11.5-13.4-23.3-26.6-35-39.8c-5.2-5.8-10.3-11.7-15.5-17.5c-1.8-2-4.2-3.8-4.2-6.9C551.2,440.4,552.9,440.7,554.5,440.9"/>
	<path class="st21" d="M501.7,739.9c0.9,1.2,2.2,1.1,3.4,1.1c2.4,0,4.7,0,7.1,0c62.7,0,125.4,0,188.1,0c1.8,0,3.6-0.4,5.4,0.4
		c-1.6,0.5-3.3,0.3-5,0.3c-64.5,0-129,0-193.5,0c-64.9,0-129.8,0-194.8,0c-46.9,0-93.9,0-140.8-0.1c-7.9,0-15.9,0-23.8,0
		c-1.5,0-3.1,0.2-4.6-0.3c0.5-0.2,1-0.4,1.4-0.6c2.3-1.5,4.8-1.3,7.3-1.2c2.8,0.1,5-0.8,7.1-2.8c24.2-22.4,48.3-45,72.5-67.5
		c18.5-17.2,36.9-34.3,55.4-51.5c18.1-16.9,36.2-33.9,54.4-50.7c18.2-17,36.5-33.9,54.8-50.9c13.8-12.8,27.5-25.6,41.2-38.5
		c12.6-11.8,25.2-23.5,38-35.1c0.8-0.8,1.8-1.4,2.8-1.7c1.1,0,2.2,0,3.3,0c0.3,2.8-1.9,4.2-3.6,5.8c-14.3,13.5-28.4,27.1-42.7,40.6
		c-14.2,13.4-28.2,26.9-42.3,40.3c-23.4,22.3-46.8,44.5-70.1,66.9c-20.5,19.7-41.1,39.3-61.6,58.9c-20.6,19.6-41.1,39.2-61.7,58.7
		c-9.4,8.9-18.8,17.6-28.1,27c2.5,0.5,4.6,0.2,6.6,0.2c97.9,0,195.8,0,293.8,0c5.3,0,11,1.3,15.1-3.7c1.5,2,3.5,2.1,5.9,2.1
		C495.7,737.6,499.2,737,501.7,739.9"/>
	<path class="st20" d="M549.7,441.2c10.9,12.5,21.8,24.9,32.7,37.4c22.1,25.2,44.2,50.4,66.3,75.6c21.4,24.4,42.7,48.8,64.1,73.2
		c25.8,29.4,51.5,58.8,77.3,88.2c7.2,8.3,14.5,16.5,21.8,24.7c0.2,1.3-0.8,1.1-1.5,1.1c-3.1,0-6.2,0-9.3,0c-2.8-0.8-4.7-2.9-6.5-5.1
		c-20.2-24.3-40.8-48.2-61.2-72.4c-17-20.2-34.1-40.4-51.3-60.5c-19.7-22.9-39.1-46-58.7-69.1c-19.5-22.9-39-45.8-58.4-68.8
		c-5.8-6.9-11.3-14.1-17.6-20.6c-1.1-1.1-2-2.3-1.5-4.1C547.2,440.5,548.5,440.6,549.7,441.2"/>
	<path class="st21" d="M545.8,440.8c7,8.3,13.9,16.6,20.9,24.9c33,38.9,66.1,77.8,99.1,116.8c27.7,32.7,55.4,65.3,83.2,98
		c16.5,19.4,33,38.8,49.4,58.2c0.8,0.9,1.7,1.8,2.6,2.7l-12.1,0c-2.9-5-6.9-9-10.5-13.4c-19.4-23.7-38.8-47.3-58.2-70.9
		c-26.1-31.8-52.2-63.6-78.4-95.3c-21.6-26.3-43.3-52.6-64.9-78.9c-11-13.3-21.9-26.6-32.9-39.9c-0.5-0.6-0.9-1.4-1.3-2.1
		C543.8,440.8,544.8,440.8,545.8,440.8"/>
	<path class="st22" d="M843.5,98.7l0.8-0.3c2,3.4-0.7,4.9-2.9,6.1c-3.1,1.7-6.5,2-10.1,2c-45.4-0.1-90.8,0-136.3,0
		c-28.7,0-57.4,0-86.1,0c-4.5,0-8.9-0.8-13.1-2c-4.1-1.2-7-4-8.6-7.9c-1-2.5-1.5-5.2,1.1-7.2c1-0.4,1.5,0,2,0.8l0,0
		c0.3,0.2,0.5,0.5,0.6,0.8c1.7,3.6,4.8,5,8.4,6.1c5.4,1.7,10.8,2.2,16.4,2.1c71.6-0.1,143.2,0,214.8,0c3.5,0,7,0,10.4,0.1
		C841.7,98.8,842.8,99.4,843.5,98.7"/>
	<path class="st23" d="M590.2,90.3c-0.3-0.3-0.6-0.5-0.8-0.8c-2.2-1.1-2.3,0.7-2.5,2c-0.4,2.9,0.4,5.5,2.1,7.8
		c0.2,0.3,0.4,0.6,0.5,1c0.1,0.1,0.2,0.3,0.3,0.4c0.2,0.3,0.5,0.5,0.8,0.8c0.1,0.1,0.3,0.2,0.4,0.3c0.3,0.2,0.7,0.3,1,0.5
		c2.9,2.1,6.3,3,9.9,3.2c0.6,0.3,1.1,0.6,1.8,0.6c2.9,0.1,5.8-0.1,8.6,0.1c0.9,0.2,1.8,0.1,2.6,0c72.1-0.1,144.1,0,216.2,0
		c3,0,5.8-0.3,8.6-1.3c3.8-1.3,6.1-3.7,6.2-7.9c0.4-0.7,1-1.3,1.8-1.6c2.2,0.6,1.7,2.3,1.3,3.7c-1.2,4.4-7.4,9.3-12.1,9.6
		c-1.1,0.1-2.2,0-3.3,0c-75.9,0-151.8,0-227.6,0.1c-4.2,0-8-1-11.8-2.4c-5.5-2.1-8.7-6.3-9.7-12.1c-0.8-4.2,2.4-10.8,5.7-12.4
		C590.2,84.7,590.2,87.5,590.2,90.3"/>
	<path class="st23" d="M601.9,106.2c-4.2,0.7-7.4-1.7-10.9-3.3c-0.3-0.3-0.6-0.6-0.8-0.8c-0.3-0.3-0.6-0.6-0.8-0.8
		c-0.3-0.3-0.5-0.6-0.8-0.8c-0.7-1.8-1.6-3.5-2.2-5.4c-0.9-3.1-0.3-5.9,2-8.6c1.2,0.9,0.9,2.1,1,3.1c-2.7,1.9-1.9,4.5-1.1,6.8
		c1.2,3.4,3.8,6,7.2,7c3.7,1.2,7.5,2.1,11.4,2.1c75.3,0,150.6,0,225.8,0c2.9,0,5.5-0.8,8.1-1.8c2.2-0.8,3.7-2.4,3.5-5.1
		c0.3-0.7,0.9-1.3,1.7-1.5c1.8,0.4,1.7,1.3,1,2.7c-2.7,5.2-7.5,6.7-12.8,7.3c-1.2,0.1-2.5,0-3.8,0l-216.8,0c-0.3,0.3-0.6,0.3-0.8,0
		c-3.3,0-6.7,0-10,0C602.5,106.7,602.2,106.5,601.9,106.2"/>
	<path class="st23" d="M843.5,98.7c-0.7,0.8-1.6,0.8-2.6,0.7C841.7,98.7,842.6,98.6,843.5,98.7"/>
	<path class="st19" d="M610.3,69.3c0.7-0.8,1.6-0.7,2.5-0.7C612.1,69.4,611.2,69.4,610.3,69.3"/>
	<path class="st19" d="M679.7,38.3c0.4-0.5,1-0.7,1.7-0.7C680.9,38.2,680.4,38.4,679.7,38.3"/>
	<path class="st19" d="M675.5,39.2c0.4-0.6,1-0.8,1.7-0.8C676.8,39.1,676.2,39.2,675.5,39.2"/>
	<path class="st19" d="M682.2,37.5c0.3-0.2,0.6-0.5,0.9-0.7C682.8,37.1,682.5,37.3,682.2,37.5"/>
	<path class="st19" d="M600.3,72.7c0.3-0.3,0.6-0.5,0.9-0.8C600.8,72.2,600.5,72.5,600.3,72.7"/>
	<path class="st19" d="M602.8,71.8c0.3-0.2,0.6-0.4,0.9-0.7C603.4,71.3,603.1,71.6,602.8,71.8"/>
	<path class="st19" d="M606.1,70.9c0.3-0.2,0.6-0.4,0.9-0.6C606.7,70.5,606.4,70.7,606.1,70.9"/>
	<path class="st19" d="M674.7,40c0.3-0.2,0.5-0.5,0.8-0.7C675.2,39.5,674.9,39.7,674.7,40"/>
	<path class="st23" d="M590.8,91.1c-0.2-0.3-0.4-0.5-0.6-0.8C590.4,90.6,590.6,90.8,590.8,91.1"/>
	<path class="st19" d="M607.8,70.1c0.3-0.2,0.6-0.5,0.9-0.7C608.4,69.7,608.1,69.9,607.8,70.1"/>
	<path class="st20" d="M486.5,735.5c-1.1,1.5,0.2,4-1.4,5c-1.6,1-3.8,0.4-5.7,0.4c-57.5,0-115.1,0-172.6,0
		c-44.7,0-89.4-0.1-134.2-0.1c-1.3,0-2.7,0-4,0c0.1-1.6,0.9-2.1,1.6-2.7c33.1-31.6,66.3-63.1,99.4-94.7
		c31.3-29.8,62.5-59.8,93.8-89.6c37.8-36.1,75.7-72.1,113.5-108.2c1.6-1.5,3.4-2.9,4.6-4.8c10.3-0.3,20.7-0.3,31,0
		c1.4,1.3,1.1,3,1,4.7c-1.6,20.7-3.6,41.3-5.3,61.9c-1.1,13.2-2.4,26.3-3.5,39.5c-0.2,2.2-0.5,4.4-1.4,6.5c-0.2,0.4-0.5,0.8-0.9,1.2
		c-0.7,0.6-1.6,1.1-2.5,1.4c-11.6,2.5-23,1.2-34.1-2.9c-2.3-0.9-4.5-1-6.9-0.1c-8.5,3.2-16.8,6.8-25.3,9.8c-3.2,1.1-4.2,2.5-2.5,5.8
		c4.3,7.9,3.4,15.2-2.7,21.9c-0.8,0.9-1.7,1.7-2.2,2.8c-3,3.4-6.3,6.4-9.6,9.5c-4.4,3.5-8.4,7.3-11.9,11.7
		c-4.5,5.8-6.6,12.5-7.5,19.7c-0.8,2.2-0.6,4.5-0.5,6.8c0.2,1,0.1,2,0,3c0,0.6-0.1,1.1-0.1,1.7c0,0.4,0,0.7,0,1.1
		c0,0.8,0,1.7,0.3,2.5c0.1,0.3,0.2,0.6,0.3,1c0.3,1.2,0.7,2.3,1.2,3.4c0.2,0.3,0.4,0.6,0.6,0.9c0.2,0.3,0.4,0.6,0.6,1
		c0.2,0.3,0.4,0.7,0.6,1.1c4.1,7.9,10.4,13.4,18.4,17.5c10.4,5.3,21.8,6.5,32.9,8.4c8.2,1.4,16.3,3.4,24.3,5.9
		c5.2,1.6,10.1,3.9,13.7,8.3c2.5,6.2,0.3,12.4,0.1,18.6c-0.2,5.4-0.9,10.8-1.5,16.2C487.9,732.9,487.9,734.5,486.5,735.5"/>
	<path class="st20" d="M478.2,440.8c-4.5,5.1-9.8,9.5-14.7,14.1c-22,20.6-44.1,41.1-66.2,61.7c-24.2,22.5-48.5,45.1-72.7,67.6
		c-20.8,19.3-41.5,38.7-62.2,58c-20.2,18.9-40.5,37.7-60.7,56.6c-14.2,13.3-28.5,26.5-42.7,39.8c-1.7,1.6-3.3,2.3-5.5,2.2
		c-2.9-0.2-5.8-0.1-8.8-0.2c4.6-5,9.9-9.3,14.9-13.9c20.1-18.3,40.4-36.5,60.5-54.7c26.8-24.2,53.5-48.4,80.3-72.6
		c27.7-25.1,55.3-50.1,83-75.2c30-27.1,59.9-54.2,89.9-81.3c0.6-0.6,1.2-1.2,1.8-1.8C476.1,440.8,477.1,440.5,478.2,440.8"/>
	<path class="st24" d="M488.2,696.4c2.8,1.7,4.7,4.5,7,6.8c1.9,1.9,2.5,2,4.2-0.1c1.4-1.8,2.9-3.6,4.8-4.9c-0.8,2.4-0.7,4.9-0.8,7.4
		c-0.4,10.2-0.8,20.5-1.2,30.7c0,1.2,0.1,2.5-0.5,3.7c-4.3-0.8-8.6-1.4-13-0.4c-1.4,0.3-2.1-0.2-2.2-1.6c-0.1-0.8-0.1-1.6-0.1-2.5
		c0.2-9.4,1.5-18.8,2.2-28.1c0.2-2.3,0.3-4.7,0.6-7C489.4,698.8,489.1,697.5,488.2,696.4"/>
	<path class="st23" d="M590.2,102c0.3,0.3,0.6,0.6,0.8,0.8C590.8,102.5,590.5,102.3,590.2,102"/>
	<path class="st23" d="M601.9,106.2c0.3,0.3,0.6,0.6,0.8,0.8C602.5,106.7,602.2,106.5,601.9,106.2"/>
	<path class="st23" d="M612.8,107c0.3,0,0.6,0,0.8,0C613.3,107.4,613.1,107.4,612.8,107"/>
	<path class="st23" d="M588.5,100.3c0.3,0.3,0.6,0.6,0.8,0.8C589.1,100.9,588.8,100.6,588.5,100.3"/>
	<path class="st23" d="M589.4,101.2l0.8,0.8L589.4,101.2z"/>
	<path class="st25" d="M501.6,554.3c1.4-2.2,1.1-4.9,1.3-7.3c1.4-14,2.5-27.9,3.7-41.9c1.3-14.1,2.6-28.2,3.8-42.3
		c0.7-7.3,1.3-14.7,2-22c0.8,0,1.6,0,2.4,0c-0.6,15.4-1.3,30.9-1.9,46.3c-0.3,7.9-0.8,15.8-1.1,23.8c-0.7,15-1.3,30-1.9,45.1
		C506.7,557.7,504.3,555.2,501.6,554.3"/>
	<path class="st26" d="M602,652.6c-0.1-3.8-0.3-7.6-0.4-11.4C602.8,645,603,648.8,602,652.6"/>
	<path class="st26" d="M601.3,639.7c-0.8-0.7-0.8-1.7-0.7-2.6C601.1,637.9,601.4,638.7,601.3,639.7"/>
	<path class="st26" d="M396.4,636.5c0,2.7,1,5.4-0.4,7.9C395.7,641.7,395.5,639.1,396.4,636.5"/>
	<path class="st26" d="M397,652.8c1.7,1.3,1.9,3.1,1.8,5C397.6,656.3,397.2,654.6,397,652.8"/>
	<path class="st26" d="M396.1,650.3c0.9,0.6,0.9,1.6,0.9,2.5C396,652.2,396,651.2,396.1,650.3"/>
	<path class="st26" d="M396,647.8c0.8,0.5,0.8,1.1,0.1,1.7C396,648.9,396,648.3,396,647.8"/>
	<path class="st26" d="M398.7,657.7c0.4,0.2,0.7,0.5,0.8,1C399,658.6,398.7,658.3,398.7,657.7"/>
	<path class="st27" d="M496.2,620.2c1.1,0.8,0.8,1.8,0.7,2.9c-0.4,3.4-2.7,6.3-2.5,9.9c-1.4,6.2-2.9,12.4-4.3,18.7
		c-0.4,1.6-1,2.4-2.8,2.3c-2.5-0.2-5-0.2-7.5-0.4c-3.6-0.2-3.6-0.3-4.5-4.1c-3.1,1.9-6.4,3.4-9.9,4.2c-10.5,2.4-20.6,1.3-29.1-5.7
		c-6.3-5.2-8.1-12.4-6.1-20.4c3.9-14.9,13.4-24.5,28.2-28.9c9.7-2.9,19.2-2.3,28.5,1.5c3.8,1.6,6.9,4.1,9.2,7.5
		c0.3,0.5,0.5,1,0.8,1.4c2.8,4.5,2.5,5.1-2.7,5.3c-3,0.1-6.1,0.3-9.1,0.4c-1.1,0.1-2.2-0.1-3,0.9c-2.1,1.8-3.5,0.5-5-1
		c-5.6-5.6-10.9-5.1-15.5,1.4c-2.2,3.1-3.7,6.5-4.5,10.2c-0.6,2.7-1.6,5.6,1,7.8c2.7,2.3,5.7,1.7,8.7,0.5c-0.9-0.8-1.9-0.3-2.8-0.4
		c-3.7-0.5-4.5-1.7-3.6-5.3c0.1-0.5,0,0.1,0.1-0.4c2.8-9.9,3.9-10.8,14.2-10.7c4.2,0,8.3,0.5,12.5,0.8c2.1,0.7,4.3,0.5,6.5,0.4
		C494.7,619.2,495.5,619.6,496.2,620.2"/>
	<path class="st24" d="M487.1,619.9c2.3-0.3,4.6-0.4,6.8,0.5C491.6,620.8,489.3,621,487.1,619.9"/>
	<path class="st28" d="M499.3,554.2c1.5-0.3,2.9-0.7,4.3,0.3c1.1,0.8,2.5,1.2,4,1.1c8.3,3,16.8,3.5,25.5,2.4c2.7-0.4,5.5-1,8.2-1.6
		c1.3-0.3,2.4-0.2,3.6,0.5c9.5,5.2,18.9,10.4,28.4,15.6c0.3,0.2,0.6,0.5,1.2,1c-2.6,2.8-4.8,5.8-5.8,9.4c-0.9,3.2,0.6,6.6-1.8,9.8
		c-1.2,1.7,1.1,4.3,2.6,6.2c4.2,5.2,9,9.8,12.9,15.2c6.6,9.3,12.2,18.9,11.3,30.9c-0.1,0.8,0,1.7,0.2,2.5
		c-0.8,10.9-7.1,18.2-15.9,23.5c-10.6,6.4-22.6,7.3-34.5,8.6c-9.6,1.1-19.4,1.3-28.4,5.6c-3.8,1.8-7.1,4.2-10.1,7.3
		c-2.7,2.8-5.3,3.2-7.7,0.7c-9.3-9.5-21.3-11.9-33.7-13.8c-8.6-1.3-17.4-1.7-25.9-4c-8.5-2.3-16.3-5.4-22.7-11.7
		c-4.6-4.5-7.7-9.8-9.7-15.9c-2-14.9,1.1-28.5,11.3-39.9c5.6-6.3,12-12,15.6-19.9c-1.2,1.5-1.9,3.4-3.6,4.4
		c-0.7,0.4-1.7,1.9-2.5-0.1c1.1-1.9,2-4,3.2-5.8c2.3-3.5,2.1-7,0.8-10.8c-1.2-3.4-3-6.5-4.9-9.9c4.8-2,9.3-4,13.9-5.9
		c5.9-2.5,11.8-4.9,17.6-7.4c1.8-0.8,3.4-1.5,5.5-0.6c8.6,3.8,17.7,4.5,27,3.8c2.8-0.2,5.5-0.7,8.3-1
		C498.1,554.6,498.8,554.7,499.3,554.2L499.3,554.2z"/>
	<path class="st26" d="M406.1,647.4c0.8,1.5,1.7,2.9,2.2,4.4c2.4,6.2,6.6,10.8,12,14.6c1.6,1.1,3,2.4,4.7,3.5
		c3.7,2.3,8.1,2.6,12.1,4.1c3.6,1.4,7.5,1.7,11.3,2.5c0.7,0.1,1.4,0.5,2,0.4c8-0.5,15.7,1.7,23.4,3c9.1,1.6,17.5,5.1,23.9,12.3
		c2.1,2.3,3.8,2.5,5.8,0c4.1-5.2,9.9-7.5,15.5-10.2c2-1,4.6-1.2,6.9-1.3c3.5-0.1,6.9-0.6,10.2-1.7c1.5-0.5,3-0.5,4.5-0.4
		c8.7,0.1,17.1-1.6,25.4-3.6c6.9-1.7,13.4-4.8,18.3-10.2c4.3-4.8,8.5-10,8.3-17.1c0.4-0.6,0.3-1.3,0.3-2c0-5.6-0.1-5.5,5.3-4.8
		c2.4,0.3,3.3,1.5,3.5,3.8c0.2,3.1-0.2,6.3,0.3,9.4c-0.8,8.8-5,15.8-12.1,20.9c-9.9,7-21,10.5-33.1,11c-2.5,0.1-4.8,1-7.4,1.2
		c-10.8,1-21.4,2.9-31.9,5.3c-4.2,1-7.3,3.9-11.1,5.6c-1.2,1.7-1.9,3.7-3.3,5.3c-2.6,2.9-4,2.9-7,0.5c-2.4-2-3.8-4.7-5.8-7
		c-10.7-7.5-23.3-8.9-35.7-11.2c-8.6-1.6-17.4-1.7-25.8-4.3c-8.1-2.5-15.9-6-22.1-11.9c-3.1-2.9-6-6.2-7.2-10.5
		c-0.4-2.5-1.1-5-2.1-7.4c-1.3-3.1-0.2-4.6,3-4.2C402.3,647.5,404.2,646.7,406.1,647.4"/>
	<path class="st29" d="M602,653.9c-1.1-0.9-0.9-2.2-1-3.5c-0.1-1.9-0.1-3.9-0.2-5.8c-0.2-2.7-0.6-3.1-3.2-2
		c-1.9,0.8-2.3-1.2-3.7-1.3c-1.5,1.8,0.5,4.4-1.3,6.2c-0.1-2.1-0.2-4.2-0.2-6.2c0-6-1.9-11.4-5.2-16.4c-0.4-0.7-0.9-1.4-1.1-2.2
		c-1.4-4.7-5-7.9-7.8-11.6c-3-4-6.6-7.4-9.9-11.2c-1.2-1.3-2.2-2.8-2.8-4.6c-0.9-2.9-1-3,1.8-5.3c0.9-0.7,0.6-1.4,0.7-2.2
		c0.1-1.6-0.6-3.3,0.7-4.8c-0.2,2.8,0,5.6,0.4,8.3c-0.2,0.2-0.5,0.5-0.1,0.8c0.4,0.4-0.2,0,0.3-0.2c3.1,6.8,8.6,11.8,13.5,17.2
		c6.3,6.9,12.2,13.9,16.1,22.5c0.8,1.8,1.7,3.5,1.9,5.5c0.6,0.8,0.2,1.8,0.7,2.6c0.1,0.5,0.2,1,0.2,1.6c0.8,3.8,0.7,7.6,0.4,11.4
		C602.2,653,602.2,653.5,602,653.9"/>
	<path class="st28" d="M569.2,591.9c-0.2,0.1-0.4,0.2-0.6,0.3c-0.2-0.5,0.1-0.7,0.5-0.9C569.3,591.5,569.3,591.7,569.2,591.9"/>
	<path class="st30" d="M406.1,647.4c-1.8,1.6-3.7,2.4-6,1c-0.6-0.3-1.3-0.7-1.9,0c-0.6,0.8-0.4,1.6,0.2,2.3c1.7,1.9,1.1,4.5,1.9,6.7
		c0.1,0.3-0.5,0.9-0.7,1.4l0,0c0-0.6-0.4-0.8-0.8-1l0,0c-0.5-1.7-0.8-3.5-1.8-5l0,0c-0.7-0.7-0.1-1.8-0.9-2.5c0-0.3,0-0.6-0.1-0.8
		c0.5-0.6,0.5-1.1-0.1-1.7c-0.4-1.1-0.4-2.2-0.1-3.4c0.9-2.6-0.3-5.3,0.4-7.9c0.4-10.5,5-19,12.2-26.3c2.1-2.1,4.1-4.5,6.8-5.9
		c3.8-2.1,5.9-5.9,9-8.7c0.1-0.1,0.2-0.1,0.2-0.1c0.2-0.3,0.2-0.4,0-0.1c-0.3,0-0.4-0.2-0.4-0.4c0.2-1.1,0.9-1.9,1.8-2.4
		c2.2,0.1,2.7-1.9,3.8-3.2c0.5-0.6,0.7-1.5,1.1-2.2c0.8-1.3,2.1-2.6,3.3-1.9c1.5,0.9-0.1,2.1-0.6,3.1c-3.8,7.7-9.7,13.8-15.6,19.8
		c-6.2,6.5-10.1,14.2-11.4,23C405.9,636.6,405.4,642,406.1,647.4"/>
	<path class="st28" d="M425.3,595c-2.3,3.4-5.3,6.2-8.2,9.1c-0.5,0.5-1.1,0.9-1.7,0.1c3-3.1,5.9-6.2,8.9-9.3
		C424.6,595,425,595,425.3,595L425.3,595z"/>
	<path class="st25" d="M499.3,554.2c-0.4,0.8-1,1-1.8,0.7C498,554.4,498.6,554.1,499.3,554.2"/>
	<path class="st20" d="M417.5,612c4.1-3.9,8.1-7.9,11.9-12.1c3.2-3.6,5.9-7.7,7.9-12.1c0.5-1.1,1.1-2.2,2-3.1c0.9-0.7,1.9-1.4,3-1.3
		c8.4,0.7,16.9,0.6,25.3,1c5.1,0.3,10.2,1.2,15.3,0.9c4.2-0.3,8.3,0.9,12.5,0.6c1.1-0.1,2.1,0.5,2.9,1.4c1.9,4.7,1.2,16.5-1.3,20.5
		c-1.5,0.7-2.4-0.3-3.3-1.1c-10.3-11-33.2-10.8-46.2-1.5c-7.3,5.3-12.8,11.9-15.5,20.7c-3.6,11.8,2.7,23,14.7,26.1
		c8.2,2.1,16.2,2.1,24-1.8c2.4-1.2,4.3-1.2,6.7,0.9c2.5,2.2,6.3,1.9,9.6,1.3c1.6-0.3,1.7-2.1,2.1-3.4c1.1-4,1.9-8.1,3-12.1
		c0.5-1.6,0.4-3.7,2.9-3.9c1.8,1.6,1.8,3.7,1.7,5.8c-0.8,13-1.5,25.9-2.2,38.9c-0.1,2-0.2,4.3-2.9,4.8c-5.5-4.1-11.9-5.6-18.5-7
		c-10.6-2.2-21.3-3.3-32-4.8c-6.7-0.9-13-3.2-18.6-6.8c-10-6.4-14.7-15.7-14.1-27.8c0.4-7.1,2.1-13.7,5.8-19.7
		c0.5-0.4,0.2-1.3,1-1.6l-0.1,0.1c0.1-0.5,0.4-0.8,0.9-0.9l-0.1,0.1c0.1-0.5,0.4-0.8,0.8-1l0,0.1C416.9,612.5,417.2,612.3,417.5,612
		"/>
	<path class="st20" d="M558.8,590.2c0.5,0.5,1.2,0.8,1.3,1.5c1,5.5,4.7,9.3,8.2,13.3c5,5.7,10.3,11.3,14.2,17.9c4.4,7.3,7,15,6,23.7
		c-0.8,7.3-4.3,12.8-9.9,17.1c-8.2,6.3-18.1,8.2-28,9.4c-6.6,0.8-13.3,0.5-19.9,1.7c-8,1.4-16.1,2.8-23.2,7.3
		c-2.4-0.4-2.4-2.5-2.5-4.2c-0.9-11.2,0.4-22.4-0.1-33.6c-0.1-1.5,0.5-3,1.7-4.1c1.8-1,2.5,0.5,3.3,1.5
		c8.2,10.1,19.1,14.2,31.6,14.1c11.3,0,21.5-5.7,25.4-16.3c3.8-10.2,0.4-23.4-8.5-30.2c-10.8-8.3-23-10.2-35.9-6
		c-4.7,1.5-8.5,4.6-11.8,8.4c-1,1.2-1.8,3-3.9,2.4c-1.4-1.2-1.7-2.9-1.5-4.6c0.6-6.9-0.2-13.8,0.8-20.6c0.2-0.5,0.5-0.9,0.9-1.2
		c2.2-1.2,4.6-0.7,6.8-0.9c9,0,18,1.1,27,1.5c4.7,0.2,9.4-0.3,14.2,0.5C556.5,589.1,557.9,588.9,558.8,590.2"/>
	<path class="st24" d="M507.7,640.3c-1.4,1-1.1,2.5-1.1,3.8c-0.1,11.6-0.2,23.2-0.2,34.8c0,1.2-0.4,2.6,1.2,3.2
		c-2,1.9-4.6,2.9-6.4,5c-1,1.2-2.4,0.9-3.3-0.1c-1.8-2-4.2-3-6.3-4.6c1.4-0.9,1.2-2.5,1.3-3.7c0.8-13.8,1.6-27.6,2.3-41.4
		c0.1-1.4,0.8-3.1-0.9-4.2c-1.8-1.7-0.7-3.6-0.2-5.4c0.7-2.5,1.7-4.9,1.1-7.6c-0.3-2.7-2.1-3-4.4-3.1c-2.9-0.1-6,0.9-8.7-0.9
		c-0.3-2.2,1.5-2.2,2.8-2.5c2.4-0.4,4.9-0.4,7.4-0.4c2.7,0,4.7-0.5,3.5-4c-0.2-0.5,0-1.1,0.3-1.5c1.4-1,1-2.5,1.1-3.8
		c0.4-5.4,0.5-10.8,0.8-16.2c3.7-2.1,6.5-1.9,9.2,0.6c0.4,7.3-0.1,14.6-0.1,22c0,1.3-0.6,2.8,0.8,3.8c0.8,0.8,0.7,1.8,0.4,2.7
		c-2.8,6.9-2.2,13.8-0.2,20.8C508.3,638.5,508.5,639.5,507.7,640.3"/>
	<path class="st31" d="M440,582.9c-0.9-0.4-1.1-1.2-1-2.1c0-5-1.4-9.6-4.2-13.8c2.1-2.1,4.9-2.6,7.4-3.6c5.1-2.1,10.3-4.1,15.4-6.2
		c1.3-0.5,2.5-0.9,4-0.2c8.8,3.9,18,4.4,27.4,3.7c1.5-0.1,3-0.3,4.6-0.5c1.6-0.8,3.5,0.2,5.1-0.8l0,0c2.7,0.5,2.2,2.8,2.4,4.5
		c0.3,2.2-1,4.3-0.9,6.5c-2.1,3.2-2.5,3.2-4.3,0.1c-2-3.4-3.9-3.7-6.8-0.9c-0.7,0.7-1.3,1.5-2,2.1c-1.9,1.5-3.3,1.3-4.1-1.1
		c-0.2-0.7-0.4-1.3-0.6-2c-0.5-1.3-1.5-1.5-2.7-1.4c-1.5,0.1-1.7,1.3-1.7,2.4c0.1,2.9,0.7,5.8,1.2,8.7c0.4,2.1,2.8,2.4,5,0.8
		c1.5-1.1,2.3-2.8,3.7-3.9c1.9-1.5,3.8-1.3,4,1.1c0.2,4.1,3.1,4.3,5.9,5c1.3,0.8,1.9,2,1.5,3.6c-0.2,0.5-0.5,0.8-1,1.1
		c-1.4,0.5-2.9,0.2-4.4,0.3c-17-1-34-1.5-51.1-2.6C441.7,583.5,440.8,583.6,440,582.9"/>
	<path class="st31" d="M510.4,561.5c9.4,2.1,18.8,1.5,28.1-0.3c1.6-0.3,3-0.5,4.4,0.3c6.8,3.9,13.7,7.8,20.5,11.7
		c0.2,0.1,0.4,0.4,0.8,0.9c-3.2,4-4.7,8.8-4.5,14c-2.2,1.7-4.8,1.3-7.2,1c-12.6-1.2-25.3-1.1-37.9-2c-2.3-0.5-4.7,0-7-0.6
		c-0.4-0.2-0.8-0.5-1-0.9c-0.6-4.1,3.3-3.1,5.1-4.6c3.7-2.7,7.3-3,10.9,0.1c1.1,1,2.6,1.3,3.9,0.5c1.4-0.9,0.5-2.3,0.1-3.4
		c-0.7-2.1-1.4-4.2-2.3-6.2c-1.9-4.1-5.9-4.7-8.9-1.4c-1.4,1.5-2.4,3.4-3.7,5c-1,1.3-1.9,2.8-3.9,2.6c-2.5-2-1.4-4.8-1.6-7.3
		c0-0.4,0-0.8,0.1-1.2c0.2-1.1,0.5-2.2,0.2-3.4c-0.1-0.4-0.1-0.8-0.1-1.2C506.9,563.1,506.6,560.1,510.4,561.5"/>
	<path class="st32" d="M513.8,586.3c12.5,0.6,25,1.2,37.5,1.8c2.8,0.1,5.6,0.4,8.3,0l-0.8,2c-12.3-0.6-24.6-1.2-36.8-1.8
		c-2.8-0.1-5.5-0.3-8.3-0.5c-2.2-0.3-4.5-0.5-6.7,0.4l0,0c-3-1.3-6.1-0.4-9.2-0.6c-3.5-0.9-7.2-0.8-10.8-1c-15-0.8-30-1.4-45-2
		c-1,0-1.9,0-2.9,0c0.2-0.6,0.5-1.2,0.7-1.8c6.4-0.4,12.8,0,19.1,0.6c10.1,0.9,20.3,0.7,30.4,1.4c1.7,0.1,3.3,0.3,5,0.5
		c1.4,0.4,2.8,0.8,4.1-0.3l-0.1,0c3-1.9,5.9-1.1,8.8,0.5l-0.1,0C509.2,587.1,511.7,585.3,513.8,586.3"/>
	<path class="st33" d="M510.4,561.5c-1.8-0.1-2.9,0.3-2.7,2.4c0.1,0.8-0.2,1.6-0.3,2.5c-2.7,1.6-5.4,3.2-8.2,4.6
		c0.1-2.8,0.3-5.5,0.4-8.3c0-1.2,0.4-2.5-0.9-3.4c0.1-0.1,0.2-0.3,0.3-0.3C502.7,559.7,506.6,560.3,510.4,561.5"/>
	<path class="st33" d="M498.6,559.3c-1.5,1.2-3.3,1-5.1,0.8C495.1,559,496.9,559.3,498.6,559.3"/>
	<path class="st30" d="M415.2,614.7c-0.1,0.7-0.2,1.3-1,1.6C414.2,615.5,414.5,614.9,415.2,614.7"/>
	<path class="st30" d="M417.5,612c-0.1,0.4-0.3,0.8-0.7,1C416.8,612.5,417,612.1,417.5,612"/>
	<path class="st30" d="M416.8,612.9c0,0.5-0.3,0.9-0.8,1C416,613.4,416.3,613.1,416.8,612.9"/>
	<path class="st30" d="M416,613.8c-0.1,0.5-0.4,0.8-0.9,0.9C415.3,614.2,415.5,613.9,416,613.8"/>
	<path class="st26" d="M599.7,639.1c-0.1,0.2-0.2,0.4-0.3,0.7c-0.4-0.2-0.4-0.6-0.4-1c0-0.2,0.2-0.4,0.3-0.7
		C599.8,638.3,599.7,638.7,599.7,639.1"/>
	<path class="st28" d="M425.3,595c0.1-0.1,0.1-0.2,0.2-0.3L425.3,595C425.3,595,425.3,595,425.3,595"/>
	<path class="st27" d="M507.7,640.3c-3-5.3-2.9-11.1-2.8-16.9c0.1-3.4,2-6.2,3-9.3c5.2-9.5,13.9-13.4,24.1-14.1
		c9.7-0.7,18.7,1.7,26.7,7.6c12.3,9.1,15.2,27.4,5.9,39.4c-5.5,7-13.2,9.9-21.9,10.3c-11.6,0.5-21.9-3.1-30.5-11
		C510.2,644.6,508.6,642.7,507.7,640.3"/>
	<path class="st24" d="M507.1,588.3c2.1-1.5,4.4-1.2,6.7-0.4C511.5,588.1,509.3,588.2,507.1,588.3"/>
	<path class="st34" d="M487.1,619.9c-6.3-0.2-12.5-0.2-18.8-0.6c-2.4-0.1-3.5,0.8-4.2,3c-1.1,3.4-2.4,6.8-3.8,10.6
		c3.5,0.1,6.6,0.3,9.7,0.4c0.5,0.9,0.1,1.6-0.5,1.9c-3.2,1.9-6.6,2.8-10.4,1.7c-2.9-0.9-4-2.4-4.2-5.5c-0.1-1.6,0.3-3.1,0.6-4.5
		c1.2-5.4,3.4-10.3,7.2-14.4c2.9-3.2,8.6-4.1,12.3-2.1c1.4,0.7,2.6,1.8,2.9,3.4c0.5,2.4,2.1,2.6,4.1,2.1c3.6,0.1,7.2-0.1,10.8-0.4
		c3.5-0.3,3.5-0.2,3.5,3.2c0,0.6-0.1,1.1-0.1,1.7c-0.8,0.1-1.5,0.1-2.3,0.2C491.7,619.5,489.3,620.8,487.1,619.9"/>
	<path class="st35" d="M499.1,571c1.7-3.4,4.4-4.9,8.2-4.6l0,0c0.4,0.9,0.5,1.8,0,2.7c0,0.2-0.1,0.5-0.2,0.7
		c-1.2,3.7-3.4,6.8-5.7,9.8c-1,1.3-1.9,2.8-3.9,2.3c-2.1-0.2-4.5,0.7-6.1-0.6c-1.6-1.3-0.5-3.9-1-5.9c-0.1-0.3-0.1-0.5-0.8-0.7
		c-1.8,1.2-2.7,3.4-4.2,5.1c-1.2,1.3-6.1,2.2-7.5,1.3c-0.5-0.3-0.6-0.9-0.7-1.4c-0.3-4.2-0.5-8.3-0.8-12.5c-0.1-1.4,0.3-2.2,1.8-2
		c0.1,0,0.3,0,0.4,0c5-0.1,5-0.1,5.4,5c0,0.5-0.2,1.1,0.7,1.6c1.7-0.9,2.4-2.7,3.6-4.1c1.6-1.9,4.9-2.7,7.1-1.8c0.9,0.4,1,1.2,1.2,2
		c0.2,1.4,0.4,2.7,0.6,4.1C498.5,572.6,498.7,571.6,499.1,571"/>
	<path class="st36" d="M473,568c-3.9,2.6-7.7,0-11.7,0c1.1,1.9,2.7,2,4.2,2.2c1.7,0.2,3.2,0.8,4.5,1.9c1.8,1.7,2,3.7,0.3,5.4
		c-0.8,0.8-1.7,1.5-2.7,1.8c-6.2,1.9-12.3,2.1-18.1-1.3c-1.1-0.7-1.9-1.6-1.9-3.4c3.3,0.1,6.5-1.6,9.8,0.8c1,0.7,2.6,0.9,4.2-0.1
		c-0.7-1.2-1.9-1.3-3-1.6c-1.6-0.4-3.3-0.7-4.7-1.6c-2.2-1.5-2.5-3.9-0.5-5.6c1.3-1.1,2.7-1.9,4.4-2.3c4.7-1.1,9.1-0.1,13.4,1.5
		C472.1,566.2,472.8,566.9,473,568"/>
	<path class="st24" d="M497.6,582c2.9-1.7,3.9-4.9,5.9-7.3c1.3-1.6,1.9-3.7,3.7-4.8c0.1,2,0.2,4,0.3,6c0.1,0.9-0.3,1.9,0.9,2.4
		c0,1.6-0.7,3.7,2.4,3c0.7-0.2,1.6,0.3,2,1.1c-0.8,1.4-2.2,0.8-3.3,0.8c-1.9-0.1-2.3,0.9-2.4,2.5c-3,0.7-5.8-0.4-8.8-0.5
		C498.3,584,498.5,582.8,497.6,582"/>
	<path class="st24" d="M498.5,585c-1.2,1.6-2.6,1.4-4.1,0.3C495.8,585.2,497.1,585.1,498.5,585"/>
	<path class="st37" d="M512.8,582.3c-2.3,0.1-4.5,0.1-6.8,0.2c-0.1-2.2,2.1-2.7,2.4-4.3c2.2-3.1,4.2-6.2,6.5-9.1
		c2.6-3.3,8.9-2.3,10.4,1.7c1.5,4,2.9,8.1,4.5,12.4c-2.4,0.7-4.6,0.2-6.7,0.3c-0.7,0-1.5-0.3-1.7-1c-0.5-2.9-2.9-1.9-4.6-2.3
		C514.8,579.6,513.8,580.9,512.8,582.3"/>
	<path class="st38" d="M546.2,578.9c-0.3,0-0.6,0-0.8,0c-4.1-0.1-4.1-0.1-4.9,3.9c-0.2,1.2-0.7,1.6-1.9,1.6
		c-6.3,0.2-6.5,0.1-5.9-6.1c0.2-2.6,0.6-5.2,0.9-7.8c0.1-0.9,0.2-2.1,1.5-2c4.8,0.3,9.7-0.3,14.3,1.8c0.7,0.3,1.4,0.8,2,1.4
		c2.2,2.4,1.7,4.9-1.3,6.3C548.9,578.4,547.6,578.9,546.2,578.9"/>
	<path class="st24" d="M513.8,586.3c-2.3,0-4.7,1-6.7-0.8C509.3,586,511.7,585.4,513.8,586.3"/>
	<path class="st33" d="M507.4,569.1c0-0.9,0-1.8,0-2.7C509.1,567.3,508.1,568.2,507.4,569.1"/>
	<path class="st39" d="M546,623.1c-0.1,4.2-0.3,8.3-1.8,12.3c-1.2,3.1-3.6,4.7-7.1,4.7c-3.9,0-6.9-1.7-7.8-5
		c-1.8-6.7-0.8-13.2,2-19.5c1.5-3.3,4.7-3.6,7.9-3.2c3.3,0.4,5.7,2.5,6.4,5.7C545.9,619.8,545.9,621.5,546,623.1"/>
	<path class="st40" d="M518.7,573.8c0.6,0.2,0.7,0.8,0.7,1.3c0,0.7-0.4,1-1.1,0.9c-0.7-0.1-0.9-0.5-0.8-1.2
		C517.7,574.3,518.1,573.9,518.7,573.8"/>
	<path class="st41" d="M543.2,574.8c-1.1-0.1-2.2,0.1-2.1-1.4c0.1-0.8,0.6-1.3,1.4-1.2c1.1,0.1,2.4,0.1,2.5,1.6
		C545,575,543.8,574.6,543.2,574.8"/>
</g>
</svg>
