<?xml version="1.0" encoding="utf-8"?>
<!-- Generator: Adobe Illustrator 22.1.0, SVG Export Plug-In . SVG Version: 6.00 Build 0)  -->
<svg version="1.1" id="图层_1" xmlns="http://www.w3.org/2000/svg" xmlns:xlink="http://www.w3.org/1999/xlink" x="0px" y="0px"
	 viewBox="0 0 196 300" style="enable-background:new 0 0 196 300;" xml:space="preserve">
<style type="text/css">
	.st0{fill-rule:evenodd;clip-rule:evenodd;fill:url(#SVGID_1_);}
	.st1{fill-rule:evenodd;clip-rule:evenodd;fill:url(#SVGID_2_);}
	.st2{fill-rule:evenodd;clip-rule:evenodd;fill:url(#SVGID_3_);}
	.st3{fill-rule:evenodd;clip-rule:evenodd;fill:url(#SVGID_4_);}
	.st4{fill-rule:evenodd;clip-rule:evenodd;fill:url(#SVGID_5_);}
	.st5{fill-rule:evenodd;clip-rule:evenodd;fill:url(#SVGID_6_);}
	.st6{fill-rule:evenodd;clip-rule:evenodd;fill:url(#SVGID_7_);}
	.st7{fill-rule:evenodd;clip-rule:evenodd;fill:url(#SVGID_8_);}
	.st8{fill-rule:evenodd;clip-rule:evenodd;fill:url(#SVGID_9_);}
	.st9{fill-rule:evenodd;clip-rule:evenodd;}
	.st10{fill-rule:evenodd;clip-rule:evenodd;fill:url(#SVGID_10_);}
	.st11{fill-rule:evenodd;clip-rule:evenodd;fill:url(#SVGID_11_);}
	.st12{fill-rule:evenodd;clip-rule:evenodd;fill:url(#SVGID_12_);}
	.st13{display:none;}
	.st14{display:inline;fill-rule:evenodd;clip-rule:evenodd;fill:#FFC800;}
	.st15{display:inline;fill-rule:evenodd;clip-rule:evenodd;fill:url(#SVGID_13_);}
	.st16{display:inline;fill-rule:evenodd;clip-rule:evenodd;fill:url(#SVGID_14_);}
	.st17{display:inline;fill-rule:evenodd;clip-rule:evenodd;fill:url(#SVGID_15_);}
	.st18{fill-rule:evenodd;clip-rule:evenodd;fill:url(#SVGID_16_);}
	.st19{fill-rule:evenodd;clip-rule:evenodd;fill:url(#SVGID_17_);}
	.st20{fill-rule:evenodd;clip-rule:evenodd;fill:url(#SVGID_18_);}
	.st21{fill-rule:evenodd;clip-rule:evenodd;fill:url(#SVGID_19_);}
	.st22{fill-rule:evenodd;clip-rule:evenodd;fill:url(#SVGID_20_);}
	.st23{fill-rule:evenodd;clip-rule:evenodd;fill:url(#SVGID_21_);}
	.st24{fill-rule:evenodd;clip-rule:evenodd;fill:#FFFFFF;}
	.st25{fill:#EFEAEA;}
	.st26{display:none;fill:#ECEBE8;}
	.st27{fill:#FFC800;}
	.st28{fill:url(#SVGID_22_);}
	.st29{display:none;fill:#392F30;}
	.st30{display:inline;fill:#392F30;}
	.st31{display:inline;fill:#989091;}
	.st32{display:inline;fill:#1D1415;}
	.st33{display:none;fill:#1D1415;}
</style>
<g>
	<linearGradient id="SVGID_1_" gradientUnits="userSpaceOnUse" x1="22.3303" y1="230.5694" x2="174.403" y2="230.5694">
		<stop  offset="0" style="stop-color:#000000"/>
		<stop  offset="1" style="stop-color:#757777"/>
	</linearGradient>
	<ellipse class="st0" cx="98.4" cy="230.6" rx="76" ry="61.2"/>
	<linearGradient id="SVGID_2_" gradientUnits="userSpaceOnUse" x1="23.9086" y1="222.634" x2="172.6036" y2="222.634">
		<stop  offset="0" style="stop-color:#000000"/>
		<stop  offset="1" style="stop-color:#595D5E"/>
	</linearGradient>
	<ellipse class="st1" cx="98.3" cy="222.6" rx="74.3" ry="61.2"/>
	<linearGradient id="SVGID_3_" gradientUnits="userSpaceOnUse" x1="16.6435" y1="233.0217" x2="180.0567" y2="233.0217">
		<stop  offset="0" style="stop-color:#000000"/>
		<stop  offset="1" style="stop-color:#595D5E"/>
	</linearGradient>
	<path class="st2" d="M95.8,181.5c-20.7-0.8-74.9,16.2-74.9,16.2l3.7,33.9c0.2,1.7,9.8,52.7,73.5,53c63.7,0.3,73.5-49.4,73.7-51.9
		l4-38C175.9,194.6,138.5,180.7,95.8,181.5z"/>
	<linearGradient id="SVGID_4_" gradientUnits="userSpaceOnUse" x1="17.3499" y1="187.7381" x2="179.081" y2="187.7381">
		<stop  offset="0" style="stop-color:#000000"/>
		<stop  offset="1" style="stop-color:#757777"/>
	</linearGradient>
	<ellipse class="st3" cx="98.2" cy="187.7" rx="80.9" ry="61.2"/>
	<linearGradient id="SVGID_5_" gradientUnits="userSpaceOnUse" x1="19.0288" y1="179.8027" x2="177.1671" y2="179.8027">
		<stop  offset="0" style="stop-color:#000000"/>
		<stop  offset="1" style="stop-color:#595D5E"/>
	</linearGradient>
	<ellipse class="st4" cx="98.1" cy="179.8" rx="79.1" ry="61.2"/>
	<linearGradient id="SVGID_6_" gradientUnits="userSpaceOnUse" x1="11.3018" y1="190.1905" x2="185.1101" y2="190.1905">
		<stop  offset="0" style="stop-color:#000000"/>
		<stop  offset="1" style="stop-color:#595D5E"/>
	</linearGradient>
	<path class="st5" d="M95.5,138.7c-22-0.8-79.7,16.2-79.7,16.2l3.9,33.9c0.2,1.7,10.4,52.7,78.2,53c67.8,0.3,78.1-49.4,78.4-51.9
		l4.3-38C180.6,151.8,140.9,137.9,95.5,138.7z"/>
	<linearGradient id="SVGID_7_" gradientUnits="userSpaceOnUse" x1="10.8202" y1="134.4531" x2="185.4241" y2="134.4531">
		<stop  offset="0" style="stop-color:#000000"/>
		<stop  offset="1" style="stop-color:#757777"/>
	</linearGradient>
	<ellipse class="st6" cx="98.1" cy="134.5" rx="87.3" ry="61.2"/>
	<linearGradient id="SVGID_8_" gradientUnits="userSpaceOnUse" x1="12.8992" y1="126.5178" x2="183.1825" y2="126.5178">
		<stop  offset="0" style="stop-color:#000000"/>
		<stop  offset="1" style="stop-color:#595D5E"/>
	</linearGradient>
	<ellipse class="st7" cx="98" cy="126.5" rx="85.1" ry="61.2"/>
	<linearGradient id="SVGID_9_" gradientUnits="userSpaceOnUse" x1="3.0286" y1="122.5779" x2="192.6819" y2="122.5779">
		<stop  offset="0" style="stop-color:#000000"/>
		<stop  offset="1" style="stop-color:#595D5E"/>
	</linearGradient>
	<path class="st8" d="M7.2,81l6,52.1c3.8,32.8,42.8,54.2,80.2,55.3c37.8,1.1,85.2-17.7,89.4-56c1.4-13.1,5.7-50.2,5.7-50.2
		C147,54.3,41.7,43.2,7.2,81z"/>
	<ellipse class="st9" cx="98.1" cy="64.1" rx="95" ry="61.9"/>
	<linearGradient id="SVGID_10_" gradientUnits="userSpaceOnUse" x1="4.2707" y1="64.1209" x2="192.0656" y2="64.1209">
		<stop  offset="0" style="stop-color:#000000"/>
		<stop  offset="1" style="stop-color:#1D2225"/>
	</linearGradient>
	<ellipse class="st10" cx="98.2" cy="64.1" rx="93.9" ry="60.7"/>
	<linearGradient id="SVGID_11_" gradientUnits="userSpaceOnUse" x1="-11.4015" y1="66.534" x2="207.8044" y2="66.534">
		<stop  offset="0" style="stop-color:#B57616"/>
		<stop  offset="1" style="stop-color:#D5A116"/>
	</linearGradient>
	<ellipse class="st11" cx="98.2" cy="66.5" rx="93" ry="58.3"/>
	<linearGradient id="SVGID_12_" gradientUnits="userSpaceOnUse" x1="185.1409" y1="136.5963" x2="11.8671" y2="-8.7977">
		<stop  offset="0" style="stop-color:#C9821A"/>
		<stop  offset="1" style="stop-color:#FFCB11"/>
	</linearGradient>
	<ellipse class="st12" cx="98.5" cy="63.9" rx="87" ry="53.3"/>
	<g class="st13">
		<polygon class="st14" points="41.8,95.2 102.8,42.2 113.9,46.8 52.9,99.8 		"/>
		<polygon class="st14" points="60.3,102.9 121.3,49.9 132.3,54.5 71.4,107.5 		"/>
		<path class="st14" d="M64.9,81.7c29.7,16.3,87.9,17.8,90.9-13.5l23.1-5.9c-4.8,51.9-84.7,54.1-129.9,30.5
			C5.4,70,11.6,23.9,90.8,16.2l-8,11.8C40.6,33.6,32.1,63.7,64.9,81.7z"/>
	</g>
	<g class="st13">
		<linearGradient id="SVGID_13_" gradientUnits="userSpaceOnUse" x1="-16.8107" y1="108.9896" x2="176.5253" y2="26.9234">
			<stop  offset="0" style="stop-color:#000000"/>
			<stop  offset="1" style="stop-color:#86611B"/>
		</linearGradient>
		<polygon class="st15" points="44,91.6 104.7,39.6 115.7,44.3 55,96.3 		"/>
		<linearGradient id="SVGID_14_" gradientUnits="userSpaceOnUse" x1="1.7318" y1="116.7885" x2="194.7448" y2="34.8594">
			<stop  offset="0" style="stop-color:#000000"/>
			<stop  offset="1" style="stop-color:#86611B"/>
		</linearGradient>
		<polygon class="st16" points="62.4,99.5 123.1,47.5 134.1,52.2 73.4,104.2 		"/>
		<linearGradient id="SVGID_15_" gradientUnits="userSpaceOnUse" x1="-488.3957" y1="310.6805" x2="716.7587" y2="-200.8772">
			<stop  offset="0" style="stop-color:#000000"/>
			<stop  offset="1" style="stop-color:#86611B"/>
		</linearGradient>
		<path class="st17" d="M66.9,78.5c29.6,16.6,87.5,18.7,90.5-12.4l23-5.6c-4.8,51.6-84.3,52.8-129.3,28.8
			C7.8,66.1,14,20.3,92.8,13.7l-8,11.7C42.8,30.4,34.4,60.2,66.9,78.5z"/>
	</g>
	<g>
		<g>
			<linearGradient id="SVGID_16_" gradientUnits="userSpaceOnUse" x1="144.1131" y1="25.0231" x2="122.9879" y2="24.2854">
				<stop  offset="0" style="stop-color:#B9BDB0"/>
				<stop  offset="1" style="stop-color:#8B8E90"/>
			</linearGradient>
			<path class="st18" d="M133.8,18.4c-5.7-0.2-10.5,2.5-10.6,5.9c-0.1,3.5,4.4,6.4,10.2,6.6c5.7,0.2,10.5-2.5,10.6-5.9
				C144,21.5,139.5,18.6,133.8,18.4z"/>
			<radialGradient id="SVGID_17_" cx="136.6527" cy="20.0695" r="10.6688" gradientUnits="userSpaceOnUse">
				<stop  offset="0" style="stop-color:#E0E0DF"/>
				<stop  offset="1" style="stop-color:#757777"/>
			</radialGradient>
			<path class="st19" d="M133.7,19.3c-5-0.2-9.1,2.1-9.2,5.1c-0.1,3,3.9,5.5,8.9,5.7c5,0.2,9.1-2.1,9.2-5.1
				C142.7,22,138.7,19.5,133.7,19.3z"/>
			<linearGradient id="SVGID_18_" gradientUnits="userSpaceOnUse" x1="126.2844" y1="33.4113" x2="140.6241" y2="18.5621">
				<stop  offset="0" style="stop-color:#5E513D"/>
				<stop  offset="1" style="stop-color:#85837E"/>
			</linearGradient>
			<path class="st20" d="M133.6,21.9c-4.5-0.1-8.2,1.6-8.2,3.8c-0.1,2.2,3.5,4.2,8,4.3c4.5,0.1,8.2-1.6,8.2-3.8
				C141.6,24,138.1,22.1,133.6,21.9z"/>
		</g>
		<g>
			<linearGradient id="SVGID_19_" gradientUnits="userSpaceOnUse" x1="73.9039" y1="107.454" x2="64.9148" y2="107.1401">
				<stop  offset="0" style="stop-color:#B9BDB0"/>
				<stop  offset="1" style="stop-color:#8B8E90"/>
			</linearGradient>
			<path class="st21" d="M69.5,104.6c-2.4-0.1-4.4,1-4.5,2.5c0,1.5,1.9,2.7,4.3,2.8c2.4,0.1,4.4-1,4.5-2.5
				C73.9,106,71.9,104.7,69.5,104.6z"/>
			<radialGradient id="SVGID_20_" cx="70.7304" cy="105.3463" r="4.54" gradientUnits="userSpaceOnUse">
				<stop  offset="0" style="stop-color:#E0E0DF"/>
				<stop  offset="1" style="stop-color:#757777"/>
			</radialGradient>
			<path class="st22" d="M69.5,105c-2.1-0.1-3.9,0.9-3.9,2.2c0,1.3,1.7,2.3,3.8,2.4c2.1,0.1,3.9-0.9,3.9-2.2
				C73.3,106.2,71.6,105.1,69.5,105z"/>
			<linearGradient id="SVGID_21_" gradientUnits="userSpaceOnUse" x1="66.3177" y1="111.0243" x2="72.4197" y2="104.7055">
				<stop  offset="0" style="stop-color:#5E513D"/>
				<stop  offset="1" style="stop-color:#85837E"/>
			</linearGradient>
			<path class="st23" d="M69.4,106.1c-1.9-0.1-3.5,0.7-3.5,1.6c0,1,1.5,1.8,3.4,1.8c1.9,0.1,3.5-0.7,3.5-1.6
				C72.8,107,71.3,106.2,69.4,106.1z"/>
		</g>
	</g>
</g>
<g class="st13">
	<path class="st24" d="M152.7,205c8.5,22.9-13.7,38.7-22.4,15.2C121.8,197.2,144.1,181.9,152.7,205L152.7,205z M133,218.7
		c6.3,16.9,23.1,4.3,17-12.1C143.9,190,126.8,202.1,133,218.7z"/>
	<polygon class="st24" points="96.1,231.8 95.4,204.5 102.1,204.5 101.5,231.8 	"/>
	<path class="st24" d="M112.6,203.9l-0.5,27.1c0,0,6.4-0.5,12.1-2c5.8-1.5,9.3-3.1,9.3-3.2l0-3.8c0,0-4.6,1.8-9.5,3
		c-3.8,0.9-7.2,1.4-7.2,1.4l1.4-23.5L112.6,203.9z"/>
</g>
<g>
	<g>
		<path class="st25" d="M119.6,160.1v10.7c0,2-0.7,3.7-2.2,5.1s-3.7,2.5-6.5,3.2c-2.9,0.7-6.3,1.1-10.3,1.1c-4.1,0-7.6-0.3-10.5-1
			c-2.9-0.7-5.1-1.7-6.7-3c-1.5-1.3-2.3-2.9-2.3-4.8v-19.1c0-2,0.7-3.7,2.2-5.1c1.5-1.4,3.7-2.5,6.5-3.2c2.9-0.7,6.3-1.1,10.3-1.1
			c3.9,0,7.3,0.4,10.1,1.1c2.8,0.7,5,1.8,6.4,3.1c1.5,1.4,2.2,3,2.2,4.9v1.8h-11.1V152c0-0.9-0.3-1.7-0.9-2.4
			c-0.6-0.7-1.5-1.2-2.6-1.5s-2.5-0.5-4.2-0.5c-1.8,0-3.4,0.2-4.7,0.6c-1.3,0.4-2.3,0.9-3,1.6c-0.7,0.7-1,1.6-1,2.6v19.1
			c0,0.9,0.4,1.6,1.1,2.3s1.7,1.1,3.1,1.4c1.4,0.3,3,0.5,4.9,0.5c1.8,0,3.4-0.2,4.7-0.5c1.3-0.4,2.3-0.9,3-1.6c0.7-0.7,1-1.5,1-2.5
			v-6.2h-9v-4.5H119.6z"/>
	</g>
</g>
<g>
	<g>
		<path class="st25" d="M91.6,233.2c-2.8-0.7-4.9-1.7-6.4-3c-1.5-1.3-2.2-2.8-2.2-4.7v-17.8c0-1.8,0.7-3.4,2.2-4.7
			c1.5-1.3,3.6-2.3,6.4-2.9c2.8-0.7,6.1-1,10.1-1c3.9,0,7.3,0.3,10.1,1c2.8,0.7,4.9,1.7,6.4,2.9s2.2,2.9,2.2,4.7v17.8
			c0,1.8-0.7,3.4-2.2,4.7c-1.5,1.3-3.6,2.3-6.4,3c-2.8,0.7-6.1,1-10.1,1C97.7,234.2,94.4,233.9,91.6,233.2z M106.4,229.4
			c1.3-0.3,2.3-0.8,3-1.4c0.7-0.6,1-1.4,1-2.2v-18.1c0-0.9-0.3-1.6-1-2.2c-0.7-0.6-1.7-1.1-3-1.4c-1.3-0.3-2.9-0.5-4.8-0.5
			c-1.9,0-3.5,0.2-4.8,0.5c-1.3,0.3-2.3,0.8-3,1.4c-0.7,0.6-1,1.4-1,2.2v18.1c0,0.9,0.3,1.6,1,2.2c0.7,0.6,1.7,1.1,3,1.4
			c1.3,0.3,2.9,0.5,4.8,0.5C103.5,229.9,105.1,229.7,106.4,229.4z"/>
	</g>
</g>
<g>
	<path class="st26" d="M149.1,100c0,0,1.6-2.9,2.4-6.9c0.8-4,0.1-9,0.1-9s-0.7-2.7,3-10.2c3.7-7.5,14-9.3,14-9.3l-11.3-27.1
		c0,0-7.7,3.8-17.3-0.2c-9.6-3.9-13.3-12.1-13.4-12.1l0,0l0,0l0,0l0,0c-0.1,0-10,2.6-19.6-1.3C97.3,20,96.3,12.6,96.3,12.6
		l-32.5,9.6c0,0,4.6,7.7-0.1,14.7c-4.7,7.1-7.6,8.3-7.6,8.3s-5.1,2.6-8.3,5.6c-3.2,3-5,5.8-5,5.8s-4.2,6.3-2.7,16.6
		c1.4,10.2,11.2,15.7,11.2,15.7S62.2,93.8,68.1,99c5.8,5.1,9.3,11.5,9.3,11.6l0,0l0,0l0,0l0,0c0.1,0,8.2-1.7,16.6-1
		c8.4,0.7,19.8,4.8,19.8,4.8s11.1,3.1,21.5-2.3C145.8,106.7,149.1,100,149.1,100"/>
	<path class="st27" d="M77.4,104.3L77.4,104.3L77.4,104.3z M112.6,107.8L112.6,107.8L112.6,107.8
		C112.6,107.8,112.6,107.8,112.6,107.8 M56.9,85.1C56.9,85.1,56.9,85,56.9,85.1L56.9,85.1L56.9,85.1z M60.8,51.3c0,0,0.1,0,0.1,0
		C60.8,51.3,60.8,51.3,60.8,51.3 M103.4,32c4.1,1.7,8.8,2.6,13.6,2.7c1.3,0,2.5,0,3.4-0.1c2,2.6,6.2,6.9,12.9,9.7
		c6.3,2.6,12.4,2.7,16.2,2.4l6.7,16.1c-0.8,0.4-1.6,0.8-2.5,1.4c-1.9,1.1-3.5,2.3-4.9,3.6c-1.8,1.7-3.2,3.5-4.2,5.4
		c-3.2,6.6-3.2,9.8-3,11c0.1,0.6,0.5,4.3-0.1,7.1c-0.6,3.1-1.8,5.4-1.8,5.4l0,0l0,0l0,0.1l0,0c0,0-0.7,1.3-2.4,3.1
		c-1.5,1.7-4.3,4.1-8.5,6.3c-3.2,1.6-6.8,2.4-10.8,2.4c-2.7,0-4.7-0.5-5.2-0.6c-1.6-0.5-11.4-3.9-19-4.5c-5.1-0.4-10.1,0-13.2,0.4
		c-1.5-2.3-4.2-5.9-7.8-9c-5.3-4.6-14.5-9.1-16-9.8c-0.4-0.3-2.1-1.3-3.8-3.1c-2.5-2.6-4.1-5.5-4.5-8.6c-0.6-4.1,0-7.5,0.6-9.5
		c0.6-2.2,1.4-3.5,1.4-3.5l0,0l0,0l0-0.1l0,0c0,0,1.4-2.3,3.9-4.6c2.3-2.1,6-4.1,6.6-4.4c1.3-0.6,4.3-2.6,8.4-8.8
		c1.2-1.8,2-3.9,2.5-6.1c0.3-1.7,0.5-3.6,0.4-5.5c-0.1-0.9-0.2-1.8-0.3-2.5l19.1-5.5C93.2,25.5,97.1,29.5,103.4,32 M152.2,42.9
		c0,0-8.3,1.9-17.1-1.7c-8.7-3.6-12.6-10.2-12.6-10.3c0,0-6.9,1.3-14.6-1c-0.9-0.3-1.8-0.6-2.7-1C96.4,25.4,93,18.7,93,18.7
		l-25.7,7.4c0,0,2.6,7.7-1.1,14c-0.1,0.2-0.3,0.5-0.4,0.7c-4.3,6.4-6.9,7.5-6.9,7.5s-4.6,2.4-7.6,5.1c-2.9,2.7-4.5,5.3-4.5,5.3
		s-0.1,0.1-0.1,0.2c-0.7,1.2-3.5,6.6-2.3,14.8c1.3,9.3,10.2,14.2,10.2,14.2s9.9,4.6,15.2,9.3c5.3,4.6,8.5,10.5,8.5,10.5
		c0,0,7.4-1.5,15.1-0.9c7.6,0.7,18,4.3,18,4.3s10.1,2.8,19.6-2.1c8.3-4.3,11.7-9.5,12.4-10.7c0.1-0.2,0.1-0.2,0.1-0.2
		s1.4-2.7,2.1-6.3c0.7-3.6,0.1-8.1,0.1-8.1s-0.6-2.4,2.7-9.2c0.1-0.2,0.2-0.5,0.4-0.7c3.6-6.3,12.4-9.4,12.4-9.4L152.2,42.9z"/>
	<linearGradient id="SVGID_22_" gradientUnits="userSpaceOnUse" x1="52.0795" y1="86.721" x2="154.9677" y2="43.0475">
		<stop  offset="0" style="stop-color:#000000"/>
		<stop  offset="1" style="stop-color:#86611B"/>
	</linearGradient>
	<path class="st28" d="M79.3,102.6L79.3,102.6L79.3,102.6z M114.6,106.2L114.6,106.2L114.6,106.2
		C114.6,106.2,114.6,106.2,114.6,106.2 M58.9,83.4C58.9,83.4,58.9,83.4,58.9,83.4L58.9,83.4L58.9,83.4z M62.8,49.6c0,0,0.1,0,0.1,0
		C62.8,49.6,62.8,49.6,62.8,49.6 M105.4,30.4c4.1,1.7,8.8,2.6,13.6,2.7c1.3,0,2.5,0,3.4-0.1c2,2.6,6.2,6.9,12.9,9.7
		c6.3,2.6,12.4,2.7,16.2,2.4l6.7,16.1c-0.8,0.4-1.6,0.8-2.5,1.4c-1.9,1.1-3.5,2.3-4.9,3.6c-1.8,1.7-3.2,3.5-4.2,5.4
		c-3.2,6.6-3.2,9.8-3,11c0.1,0.6,0.5,4.3-0.1,7.1c-0.6,3.1-1.8,5.4-1.8,5.4l0,0l0,0l0,0.1l0,0c0,0-0.7,1.3-2.4,3.1
		c-1.5,1.7-4.3,4.1-8.5,6.3c-3.2,1.6-6.8,2.4-10.8,2.4c-2.7,0-4.7-0.5-5.2-0.6c-1.6-0.5-11.4-3.9-19-4.5c-5.1-0.4-10.1,0-13.2,0.4
		c-1.5-2.3-4.2-5.9-7.8-9c-5.3-4.6-14.5-9.1-16-9.8C58.3,83,56.7,82,55,80.2c-2.5-2.6-4.1-5.5-4.5-8.6c-0.6-4.1,0-7.5,0.6-9.5
		c0.6-2.2,1.4-3.5,1.4-3.5l0,0l0,0l0-0.1l0,0c0,0,1.4-2.3,3.9-4.6c2.3-2.1,6-4.1,6.6-4.4c1.3-0.6,4.3-2.6,8.4-8.8
		c1.2-1.8,2-3.9,2.5-6.1c0.3-1.7,0.5-3.6,0.4-5.5c-0.1-0.9-0.2-1.8-0.3-2.5l19.1-5.5C95.2,23.8,99.1,27.8,105.4,30.4 M154.2,41.2
		c0,0-8.3,1.9-17.1-1.7c-8.7-3.6-12.6-10.2-12.6-10.3c0,0-6.9,1.3-14.6-1c-0.9-0.3-1.8-0.6-2.7-1C98.4,23.7,95,17,95,17l-25.7,7.4
		c0,0,2.6,7.7-1.1,14c-0.1,0.2-0.3,0.5-0.4,0.7c-4.3,6.4-6.9,7.5-6.9,7.5s-4.6,2.4-7.6,5.1c-2.9,2.7-4.5,5.3-4.5,5.3
		s-0.1,0.1-0.1,0.2c-0.7,1.2-3.5,6.6-2.3,14.8c1.3,9.3,10.2,14.2,10.2,14.2s9.9,4.6,15.2,9.3c5.3,4.6,8.5,10.5,8.5,10.5
		c0,0,7.4-1.5,15.1-0.9c7.6,0.7,18,4.3,18,4.3s10.1,2.8,19.6-2.1c8.3-4.3,11.7-9.5,12.4-10.7c0.1-0.2,0.1-0.2,0.1-0.2
		s1.4-2.7,2.1-6.3c0.7-3.6,0.1-8.1,0.1-8.1s-0.6-2.4,2.7-9.2c0.1-0.2,0.2-0.5,0.4-0.7c3.6-6.3,12.4-9.4,12.4-9.4L154.2,41.2z"/>
	<path class="st29" d="M84.7,86.6c0.5,2.2,1.5,3.8,3,4.7c1.5,1,3,1.3,4.5,1.1c1.5-0.3,2.6-1,3.3-2.1c0.7-1.1,0.8-2.8,0.3-5
		c-0.6-2.3-1.5-3.8-2.8-4.7c-1.3-0.9-2.8-1.2-4.3-0.9c-1.5,0.3-2.7,1-3.5,2.2C84.4,83.1,84.2,84.6,84.7,86.6 M99.2,68.9l-7.5,2
		c-0.5-1.3-1.2-2.2-2.2-2.7c-0.9-0.5-2-0.6-3.3-0.4c-1.7,0.3-2.9,1.2-3.8,2.6c-0.8,1.5-0.9,4.2-0.3,8.3c1.5-2.3,3.7-3.7,6.7-4.2
		c3.3-0.6,6.4,0,9.3,1.7c2.9,1.7,4.7,4.3,5.6,7.6c0.9,3.6,0.3,6.7-1.6,9.3c-2,2.6-4.9,4.2-8.8,4.9c-4.2,0.7-8-0.1-11.3-2.3
		c-3.4-2.3-5.8-6.5-7.3-12.8c-1.6-6.4-1.3-11.3,0.8-14.6c2.1-3.3,5.4-5.4,9.9-6.1c3.1-0.5,5.9-0.2,8.4,0.9
		C96.1,64.2,97.9,66.1,99.2,68.9"/>
	<path class="st29" d="M117,81c0.5,2.2,1.5,3.8,3,4.7c1.5,1,3,1.3,4.5,1.1c1.5-0.3,2.6-0.9,3.3-2.1c0.7-1.1,0.8-2.8,0.3-5
		c-0.6-2.3-1.5-3.8-2.8-4.7c-1.3-0.9-2.8-1.2-4.3-0.9c-1.5,0.3-2.7,1-3.5,2.2C116.7,77.5,116.5,79.1,117,81 M131.4,63.3l-7.5,2
		c-0.5-1.3-1.2-2.2-2.2-2.7c-0.9-0.5-2-0.6-3.3-0.4c-1.7,0.3-2.9,1.2-3.8,2.6c-0.9,1.5-0.9,4.2-0.3,8.3c1.5-2.3,3.7-3.7,6.7-4.2
		c3.3-0.6,6.4,0,9.3,1.7c2.9,1.7,4.7,4.3,5.6,7.6c0.9,3.6,0.3,6.7-1.6,9.3c-2,2.6-4.9,4.2-8.8,4.9c-4.2,0.7-8-0.1-11.3-2.3
		c-3.4-2.3-5.8-6.5-7.3-12.8c-1.6-6.4-1.3-11.3,0.8-14.6c2.1-3.3,5.4-5.4,9.9-6.1c3.1-0.5,5.9-0.2,8.4,0.9
		C128.3,58.6,130.2,60.6,131.4,63.3"/>
	<path class="st29" d="M73.3,44.6l1.5-0.3c1-0.2,1.5-0.3,1.8-0.4c0.2-0.1,0.4-0.3,0.5-0.4c0.1-0.2,0.1-0.4,0-0.7
		c-0.1-0.3-0.2-0.5-0.4-0.6c-0.2-0.1-0.5-0.2-0.8-0.2c-0.2,0-0.7,0.1-1.5,0.2l-1.6,0.3L73.3,44.6z M72.5,49.8l-2-8.3l4.2-0.7
		c1.1-0.2,1.8-0.2,2.4-0.2c0.5,0.1,1,0.3,1.3,0.6c0.4,0.3,0.6,0.7,0.8,1.2c0.2,0.6,0.1,1.2-0.3,1.7c-0.3,0.5-0.9,0.9-1.8,1.1
		c0.5,0.1,0.9,0.3,1.2,0.5c0.3,0.2,0.8,0.6,1.5,1.2l1.6,1.4L79,48.7l-1.9-1.6c-0.7-0.6-1.1-0.9-1.4-1c-0.2-0.1-0.5-0.2-0.7-0.2
		c-0.2,0-0.6,0-1,0.1L73.6,46l0.8,3.5L72.5,49.8z"/>
	<path class="st29" d="M83.1,43.6c0.2,0.9,0.7,1.6,1.3,2c0.6,0.4,1.4,0.5,2.2,0.4c0.8-0.1,1.4-0.5,1.8-1.1c0.4-0.6,0.5-1.3,0.2-2.3
		c-0.2-1-0.7-1.6-1.3-2c-0.6-0.4-1.3-0.5-2.2-0.4c-0.8,0.1-1.4,0.5-1.8,1.1C82.9,41.9,82.8,42.6,83.1,43.6 M81,44
		c-0.2-0.8-0.2-1.6-0.1-2.2c0.1-0.5,0.3-0.9,0.6-1.3c0.3-0.4,0.7-0.7,1.1-1c0.6-0.3,1.2-0.6,2.1-0.7c1.5-0.3,2.7-0.1,3.8,0.5
		c1.1,0.6,1.8,1.6,2.1,3c0.3,1.3,0.1,2.5-0.5,3.4c-0.7,0.9-1.8,1.5-3.2,1.7c-1.5,0.3-2.7,0.1-3.8-0.5C82.1,46.3,81.4,45.3,81,44"/>
	<path class="st29" d="M91.2,37.9l2-0.3l1.1,4.5c0.2,0.7,0.3,1.2,0.4,1.4c0.2,0.3,0.4,0.6,0.8,0.7c0.4,0.1,0.8,0.2,1.4,0.1
		c0.6-0.1,1-0.3,1.2-0.5c0.2-0.2,0.4-0.5,0.3-0.8c0-0.3-0.1-0.8-0.3-1.4L97,36.9l2-0.3l1.1,4.4c0.2,1,0.4,1.7,0.4,2.1
		c0,0.4-0.1,0.8-0.3,1.1c-0.2,0.3-0.6,0.6-1,0.9c-0.4,0.3-1.1,0.4-1.8,0.6c-0.9,0.2-1.7,0.2-2.2,0.1c-0.5-0.1-1-0.3-1.3-0.5
		c-0.4-0.2-0.6-0.5-0.8-0.8c-0.2-0.5-0.5-1.1-0.7-2.1L91.2,37.9z"/>
	<polygon class="st29" points="105.4,44.1 103.7,37.2 100.8,37.7 100.5,36.3 108.3,34.9 108.7,36.3 105.7,36.8 107.4,43.7 	"/>
	<polygon class="st29" points="111.6,43 109.6,34.7 116.9,33.4 117.3,34.8 112,35.8 112.4,37.6 117.4,36.7 117.7,38.2 112.7,39 
		113.3,41.3 118.8,40.3 119.2,41.7 	"/>
	<g class="st13">
		<path class="st30" d="M88.8,51.6l1.9-0.3l1,4.3c0.2,0.7,0.3,1.1,0.4,1.3c0.2,0.3,0.4,0.5,0.8,0.7c0.4,0.1,0.8,0.2,1.3,0.1
			c0.5-0.1,0.9-0.3,1.1-0.5c0.2-0.2,0.3-0.5,0.3-0.8c0-0.3-0.1-0.7-0.2-1.4l-1.1-4.4l1.9-0.3l1,4.1c0.2,0.9,0.3,1.6,0.3,2
			c0,0.4-0.1,0.8-0.3,1.1c-0.2,0.3-0.5,0.6-0.9,0.8c-0.4,0.2-1,0.4-1.7,0.5c-0.9,0.2-1.6,0.2-2.1,0.1c-0.5-0.1-0.9-0.3-1.3-0.5
			c-0.3-0.2-0.6-0.5-0.7-0.8c-0.2-0.4-0.5-1.1-0.7-2L88.8,51.6z"/>
		<path class="st30" d="M99.1,55.3l1.8-0.5c0.2,0.5,0.6,0.8,1,1c0.4,0.2,0.9,0.2,1.5,0.1c0.6-0.1,1-0.3,1.3-0.6
			c0.3-0.3,0.3-0.5,0.3-0.8c0-0.2-0.1-0.3-0.3-0.4c-0.2-0.1-0.4-0.2-0.8-0.2c-0.2,0-0.8-0.1-1.6-0.1c-1.1,0-1.8-0.2-2.3-0.4
			c-0.7-0.3-1.1-0.8-1.2-1.4c-0.1-0.4-0.1-0.8,0.1-1.2c0.2-0.4,0.5-0.7,1-1c0.5-0.3,1.1-0.5,1.8-0.6c1.2-0.2,2.1-0.1,2.8,0.2
			c0.7,0.3,1.1,0.9,1.4,1.6l-1.9,0.4c-0.2-0.4-0.4-0.7-0.7-0.8c-0.3-0.1-0.7-0.2-1.3-0.1c-0.5,0.1-1,0.3-1.2,0.5
			c-0.2,0.2-0.2,0.3-0.2,0.5c0,0.2,0.2,0.3,0.4,0.4c0.3,0.1,0.9,0.2,1.9,0.2c1,0,1.7,0.1,2.2,0.2c0.5,0.1,0.9,0.3,1.2,0.6
			c0.3,0.3,0.6,0.7,0.7,1.2c0.1,0.5,0.1,0.9-0.1,1.3c-0.2,0.4-0.6,0.8-1,1.1c-0.5,0.3-1.2,0.5-2,0.6c-1.2,0.2-2.1,0.1-2.9-0.2
			C100,56.8,99.4,56.2,99.1,55.3"/>
	</g>
	<g class="st13">
		<path class="st31" d="M124,15.6c0,0-3.4,6.9-13.9,8.7c-10.5,1.8-19.3-2.8-19.4-2.8l0,0l0,0l0,0l0,0c0,0,0,0,0,0l1.2,5.1
			c0,0,0,0,0,0c0,0,7.9,3.3,17.4,1.7c9.5-1.6,14.8-7.4,14.8-7.4l22.7,12.5c0,0-4.8,6.9-3.1,13.8c0.1,0.2,0.1,0.5,0.2,0.8
			c2.2,7.1,4.5,8.7,4.5,8.7s3.8,3.3,5.8,6.5c2,3.2,2.8,6.1,2.8,6.1s0,0.1,0.1,0.3c0.3,1.3,1.4,7.1-2.1,14.8c-4,8.7-14,11.7-14,11.7
			s-10.9,2.4-17.4,5.8c-6.5,3.4-11.3,8.4-11.3,8.4c0,0,0,0,0,0l1,4.2c0,0,0,0,0,0l0,0l0,0l0,0l0,0c0,0,5.3-5.5,12.4-9.2
			c7.2-3.7,19.2-6.4,19.2-6.4s11.1-3.3,15.5-12.8c4.4-9.6,2.2-16.6,2.2-16.6s-0.9-3.1-3.1-6.7c-2.2-3.5-6.4-7.1-6.4-7.1
			s-2.5-1.8-5-9.6c-2.5-7.8,4.4-14.5,4.4-14.5L124,15.6z M93,30.6C93,30.6,93,30.6,93,30.6l3.3,13.7c0.2,0,0.4,0,0.5-0.1
			c0.6-0.1,1-0.3,1.2-0.5c0.2-0.2,0.4-0.5,0.3-0.8c0-0.3-0.1-0.8-0.3-1.4L97,36.9l2-0.3l1.1,4.4c0.2,1,0.4,1.7,0.4,2.1
			c0,0.4-0.1,0.8-0.3,1.1c-0.2,0.3-0.6,0.6-1,0.9c-0.4,0.3-1.1,0.4-1.8,0.6c-0.2,0-0.4,0.1-0.6,0.1l14.6,60.2c0,0,0,0,0,0
			c2.2-1.9,5.8-4.9,10.2-7.1c6.5-3.4,16.7-5.8,18.3-6.2c0.5-0.2,2.4-0.8,4.6-2.2c3.2-2,5.6-4.5,6.9-7.4c1.8-3.9,2.2-7.2,2.2-9.3
			c0-2.2-0.3-3.6-0.4-3.7l0,0c0,0,0,0,0,0l0,0l0-0.1l0,0l0,0c0,0-0.7-2.5-2.5-5.2c-1.6-2.5-4.6-5.2-5.1-5.7
			c-1.1-0.9-3.4-3.4-5.6-10.3c-0.6-2-0.8-4.2-0.6-6.4c0.2-1.7,0.6-3.6,1.3-5.4c0.3-0.9,0.7-1.7,1-2.4l-16.9-9.3
			c-2.8,2.2-7.7,5.2-14.6,6.4C102.9,32.9,96.5,31.6,93,30.6 M111.6,43l-2-8.3l7.3-1.3l0.3,1.4l-5.3,0.9l0.4,1.8l5-0.9l0.3,1.4
			l-5,0.9l0.6,2.3l5.5-1l0.3,1.4L111.6,43z M100.8,37.7l-0.3-1.4l7.9-1.4l0.3,1.4l-2.9,0.5l1.7,6.9l-2,0.3l-1.7-6.9L100.8,37.7z
			 M103.3,56c0.6-0.1,1-0.3,1.3-0.6c0.3-0.3,0.3-0.5,0.3-0.8c0-0.2-0.1-0.3-0.3-0.4c-0.2-0.1-0.4-0.2-0.8-0.2
			c-0.2,0-0.8-0.1-1.6-0.1c-1.1,0-1.8-0.2-2.3-0.4c-0.7-0.3-1.1-0.8-1.2-1.4c-0.1-0.4-0.1-0.8,0.1-1.2c0.2-0.4,0.5-0.7,1-1
			c0.5-0.3,1.1-0.5,1.8-0.6c1.2-0.2,2.1-0.1,2.8,0.2c0.7,0.3,1.2,0.9,1.4,1.6l-1.9,0.4c-0.2-0.4-0.4-0.7-0.7-0.8
			c-0.3-0.1-0.7-0.2-1.3-0.1c-0.5,0.1-1,0.3-1.2,0.5c-0.2,0.2-0.2,0.3-0.2,0.5c0,0.2,0.2,0.3,0.4,0.4c0.3,0.1,0.9,0.2,1.9,0.2
			c1,0,1.7,0.1,2.2,0.2c0.5,0.1,0.9,0.3,1.2,0.6c0.3,0.3,0.6,0.7,0.7,1.2c0.1,0.5,0.1,0.9-0.1,1.3c-0.2,0.4-0.6,0.8-1,1.1
			c-0.5,0.3-1.2,0.5-2,0.6c-1.2,0.2-2.1,0.1-2.9-0.2c-0.7-0.3-1.3-1-1.6-1.8l1.8-0.5c0.2,0.5,0.6,0.8,1,1
			C102.2,56.1,102.7,56.1,103.3,56 M125.4,92.5c-4.2,0.7-8-0.1-11.3-2.3c-3.4-2.3-5.8-6.5-7.3-12.8c-1.6-6.4-1.3-11.3,0.8-14.6
			c2.1-3.3,5.4-5.4,9.9-6.1c3.1-0.5,5.9-0.2,8.4,0.9c2.4,1.1,4.3,3.1,5.5,5.8l-7.5,2c-0.5-1.3-1.2-2.2-2.2-2.7
			c-0.9-0.5-2-0.6-3.3-0.4c-1.7,0.3-2.9,1.2-3.8,2.6c-0.9,1.5-0.9,4.2-0.3,8.3c1.5-2.3,3.7-3.7,6.7-4.2c3.3-0.6,6.4,0,9.3,1.7
			c2.9,1.7,4.7,4.3,5.6,7.6c0.9,3.6,0.3,6.7-1.6,9.3C132.3,90.2,129.3,91.8,125.4,92.5 M121,74.1c-1.5,0.3-2.7,1-3.5,2.2
			c-0.8,1.2-1,2.8-0.5,4.7c0.5,2.2,1.5,3.8,3,4.7c1.5,1,3,1.3,4.5,1.1c1.5-0.3,2.6-0.9,3.3-2.1c0.7-1.1,0.8-2.8,0.3-5
			c-0.6-2.3-1.5-3.8-2.8-4.7C124,74.1,122.5,73.8,121,74.1 M139.8,92.7L139.8,92.7L139.8,92.7C139.7,92.7,139.8,92.7,139.8,92.7"/>
		<path class="st32" d="M124.2,20.8c0,0-5.2,5.8-14.8,7.4c-9.5,1.6-17.4-1.7-17.4-1.7c0,0,0,0,0,0l1,4c0,0,0,0,0,0
			c3.5,1,9.9,2.3,17.2,1c6.9-1.2,11.8-4.2,14.6-6.4l16.9,9.3c-0.3,0.7-0.7,1.5-1,2.4c-0.7,1.8-1.1,3.6-1.3,5.4
			c-0.2,2.3,0,4.4,0.6,6.4c2.2,6.9,4.5,9.4,5.6,10.3c0.5,0.4,3.5,3.1,5.1,5.7c1.7,2.8,2.5,5.2,2.5,5.2l0,0l0,0l0,0.1l0,0
			c0,0.1,0.4,1.5,0.4,3.7c0,2.1-0.4,5.4-2.2,9.3c-1.3,2.9-3.7,5.4-6.9,7.4c-2.2,1.4-4.1,2-4.6,2.2c-1.6,0.4-11.8,2.8-18.3,6.2
			c-4.4,2.3-8,5.2-10.2,7.1c0,0,0,0,0,0l1,4.2c0,0,0,0,0,0c0,0,4.8-5,11.3-8.4c6.5-3.4,17.4-5.8,17.4-5.8s10.1-3,14-11.7
			c3.5-7.7,2.4-13.5,2.1-14.8c0-0.2-0.1-0.3-0.1-0.3s-0.8-2.8-2.8-6.1c-2-3.2-5.8-6.5-5.8-6.5s-2.3-1.6-4.5-8.7
			c-0.1-0.3-0.1-0.5-0.2-0.8c-1.7-6.9,3.1-13.8,3.1-13.8L124.2,20.8z M139.7,92.7L139.7,92.7L139.7,92.7
			C139.8,92.7,139.7,92.7,139.7,92.7 M153.2,70L153.2,70C153.2,70,153.2,70,153.2,70"/>
		<path class="st32" d="M117.5,56.6c-4.5,0.8-7.8,2.8-9.9,6.1c-2.1,3.3-2.4,8.2-0.8,14.6c1.5,6.3,4,10.5,7.3,12.8
			c3.4,2.3,7.1,3.1,11.3,2.3c3.9-0.7,6.8-2.3,8.8-4.9c2-2.6,2.5-5.7,1.6-9.3c-0.8-3.4-2.7-5.9-5.6-7.6c-2.9-1.7-6-2.3-9.3-1.7
			c-2.9,0.5-5.2,1.9-6.7,4.2c-0.7-4.1-0.6-6.8,0.3-8.3c0.9-1.5,2.1-2.3,3.8-2.6c1.3-0.2,2.4-0.1,3.3,0.4c0.9,0.5,1.7,1.4,2.2,2.7
			l7.5-2c-1.3-2.7-3.1-4.7-5.5-5.8C123.5,56.4,120.7,56.1,117.5,56.6 M124.5,86.9c-1.5,0.3-3-0.1-4.5-1.1c-1.5-1-2.5-2.6-3-4.7
			c-0.5-2-0.3-3.6,0.5-4.7c0.8-1.2,2-1.9,3.5-2.2c1.6-0.3,3,0,4.3,0.9c1.3,0.9,2.2,2.4,2.8,4.7c0.5,2.2,0.4,3.9-0.3,5
			C127.1,85.9,125.9,86.6,124.5,86.9"/>
		<path class="st32" d="M99.1,36.5l-2,0.3l1.1,4.6c0.2,0.7,0.2,1.1,0.3,1.4c0,0.3-0.1,0.6-0.3,0.8c-0.2,0.2-0.6,0.4-1.2,0.5
			c-0.2,0-0.4,0.1-0.5,0.1l0.4,1.5c0.2,0,0.4-0.1,0.6-0.1c0.8-0.1,1.4-0.3,1.8-0.6c0.4-0.3,0.8-0.5,1-0.9c0.2-0.3,0.3-0.7,0.3-1.1
			c0-0.4-0.1-1.1-0.4-2.1L99.1,36.5z"/>
	</g>
	<polygon class="st33" points="108.3,34.9 100.5,36.3 100.8,37.7 103.7,37.2 105.4,44.1 107.4,43.7 105.7,36.8 108.7,36.3 	"/>
	<polygon class="st33" points="116.9,33.4 109.6,34.7 111.6,43 119.2,41.7 118.8,40.3 113.3,41.3 112.7,39 117.7,38.2 117.4,36.7 
		112.4,37.6 112,35.8 117.3,34.8 	"/>
	<g class="st13">
		<path class="st32" d="M101.5,49.2c-0.7,0.1-1.3,0.3-1.8,0.6c-0.5,0.3-0.8,0.6-1,1c-0.2,0.4-0.2,0.8-0.1,1.2
			c0.2,0.6,0.6,1.1,1.2,1.4c0.5,0.2,1.3,0.4,2.3,0.4c0.8,0,1.4,0.1,1.6,0.1c0.3,0,0.6,0.1,0.8,0.2c0.2,0.1,0.3,0.3,0.3,0.4
			c0.1,0.3,0,0.6-0.3,0.8c-0.3,0.3-0.7,0.5-1.3,0.6c-0.6,0.1-1.1,0.1-1.5-0.1c-0.4-0.2-0.7-0.5-1-1l-1.8,0.5
			c0.3,0.9,0.9,1.5,1.6,1.8c0.7,0.4,1.7,0.4,2.9,0.2c0.8-0.1,1.5-0.4,2-0.6c0.5-0.3,0.8-0.7,1-1.1c0.2-0.4,0.2-0.9,0.1-1.3
			c-0.1-0.5-0.3-0.9-0.7-1.2c-0.3-0.3-0.7-0.5-1.2-0.6c-0.5-0.1-1.2-0.2-2.2-0.2c-1,0-1.6-0.1-1.9-0.2c-0.2-0.1-0.4-0.2-0.4-0.4
			c0-0.2,0-0.4,0.2-0.5c0.3-0.2,0.7-0.4,1.2-0.5c0.5-0.1,1-0.1,1.3,0.1c0.3,0.1,0.6,0.4,0.7,0.8l1.9-0.4c-0.2-0.7-0.7-1.2-1.4-1.6
			C103.6,49.1,102.7,49,101.5,49.2"/>
	</g>
	<g>
		<g>
			<path d="M80.2,41.6c0.7,0.9,2,2,3.6,2.6c2,0.8,3.6,0.5,4.2-0.7c0.6-1.1,0.1-2.1-1.7-3.6c-2.3-2-3.4-4-2.2-6.1
				c1.4-2.4,4.7-3.2,8.4-1.7c1.9,0.8,3,1.6,3.7,2.4l-2,1.8c-0.5-0.5-1.4-1.4-3-2.1c-2-0.8-3.3-0.3-3.8,0.6c-0.6,1.1,0.1,2,1.9,3.7
				c2.4,2.2,3.1,4,1.9,6.1c-1.3,2.3-4.6,3.5-9,1.7c-1.8-0.7-3.4-1.9-4.1-2.8L80.2,41.6z"/>
			<path d="M94.5,51l4.1-16.1l3.3,1.4l-2.1,7.2c-0.6,1.9-1.2,3.9-1.8,5.5l0.1,0c1.1-1.4,2.6-2.9,4.1-4.5l5.6-5.8l3.3,1.3l-2.1,7.3
				c-0.6,1.9-1.1,3.6-1.8,5.3l0.1,0c1.2-1.5,2.6-2.9,4-4.5l5.5-5.8l3.2,1.3l-12.9,12.5l-3.3-1.4l2.1-7.5c0.5-1.8,1-3.3,1.7-4.9
				l-0.1,0c-1.2,1.4-2.3,2.7-3.8,4.1l-5.9,6L94.5,51z"/>
			<path d="M119.5,56.2l-3.8,3.5l-3.2-1.3l13.8-12.1l4,1.6l-2.7,16.7l-3.4-1.4l0.8-4.7L119.5,56.2z M125.6,56.2l0.7-4.1
				c0.2-1,0.5-2.1,0.7-3.1l-0.1,0c-0.7,0.7-1.6,1.6-2.4,2.4l-3.4,3L125.6,56.2z"/>
			<path d="M138.1,51.2c1.2,0.3,2.9,0.8,4.9,1.7c2.3,0.9,3.7,2,4.4,3.2c0.6,1.1,0.6,2.5-0.2,3.9c-0.8,1.4-1.9,2.3-3.3,2.7
				c-1.9,0.5-4.1,0.2-6.3-0.7c-0.6-0.2-1.1-0.5-1.5-0.7l-3.1,5.4l-3.1-1.3L138.1,51.2z M137.3,59.2c0.3,0.3,0.8,0.5,1.5,0.7
				c2.3,1,4.3,0.6,5.3-1.1c0.9-1.6,0.1-3-2.1-3.9c-0.9-0.4-1.5-0.5-1.9-0.6L137.3,59.2z"/>
		</g>
	</g>
	<g>
		<g>
			<path d="M86.2,88c-2.4-0.2-6.7-0.9-10.9-2.6c-5.3-2.1-8.6-4.9-10.2-8.5c-1.5-3.4-1.1-7.5,1.2-11.4c4.8-8.3,14.9-10.7,25.2-6.5
				c3.8,1.6,6.4,3.4,7.6,4.6l-3.5,3.3c-1.3-1.3-3.1-2.7-6.4-4c-6.6-2.7-13.2-1.3-16.7,4.8c-3.4,6-1.1,11.3,5.3,13.9
				c2.1,0.8,3.7,1.2,4.6,1.2l3.8-6.5L80.6,74l2.2-3.8l11,4.5L86.2,88z"/>
			<path d="M126.6,89.5c-5.1,8.8-14.3,11.2-22.9,7.7C95,93.6,92.6,85.6,97.1,78c4.6-8.1,14-11.3,22.8-7.7
				C128.9,74,130.9,82,126.6,89.5z M103.1,80.3c-3.1,5.4-2.3,10.9,3.1,13.1c5.5,2.2,11.1-0.8,14.3-6.3c2.9-5,2.6-10.8-3-13.1
				C111.8,71.7,106.2,74.9,103.1,80.3z"/>
		</g>
	</g>
</g>
</svg>
