<?xml version="1.0" encoding="utf-8"?>
<!-- Generator: Adobe Illustrator 22.1.0, SVG Export Plug-In . SVG Version: 6.00 Build 0)  -->
<svg version="1.1" id="图层_1" xmlns="http://www.w3.org/2000/svg" xmlns:xlink="http://www.w3.org/1999/xlink" x="0px" y="0px"
	 viewBox="0 0 64 64" style="enable-background:new 0 0 64 64;" xml:space="preserve">
<style type="text/css">
	.st0{fill:url(#SVGID_1_);}
	.st1{display:none;fill:#392F30;}
	.st2{display:none;}
	.st3{display:inline;fill:#392F30;}
	.st4{display:inline;fill:#989091;}
	.st5{display:inline;fill:#1D1415;}
	.st6{display:none;fill:#1D1415;}
</style>
<linearGradient id="SVGID_1_" gradientUnits="userSpaceOnUse" x1="32.2212" y1="57.5016" x2="32.2212" y2="6.5456">
	<stop  offset="0" style="stop-color:#FF7300"/>
	<stop  offset="9.263238e-02" style="stop-color:#F97C01"/>
	<stop  offset="0.2462" style="stop-color:#EA9602"/>
	<stop  offset="0.2889" style="stop-color:#E59E03"/>
	<stop  offset="0.8994" style="stop-color:#E5C500"/>
	<stop  offset="0.9944" style="stop-color:#BF6F00"/>
</linearGradient>
<path class="st0" d="M58.9,38.3c0,0,0-1.7-0.7-3.8c-0.6-2.1-2.1-4.3-2.1-4.3S55.3,29,55,24.7c-0.3-4.3,3.5-7.2,3.5-7.2L47.6,6.6
	c0,0-2.2,3.3-7.1,3.3c-4.8,0-8.2-3.2-8.3-3.2v0l0,0v0v0c0,0-3.4,3.2-8.3,3.2c-4.8,0-7-3.4-7-3.4l-11,11c0,0,3.7,2.8,3.4,7.1
	c-0.3,4.3-1.2,5.5-1.2,5.5s-1.5,2.3-2.1,4.3c-0.6,2.1-0.7,3.8-0.7,3.8s-0.2,3.9,2.8,8.5c3,4.6,8.2,5.3,8.2,5.3s5.6,0.3,9.2,1.6
	c3.6,1.3,6.5,3.7,6.5,3.7v0v0l0,0v0c0,0,2.9-2.4,6.5-3.7c3.6-1.3,9.2-1.6,9.2-1.6s5.2-0.7,8.2-5.3C59.1,42.2,58.9,38.3,58.9,38.3"/>
<path d="M31.1,53.8L31.1,53.8L31.1,53.8z M46.2,48.5L46.2,48.5L46.2,48.5C46.2,48.5,46.2,48.5,46.2,48.5 M18.2,48.5
	C18.2,48.5,18.2,48.5,18.2,48.5L18.2,48.5L18.2,48.5z M11.9,31.5C11.9,31.5,11.9,31.5,11.9,31.5C11.9,31.5,11.9,31.5,11.9,31.5
	 M24.7,13.8c2.1,0,4.2-0.5,6.1-1.4c0.5-0.2,1-0.5,1.4-0.7c1.4,0.9,4.1,2.1,7.5,2.1c3.2,0,5.7-1.1,7.1-2l6.5,6.4
	c-0.2,0.3-0.5,0.7-0.7,1.1c-0.5,0.9-0.9,1.8-1.1,2.7c-0.3,1.2-0.5,2.3-0.4,3.4c0.2,3.8,1,5.4,1.4,5.9c0.2,0.3,1.2,2,1.6,3.4
	c0.5,1.6,0.5,3,0.5,3v0v0l0,0l0,0c0,0,0,0.8-0.2,2c-0.2,1.1-0.8,2.8-2,4.7c-0.9,1.4-2.2,2.5-3.9,3.3c-1.1,0.5-2,0.7-2.3,0.7
	c-0.8,0-5.5,0.4-8.8,1.6c-2.2,0.8-4.1,2-5.3,2.8c-1.2-0.8-3.1-2-5.3-2.8c-3.3-1.2-8-1.5-8.8-1.6c-0.2,0-1.2-0.2-2.3-0.7
	c-1.6-0.8-2.9-1.9-3.9-3.3c-1.2-1.9-1.7-3.6-2-4.7c-0.3-1.2-0.2-2-0.2-2l0,0l0,0l0,0v0c0,0,0.1-1.4,0.5-3c0.4-1.5,1.5-3.2,1.6-3.4
	c0.4-0.6,1.1-2.1,1.4-5.9c0.1-1.1-0.1-2.3-0.4-3.4c-0.3-0.9-0.6-1.8-1.1-2.7c-0.2-0.4-0.5-0.8-0.7-1.1l6.5-6.4
	C19,12.6,21.5,13.8,24.7,13.8 M47.1,9.4c0,0-2.9,2.6-7.3,2.6c-4.4,0-7.5-2.5-7.5-2.5c0,0-2.5,2-6.2,2.4c-0.4,0-0.9,0.1-1.3,0.1
	c-4.4,0-7.3-2.6-7.3-2.6L8.7,18c0,0,2.9,3.2,2.9,7c0,0.1,0,0.3,0,0.4c-0.2,3.9-1.1,5-1.1,5s-1.3,2.1-1.9,3.9C8,36.2,8,37.7,8,37.7
	s0,0,0,0.1c0,0.7,0.1,3.9,2.5,7.6c2.7,4.2,7.5,4.9,7.5,4.9s5.1,0.3,8.3,1.5c3.2,1.2,5.9,3.4,5.9,3.4c0,0,2.7-2.2,5.9-3.4
	c3.3-1.2,8.3-1.5,8.3-1.5s4.8-0.6,7.5-4.9c2.4-3.7,2.5-6.9,2.5-7.6c0-0.1,0-0.1,0-0.1s0-1.6-0.6-3.4c-0.5-1.9-1.9-3.9-1.9-3.9
	s-0.8-1.1-1.1-5c0-0.1,0-0.3,0-0.4c0-3.8,2.9-7,2.9-7L47.1,9.4z"/>
<path class="st1" d="M22.5,40.4c0,1.2,0.3,2.1,0.8,2.8c0.5,0.6,1.2,1,1.9,1c0.7,0,1.2-0.3,1.7-0.8c0.5-0.5,0.7-1.4,0.7-2.6
	c0-1.2-0.2-2.2-0.7-2.7c-0.5-0.6-1.1-0.9-1.8-0.9c-0.7,0-1.3,0.3-1.8,0.8C22.8,38.5,22.5,39.3,22.5,40.4 M30.8,32.4l-3.6,0.4
	c-0.1-0.7-0.3-1.3-0.7-1.6c-0.4-0.3-0.8-0.5-1.4-0.5c-0.8,0-1.4,0.3-2,1c-0.5,0.7-0.9,2.1-1,4.3c0.9-1.1,2-1.6,3.4-1.6
	c1.5,0,2.8,0.6,3.9,1.7c1.1,1.2,1.6,2.7,1.6,4.5c0,2-0.6,3.5-1.7,4.7c-1.1,1.2-2.6,1.8-4.4,1.8c-1.9,0-3.5-0.8-4.8-2.3
	c-1.2-1.5-1.9-4-1.9-7.4c0-3.5,0.6-6,1.9-7.6c1.3-1.5,3-2.3,5-2.3c1.5,0,2.7,0.4,3.6,1.2C30,29.6,30.6,30.8,30.8,32.4"/>
<path class="st1" d="M37.4,40.4c0,1.2,0.3,2.1,0.8,2.8c0.5,0.6,1.2,1,1.9,1c0.7,0,1.2-0.3,1.7-0.8c0.5-0.5,0.7-1.4,0.7-2.6
	c0-1.2-0.2-2.2-0.7-2.7c-0.5-0.6-1.1-0.9-1.8-0.9c-0.7,0-1.3,0.3-1.8,0.8C37.6,38.5,37.4,39.3,37.4,40.4 M45.7,32.4l-3.6,0.4
	c-0.1-0.7-0.3-1.3-0.7-1.6c-0.4-0.3-0.8-0.5-1.4-0.5c-0.8,0-1.4,0.3-2,1c-0.5,0.7-0.9,2.1-1,4.3c0.9-1.1,2-1.6,3.4-1.6
	c1.5,0,2.8,0.6,3.9,1.7c1.1,1.2,1.6,2.7,1.6,4.5c0,2-0.6,3.5-1.7,4.7c-1.1,1.2-2.6,1.8-4.4,1.8c-1.9,0-3.5-0.8-4.8-2.3
	c-1.2-1.5-1.9-4-1.9-7.4c0-3.5,0.6-6,1.9-7.6c1.3-1.5,3-2.3,5-2.3c1.5,0,2.7,0.4,3.6,1.2C44.8,29.6,45.4,30.8,45.7,32.4"/>
<path class="st1" d="M22,17.3h0.7c0.4,0,0.7,0,0.8-0.1c0.1,0,0.2-0.1,0.3-0.2c0.1-0.1,0.1-0.2,0.1-0.3c0-0.2,0-0.3-0.1-0.4
	c-0.1-0.1-0.2-0.2-0.3-0.2c-0.1,0-0.3,0-0.7,0H22V17.3z M21.1,19.9v-4.6H23c0.5,0,0.8,0,1.1,0.1c0.2,0.1,0.4,0.2,0.5,0.4
	c0.1,0.2,0.2,0.4,0.2,0.7c0,0.3-0.1,0.6-0.3,0.8c-0.2,0.2-0.5,0.4-0.9,0.4c0.2,0.1,0.4,0.2,0.5,0.4c0.1,0.1,0.3,0.4,0.5,0.7l0.6,0.9
	h-1.1l-0.7-1c-0.2-0.4-0.4-0.6-0.5-0.7c-0.1-0.1-0.2-0.2-0.3-0.2c-0.1,0-0.3-0.1-0.5-0.1H22v1.9H21.1z"/>
<path class="st1" d="M26.4,17.6c0,0.5,0.1,0.9,0.4,1.2c0.2,0.3,0.5,0.4,0.9,0.4c0.4,0,0.7-0.1,0.9-0.4c0.2-0.3,0.4-0.7,0.4-1.2
	c0-0.5-0.1-0.9-0.3-1.2c-0.2-0.3-0.5-0.4-0.9-0.4c-0.4,0-0.7,0.1-0.9,0.4C26.6,16.7,26.4,17.1,26.4,17.6 M25.5,17.6
	c0-0.5,0.1-0.9,0.2-1.2c0.1-0.2,0.2-0.4,0.4-0.6c0.2-0.2,0.4-0.3,0.6-0.4c0.3-0.1,0.6-0.2,1-0.2c0.7,0,1.2,0.2,1.6,0.6
	c0.4,0.4,0.6,1,0.6,1.7c0,0.7-0.2,1.3-0.6,1.7c-0.4,0.4-0.9,0.6-1.6,0.6c-0.7,0-1.2-0.2-1.6-0.6C25.7,18.9,25.5,18.4,25.5,17.6"/>
<path class="st1" d="M30.6,15.3h0.9v2.5c0,0.4,0,0.6,0,0.8c0,0.2,0.1,0.3,0.3,0.4c0.1,0.1,0.3,0.2,0.6,0.2c0.3,0,0.5-0.1,0.6-0.2
	c0.1-0.1,0.2-0.2,0.2-0.4c0-0.2,0-0.4,0-0.8v-2.5h0.9v2.4c0,0.5,0,0.9-0.1,1.2c-0.1,0.2-0.1,0.4-0.3,0.6c-0.1,0.2-0.3,0.3-0.5,0.4
	c-0.2,0.1-0.5,0.1-0.9,0.1c-0.4,0-0.8-0.1-1-0.2c-0.2-0.1-0.4-0.2-0.5-0.4c-0.1-0.2-0.2-0.3-0.3-0.5c-0.1-0.3-0.1-0.6-0.1-1.2V15.3z
	"/>
<polygon class="st1" points="36.3,19.9 36.3,16.1 34.9,16.1 34.9,15.3 38.5,15.3 38.5,16.1 37.2,16.1 37.2,19.9 "/>
<polygon class="st1" points="39.1,19.9 39.1,15.3 42.5,15.3 42.5,16.1 40,16.1 40,17.1 42.3,17.1 42.3,17.9 40,17.9 40,19.1 
	42.6,19.1 42.6,19.9 "/>
<g class="st2">
	<path class="st3" d="M28.1,22.3H29v2.3c0,0.4,0,0.6,0,0.7c0,0.2,0.1,0.3,0.3,0.4c0.1,0.1,0.3,0.2,0.6,0.2c0.2,0,0.4-0.1,0.6-0.2
		c0.1-0.1,0.2-0.2,0.2-0.4c0-0.1,0-0.4,0-0.7v-2.4h0.9v2.3c0,0.5,0,0.9-0.1,1.1c0,0.2-0.1,0.4-0.3,0.5c-0.1,0.1-0.3,0.3-0.5,0.4
		c-0.2,0.1-0.5,0.1-0.8,0.1c-0.4,0-0.7,0-0.9-0.1c-0.2-0.1-0.4-0.2-0.5-0.4c-0.1-0.2-0.2-0.3-0.2-0.5c-0.1-0.2-0.1-0.6-0.1-1.1V22.3
		z"/>
	<path class="st3" d="M32.2,25.2l0.8-0.1c0.1,0.3,0.2,0.5,0.3,0.6c0.2,0.1,0.4,0.2,0.6,0.2c0.3,0,0.5-0.1,0.6-0.2
		c0.1-0.1,0.2-0.3,0.2-0.4c0-0.1,0-0.2-0.1-0.3c-0.1-0.1-0.2-0.1-0.3-0.2c-0.1,0-0.3-0.1-0.7-0.2c-0.5-0.1-0.8-0.3-1-0.4
		c-0.3-0.2-0.4-0.5-0.4-0.9c0-0.2,0.1-0.4,0.2-0.6c0.1-0.2,0.3-0.3,0.5-0.4c0.2-0.1,0.5-0.2,0.8-0.2c0.5,0,0.9,0.1,1.2,0.4
		c0.3,0.2,0.4,0.6,0.4,1l-0.9,0c0-0.2-0.1-0.4-0.2-0.5C34.4,23,34.2,23,34,23c-0.3,0-0.4,0.1-0.6,0.2c-0.1,0.1-0.1,0.2-0.1,0.3
		c0,0.1,0,0.2,0.1,0.3c0.1,0.1,0.4,0.2,0.8,0.3c0.4,0.1,0.7,0.2,0.9,0.3c0.2,0.1,0.4,0.3,0.5,0.4c0.1,0.2,0.2,0.4,0.2,0.7
		c0,0.2-0.1,0.5-0.2,0.7c-0.1,0.2-0.3,0.4-0.6,0.5c-0.3,0.1-0.6,0.2-0.9,0.2c-0.5,0-1-0.1-1.3-0.4C32.5,26.1,32.3,25.7,32.2,25.2"/>
</g>
<g class="st2">
	<path class="st4" d="M47.6,6.6c0,0-2.2,3.3-7.1,3.3c-4.8,0-8.2-3.2-8.3-3.2v0l0,0v0v0c0,0,0,0,0,0v2.8c0,0,0,0,0,0
		c0,0,3.1,2.5,7.5,2.5c4.4,0,7.3-2.6,7.3-2.6l8.7,8.6c0,0-2.9,3.2-2.9,7c0,0.1,0,0.3,0,0.4c0.2,3.9,1.1,5,1.1,5s1.3,2.1,1.9,3.9
		c0.5,1.9,0.6,3.4,0.6,3.4s0,0,0,0.1c0,0.7-0.1,3.9-2.5,7.6c-2.7,4.2-7.5,4.9-7.5,4.9s-5.1,0.3-8.3,1.5c-3.2,1.2-5.9,3.4-5.9,3.4
		c0,0,0,0,0,0v2.3c0,0,0,0,0,0v0v0l0,0v0c0,0,2.9-2.4,6.5-3.7c3.6-1.3,9.2-1.6,9.2-1.6s5.2-0.7,8.2-5.3c3-4.6,2.8-8.5,2.8-8.5
		s0-1.7-0.7-3.8c-0.6-2.1-2.1-4.3-2.1-4.3S55.3,29,55,24.7c-0.3-4.3,3.5-7.2,3.5-7.2L47.6,6.6z M32.2,11.7
		C32.2,11.7,32.2,11.7,32.2,11.7l0,7.5c0.1,0,0.2,0,0.2,0c0.3,0,0.5-0.1,0.6-0.2c0.1-0.1,0.2-0.2,0.2-0.4c0-0.2,0-0.4,0-0.8v-2.5
		h0.9v2.4c0,0.5,0,0.9-0.1,1.2c-0.1,0.2-0.1,0.4-0.3,0.6c-0.1,0.2-0.3,0.3-0.5,0.4c-0.2,0.1-0.5,0.1-0.9,0.1c-0.1,0-0.2,0-0.3,0
		v32.9c0,0,0,0,0,0c1.2-0.8,3.1-2,5.3-2.8c3.3-1.2,8-1.5,8.8-1.6c0.2,0,1.2-0.2,2.3-0.7c1.6-0.8,2.9-1.9,3.9-3.3
		c1.2-1.9,1.7-3.6,2-4.7c0.3-1.2,0.2-1.9,0.2-2v0c0,0,0,0,0,0l0,0l0,0v0v0c0,0-0.1-1.4-0.5-3c-0.4-1.5-1.5-3.2-1.6-3.4
		c-0.4-0.6-1.1-2.1-1.4-5.9c-0.1-1.1,0.1-2.3,0.4-3.4c0.3-0.9,0.6-1.8,1.1-2.7c0.2-0.4,0.5-0.8,0.7-1.1l-6.5-6.4c-1.5,0.9-4,2-7.1,2
		C36.4,13.8,33.7,12.5,32.2,11.7 M39.1,19.9v-4.6h3.4v0.8H40v1h2.3v0.8H40v1.2h2.5v0.8H39.1z M34.9,16.1v-0.8h3.6v0.8h-1.3v3.8h-0.9
		v-3.8H34.9z M34,26c0.3,0,0.5-0.1,0.6-0.2c0.1-0.1,0.2-0.3,0.2-0.4c0-0.1,0-0.2-0.1-0.3c-0.1-0.1-0.2-0.1-0.3-0.2
		c-0.1,0-0.3-0.1-0.7-0.2c-0.5-0.1-0.8-0.3-1-0.4c-0.3-0.2-0.4-0.5-0.4-0.9c0-0.2,0.1-0.4,0.2-0.6c0.1-0.2,0.3-0.3,0.5-0.4
		c0.2-0.1,0.5-0.2,0.8-0.2c0.5,0,0.9,0.1,1.2,0.4c0.3,0.2,0.4,0.6,0.4,1l-0.9,0c0-0.2-0.1-0.4-0.2-0.5C34.4,23,34.2,23,34,23
		c-0.3,0-0.4,0.1-0.6,0.2c-0.1,0.1-0.1,0.2-0.1,0.3c0,0.1,0,0.2,0.1,0.3c0.1,0.1,0.4,0.2,0.8,0.3c0.4,0.1,0.7,0.2,0.9,0.3
		c0.2,0.1,0.4,0.3,0.5,0.4c0.1,0.2,0.2,0.4,0.2,0.7c0,0.2-0.1,0.5-0.2,0.7c-0.1,0.2-0.3,0.4-0.6,0.5c-0.3,0.1-0.6,0.2-0.9,0.2
		c-0.5,0-1-0.1-1.3-0.4c-0.3-0.3-0.5-0.6-0.5-1.1l0.8-0.1c0.1,0.3,0.2,0.5,0.3,0.6C33.6,25.9,33.8,26,34,26 M39.9,47.1
		c-1.9,0-3.5-0.8-4.8-2.3c-1.2-1.5-1.9-4-1.9-7.4c0-3.5,0.6-6,1.9-7.6c1.3-1.5,3-2.3,5-2.3c1.5,0,2.7,0.4,3.6,1.2
		c1,0.8,1.6,2,1.8,3.6l-3.6,0.4c-0.1-0.7-0.3-1.3-0.7-1.6c-0.4-0.3-0.8-0.5-1.4-0.5c-0.8,0-1.4,0.3-2,1c-0.5,0.7-0.9,2.1-1,4.3
		c0.9-1.1,2-1.6,3.4-1.6c1.5,0,2.8,0.6,3.9,1.7c1.1,1.2,1.6,2.7,1.6,4.5c0,2-0.6,3.5-1.7,4.7C43.2,46.5,41.7,47.1,39.9,47.1
		 M39.9,37.1c-0.7,0-1.3,0.3-1.8,0.8c-0.5,0.6-0.7,1.4-0.7,2.4c0,1.2,0.3,2.1,0.8,2.8c0.5,0.6,1.2,1,1.9,1c0.7,0,1.2-0.3,1.7-0.8
		c0.5-0.5,0.7-1.4,0.7-2.6c0-1.2-0.2-2.2-0.7-2.7C41.2,37.4,40.6,37.1,39.9,37.1 M46.2,48.5L46.2,48.5L46.2,48.5
		C46.2,48.5,46.2,48.5,46.2,48.5"/>
	<path class="st5" d="M47.1,9.4c0,0-2.9,2.6-7.3,2.6c-4.4,0-7.5-2.5-7.5-2.5c0,0,0,0,0,0v2.2c0,0,0,0,0,0c1.4,0.9,4.1,2.1,7.5,2.1
		c3.2,0,5.7-1.1,7.1-2l6.5,6.4c-0.2,0.3-0.5,0.7-0.7,1.1c-0.5,0.9-0.9,1.8-1.1,2.7c-0.3,1.2-0.5,2.3-0.4,3.4c0.2,3.8,1,5.4,1.4,5.9
		c0.2,0.3,1.2,2,1.6,3.4c0.5,1.6,0.5,3,0.5,3v0v0l0,0l0,0c0,0,0,0.8-0.2,2c-0.2,1.1-0.8,2.8-2,4.7c-0.9,1.4-2.2,2.5-3.9,3.3
		c-1.1,0.5-2,0.7-2.3,0.7c-0.8,0-5.5,0.4-8.8,1.6c-2.2,0.8-4.1,2-5.3,2.8c0,0,0,0,0,0v2.3c0,0,0,0,0,0c0,0,2.7-2.2,5.9-3.4
		c3.3-1.2,8.3-1.5,8.3-1.5s4.8-0.6,7.5-4.9c2.4-3.7,2.5-6.9,2.5-7.6c0-0.1,0-0.1,0-0.1s0-1.6-0.6-3.4c-0.5-1.9-1.9-3.9-1.9-3.9
		s-0.8-1.1-1.1-5c0-0.1,0-0.3,0-0.4c0-3.8,2.9-7,2.9-7L47.1,9.4z M46.2,48.5L46.2,48.5L46.2,48.5C46.2,48.5,46.2,48.5,46.2,48.5
		 M54.6,37.8L54.6,37.8C54.6,37.8,54.6,37.8,54.6,37.8"/>
	<path class="st5" d="M40.3,27.6c-2.1,0-3.7,0.8-5,2.3c-1.3,1.5-1.9,4.1-1.9,7.6c0,3.4,0.6,5.9,1.9,7.4c1.2,1.5,2.8,2.3,4.8,2.3
		c1.8,0,3.3-0.6,4.4-1.8c1.1-1.2,1.7-2.8,1.7-4.7c0-1.8-0.5-3.4-1.6-4.5c-1.1-1.2-2.4-1.7-3.9-1.7c-1.4,0-2.5,0.5-3.4,1.6
		c0.1-2.2,0.5-3.6,1-4.3c0.5-0.7,1.2-1,2-1c0.6,0,1.1,0.2,1.4,0.5c0.4,0.3,0.6,0.9,0.7,1.6l3.6-0.4c-0.3-1.6-0.9-2.7-1.8-3.6
		C42.9,28,41.7,27.6,40.3,27.6 M40.1,44.1c-0.7,0-1.3-0.3-1.9-1c-0.5-0.6-0.8-1.6-0.8-2.8c0-1.1,0.2-1.9,0.7-2.4
		c0.5-0.6,1.1-0.8,1.8-0.8c0.7,0,1.3,0.3,1.8,0.9c0.5,0.6,0.7,1.5,0.7,2.7c0,1.2-0.2,2.1-0.7,2.6C41.3,43.8,40.8,44.1,40.1,44.1"/>
	<path class="st5" d="M34.3,15.3h-0.9v2.5c0,0.4,0,0.6,0,0.8c0,0.2-0.1,0.3-0.2,0.4c-0.1,0.1-0.3,0.2-0.6,0.2c-0.1,0-0.2,0-0.2,0V20
		c0.1,0,0.2,0,0.3,0c0.4,0,0.7,0,0.9-0.1c0.2-0.1,0.4-0.2,0.5-0.4c0.1-0.2,0.2-0.3,0.3-0.6c0-0.2,0.1-0.6,0.1-1.2V15.3z"/>
</g>
<polygon class="st6" points="38.5,15.3 34.9,15.3 34.9,16.1 36.3,16.1 36.3,19.9 37.2,19.9 37.2,16.1 38.5,16.1 "/>
<polygon class="st6" points="42.5,15.3 39.1,15.3 39.1,19.9 42.6,19.9 42.6,19.1 40,19.1 40,17.9 42.3,17.9 42.3,17.1 40,17.1 
	40,16.1 42.5,16.1 "/>
<g class="st2">
	<path class="st5" d="M34,22.2c-0.3,0-0.6,0.1-0.8,0.2c-0.2,0.1-0.4,0.2-0.5,0.4c-0.1,0.2-0.2,0.4-0.2,0.6c0,0.3,0.1,0.6,0.4,0.9
		c0.2,0.2,0.5,0.3,1,0.4c0.4,0.1,0.6,0.2,0.7,0.2c0.1,0.1,0.3,0.1,0.3,0.2c0.1,0.1,0.1,0.2,0.1,0.3c0,0.2-0.1,0.3-0.2,0.4
		C34.5,25.9,34.3,26,34,26c-0.3,0-0.5-0.1-0.6-0.2c-0.2-0.1-0.3-0.3-0.3-0.6l-0.8,0.1c0.1,0.5,0.2,0.8,0.5,1.1
		c0.3,0.3,0.7,0.4,1.3,0.4c0.4,0,0.7-0.1,0.9-0.2c0.3-0.1,0.4-0.3,0.6-0.5c0.1-0.2,0.2-0.4,0.2-0.7c0-0.3-0.1-0.5-0.2-0.7
		c-0.1-0.2-0.3-0.3-0.5-0.4c-0.2-0.1-0.5-0.2-0.9-0.3c-0.4-0.1-0.7-0.2-0.8-0.3c-0.1-0.1-0.1-0.2-0.1-0.3c0-0.1,0-0.2,0.1-0.3
		C33.5,23,33.7,23,34,23c0.2,0,0.4,0,0.6,0.1c0.1,0.1,0.2,0.3,0.2,0.5l0.9,0c0-0.4-0.2-0.7-0.4-1C34.9,22.4,34.5,22.2,34,22.2"/>
</g>
<g>
	<g>
		<path d="M18.2,23.6L18,24.3c-0.2,0.5-0.1,0.6,0.2,0.6c0.3,0,0.4-0.1,0.6-0.6c0.2-0.6-0.1-0.9-0.9-1.5c-1.1-0.8-2-1.3-1.5-2.7
			c0.5-1.2,1.5-1.8,3.5-1.8c3.2,0,3.3,1.2,2.9,2.3l-0.1,0.2h-2.8l0.2-0.6c0.2-0.4,0.1-0.6-0.3-0.6c-0.2,0-0.4,0-0.5,0.4
			c-0.2,0.6,0,0.7,0.8,1.3c1.6,1.2,2.1,1.7,1.7,3c-0.5,1.3-1.6,1.8-3.9,1.8c-2.7,0-3.4-0.8-2.9-2.3l0.1-0.3H18.2z"/>
		<path d="M22.7,26.1l1.9-7.7h3.1c-0.3,1-1.5,4.2-1.8,4.9h0.2c0.6-1.2,1.6-3.4,2.3-4.9h2.2c-0.3,1.1-0.9,3.6-1.3,4.8h0.2
			c0.4-1.2,1.6-4.4,1.7-4.8h3l-3.9,7.7H27c0.2-0.7,0.3-1.4,0.7-2.9h-0.2c-0.6,1.3-1,1.9-1.4,2.9H22.7z"/>
		<path d="M36,24.3l-0.7,1.7H32l4.2-7.7h4.9l-1.4,7.7h-3.1l0.4-1.7H36z M37.4,22.9c0.2-0.6,0.6-2.5,0.7-3h-0.1c-0.1,0.3-1,2.2-1.3,3
			H37.4z"/>
		<path d="M43.3,18.4h3.4c2.8,0,3.3,1,2.9,2.2l-0.3,0.8c-0.5,1.3-1.2,1.9-3.8,1.9h-1l-1,2.8h-3.1L43.3,18.4z M45.1,21.8h0.3
			c0.5,0,0.7-0.1,0.8-0.5l0.4-1.1c0.1-0.4,0-0.5-0.5-0.5h-0.3L45.1,21.8z"/>
	</g>
</g>
<g>
	<g>
		<path d="M30.4,45.6H27c-0.1-0.4-0.2-0.8-0.2-1.2c-1.1,1.1-2.8,1.5-4.9,1.5c-5.2,0-7.1-2.7-7.1-7.4c0-5.3,3.1-7.5,8.4-7.5
			c6.7,0,7.1,3.3,7.2,4.2H26c-0.1-0.6-0.3-2-2.9-2c-2.9,0-3.7,2.2-3.7,5.3c0,3.4,0.7,5.2,3.5,5.2c2.4,0,3.1-1,3.1-3.2v-0.8h-3.3
			v-2.2h7.8V45.6z"/>
		<path d="M49.6,38.3c0,5.3-2.5,7.6-8.2,7.6c-5.3,0-7.9-2.3-7.9-7.6c0-5.2,3-7.3,8.2-7.3C47,31,49.6,33.3,49.6,38.3z M38,38.3
			c0,3.4,0.9,5.5,3.5,5.5c2.7,0,3.5-1.9,3.5-5.5c0-3.4-0.8-5.1-3.5-5.1C38.8,33.2,38,35,38,38.3z"/>
	</g>
</g>
</svg>
