<?xml version="1.0" encoding="utf-8"?>
<!-- Generator: Adobe Illustrator 22.1.0, SVG Export Plug-In . SVG Version: 6.00 Build 0)  -->
<svg version="1.1" id="图层_1" xmlns="http://www.w3.org/2000/svg" xmlns:xlink="http://www.w3.org/1999/xlink" x="0px" y="0px"
	 viewBox="0 0 300 300" style="enable-background:new 0 0 300 300;" xml:space="preserve">
<style type="text/css">
	.st0{fill:url(#SVGID_1_);}
	.st1{display:none;}
	.st2{fill:url(#SVGID_2_);}
	.st3{fill:none;}
	.st4{fill:#FDFDFD;}
	.st5{fill:url(#SVGID_3_);}
</style>
<linearGradient id="SVGID_1_" gradientUnits="userSpaceOnUse" x1="52.4567" y1="150" x2="204.3777" y2="150">
	<stop  offset="0" style="stop-color:#FF7300"/>
	<stop  offset="0.1771" style="stop-color:#F97C01"/>
	<stop  offset="0.4705" style="stop-color:#EA9602"/>
	<stop  offset="0.5521" style="stop-color:#E59E03"/>
	<stop  offset="0.8652" style="stop-color:#E5C500"/>
	<stop  offset="0.9944" style="stop-color:#BF6F00"/>
</linearGradient>
<path class="st0" d="M173.6,283.5c-4.2,2-8.4,4-12.6,6c-6.3-8.1-11.4-17.2-15.1-26.9c3.9-2.7,7.7-5.3,11.6-8
	c-1.6-4.7-2.8-9.6-3.7-14.7c-4.6-0.4-9.3-0.7-13.9-1.1c-0.6-4.5-0.9-9-0.9-13.7c0-5.9,0.5-11.7,1.4-17.4c4.7-0.4,9.3-0.7,14-1.1
	c1-4.8,2.3-9.4,4-13.9c-3.8-2.6-7.6-5.2-11.4-7.8c4-9.7,9.5-18.7,16.1-26.7c4.2,2,8.3,4,12.5,5.9c3.1-3.5,6.4-6.7,9.9-9.7
	c-2-4.1-3.9-8.2-5.9-12.3c7.5-5.8,15.8-10.7,24.7-14.3C174,74.3,152,28.1,144,2.3c-8.6,27.6-33.1,78.5-66.8,136.8
	C26.4,226.7,56.4,297.7,144,297.7c14.2,0,26.8-1.9,37.9-5.3C178.9,289.6,176.1,286.7,173.6,283.5z"/>
<path class="st1" d="M220.9,210.4c-11.1-19.1-19.1-35.8-21.9-44.9c-2.8,9-10.9,25.7-21.9,44.9c-16.6,28.7-6.8,52,21.9,52
	C227.7,262.4,237.5,239.1,220.9,210.4z"/>
<linearGradient id="SVGID_2_" gradientUnits="userSpaceOnUse" x1="158.3903" y1="217.29" x2="235.453" y2="217.29">
	<stop  offset="0" style="stop-color:#3DDEED"/>
	<stop  offset="0.8587" style="stop-color:#3DDEED;stop-opacity:0.1413"/>
	<stop  offset="1" style="stop-color:#3DDEED;stop-opacity:0"/>
</linearGradient>
<path class="st2" d="M213.8,144.5c-32.4,12.3-55.5,43.6-55.5,80.4c0,26.1,11.6,49.4,29.9,65.2C238.8,270,251,212.7,213.8,144.5z"/>
<path class="st3" d="M259.7,257.2c1.1-1.4,0.4-0.7,0.1-0.1C259.8,257.1,259.8,257.1,259.7,257.2z"/>
<path class="st3" d="M259.3,258.3C259.3,258.8,259.4,259,259.3,258.3L259.3,258.3z"/>
<path class="st4" d="M123,174.1c-5.7-5.7-10.2-12-11.1-20c0.1-4.6,0.8-9,2.4-13.2c4.6-8.9,11.1-15.7,21.9-17.8
	c3.6-0.7,7.2,0.1,10.7-0.3c10.9,3.3,20.7,8.1,27.7,17.5c-1.9,3.1-0.9,8.3-6.4,8.9c-3.1-1.6-4.5-5-7.4-6.8c-3-2.7-6.4-4.6-10.1-6.2
	c-7.4-2.4-13.4-0.4-18.4,4.5c-2.7,2.9-4.5,6.4-5.3,10.2c-1.7,8.2,4.3,17,12.9,19c3.5,0.8,4.1-2,5.3-3.9c1.3-2,0.7-3.7-1.4-5.1
	c-2.5-1.8-6.1-3-5.7-6.9c2.9-7.2,5.2-7.9,12.4-3.7c3.8,2.2,7.6,4.4,11.2,6.8c1.9,1.3,3.8,2.6,3.2,5.2c-3.9,7.5-8,14.9-13.3,21.6
	c-1.8,2.2-4.2,1.6-6.7,1c-1.9-0.5-3.9-0.7-5.8-1.5C133.4,181.2,127.8,178.3,123,174.1z"/>
<path class="st4" d="M176.8,246.6c-6.6-1.9-11.8-5.6-15.4-11.6c-3.2-3.8-3.2-8.5-3.1-13.1c0.2-5.9,2-11.4,5.5-16.2
	c1.2-1.6,2.5-3.4,4.9-3c7.2-4.4,14.8-4.7,22.7-2.3c6.6,3.2,10.5,8.5,12.4,15.5c1.4,4.5,1.4,8.9,0,13.4c-0.2,0.4-0.3,0.8-0.5,1.3
	c-0.9,7.6-5.7,12.2-12.2,15.3c-1.4,0.7-2.9,1.3-4.3,1.9c-0.4,0-0.8-0.1-1.1-0.4C182.8,246.5,179.7,247.7,176.8,246.6z"/>
<linearGradient id="SVGID_3_" gradientUnits="userSpaceOnUse" x1="166.1668" y1="223.3183" x2="196.9216" y2="223.3183">
	<stop  offset="0" style="stop-color:#3DDEED"/>
	<stop  offset="1" style="stop-color:#3DDEED;stop-opacity:0"/>
</linearGradient>
<path class="st5" d="M178.8,204.9c12.6-0.4,19.3,6.8,17.9,19.5c-0.4,3.5-0.8,7-2.7,10.2c-3.3,5.4-8.1,7.5-14.2,7
	c-6.2-0.5-9.9-4.2-12.1-9.5c-0.5-1.2-1.4-2.3-1-3.8c-0.6-3.1-0.6-6.3,0-9.4l-0.1,0.1c0.9-2.3,1.1-4.9,2.6-7.1
	C171.1,208.2,174.7,206.3,178.8,204.9z"/>
</svg>
