<?xml version="1.0" encoding="utf-8"?>
<!-- Generator: Adobe Illustrator 22.1.0, SVG Export Plug-In . SVG Version: 6.00 Build 0)  -->
<svg version="1.1" id="图层_1" xmlns="http://www.w3.org/2000/svg" xmlns:xlink="http://www.w3.org/1999/xlink" x="0px" y="0px"
	 viewBox="0 0 64 64" style="enable-background:new 0 0 64 64;" xml:space="preserve">
<style type="text/css">
	.st0{fill:#F3D333;}
	.st1{fill:#5F6C76;}
	.st2{fill:#E8A42B;}
	.st3{fill:#C7C2C9;}
	.st4{fill:#EAEAEA;}
	.st5{fill:#7DC18E;}
	.st6{fill:#65AF7D;}
</style>
<g>
	<g>
		<g>
			<path class="st0" d="M46.2,38.2c5.5,0,10.4-3.7,11.5-8.7c0.4-1.7-0.9-3.4-2.7-3.4h-8.8V38.2z"/>
			<path class="st0" d="M46.2,21.3c5.5,0,10.4-3.7,11.5-8.7c0.4-1.7-0.9-3.4-2.7-3.4h-8.8V21.3z"/>
			<path class="st0" d="M46.2,55.1c5.5,0,10.4-3.7,11.5-8.7c0.4-1.7-0.9-3.4-2.7-3.4h-8.8V55.1z"/>
			<path class="st0" d="M18.8,38.2c-5.5,0-10.4-3.7-11.5-8.7c-0.4-1.7,0.9-3.4,2.7-3.4h8.8V38.2z"/>
			<path class="st0" d="M18.8,21.3c-5.5,0-10.4-3.7-11.5-8.7C7,10.8,8.3,9.2,10.1,9.2h8.8V21.3z"/>
			<path class="st0" d="M18.8,55.1c-5.5,0-10.4-3.7-11.5-8.7C7,44.7,8.3,43,10.1,43h8.8V55.1z"/>
			<g>
				<path class="st1" d="M49.5,26.1v11.6c-1.1,0.3-2.2,0.5-3.3,0.5V26.1L49.5,26.1z"/>
				<path class="st1" d="M49.5,9.2v11.6c-1.1,0.3-2.2,0.5-3.3,0.5V9.2L49.5,9.2z"/>
				<path class="st1" d="M49.5,43v11.6c-1.1,0.3-2.2,0.5-3.3,0.5V43H49.5z"/>
				<path class="st1" d="M18.8,26.1v12.1c-1.1,0-2.3-0.2-3.3-0.5V26.1L18.8,26.1z"/>
				<path class="st1" d="M18.8,9.2v12.1c-1.1,0-2.3-0.2-3.3-0.5V9.2L18.8,9.2z"/>
				<path class="st1" d="M18.8,43v12.1c-1.1,0-2.3-0.2-3.3-0.5V43H18.8z"/>
				<path class="st2" d="M15.5,9.2h3.3v12.1c-1.1,0-2.3-0.2-3.3-0.5L15.5,9.2z"/>
				<path class="st2" d="M15.5,26.1h3.3v12.1c-1.1,0-2.3-0.2-3.3-0.5L15.5,26.1z"/>
				<path class="st2" d="M15.5,43h3.3v12.1c-1.1,0-2.3-0.2-3.3-0.5L15.5,43z"/>
				<path class="st2" d="M49.5,9.2v11.6c-1.1,0.3-2.2,0.5-3.3,0.5V9.2L49.5,9.2z"/>
				<path class="st2" d="M46.2,26.1h3.3v11.6c-1.1,0.3-2.2,0.5-3.3,0.5V26.1z"/>
				<path class="st2" d="M46.2,43h3.3v11.6c-1.1,0.3-2.2,0.5-3.3,0.5V43z"/>
			</g>
			<path class="st3" d="M39.9,62.2H25.1c-4,0-7.2-2-7.2-6v-48c0-4,3.2-6,7.2-6h14.8c4,0,7.2,2,7.2,6v48
				C47.1,60.2,43.9,62.2,39.9,62.2z"/>
			<path class="st4" d="M39.3,58H25.7c-2,0-3.6-1.6-3.6-3.6V10c0-2,1.6-3.6,3.6-3.6h13.6c2,0,3.6,1.6,3.6,3.6v44.4
				C42.9,56.3,41.3,58,39.3,58z"/>
			<ellipse class="st5" cx="32.5" cy="32.2" rx="5.8" ry="5.8"/>
			<ellipse class="st5" cx="32.5" cy="15.7" rx="5.8" ry="5.8"/>
			<ellipse class="st5" cx="32.5" cy="48.6" rx="5.8" ry="5.8"/>
			<path class="st6" d="M37.9,34.3C37,36.4,35,38,32.5,38c-3.2,0-5.8-2.6-5.8-5.8c0-1.9,0.9-3.5,2.2-4.6c-0.3,0.7-0.4,1.4-0.4,2.2
				c0,3.2,2.6,5.8,5.8,5.8C35.7,35.5,36.9,35.1,37.9,34.3z"/>
			<path class="st6" d="M37.9,17.9C37,20,35,21.5,32.5,21.5c-3.2,0-5.8-2.6-5.8-5.8c0-1.9,0.9-3.5,2.2-4.6c-0.3,0.7-0.4,1.4-0.4,2.2
				c0,3.2,2.6,5.8,5.8,5.8C35.7,19.1,36.9,18.6,37.9,17.9z"/>
			<path class="st6" d="M37.9,50.7c-0.8,2.1-2.9,3.7-5.4,3.7c-3.2,0-5.8-2.6-5.8-5.8c0-1.9,0.9-3.5,2.2-4.6
				c-0.3,0.7-0.4,1.4-0.4,2.2c0,3.2,2.6,5.8,5.8,5.8C35.7,52,36.9,51.5,37.9,50.7z"/>
		</g>
		<g>
			<path d="M32.5,25.4c-3.7,0-6.7,3-6.7,6.7s3,6.7,6.7,6.7c3.7,0,6.7-3,6.7-6.7S36.2,25.4,32.5,25.4L32.5,25.4z M32.5,37.1
				c-2.7,0-4.9-2.2-4.9-4.9s2.2-4.9,4.9-4.9c2.7,0,4.9,2.2,4.9,4.9S35.2,37.1,32.5,37.1z"/>
			<path d="M32.5,9c-2.3,0-4.5,1.2-5.7,3.2c-0.3,0.4-0.1,1,0.3,1.2c0.4,0.3,1,0.1,1.2-0.3c0.9-1.5,2.4-2.3,4.2-2.3
				c2.7,0,4.9,2.2,4.9,4.9s-2.2,4.9-4.9,4.9c-2.3,0-4.3-1.6-4.8-3.9c-0.1-0.5-0.6-0.8-1.1-0.7c-0.5,0.1-0.8,0.6-0.7,1.1
				c0.6,3.1,3.4,5.3,6.5,5.3c3.7,0,6.7-3,6.7-6.7S36.2,9,32.5,9L32.5,9z"/>
			<path d="M32.5,41.9c-3.7,0-6.7,3-6.7,6.7s3,6.7,6.7,6.7c3.7,0,6.7-3,6.7-6.7S36.2,41.9,32.5,41.9z M32.5,53.5
				c-2.7,0-4.9-2.2-4.9-4.9s2.2-4.9,4.9-4.9c2.7,0,4.9,2.2,4.9,4.9S35.2,53.5,32.5,53.5z"/>
			<path d="M58.6,29.7c0.6-2.2-1.3-4.5-3.6-4.5h-7v-3c5.3-0.3,9.3-3.8,10.5-9.4c0.6-2.2-1.3-4.5-3.6-4.5h-7c0.1-4.6-3.7-7.1-8.1-7.1
				l-14.8,0c-4.4-0.1-8.2,2.5-8.1,7.1h-7c-2.3-0.1-4.1,2.3-3.6,4.5c1.2,5.6,5.3,9.2,10.5,9.4v3h-7c-2.3-0.1-4.1,2.3-3.6,4.5
				c0.3,1.5,0.9,2.8,1.6,4c0.6,1,2.2,0.1,1.5-0.9c-4.4-7.9,2.7-5.4,7.4-5.8v10.3c-1.8-0.1-3.4-0.6-4.8-1.6c-0.4-0.3-1-0.2-1.3,0.2
				c-1,2,4.6,3.2,6.1,3.2v3h-7c-2.3-0.1-4.1,2.3-3.6,4.5c1.2,5.6,5.3,9.2,10.5,9.4c0,9.5,12.6,6.7,18.7,7.1c0.5,0,0.9-0.4,0.9-0.9
				s-0.4-0.9-0.9-0.9H25.1c-3.1,0-6.3-1.3-6.3-5.1v-48c0-3.8,3.3-5.1,6.3-5.1h14.8c3.1,0,6.3,1.3,6.3,5.1v48c-0.3,6.6-7.2,4-7.2,6
				c0,0.5,0.4,0.9,0.9,0.9c4.4,0.1,8.2-2.5,8.1-7.1c5.3-0.3,9.3-3.8,10.5-9.4c0.6-2.2-1.3-4.5-3.6-4.5h-7v-3
				C53.3,38.8,57.3,35.3,58.6,29.7L58.6,29.7z M8.2,12.4c-0.3-1.1,0.7-2.3,1.8-2.3h7v10.3C12.6,20.1,9.3,17.1,8.2,12.4z M8.2,46.2
				c-0.3-1.1,0.7-2.3,1.8-2.3h7v10.3C12.6,53.9,9.3,50.9,8.2,46.2z M55,27c1.1,0,2.1,1.1,1.8,2.3c-1.1,4.7-4.4,7.7-8.8,8V27H55z
				 M55,10.1c1.1,0,2.1,1.1,1.8,2.3c-1.1,4.7-4.4,7.7-8.8,8V10.1H55z M55,43.9c1.1,0,2.1,1.1,1.8,2.3c-1.1,4.7-4.4,7.7-8.8,8V43.9
				H55z"/>
			<path d="M42.9,39.7c0.5,0,0.9-0.4,0.9-0.9V10c0-2.5-2-4.5-4.5-4.5H25.7c-2.5,0-4.5,2-4.5,4.5v44.4c0,2.5,2,4.5,4.5,4.5h13.6
				c2.5,0,4.5-2,4.5-4.5V43c0-0.5-0.4-0.9-0.9-0.9S42,42.5,42,43v11.3c0,1.5-1.2,2.7-2.7,2.7H25.7c-1.5,0-2.7-1.2-2.7-2.7V10
				c0-1.5,1.2-2.7,2.7-2.7h13.6c1.5,0,2.7,1.2,2.7,2.7v28.8C42,39.3,42.4,39.7,42.9,39.7z"/>
		</g>
	</g>
</g>
</svg>
