<?xml version="1.0" encoding="utf-8"?>
<!-- Generator: Adobe Illustrator 22.1.0, SVG Export Plug-In . SVG Version: 6.00 Build 0)  -->
<svg version="1.1" id="图层_1" xmlns="http://www.w3.org/2000/svg" xmlns:xlink="http://www.w3.org/1999/xlink" x="0px" y="0px"
	 viewBox="0 0 64 64" style="enable-background:new 0 0 64 64;" xml:space="preserve">
<style type="text/css">
	.st0{fill:#FFDC6E;}
	.st1{fill:#F3D333;}
	.st2{fill:#E8A42B;}
	.st3{fill:#FFEEA9;}
	.st4{fill:#5BD8E8;}
	.st5{fill:#39C1C4;}
	.st6{fill:#E2A62D;}
	.st7{fill:#14ADA9;}
	.st8{fill:#5F6C76;}
	.st9{fill:#4F5A61;}
</style>
<path class="st0" d="M30.8,39.8L9,61.7c-0.3,0.3-0.7,0.4-1.1,0.4l-4.4-0.2c-0.7,0-1.3-0.6-1.4-1.4l-0.2-4.4c0-0.4,0.1-0.8,0.4-1.1
	l21.8-21.8l4.3,2.1L30.8,39.8z"/>
<path class="st1" d="M21.4,39.5L2,58.8l-0.1-2.7c0-0.4,0.1-0.8,0.4-1.1l17.3-17.3L21.4,39.5z"/>
<path class="st1" d="M26.2,34.7L25.9,35l-1.7,1.7l-1.8-1.8l1.7-1.7l0.1-0.1L26.2,34.7z"/>
<path class="st2" d="M30.8,39.8l-1.7,1.7l-6.6-6.6l1.7-1.7l4.3,2.1L30.8,39.8z"/>
<path class="st3" d="M22,42L2.5,61.5l0,0c-0.2-0.2-0.4-0.6-0.4-0.9l-0.2-4.4c0-0.4,0.1-0.8,0.4-1.1l17.3-17.3L22,40
	C22.5,40.6,22.5,41.5,22,42z"/>
<path class="st4" d="M59.2,13.2l-8.4-8.4c-3.9-3.9-10.2-3.9-14.1,0L23.3,18.3c-3.4,3.4-3.8,8.5-1.3,12.4c0.4,0.6,0.8,1.2,1.3,1.7
	l8.4,8.4c0.5,0.5,1.1,1,1.7,1.3c3.8,2.5,9,2,12.4-1.3l13.5-13.5C63.1,23.4,63.1,17.1,59.2,13.2L59.2,13.2z M57.5,22.3
	c-0.2,0.4-0.7,0.5-1,0.2l-15-15c-0.3-0.3-0.2-0.8,0.2-1c2-0.8,4.4-0.4,6.1,1.3l8.4,8.4C57.8,17.9,58.3,20.3,57.5,22.3L57.5,22.3z"/>
<path class="st5" d="M50.8,4.8c-3.9-3.9-10.2-3.9-14.1,0L23.3,18.3c-3.4,3.4-3.8,8.5-1.3,12.4c0.4,0.6,0.8,1.2,1.3,1.7l1.6,1.6
	c-0.5-0.5-1-1.1-1.3-1.7c-2.5-3.8-2-9,1.3-12.4L38.3,6.4c3.9-3.9,10.2-3.9,14.1,0L50.8,4.8z"/>
<path class="st6" d="M22.4,34.9l1.7-1.7l6.6,6.6l-1.7,1.7L22.4,34.9z"/>
<path class="st5" d="M46.8,25.3c0,1.8-0.6,3.5-1.7,5c-0.2,0.3-0.4,0.5-0.7,0.8l-4.9,4.9l-1.3,1.3l-4.9,4.8c-0.6-0.4-1.2-0.8-1.7-1.3
	l-8.4-8.4c-0.5-0.5-1-1.1-1.3-1.7l0,0l4.8-4.8l1.3-1.3l4.4-4.4l0.6-0.6c0.2-0.2,0.5-0.5,0.8-0.7c3.2-2.5,7.8-2.3,10.7,0.7
	C46,21.1,46.8,23.2,46.8,25.3L46.8,25.3z"/>
<path class="st7" d="M45.9,21.6c-2.9-2.3-7.1-2.3-10-0.1c-0.3,0.2-0.5,0.4-0.8,0.7l-0.6,0.6l-4.4,4.4L29,28.5l-4.8,4.8h0l-0.9-0.9
	c-0.5-0.5-1-1.1-1.3-1.7l0,0l4.8-4.8l1.3-1.3l4.4-4.4l0.6-0.6c0.2-0.2,0.5-0.5,0.8-0.7c3.2-2.5,7.8-2.3,10.7,0.7
	C45.1,20.2,45.6,20.9,45.9,21.6z"/>
<path class="st8" d="M26.8,25.8l1.3-1.3L39.5,36l-1.3,1.3L26.8,25.8z"/>
<path class="st8" d="M45.1,30.2c-0.2,0.3-0.4,0.5-0.7,0.8l-0.6,0.6L32.4,20.1l0.6-0.6c0.2-0.2,0.5-0.5,0.8-0.7L45.1,30.2z"/>
<g>
	<path class="st9" d="M28.1,24.5l2.4,2.4l-0.2,0.2l-1,1l-2.4-2.4L28.1,24.5z"/>
	<path class="st9" d="M36.2,21.3c-0.1,0.1-0.2,0.1-0.3,0.2c-0.3,0.2-0.5,0.4-0.8,0.7l-0.3,0.3l-2.4-2.4l0.6-0.6
		c0.2-0.2,0.5-0.5,0.8-0.7L36.2,21.3z"/>
	<path class="st9" d="M30.5,26.9l-0.2,0.2l-1,1l-2.4-2.4l1.3-1.3L30.5,26.9z"/>
	<path class="st9" d="M36.2,21.3c-0.1,0.1-0.2,0.1-0.3,0.2c-0.3,0.2-0.5,0.4-0.8,0.7l-0.3,0.3l-2.4-2.4l0.6-0.6
		c0.2-0.2,0.5-0.5,0.8-0.7L36.2,21.3z"/>
</g>
<path d="M59.8,12.6l-8.4-8.4c-4-4.2-11.3-4.2-15.3,0L22.6,17.6c-2,2-3.2,4.8-3.2,7.7c0,3,1.2,5.9,3.4,7.9L1.7,54.4
	C1.2,54.9,1,55.5,1,56.2l0.2,4.4c0.1,1.2,1,2.2,2.2,2.2L7.8,63c0.7,0,1.3-0.2,1.8-0.7l21.2-21.2c2.1,2.2,4.9,3.4,7.9,3.4
	c2.9,0,5.6-1.1,7.7-3.2l13.5-13.5C64.1,23.9,64.1,16.6,59.8,12.6L59.8,12.6z M8.3,61c0,0.3-3.8-0.1-4,0l5.6-5.6
	c0.4-0.4,0.4-0.9,0-1.3c-0.4-0.4-0.9-0.4-1.3,0L3,59.7c0.1-0.2-0.4-4,0-4L19.6,39l1.7,1.7c0.2,0.2,0.2,0.5,0,0.7L11.7,51
	c-0.4,0.4-0.4,0.9,0,1.3c0.4,0.4,0.9,0.4,1.3,0l9.6-9.6c0.9-0.9,0.9-2.4,0-3.3l-1.7-1.7l3.2-3.2l5.3,5.3L8.3,61z M23.9,31.7
	c-0.3-0.3-0.6-0.6-0.8-0.9l4.3-4.3l10.2,10.2l-4.3,4.3C33,40.8,24.4,32.1,23.9,31.7L23.9,31.7z M33.1,20.8l10.2,10.2l-4.4,4.4
	L28.7,25.1L33.1,20.8z M58.6,26.6L45.1,40.1c-1.7,1.7-4,2.6-6.4,2.6c-1.4,0-2.7-0.3-3.9-0.9l10.2-10.2c1.5-1.5,2.4-3.4,2.6-5.5
	c0-0.5-0.3-0.9-0.8-1c-0.5,0-0.9,0.3-1,0.8c-0.1,1.3-0.6,2.6-1.4,3.6L34.4,19.5c1.2-0.9,2.7-1.4,4.3-1.4c1.9,0,3.7,0.7,5.1,2.1
	c0.6,0.6,1.1,1.3,1.4,2.1c0.2,0.5,0.8,0.7,1.2,0.4c0.5-0.2,0.7-0.8,0.4-1.2c-0.4-1-1-1.8-1.8-2.6c-1.7-1.7-4-2.6-6.4-2.6
	c-2.4,0-4.7,0.9-6.4,2.6L22.1,29.1c-0.6-1.2-0.9-2.5-0.9-3.9c0-2.4,0.9-4.7,2.6-6.4L37.4,5.4c3.4-3.5,9.4-3.5,12.8,0l8.4,8.4
	C62.1,17.2,62.1,23.3,58.6,26.6L58.6,26.6z"/>
<path d="M56.8,15.6l-8.4-8.4c-2.1-2.1-5.4-2.5-8-1c-0.5,0.3-0.6,1-0.2,1.4l2.7,2.7c0.4,0.4,0.9,0.4,1.3,0c0.4-0.4,0.4-0.9,0-1.3
	l-1.7-1.7c1.6-0.5,3.4,0,4.7,1.2l8.4,8.4c1.2,1.2,1.7,3,1.2,4.7L47.2,12c-0.4-0.4-0.9-0.4-1.3,0c-0.4,0.4-0.4,0.9,0,1.3l10.5,10.5
	c0.4,0.4,1.1,0.3,1.4-0.2C59.4,21,59,17.7,56.8,15.6z"/>
</svg>
