<?xml version="1.0" encoding="utf-8"?>
<!-- Generator: Adobe Illustrator 22.1.0, SVG Export Plug-In . SVG Version: 6.00 Build 0)  -->
<svg version="1.1" id="图层_1" xmlns="http://www.w3.org/2000/svg" xmlns:xlink="http://www.w3.org/1999/xlink" x="0px" y="0px"
	 viewBox="0 0 64 64" style="enable-background:new 0 0 64 64;" xml:space="preserve">
<style type="text/css">
	.st0{clip-path:url(#SVGID_2_);fill:#4AABED;}
	.st1{clip-path:url(#SVGID_2_);fill:#65AF7D;}
	.st2{clip-path:url(#SVGID_2_);fill:#5F6C76;}
	.st3{clip-path:url(#SVGID_2_);fill:#4F5A61;}
	.st4{clip-path:url(#SVGID_2_);fill:#2072BC;}
	.st5{clip-path:url(#SVGID_2_);fill:#DCEFF4;}
	.st6{clip-path:url(#SVGID_2_);fill:#C7C2C9;}
	.st7{clip-path:url(#SVGID_2_);fill:#459BD6;}
	.st8{clip-path:url(#SVGID_2_);fill:#3C69A0;}
	.st9{clip-path:url(#SVGID_2_);fill:#EAEAEA;}
	.st10{clip-path:url(#SVGID_2_);fill:#FFD833;}
	.st11{clip-path:url(#SVGID_2_);fill:#E5B92C;}
	.st12{clip-path:url(#SVGID_2_);}
</style>
<g>
	<defs>
		<rect id="SVGID_1_" width="64" height="64"/>
	</defs>
	<clipPath id="SVGID_2_">
		<use xlink:href="#SVGID_1_"  style="overflow:visible;"/>
	</clipPath>
	<path class="st0" d="M11.1,26.7H6.4c-1.9,0-3.5-1.6-3.5-3.5v-2.7c0-1.9,1.6-3.5,3.5-3.5h4.7V26.7z"/>
	<path class="st0" d="M52.9,26.7h4.7c1.9,0,3.5-1.6,3.5-3.5v-2.7c0-1.9-1.6-3.5-3.5-3.5h-4.7V26.7z"/>
	<path class="st1" d="M11.1,16.9v9.7H6.4c-0.3,0-0.6,0-0.9-0.1c0.1-1,0.3-2.1,0.5-3.1l1.5-6.5H11.1z"/>
	<path class="st1" d="M58.5,26.6c-0.3,0.1-0.6,0.1-0.9,0.1h-4.7v-9.7h3.6l1.5,6.5C58.2,24.5,58.4,25.5,58.5,26.6"/>
	<path class="st2" d="M16,54.8v4c0,1.3-1,2.3-2.3,2.3H10c-1.3,0-2.3-1-2.3-2.3v-4H16z"/>
	<path class="st2" d="M56.3,54.8v4c0,1.3-1,2.3-2.3,2.3h-3.6c-1.3,0-2.3-1-2.3-2.3v-4H56.3z"/>
	<path class="st3" d="M12.4,61.1H10c-1.3,0-2.3-1-2.3-2.3v-4H10v4C10,60.1,11.1,61.1,12.4,61.1"/>
	<path class="st3" d="M52.7,61.1h-2.3c-1.3,0-2.3-1-2.3-2.3v-4h2.3v4C50.3,60.1,51.4,61.1,52.7,61.1"/>
	<path class="st4" d="M7.5,16.9h3.6v9.7H6.4c-0.3,0-0.6,0-0.9-0.1c0.1-1,0.3-2.1,0.5-3.1L7.5,16.9z"/>
	<path class="st4" d="M58.5,26.6c-0.3,0.1-0.6,0.1-0.9,0.1h-4.7v-9.7h3.6l1.5,6.5C58.2,24.5,58.4,25.5,58.5,26.6"/>
	<path class="st5" d="M56.3,29.5v20.2H7.7V29.5c0-0.3,0-0.7,0-1c0.1-1.5,0.3-3,0.6-4.5l2.9-12.6h41.6L55.7,24c0.3,1.5,0.5,3,0.6,4.5
		C56.3,28.8,56.3,29.1,56.3,29.5"/>
	<path class="st6" d="M13.5,11.3L10.6,24c-0.3,1.5-0.5,3-0.6,4.5c0,0.3,0,0.7,0,1H7.7c0-0.3,0-0.7,0-1c0.1-1.5,0.3-3,0.6-4.5
		l2.9-12.6H13.5z"/>
	<path class="st7" d="M48.1,24.9H15.9c-1.4,0-2.5-1.2-2.3-2.5l1-11h35l1,11C50.6,23.7,49.5,24.9,48.1,24.9"/>
	<path class="st8" d="M50.4,23.1c-0.3,1-1.2,1.8-2.3,1.8H15.9c-1.4,0-2.5-1.2-2.3-2.5l1-11l1-0.6l0.8,0.6l-0.8,9.3
		c-0.1,1.4,1,2.5,2.3,2.5h32.3C50.2,23.2,50.3,23.1,50.4,23.1"/>
	<path class="st0" d="M29.4,46.3v3.4H7.7V29.5c0-0.3,0-0.7,0-1h0.1l4.9,0.3C22.1,29.2,29.4,36.9,29.4,46.3"/>
	<path class="st0" d="M56.3,29.5v20.2H34.6v-3.4c0-9.3,7.3-17,16.6-17.6l4.9-0.3h0.1C56.3,28.8,56.3,29.1,56.3,29.5"/>
	<polygon class="st6" points="34.9,49.6 32,50.8 29.1,49.6 29.1,47.9 34.9,47.9 	"/>
	<path class="st4" d="M10,47.9V28.5l-2.2-0.1H7.7c0,0.3,0,0.7,0,1v21.4l2.3-1.2h19.3v-1.8H10z"/>
	<polygon class="st4" points="56.3,47.9 56.3,50.8 34.6,49.6 34.6,47.9 	"/>
	<rect x="31.1" y="10.3" class="st9" width="1.8" height="14.7"/>
	<path class="st10" d="M45.2,39.1c1.9,0,3.5,1.6,3.5,3.5c0,1.9-1.6,3.5-3.5,3.5c-1.9,0-3.5-1.6-3.5-3.5
		C41.7,40.7,43.2,39.1,45.2,39.1"/>
	<path class="st10" d="M18.3,39.1c1.9,0,3.5,1.6,3.5,3.5c0,1.9-1.6,3.5-3.5,3.5s-3.5-1.6-3.5-3.5C14.8,40.7,16.4,39.1,18.3,39.1"/>
	<path class="st10" d="M13,32.4c1,0,1.8,0.8,1.8,1.8c0,1-0.8,1.8-1.8,1.8s-1.8-0.8-1.8-1.8C11.2,33.2,12,32.4,13,32.4"/>
	<path class="st10" d="M51,32.4c1,0,1.8,0.8,1.8,1.8c0,1-0.8,1.8-1.8,1.8c-1,0-1.8-0.8-1.8-1.8C49.3,33.2,50.1,32.4,51,32.4"/>
	<path class="st11" d="M48.4,44.1c-0.6,1.2-1.8,2-3.2,2c-1.9,0-3.5-1.6-3.5-3.5c0-1.3,0.7-2.4,1.8-3c-0.2,0.5-0.3,1-0.3,1.5
		c0,1.9,1.6,3.5,3.5,3.5C47.2,44.6,47.8,44.4,48.4,44.1"/>
	<path class="st11" d="M21.5,44.1c-0.6,1.2-1.8,2-3.2,2c-1.9,0-3.5-1.6-3.5-3.5c0-1.3,0.7-2.4,1.7-3c-0.2,0.5-0.3,1-0.3,1.5
		c0,1.9,1.6,3.5,3.5,3.5C20.4,44.6,21,44.4,21.5,44.1"/>
	<path class="st11" d="M14.6,34.8c-0.3,0.7-0.9,1.1-1.6,1.1c-1,0-1.8-0.8-1.8-1.8c0-0.7,0.4-1.3,0.9-1.6C12.1,32.8,12,33,12,33.2
		c0,1,0.8,1.8,1.8,1.8C14.1,35,14.4,34.9,14.6,34.8"/>
	<path class="st11" d="M52.7,34.8c-0.2,0.7-0.9,1.1-1.6,1.1c-1,0-1.8-0.8-1.8-1.8c0-0.7,0.4-1.3,0.9-1.6c-0.1,0.2-0.1,0.4-0.1,0.6
		c0,1,0.8,1.8,1.8,1.8C52.2,35,52.4,34.9,52.7,34.8"/>
	<path class="st0" d="M55.6,56H8.4c-1.7,0-3.2-1.4-3.2-3.2s1.4-3.2,3.2-3.2h47.2c1.7,0,3.2,1.4,3.2,3.2S57.4,56,55.6,56"/>
	<path class="st4" d="M58.6,51.6c-0.2,0.4-0.4,0.8-0.7,1.1c-0.6,0.6-1.4,0.9-2.2,0.9h-48c-0.3,0-0.6-0.2-0.6-0.5c0-0.1,0-0.2,0-0.3
		c0-0.9,0.4-1.7,0.9-2.2c0.6-0.6,1.4-0.9,2.2-0.9H8.4c-1.3,0-2.5,0.8-2.9,2c-0.8,2,0.7,4.4,2.9,4.3h1.8h45.5c0.9,0,1.7-0.4,2.2-0.9
		c0.6-0.6,0.9-1.4,0.9-2.2C58.8,52.4,58.7,52,58.6,51.6"/>
	<path class="st0" d="M11.2,11.3c0-1.1,0.3-2.1,0.9-3c2.4-3.4,6.2-5.4,10.4-5.4h19c4.1,0,8,2,10.4,5.4c0.6,0.9,0.9,1.9,0.9,3H11.2z"
		/>
	<path class="st4" d="M24.8,2.9c-4.1,0-8,2-10.4,5.4v0c-0.6,0.9-0.9,1.9-0.9,3h-2.3c0-1.1,0.3-2.1,0.9-3v0c2.4-3.4,6.2-5.4,10.4-5.4
		H24.8z"/>
	<path class="st12" d="M45.2,47c2.4,0,4.4-2,4.4-4.4s-2-4.4-4.4-4.4c-2.4,0-4.4,2-4.4,4.4S42.8,47,45.2,47 M45.2,40
		c1.5,0,2.6,1.2,2.6,2.6s-1.2,2.6-2.6,2.6c-1.5,0-2.6-1.2-2.6-2.6S43.7,40,45.2,40"/>
	<path class="st12" d="M22.7,42.6c0-2.4-2-4.4-4.4-4.4c-2.4,0-4.4,2-4.4,4.4c0,2.4,2,4.4,4.4,4.4C20.8,47,22.7,45,22.7,42.6
		 M15.7,42.6c0-1.5,1.2-2.6,2.6-2.6c1.5,0,2.6,1.2,2.6,2.6c0,1.5-1.2,2.6-2.6,2.6C16.9,45.2,15.7,44.1,15.7,42.6"/>
	<path class="st12" d="M15.6,34.2c0-1.5-1.2-2.6-2.6-2.6s-2.6,1.2-2.6,2.6c0,1.5,1.2,2.6,2.6,2.6S15.6,35.6,15.6,34.2 M13,35
		c-0.5,0-0.9-0.4-0.9-0.9s0.4-0.9,0.9-0.9c0.5,0,0.9,0.4,0.9,0.9S13.4,35,13,35"/>
	<path class="st12" d="M51,36.8c1.5,0,2.6-1.2,2.6-2.6s-1.2-2.6-2.6-2.6c-1.5,0-2.6,1.2-2.6,2.6S49.6,36.8,51,36.8 M51,33.3
		c0.5,0,0.9,0.4,0.9,0.9c0,0.5-0.4,0.9-0.9,0.9c-0.5,0-0.9-0.4-0.9-0.9C50.2,33.7,50.6,33.3,51,33.3"/>
	<path class="st12" d="M57.6,16.1h-2.8l-1.1-4.9c0-1.2-0.4-2.4-1.1-3.4C50.1,4.2,45.9,2,41.5,2h-19c-4.4,0-8.6,2.2-11.1,5.8
		c-0.7,1-1.1,2.2-1.1,3.4l-1.1,4.9H6.4C4,16.1,2,18,2,20.5v2.7c0,2.4,2,4.4,4.4,4.4h0.5c0,0.6-0.1,1.3-0.1,1.9v19.6
		c-1.4,0.6-2.5,2.1-2.5,3.7s1,3.1,2.5,3.7v2.3c0,1.8,1.4,3.2,3.2,3.2h3.6c1.8,0,3.2-1.4,3.2-3.2v-1.9h30.2v1.9
		c0,1.8,1.4,3.2,3.2,3.2H54c1.8,0,3.2-1.4,3.2-3.2v-2.3c1.4-0.6,2.5-2.1,2.5-3.7s-1-3.1-2.5-3.7V29.4c0-0.6,0-1.3-0.1-1.9h0.5
		c2.4,0,4.4-2,4.4-4.4v-2.7C62,18,60,16.1,57.6,16.1 M41.4,32.4c0.3,0.4,0.8,0.5,1.2,0.2c2.6-1.8,5.6-2.8,8.7-3l4.1-0.2
		c0,0.1,0,19.3,0,19.4H35.5v-2.5c0-4.1,1.5-8,4.2-11.1c0.3-0.4,0.3-0.9-0.1-1.2c-0.4-0.3-0.9-0.3-1.2,0.1c-3,3.4-4.7,7.7-4.7,12.3
		v2.5h-3.5v-2.5c0-9.8-7.7-17.9-17.5-18.4l-4.1-0.2c0.1-1.2,0.3-2.3,0.5-3.4l2.7-12h1.6l-0.9,10.1c-0.2,1.8,1.4,3.5,3.2,3.5h5.5
		c0.5,0,0.9-0.4,0.9-0.9c0-0.5-0.4-0.9-0.9-0.9h-5.5c-0.8,0-1.6-0.8-1.5-1.6l0.9-10.2h15.8V24h-5.6c-0.5,0-0.9,0.4-0.9,0.9
		c0,0.5,0.4,0.9,0.9,0.9h22.7c1.8,0,3.4-1.7,3.2-3.5l-0.9-10.1h1.6l2.7,12c0.3,1.1,0.4,2.3,0.5,3.4l-4.1,0.2
		c-3.5,0.2-6.8,1.3-9.6,3.3C41.2,31.4,41.1,32,41.4,32.4 M22.5,3.8h19c3.9,0,7.5,1.9,9.6,5.1c0.3,0.5,0.6,1,0.7,1.6h-2.3h0h-5.3
		c-0.5,0-0.9,0.4-0.9,0.9s0.4,0.9,0.9,0.9h4.5l0.9,10.2c0.1,0.8-0.6,1.6-1.5,1.6H32.9V12.2h7.2c0.5,0,0.9-0.4,0.9-0.9
		s-0.4-0.9-0.9-0.9H12.2c0.1-0.6,0.3-1.1,0.7-1.6C15,5.7,18.6,3.8,22.5,3.8 M6.4,25.8c-1.5,0-2.6-1.2-2.6-2.6v-2.7
		c0-1.5,1.2-2.6,2.6-2.6h2.4l-1.4,5.9c-0.2,0.7-0.3,1.3-0.4,2H6.4z M15.1,58.8c0,0.8-0.7,1.5-1.5,1.5H10c-0.8,0-1.5-0.7-1.5-1.5
		v-1.9h6.6V58.8z M54,60.2h-3.6c-0.8,0-1.5-0.7-1.5-1.5v-1.9h6.6v1.9C55.4,59.6,54.8,60.2,54,60.2 M57.9,52.8c0,1.3-1,2.3-2.3,2.3
		H8.4c-1.3,0-2.3-1-2.3-2.3c0-1.3,1-2.3,2.3-2.3h4.4c0.5,0,0.9-0.4,0.9-0.9c0-0.5-0.4-0.9-0.9-0.9H8.6c0-0.1,0-19.3,0-19.4l4.1,0.2
		c8.9,0.5,15.8,7.8,15.8,16.7v2.5H16.9c-0.5,0-0.9,0.4-0.9,0.9c0,0.5,0.4,0.9,0.9,0.9h38.7C56.9,50.5,57.9,51.5,57.9,52.8
		 M60.2,23.2c0,1.5-1.2,2.6-2.6,2.6h-0.7c-0.1-0.7-0.2-1.4-0.4-2l-1.4-5.9h2.4c1.5,0,2.6,1.2,2.6,2.6V23.2z"/>
</g>
</svg>
