<?xml version="1.0" encoding="utf-8"?>
<!-- Generator: Adobe Illustrator 22.1.0, SVG Export Plug-In . SVG Version: 6.00 Build 0)  -->
<svg version="1.1" id="图层_1" xmlns="http://www.w3.org/2000/svg" xmlns:xlink="http://www.w3.org/1999/xlink" x="0px" y="0px"
	 viewBox="0 0 64 64" style="enable-background:new 0 0 64 64;" xml:space="preserve">
<style type="text/css">
	.st0{fill:#4F5A61;}
	.st1{clip-path:url(#SVGID_2_);fill:#F42539;}
	.st2{clip-path:url(#SVGID_2_);fill:#DB8995;}
	.st3{clip-path:url(#SVGID_2_);fill:#DC8744;}
	.st4{clip-path:url(#SVGID_2_);fill:#7E8A94;}
	.st5{clip-path:url(#SVGID_2_);fill:#5F6C76;}
	.st6{clip-path:url(#SVGID_2_);fill:#F6C358;}
	.st7{clip-path:url(#SVGID_2_);fill:#4F5A61;}
	.st8{clip-path:url(#SVGID_2_);fill:#F7A14B;}
	.st9{clip-path:url(#SVGID_2_);fill:#F5FAFF;}
	.st10{clip-path:url(#SVGID_2_);fill:#D7E1F2;}
	.st11{clip-path:url(#SVGID_2_);fill:#EFB135;}
	.st12{clip-path:url(#SVGID_2_);fill:#FFEB31;}
	.st13{clip-path:url(#SVGID_2_);fill:#E8A42B;}
	.st14{clip-path:url(#SVGID_2_);}
</style>
<polygon class="st0" points="17.7,20.3 13,20.3 11.7,22.5 13,24.8 17.7,24.8 "/>
<polygon class="st0" points="45.9,20.3 51.2,20.3 52.5,22.5 51.2,24.8 46.3,24.8 "/>
<g>
	<defs>
		<rect id="SVGID_1_" width="64" height="64"/>
	</defs>
	<clipPath id="SVGID_2_">
		<use xlink:href="#SVGID_1_"  style="overflow:visible;"/>
	</clipPath>
	<path class="st1" d="M46.8,30.3h9c1.4,0,2.6,1.1,2.6,2.5v3.5H46.8V30.3z"/>
	<path class="st2" d="M58.3,32.2c-0.2,0-0.4-0.1-0.6-0.1H46.8v-1.9h9C57,30.3,58,31.1,58.3,32.2"/>
	<path class="st1" d="M46.7,34.9H57c2.8,0,5.1,2.2,5.1,4.9v5.7c0,0.7-0.6,1.2-1.3,1.2h-2.4H46.7V34.9z"/>
	<path class="st2" d="M61,36.8c-0.2,0-0.5-0.1-0.7-0.1H48.9v-1.9h8.7C59,34.9,60.2,35.7,61,36.8"/>
	<path class="st1" d="M17.7,30.3H8.5c-1.4,0-2.6,1.1-2.6,2.5v3.5h11.8V30.3z"/>
	<path class="st2" d="M17.7,30.3v1.9H8.8c-0.5,0-1,0.4-1,0.9v3.2H5.9v-3.5c0-1.4,1.2-2.5,2.6-2.5H17.7z"/>
	<path class="st1" d="M17.7,34.9H7.2c-2.8,0-5.1,2.2-5.1,4.9v5.7c0,0.7,0.6,1.2,1.3,1.2h2.3h12.1V34.9z"/>
	<path class="st2" d="M17.7,34.9v2H7.9c-2.1,0-3.9,1.7-3.9,3.7v6.2H3.3c-0.7,0-1.3-0.6-1.3-1.2v-5.7c0-2.7,2.3-4.9,5.1-4.9H17.7z"/>
	<polygon class="st3" points="46.8,5.5 46,9.2 32.1,10.4 18,9.1 16.9,5.5 32.1,4.3 	"/>
	<rect x="14.9" y="48.9" class="st4" width="34.3" height="5.3"/>
	<rect x="14.7" y="48.8" class="st4" width="34.3" height="5.3"/>
	<rect x="14.9" y="48.9" class="st5" width="3.2" height="5.3"/>
	<rect x="16.2" y="30.3" class="st6" width="31.8" height="20.1"/>
	<path class="st5" d="M39.1,39.6v10.9l-13.9,0V39.6c0-0.3,0-0.6,0.1-0.9c0.4-1.6,1.9-2.8,3.7-2.8h6.2c1.8,0,3.3,1.2,3.7,2.8
		C39,39,39.1,39.3,39.1,39.6"/>
	<path class="st7" d="M39.1,39.6v0.9H25.2v-0.9c0-0.3,0-0.6,0.1-0.9H39C39,39,39.1,39.3,39.1,39.6"/>
	<rect x="25.2" y="42.3" class="st7" width="13.9" height="1.9"/>
	<rect x="25.2" y="46" class="st7" width="13.9" height="1.9"/>
	<path class="st8" d="M48,30.3v1.9H18.8c-0.4,0-0.6,0.3-0.6,0.6v17.7h-1.9V30.3H48z"/>
	<polygon class="st6" points="46,9.2 18,9.1 16.2,30.3 48,30.3 	"/>
	<polygon class="st8" points="20,9.1 18.1,30.3 17.2,31.6 16.2,30.3 18,9.1 19.1,7.9 20,9.1 	"/>
	<path class="st9" d="M20.7,30.3l1.4-14.6c0.1-1.3,1.2-2.2,2.6-2.2h14.9c1.3,0,2.4,1,2.6,2.2l1.4,14.6H20.7z"/>
	<path class="st10" d="M43.4,30.3H20.7l1.4-14.6c0.1-1.1,1-2,2.1-2.2c0,0.1,0,0.1,0,0.2L22.9,27c-0.1,0.7,0.5,1.3,1.3,1.3h19.1
		L43.4,30.3z"/>
	<path class="st5" d="M16.2,45.4v14.1c0,2-1.7,3.7-3.9,3.7H9.7c-2.1,0-3.9-1.7-3.9-3.7V45.4c0-2,1.7-3.7,3.9-3.7h2.6
		C14.5,41.7,16.2,43.4,16.2,45.4"/>
	<path class="st5" d="M58.2,45.4v14.1c0,2-1.7,3.7-3.9,3.7h-2.6c-2.1,0-3.9-1.7-3.9-3.7V45.4c0-2,1.7-3.7,3.9-3.7h2.6
		C56.5,41.7,58.2,43.4,58.2,45.4"/>
	<path class="st7" d="M12.3,63.2H9.7c-2.1,0-3.9-1.7-3.9-3.7V45.4c0-2,1.7-3.7,3.9-3.7h2.6c-2.1,0-3.9,1.7-3.9,3.7v14.1
		C8.5,61.5,10.2,63.2,12.3,63.2"/>
	<path class="st7" d="M54.4,63.2h-2.6c-2.1,0-3.9-1.7-3.9-3.7V45.4c0-2,1.7-3.7,3.9-3.7h2.6c-2.1,0-3.9,1.7-3.9,3.7v14.1
		C50.5,61.5,52.2,63.2,54.4,63.2"/>
	<path class="st11" d="M17.6,1.8h28.6c0.4,0,0.6,0.3,0.6,0.6v3.1H17V2.4C17,2.1,17.2,1.8,17.6,1.8"/>
	<path class="st3" d="M20.2,1.8c-0.4,0-0.6,0.3-0.6,0.6v3.1l-1.2,1.2l-1.4-1.2V2.4c0-0.3,0.3-0.6,0.6-0.6H20.2z"/>
	<path class="st5" d="M11.7,26.6H9.1c-0.7,0-1.3-0.6-1.3-1.2v-8.2c0-0.7,0.6-1.2,1.3-1.2h2.6c0.7,0,1.3,0.6,1.3,1.2v8.2
		C13,26.1,12.4,26.6,11.7,26.6"/>
	<path class="st5" d="M55,26.6h-2.6c-0.7,0-1.3-0.6-1.3-1.2v-8.2c0-0.7,0.6-1.2,1.3-1.2H55c0.7,0,1.3,0.6,1.3,1.2v8.2
		C56.3,26.1,55.7,26.6,55,26.6"/>
	<path class="st7" d="M11,26.6H9.1c-0.7,0-1.3-0.6-1.3-1.2v-8.2c0-0.7,0.6-1.2,1.3-1.2H11c-0.7,0-1.3,0.6-1.3,1.2v8.2
		C9.7,26.1,10.3,26.6,11,26.6"/>
	<path class="st7" d="M54.4,26.6h-1.9c-0.7,0-1.3-0.6-1.3-1.2v-8.2c0-0.7,0.6-1.2,1.3-1.2h1.9c-0.7,0-1.3,0.6-1.3,1.2v8.2
		C53.1,26.1,53.7,26.6,54.4,26.6"/>
	<path class="st12" d="M16.2,36.8h3.2c0.7,0,1.3,0.6,1.3,1.2v2.5c0,0.7-0.6,1.2-1.3,1.2h-3.2V36.8z"/>
	<path class="st12" d="M48,41.7h-3.2c-0.7,0-1.3-0.6-1.3-1.2V38c0-0.7,0.6-1.2,1.3-1.2H48V41.7z"/>
	<rect x="16.2" y="36.8" class="st13" width="1.9" height="4.9"/>
	<path class="st13" d="M46.7,41.7h-1.9c-0.7,0-1.3-0.6-1.3-1.2V38c0-0.7,0.6-1.2,1.3-1.2h1.9c-0.7,0-1.3,0.6-1.3,1.2v2.5
		C45.4,41.1,46,41.7,46.7,41.7"/>
	<path class="st4" d="M9.8,52.5c0,0.5-0.4,0.9-1,0.9h-3v-1.9h3C9.4,51.5,9.8,51.9,9.8,52.5"/>
	<path class="st4" d="M9.8,48c0,0.5-0.4,0.9-1,0.9h-3v-1.9h3C9.4,47.1,9.8,47.5,9.8,48"/>
	<path class="st4" d="M9.8,57c0,0.5-0.4,0.9-1,0.9h-3v-1.9h3C9.4,56.1,9.8,56.5,9.8,57"/>
	<rect x="5.9" y="47.1" class="st5" width="2.6" height="1.9"/>
	<rect x="5.9" y="51.5" class="st5" width="2.6" height="1.9"/>
	<rect x="5.9" y="56.1" class="st5" width="2.6" height="1.9"/>
	<rect x="5.9" y="51.5" class="st5" width="2.6" height="1.9"/>
	<rect x="5.9" y="47.1" class="st5" width="2.6" height="1.9"/>
	<rect x="5.9" y="56.1" class="st5" width="2.6" height="1.9"/>
	<path class="st4" d="M16.2,51.5v1.9h-3c-0.5,0-1-0.4-1-0.9c0-0.5,0.4-0.9,1-0.9H16.2z"/>
	<path class="st4" d="M16.2,47.1v1.9h-3c-0.5,0-1-0.4-1-0.9c0-0.5,0.4-0.9,1-0.9H16.2z"/>
	<path class="st4" d="M16.2,56.1V58h-3c-0.5,0-1-0.4-1-0.9c0-0.5,0.4-0.9,1-0.9H16.2z"/>
	<path class="st4" d="M51.9,52.5c0,0.5-0.4,0.9-1,0.9h-3v-1.9h3C51.4,51.5,51.9,51.9,51.9,52.5"/>
	<path class="st4" d="M51.9,48c0,0.5-0.4,0.9-1,0.9h-3v-1.9h3C51.4,47.1,51.9,47.5,51.9,48"/>
	<path class="st4" d="M51.9,57c0,0.5-0.4,0.9-1,0.9h-3v-1.9h3C51.4,56.1,51.9,56.5,51.9,57"/>
	<rect x="48" y="47.1" class="st5" width="2.6" height="1.9"/>
	<path class="st5" d="M35.1,50.5V56c0,1-0.9,1.9-1.9,1.9H31c-1.1,0-1.9-0.8-1.9-1.9v-5.6l3-1.2L35.1,50.5z"/>
	<path class="st7" d="M35.1,50.5v1.9h-3.5c-0.4,0-0.6,0.3-0.6,0.6v4.9c-1.1,0-1.9-0.8-1.9-1.9v-5.6H35.1z"/>
	<rect x="48" y="51.5" class="st5" width="2.6" height="1.9"/>
	<rect x="48" y="56.1" class="st5" width="2.6" height="1.9"/>
	<rect x="48" y="51.5" class="st5" width="2.6" height="1.9"/>
	<rect x="48" y="47.1" class="st5" width="2.6" height="1.9"/>
	<rect x="48" y="56.1" class="st5" width="2.6" height="1.9"/>
	<path class="st4" d="M58.2,51.5v1.9h-3c-0.5,0-1-0.4-1-0.9c0-0.5,0.4-0.9,1-0.9H58.2z"/>
	<path class="st4" d="M58.2,47.1v1.9h-3c-0.5,0-1-0.4-1-0.9c0-0.5,0.4-0.9,1-0.9H58.2z"/>
	<path class="st4" d="M58.2,56.1V58h-3c-0.5,0-1-0.4-1-0.9c0-0.5,0.4-0.9,1-0.9H58.2z"/>
	<path class="st14" d="M59.3,34.4v-1.6c0-1.9-1.6-3.4-3.5-3.4h-7l-0.3-3.7h1.7c0.2,1,1.1,1.9,2.2,1.9H55c1.2,0,2.3-1,2.3-2.2v-8.2
		c0-1.2-1-2.2-2.3-2.2h-2.6c-1.2,0-2.3,1-2.3,2.2v2.2h-2.3L47,9.2l0.7-3.6c0-0.1,0-0.1,0-0.2V2.4c0-0.9-0.7-1.5-1.6-1.5H17.6
		c-0.9,0-1.6,0.7-1.6,1.5v3.1c-0.1-0.1,1.1,3.9,1.1,3.9l-0.9,10h-2.3v-2.2c0-1.2-1-2.2-2.3-2.2H9.1c-1.2,0-2.3,1-2.3,2.2v8.2
		c0,1.2,1,2.2,2.3,2.2h2.6c1.1,0,2.1-0.8,2.2-1.9h1.7l-0.3,3.7H8.5c-2,0-3.5,1.5-3.5,3.4v1.6c-2.3,0.9-3.9,3-3.9,5.5v5.7
		c0,1.2,1,2.2,2.3,2.2h1.6v11.8c0,2.6,2.2,4.6,4.8,4.6h2.6c2.7,0,4.8-2.1,4.8-4.6v-4.4h10.9V56c0,1.5,1.3,2.8,2.9,2.8h2.2
		c1.6,0,2.9-1.2,2.9-2.8v-0.9H47v4.4c0,2.6,2.2,4.6,4.8,4.6h2.6c2.7,0,4.8-2.1,4.8-4.6V47.7h1.6c1.2,0,2.3-1,2.3-2.2v-5.7
		C63.1,37.4,61.5,35.3,59.3,34.4 M57.4,32.8V34c-0.1,0-8.5,0-8.5,0v-2.7h6.9C56.7,31.3,57.4,31.9,57.4,32.8 M26.1,47.8h12v1.7h-12
		V47.8z M26.1,44.1h12V46h-12V44.1z M38.1,42.3h-12v-1.7h12V42.3z M40,39.6c0-2.2-1.6-4.1-3.9-4.5c-0.5-0.1-1,0.2-1.1,0.7
		c-0.1,0.5,0.2,1,0.8,1.1c1,0.2,1.8,0.9,2.1,1.8H26.3c0.4-1.1,1.5-1.9,2.7-1.9h2.5c0.5,0,1-0.4,1-0.9c0-0.5-0.4-0.9-1-0.9H29
		c-2.7,0-4.8,2.1-4.8,4.6v0v0v3.6v0v0v3.7v0v0v2.7h-7.1v-4.1v-2.8h2.3c1.2,0,2.3-1,2.3-2.2V38c0-1.2-1-2.2-2.3-2.2h-2.3v-4.6h3.5h0
		h0H47v4.6h-2.3c-1.2,0-2.3,1-2.3,2.2v2.5c0,1.2,1,2.2,2.3,2.2H47v2.8v4.1H40V39.6z M19,10.1h26.1l1.8,19.3h-2.6l-0.7-7
		c0-0.5-0.5-0.9-1-0.8c-0.5,0-0.9,0.5-0.9,1l0.7,6.8H21.7L23,15.9c0.1-0.8,0.8-1.4,1.6-1.4h14.9c2,0,1.6,2.6,1.8,3.8
		c0.1,1.2,2.1,1,1.9-0.2L43,15.7c-0.2-1.8-1.7-3.1-3.5-3.1H24.6c-1.8,0-3.4,1.3-3.5,3.1l-1.3,13.7h-2.6L19,10.1z M47,40.8h-2.3
		c-0.2,0-0.3-0.1-0.3-0.3V38c0-0.2,0.1-0.3,0.3-0.3H47V40.8z M17.1,37.7h2.3c0.2,0,0.3,0.1,0.3,0.3v2.5c0,0.2-0.1,0.3-0.3,0.3h-2.3
		V37.7z M52.1,17.2c0-0.2,0.1-0.3,0.3-0.3H55c0.2,0,0.3,0.1,0.3,0.3v8.2c0,0.2-0.1,0.3-0.3,0.3h-2.6c-0.2,0-0.3-0.1-0.3-0.3V17.2z
		 M50.2,21.2v2.6h-1.9l-0.2-2.6H50.2z M17.9,2.7h27.9v1.9H27.3c-0.5,0-1,0.4-1,0.9c0,0.5,0.4,0.9,1,0.9h18.3l-0.4,1.9H18.8l-0.6-1.9
		h4.6c0.5,0,1-0.4,1-0.9c0-0.5-0.4-0.9-1-0.9h-4.9V2.7z M12,25.4c0,0.2-0.1,0.3-0.3,0.3H9.1c-0.2,0-0.3-0.1-0.3-0.3v-8.2
		c0-0.2,0.1-0.3,0.3-0.3h2.6c0.2,0,0.3,0.1,0.3,0.3V25.4z M13.9,23.8v-2.6H16l-0.2,2.6H13.9z M3.3,45.8c-0.2,0-0.3-0.1-0.3-0.3v-5.7
		c0-2.2,1.9-4,4.2-4c0.8,0,1.9,0.1,1.9-0.9c0-0.5-0.4-0.9-1-0.9c-0.2,0-1.1,0-1.3,0v-1.2c0-0.9,0.7-1.5,1.6-1.5h6.8V34h-2.6
		c-0.5,0-1,0.4-1,0.9c0,0.5,0.4,0.9,1,0.9h2.6v5.9c-0.8-0.6-1.8-0.9-2.9-0.9H9.7c-2.8,0-5,2.4-4.8,5.1H3.3z M12.3,62.3H9.7
		c-1.6,0-2.9-1.2-2.9-2.8V58h2c0.5,0,1-0.4,1-0.9c0-0.5-0.4-0.9-1-0.9h-2v-2.7h2c0.5,0,1-0.4,1-0.9c0-0.5-0.4-0.9-1-0.9h-2v-2.6h2
		c0.5,0,1-0.4,1-0.9c0-0.5-0.4-0.9-1-0.9h-2v-1.7c0-1.5,1.3-2.8,2.9-2.8h2.6c1.6,0,2.9,1.2,2.9,2.8v1.7h-2c-0.5,0-1,0.4-1,0.9
		c0,0.5,0.4,0.9,1,0.9h2v2.6h-2c-0.5,0-1,0.4-1,0.9c0,0.5,0.4,0.9,1,0.9h2v2.7h-2c-0.5,0-1,0.4-1,0.9c0,0.5,0.4,0.9,1,0.9h2v1.5
		C15.2,61,13.9,62.3,12.3,62.3 M17.1,51.4h10.9v1.9H17.1V51.4z M34.1,56c0,0.5-0.4,0.9-1,0.9H31c-0.5,0-1-0.4-1-0.9v-4.6h4.1V56z
		 M36.1,51.4H47v1.9H36.1V51.4z M54.4,62.3h-2.6c-1.6,0-2.9-1.2-2.9-2.8V58h2c0.5,0,1-0.4,1-0.9c0-0.5-0.4-0.9-1-0.9h-2v-2.7h2
		c0.5,0,1-0.4,1-0.9c0-0.5-0.4-0.9-1-0.9h-2v-2.6h2c0.5,0,1-0.4,1-0.9c0-0.5-0.4-0.9-1-0.9h-2v-1.7c0-1.5,1.3-2.8,2.9-2.8h2.6
		c1.6,0,2.9,1.2,2.9,2.8v1.7h-2c-0.5,0-1,0.4-1,0.9c0,0.5,0.4,0.9,1,0.9h2v2.6h-2c-0.5,0-1,0.4-1,0.9c0,0.5,0.4,0.9,1,0.9h2v2.7h-2
		c-0.5,0-1,0.4-1,0.9c0,0.5,0.4,0.9,1,0.9h2v1.5C57.3,61,56,62.3,54.4,62.3 M61.1,45.5c0,0.2-0.1,0.3-0.3,0.3h-1.6
		c0.2-2.7-2-5.1-4.8-5.1h-2.6c-1.1,0-2.1,0.3-2.9,0.9v-5.9h8c2.3,0,4.2,1.8,4.2,4V45.5z"/>
</g>
</svg>
