<?xml version="1.0" encoding="utf-8"?>
<!-- Generator: Adobe Illustrator 22.1.0, SVG Export Plug-In . SVG Version: 6.00 Build 0)  -->
<svg version="1.1" id="图层_1" xmlns="http://www.w3.org/2000/svg" xmlns:xlink="http://www.w3.org/1999/xlink" x="0px" y="0px"
	 viewBox="0 0 64 64" style="enable-background:new 0 0 64 64;" xml:space="preserve">
<style type="text/css">
	.st0{fill:#EAEAEA;}
	.st1{fill:#C7C2C9;}
	.st2{fill:#5F6C76;}
	.st3{fill:#7E8A94;}
	.st4{fill:#F3D333;}
	.st5{fill:#E8A42B;}
	.st6{fill:#7DC18E;}
	.st7{fill:#65AF7D;}
</style>
<g>
	<g>
		<g>
			<path class="st0" d="M55.6,53.9H9.1c-3.2,0-5.9-2.7-5.9-6.1v-32c0-3.4,2.6-6.1,5.9-6.1h46.5c3.2,0,5.9,2.7,5.9,6.1v32
				C61.5,51.1,58.9,53.9,55.6,53.9z"/>
			<path class="st1" d="M11.2,53.9H9.1c-3.2,0-5.9-2.7-5.9-6.1v-32c0-3.4,2.6-6.1,5.9-6.1h2.1c-3.2,0-5.9,2.7-5.9,6.1v32
				C5.4,51.1,8,53.9,11.2,53.9z"/>
			<path class="st2" d="M43.9,30.7v2.8c0,0.7-0.5,1.2-1.2,1.2h-2.2c-0.6,0-1.2-0.5-1.2-1.2v-2.8l2.3-0.6L43.9,30.7z"/>
			<path class="st2" d="M54.6,30.7v2.8c0,0.7-0.5,1.2-1.2,1.2h-2.2c-0.6,0-1.2-0.5-1.2-1.2v-2.8l2.3-0.6L54.6,30.7z"/>
			<path class="st3" d="M53.2,21.6c1.9,0,3.1,1.7,3.1,3.7v3.5c0,1-0.8,1.8-1.8,1.8H39.5c-1,0-1.9-0.9-1.9-2v-3.4
				c0-2,1.2-3.7,3.1-3.7H53.2z"/>
			<path class="st4" d="M53.2,21.4c0-0.1,0-0.3,0-0.4l-0.9-2.8C52.1,16.9,51.1,16,50,16h-6c-1.2,0-2.2,0.9-2.3,2.1L40.8,21
				c0,0.1,0,0.3,0,0.4c0,1.1,0.9,2.1,2,2.1h8.5C52.3,23.4,53.2,22.5,53.2,21.4z"/>
			<path class="st2" d="M41.2,30.7h-1.8c-1,0-1.9-0.9-1.9-2v-3.4c0-2,1.2-3.7,3.1-3.7h1.8c-1.9,0-3.1,1.7-3.1,3.7v3.4
				C39.4,29.8,40.3,30.7,41.2,30.7z"/>
			<path class="st4" d="M43.1,22.8c0.4,0.4,0.8,0.6,1.4,0.6h-1.8c-0.5,0-1-0.2-1.4-0.6c-0.4-0.4-0.6-0.9-0.6-1.5c0-0.1,0-0.3,0-0.4
				l0.9-2.8c0.2-1.2,1.2-2.1,2.3-2.1h1.8c-1.2,0-2.2,0.9-2.3,2.1L42.6,21c0,0.1,0,0.3,0,0.4C42.5,21.9,42.7,22.4,43.1,22.8z"/>
			<ellipse class="st4" cx="17.8" cy="18.6" rx="3.2" ry="3.3"/>
			<path class="st5" d="M20.8,19.7c-0.4,1.3-1.6,2.2-3,2.2c-1.8,0-3.2-1.5-3.2-3.3c0-1.4,0.8-2.6,1.9-3.1c-0.1,0.3-0.2,0.7-0.2,1.1
				c0,1.8,1.4,3.3,3.2,3.3C20,20,20.4,19.9,20.8,19.7z"/>
			<path class="st6" d="M22.4,34.8h-9.2c-0.8,0-1.4-0.6-1.4-1.5v-2.1c0-3.4,2.7-6.2,6-6.2s6,2.8,6,6.2v2.1
				C23.8,34.2,23.1,34.8,22.4,34.8z"/>
			<path class="st7" d="M13.9,31.2v2.1c0,0.8,0.6,1.5,1.4,1.5h-2.1c-0.8,0-1.4-0.6-1.4-1.5v-2.1c0-3.4,2.7-6.2,6-6.2
				c0.4,0,0.7,0,1.1,0.1C16.1,25.6,13.9,28.2,13.9,31.2L13.9,31.2z"/>
			<g>
				<path class="st1" d="M33.3,9.7v6.2c0,0.5-0.4,0.9-0.9,0.9c-0.5,0-0.9-0.4-0.9-0.9V9.7H33.3z"/>
				<path class="st1" d="M32.4,26.1c-0.5,0-0.9-0.4-0.9-0.9v-5c0-0.5,0.4-0.9,0.9-0.9s0.9,0.4,0.9,0.9v5
					C33.3,25.7,32.9,26.1,32.4,26.1z"/>
				<path class="st1" d="M32.4,35.4c-0.5,0-0.9-0.4-0.9-0.9v-5c0-0.5,0.4-0.9,0.9-0.9s0.9,0.4,0.9,0.9v5
					C33.3,35,32.9,35.4,32.4,35.4z"/>
				<path class="st1" d="M32.4,44.6c-0.5,0-0.9-0.4-0.9-0.9v-5c0-0.5,0.4-0.9,0.9-0.9s0.9,0.4,0.9,0.9v5
					C33.3,44.2,32.9,44.6,32.4,44.6z"/>
				<path class="st1" d="M33.3,48v5.9h-1.8V48c0-0.5,0.4-0.9,0.9-0.9S33.3,47.5,33.3,48z"/>
			</g>
			<path class="st5" d="M27.9,40H7.7c-0.5,0-0.9-0.4-0.9-0.9s0.4-0.9,0.9-0.9h20.2c0.5,0,0.9,0.4,0.9,0.9S28.4,40,27.9,40z"/>
			<path class="st4" d="M27.9,43.7H7.7c-0.5,0-0.9-0.4-0.9-0.9s0.4-0.9,0.9-0.9h20.2c0.5,0,0.9,0.4,0.9,0.9S28.4,43.7,27.9,43.7z"/>
			<path class="st4" d="M27.9,47.3H16.2c-0.5,0-0.9-0.4-0.9-0.9s0.4-0.9,0.9-0.9h11.7c0.5,0,0.9,0.4,0.9,0.9S28.4,47.3,27.9,47.3z"
				/>
			<path class="st4" d="M12.1,47.3H7.7c-0.5,0-0.9-0.4-0.9-0.9s0.4-0.9,0.9-0.9h4.4c0.5,0,0.9,0.4,0.9,0.9S12.6,47.3,12.1,47.3z"/>
			<path class="st5" d="M57.1,40H36.9c-0.5,0-0.9-0.4-0.9-0.9s0.4-0.9,0.9-0.9h20.2c0.5,0,0.9,0.4,0.9,0.9S57.5,40,57.1,40z"/>
			<path class="st4" d="M57.1,43.7H45.5c-0.5,0-0.9-0.4-0.9-0.9s0.4-0.9,0.9-0.9h11.5c0.5,0,0.9,0.4,0.9,0.9S57.5,43.7,57.1,43.7z"
				/>
			<path class="st4" d="M41.4,43.7h-4.5c-0.5,0-0.9-0.4-0.9-0.9s0.4-0.9,0.9-0.9h4.5c0.5,0,0.9,0.4,0.9,0.9S41.9,43.7,41.4,43.7z"/>
			<path class="st4" d="M57.1,47.3h-4.7c-0.5,0-0.9-0.4-0.9-0.9s0.4-0.9,0.9-0.9h4.7c0.5,0,0.9,0.4,0.9,0.9S57.5,47.3,57.1,47.3z"/>
			<path class="st4" d="M48.2,47.3H36.9c-0.5,0-0.9-0.4-0.9-0.9s0.4-0.9,0.9-0.9h11.3c0.5,0,0.9,0.4,0.9,0.9S48.7,47.3,48.2,47.3z"
				/>
			<path class="st2" d="M50,30.7h-6.1v-2.6c0-0.6,0.5-1.1,1.1-1.1h4c0.6,0,1.1,0.5,1.1,1.1V30.7z"/>
		</g>
		<g>
			<path d="M38.9,52.9h-5.6V48c0-0.5-0.4-0.9-0.9-0.9s-0.9,0.4-0.9,0.9v4.9H9.1c-2.7,0-5-2.3-5-5.2v-32c0-2.9,2.2-5.2,5-5.2h3.5
				c0.5,0,0.9-0.4,0.9-0.9c0-0.5-0.4-0.9-0.9-0.9H9.1c-3.7,0-6.7,3.1-6.7,7v32c0,3.9,3,7,6.7,7h29.8c0.5,0,0.9-0.4,0.9-0.9
				C39.8,53.4,39.4,52.9,38.9,52.9z"/>
			<path d="M55.6,8.8h-39c-0.5,0-0.9,0.4-0.9,0.9c0,0.5,0.4,0.9,0.9,0.9h14.9l0,5.3c0,0.5,0.4,0.9,0.9,0.9s0.9-0.4,0.9-0.9l0-5.3
				h22.3c2.7,0,5,2.3,5,5.2v32c0,2.9-2.2,5.2-5,5.2H43.1c-0.5,0-0.9,0.4-0.9,0.9c0,0.5,0.4,0.9,0.9,0.9h12.6c3.7,0,6.7-3.1,6.7-7
				v-32C62.4,11.9,59.4,8.8,55.6,8.8z"/>
			<path d="M17.8,22.9c2.2,0,4.1-1.9,4.1-4.2s-1.8-4.2-4.1-4.2s-4.1,1.9-4.1,4.2S15.6,22.9,17.8,22.9z M17.8,16.2
				c1.3,0,2.3,1.1,2.3,2.4s-1,2.4-2.3,2.4s-2.3-1.1-2.3-2.4S16.5,16.2,17.8,16.2z"/>
			<path d="M17.8,24.1c-3.8,0-6.9,3.2-6.9,7.1v2.1c0,1.3,1,2.4,2.3,2.4h9.2c1.3,0,2.3-1.1,2.3-2.4v-2.1
				C24.7,27.3,21.6,24.1,17.8,24.1z M22.9,33.4c0,0.3-0.2,0.5-0.5,0.5h-9.2c-0.3,0-0.5-0.2-0.5-0.5v-2.1c0-2.9,2.3-5.3,5.1-5.3
				s5.1,2.4,5.1,5.3V33.4z"/>
			<path d="M32.4,26.1c0.5,0,0.9-0.4,0.9-0.9v-5c0-0.5-0.4-0.9-0.9-0.9s-0.9,0.4-0.9,0.9v5C31.6,25.7,32,26.1,32.4,26.1z"/>
			<path d="M31.6,34.5c0,0.5,0.4,0.9,0.9,0.9s0.9-0.4,0.9-0.9v-5c0-0.5-0.4-0.9-0.9-0.9s-0.9,0.4-0.9,0.9V34.5z"/>
			<path d="M31.6,43.7c0,0.5,0.4,0.9,0.9,0.9s0.9-0.4,0.9-0.9v-5c0-0.5-0.4-0.9-0.9-0.9s-0.9,0.4-0.9,0.9V43.7z"/>
			<path d="M27.9,38.2H7.7c-0.5,0-0.9,0.4-0.9,0.9S7.2,40,7.7,40h20.2c0.5,0,0.9-0.4,0.9-0.9S28.4,38.2,27.9,38.2z"/>
			<path d="M27.9,41.8H7.7c-0.5,0-0.9,0.4-0.9,0.9s0.4,0.9,0.9,0.9h20.2c0.5,0,0.9-0.4,0.9-0.9S28.4,41.8,27.9,41.8z"/>
			<path d="M27.9,45.5H16.2c-0.5,0-0.9,0.4-0.9,0.9s0.4,0.9,0.9,0.9h11.7c0.5,0,0.9-0.4,0.9-0.9S28.4,45.5,27.9,45.5z"/>
			<path d="M7.7,45.5c-0.5,0-0.9,0.4-0.9,0.9s0.4,0.9,0.9,0.9h4.4c0.5,0,0.9-0.4,0.9-0.9s-0.4-0.9-0.9-0.9H7.7z"/>
			<path d="M36,39.1c0,0.5,0.4,0.9,0.9,0.9h20.2c0.5,0,0.9-0.4,0.9-0.9s-0.4-0.9-0.9-0.9H36.9C36.4,38.2,36,38.6,36,39.1z"/>
			<path d="M57.1,41.8H45.5c-0.5,0-0.9,0.4-0.9,0.9s0.4,0.9,0.9,0.9h11.5c0.5,0,0.9-0.4,0.9-0.9S57.5,41.8,57.1,41.8z"/>
			<path d="M36.9,43.7h4.5c0.5,0,0.9-0.4,0.9-0.9s-0.4-0.9-0.9-0.9h-4.5c-0.5,0-0.9,0.4-0.9,0.9S36.4,43.7,36.9,43.7z"/>
			<path d="M57.1,45.5h-4.7c-0.5,0-0.9,0.4-0.9,0.9s0.4,0.9,0.9,0.9h4.7c0.5,0,0.9-0.4,0.9-0.9S57.5,45.5,57.1,45.5z"/>
			<path d="M36.9,47.3h11.3c0.5,0,0.9-0.4,0.9-0.9s-0.4-0.9-0.9-0.9H36.9c-0.5,0-0.9,0.4-0.9,0.9S36.4,47.3,36.9,47.3z"/>
			<path d="M51.2,35.7h2.2c1.1,0,2.1-1,2.1-2.1v-2c1-0.4,1.8-1.4,1.8-2.6v-3.5c0-2.4-1.3-4.2-3.2-4.6c0,0-0.9-2.9-0.9-2.9
				c-0.3-1.6-1.6-2.8-3.2-2.8h-6c-1.6,0-2.9,1.2-3.2,2.8c0,0-0.9,2.8-0.9,2.9c-1.9,0.4-3.2,2.2-3.2,4.6v3.4c0,1.2,0.8,2.2,1.8,2.7
				v2.1c0,1.2,0.9,2.1,2.1,2.1h2.2c1.1,0,2.1-1,2.1-2.1v-1.9h4.3v1.9C49.1,34.7,50.1,35.7,51.2,35.7L51.2,35.7z M53.4,33.8h-2.2
				c-0.2,0-0.3-0.1-0.3-0.3v-1.9h2.8v1.9C53.7,33.7,53.6,33.8,53.4,33.8z M38.5,25.4c0-1.2,0.5-2.4,1.7-2.7c0.5,1,1.4,1.7,2.6,1.7
				h3.4c0.5,0,0.9-0.4,0.9-0.9c0-0.5-0.4-0.9-0.9-0.9h-3.4c-0.7,0-1.2-0.6-1.1-1.3l0.8-2.8c0.1-0.8,0.7-1.5,1.5-1.5h6
				c0.8,0,1.4,0.7,1.5,1.5l0.8,2.8c0.1,0.7-0.4,1.3-1.1,1.3h-1c-0.5,0-0.9,0.4-0.9,0.9c0,0.5,0.4,0.9,0.9,0.9h1
				c1.1,0,2.1-0.7,2.6-1.7c1.2,0.3,1.7,1.5,1.7,2.7v3.5c0,0.5-0.4,0.9-0.9,0.9h-3.7v-1.6c0-1.1-0.9-2-1.9-2h-4c-1.1,0-1.9,0.9-1.9,2
				v1.6h-3.6c-0.5,0-1-0.5-1-1V25.4z M42.8,33.8h-2.2c-0.2,0-0.3-0.1-0.3-0.3v-1.9h2.8v1.9C43.1,33.7,42.9,33.8,42.8,33.8z
				 M44.8,28.2c0-0.1,0.1-0.2,0.2-0.2h4c0.1,0,0.2,0.1,0.2,0.2v1.6h-4.3V28.2z"/>
		</g>
	</g>
</g>
</svg>
