<?xml version="1.0" encoding="utf-8"?>
<!-- Generator: Adobe Illustrator 22.1.0, SVG Export Plug-In . SVG Version: 6.00 Build 0)  -->
<svg version="1.1" id="图层_1" xmlns="http://www.w3.org/2000/svg" xmlns:xlink="http://www.w3.org/1999/xlink" x="0px" y="0px"
	 viewBox="0 0 64 64" style="enable-background:new 0 0 64 64;" xml:space="preserve">
<style type="text/css">
	.st0{fill:#7E8A94;}
	.st1{fill:#5F6C76;}
	.st2{fill:#4F5A61;}
</style>
<g>
	<g>
		<g>
			<path class="st0" d="M52.8,3.1H28.3c-1.7,0-3.2,0.7-4.4,1.8L21,7.8c-0.5,0.5-1.3,0.5-1.8,0l-4.6-4.5c0,0,0,0-0.1,0l-9.1,9.8
				c0,0,0,0,0,0.1l4.2,4.2c0.5,0.5,0.5,1.2,0.1,1.7l-1.7,2c-0.4,0.5-0.6,1-0.6,1.7v35.2c0,2.8,2.2,5,5,5h40.2c2.8,0,5-2.2,5-5V8.1
				C57.8,5.3,55.6,3.1,52.8,3.1L52.8,3.1z M49.5,14.2c-0.7,0.7-1.6,1.1-2.6,1.1l-11.5,0c-2.2,0-4.1-1.8-4-4c0.1-0.9,0.5-1.8,1.1-2.4
				c0.7-0.7,1.6-1.1,2.6-1.1l11.5,0c2.2,0,4.1,1.8,4,4C50.5,12.8,50.1,13.6,49.5,14.2z"/>
			<g>
				<path class="st1" d="M28.3,3.1c-1.7,0-3.2,0.7-4.4,1.8L21,7.8c-0.2,0.2-0.5,0.3-0.7,0.4c0.8,0,3.4,0.1,3.9-0.4L27,4.9
					c1.2-1.2,2.7-1.8,4.4-1.8L28.3,3.1z"/>
				<path class="st1" d="M10.6,22.3l2.7-3.4c0.4-0.5,0.4-1.2-0.1-1.7l-2.1-2.1l-3.9-3.9c0,0,0,0-0.1,0l-1.7,1.8c0,0,0,0,0,0.1
					l2.1,2.1l2,2c0.5,0.5,0.5,1.2,0.1,1.7l-1.7,2c-0.4,0.5-0.6,1-0.6,1.6V58c0,2.4,1.7,4.4,4,4.9c0,0,0.1,0,0-0.1
					c-0.9-0.9-1.5-2.2-1.5-3.6V23.9C10,23.3,10.3,22.8,10.6,22.3L10.6,22.3z"/>
				<path class="st1" d="M15.4,4.8l-8.6,8.6c-0.8,0.8-2.2,1-3.1,0.2c-1-0.8-1.1-2.4-0.1-3.3l8.6-8.6c0.8-0.8,2.2-1,3.1-0.2
					C16.3,2.4,16.4,3.9,15.4,4.8z"/>
			</g>
			<path class="st2" d="M8.3,12l-1.4,1.4c-1,1-2.6,1-3.4,0C3.1,12.9,3,12.4,3,11.9c0-0.6,0.2-1.1,0.6-1.6l1.9-1.9
				c-0.4,0.4-0.6,1-0.6,1.6s0.2,1.1,0.6,1.6C6.3,12.3,7.4,12.4,8.3,12C8.3,11.9,8.3,11.9,8.3,12z"/>
			<path class="st0" d="M18.4,36.1v-2.6c0-2.1,1.7-3.8,3.8-3.8h21.1c2.1,0,3.8,1.7,3.8,3.8v17.9c0,2.1-1.7,3.8-3.8,3.8H22.2
				c-2.1,0-3.8-1.7-3.8-3.8V40.5V36.1z"/>
			<path class="st2" d="M52,57.2l-4.6-3.4c0,0,0,0,0,0c0.4-0.7,0.6-1.5,0.6-2.3v-18c0-0.9-0.2-1.7-0.7-2.4c0,0,0,0,0,0l4.6-3.4
				c0.4-0.3,0.5-0.9,0.2-1.3c-0.3-0.4-0.9-0.5-1.3-0.2l-4.8,3.5c0,0,0,0,0,0c-0.8-0.5-1.7-0.9-2.7-0.9H22.2c-0.9,0-1.7,0.2-2.4,0.7
				c0,0,0,0,0,0l-4.2-3.1c-0.4-0.3-1-0.2-1.3,0.2c-0.3,0.4-0.2,1,0.2,1.3l3.9,2.9c0,0,0,0,0,0c-0.5,0.8-0.8,1.7-0.8,2.7v18
				c0,0.7,0.2,1.4,0.5,2.1c0,0,0,0,0,0l-4.6,3.4c-0.4,0.3-0.5,0.9-0.2,1.3c0.2,0.2,0.5,0.4,0.8,0.4c0.2,0,0.4-0.1,0.6-0.2l4.6-3.4
				c0,0,0,0,0,0c0.8,0.7,1.9,1.1,3,1.1h21.2c1,0,2-0.3,2.8-0.9c0,0,0,0,0,0l4.7,3.5c0.2,0.1,0.4,0.2,0.6,0.2c0.3,0,0.6-0.1,0.8-0.4
				C52.6,58,52.5,57.5,52,57.2L52,57.2z M22.2,54.2c-1.6,0-2.8-1.3-2.8-2.8V33.5c0-1.6,1.3-2.8,2.8-2.8h21.1c1.6,0,2.8,1.3,2.8,2.8
				v17.9c0,1.6-1.3,2.8-2.8,2.8H22.2z"/>
		</g>
		<g>
			<path d="M52.8,2.2H28.3c-1.9,0-3.7,0.8-5.1,2.1l-2.9,2.9c-0.1,0.1-0.4,0.1-0.5,0L17,4.2c0,0,0,0,0,0c0.3-1,0.1-2.2-0.8-3.1
				L16.1,1c-1.2-1.2-3.2-1.2-4.4,0L6.1,6.6c-0.4,0.4-0.4,1,0,1.3c0.4,0.4,1,0.4,1.3,0l5.6-5.6C14.2,1.2,16,3,14.9,4.1l-8.8,8.8
				c-1.3,1.2-3.1-1-1.6-2c0.4-0.4,0.4-1,0-1.3c-0.4-0.4-1-0.4-1.3,0c-1.4,1.2-1.5,3.3-0.2,4.5C3.7,15,5,15.4,6.1,15c0,0,0,0,0,0l3,3
				c0.1,0.1,0.1,0.3,0,0.5l-1.7,2c-0.5,0.6-0.8,1.4-0.8,2.3v35.2c0,3.3,2.7,6,6,6h31.8c6.7,0,8.7-0.5,8.7-1S51.4,62,44.4,62H12.6
				c-2.3,0-4.1-1.8-4.1-4.1V22.7c0-0.4,0.1-0.8,0.4-1l1.7-2c0.8-0.9,0.7-2.2-0.1-3L7.7,14c0,0,0,0,0-0.1l8.1-8.1c0,0,0,0,0.1,0
				l2.7,2.7c0.9,0.9,2.3,0.9,3.1,0l2.9-2.9c1-1,2.3-1.5,3.8-1.5h24.4c2.3,0,4.1,1.8,4.1,4.1v49.8c0,2.3-1.8,4.1-4.1,4.1l-5.5,0
				c-0.5,0,0.5,0.4,0.5,0.9s-1.9,0.9-1.3,0.9l6.3,0c3.3,0,6-2.7,6-6V8.1C58.7,4.9,56.1,2.2,52.8,2.2L52.8,2.2z"/>
			<path d="M35.3,8.8l6.5,0c0.5,0,0.9-0.4,0.9-0.9s-0.4-0.9-0.9-0.9l-6.4,0c-2.5,0-4.7,1.8-4.9,4.2c-0.3,2.8,1.9,5.1,4.7,5.1l11.5,0
				c2.5,0,4.7-1.8,4.9-4.2c0.3-2.8-1.9-5.1-4.7-5.1h-0.7c-10.3,0-8.9,0.4-8.9,0.9c0,0.5-1,1-0.4,1l10,0c1.4,0,2.6,0.9,2.9,2.3
				c0.3,1.8-1,3.3-2.8,3.3H35.1c-1.7,0-3.1-1.6-2.8-3.3C32.6,9.7,33.9,8.8,35.3,8.8z"/>
			<path d="M18.4,54.4c0.3,0.4-4.3,4.3-3.9,4l4.6-3.4c0,0,0,0,0,0c0.8,0.7,1.9,1.1,3,1.1h21.2c1,0,2-0.3,2.8-0.9c0,0,0,0,0,0
				l4.7,3.5c0.4,0.3-4.3-3.8-4-4.2c0.3-0.4,5.6,3,5.1,2.7l-4.6-3.4c0,0,0,0,0,0c0.4-0.7,0.6-1.5,0.6-2.3v-18c0-0.9-0.2-1.7-0.7-2.4
				c0,0,0,0,0,0l4.6-3.4c0.4-0.3-5,3.1-5.3,2.7c-0.3-0.4,4.6-4.5,4.2-4.2l-4.8,3.5c0,0,0,0,0,0c-0.8-0.5-1.7-0.9-2.7-0.9H22.2
				c-0.9,0-1.7,0.2-2.4,0.7c0,0,0,0,0,0l-4.2-3.1c-0.4-0.3,3.9,3.4,3.6,3.8c-0.3,0.4-5.1-2.6-4.7-2.3l3.9,2.9c0,0,0,0,0,0
				c-0.5,0.8-0.8,1.7-0.8,2.7v18c0,0.7,0.2,1.4,0.5,2.1c0,0,0,0,0,0l-4.6,3.4C13,57.2,18.1,54,18.4,54.4L18.4,54.4z M43.4,30.7
				c1.6,0,2.8,1.3,2.8,2.8v17.9c0,1.6-1.3,2.8-2.8,2.8H22.2c-1.6,0-2.8-1.3-2.8-2.8V33.5c0-1.6,1.3-2.8,2.8-2.8H43.4z"/>
		</g>
	</g>
</g>
</svg>
