<?xml version="1.0" encoding="utf-8"?>
<!-- Generator: Adobe Illustrator 22.1.0, SVG Export Plug-In . SVG Version: 6.00 Build 0)  -->
<svg version="1.1" id="图层_1" xmlns="http://www.w3.org/2000/svg" xmlns:xlink="http://www.w3.org/1999/xlink" x="0px" y="0px"
	 viewBox="0 0 64 64" style="enable-background:new 0 0 64 64;" xml:space="preserve">
<style type="text/css">
	.st0{fill:#D82F3D;}
	.st1{fill:#C42330;}
	.st2{fill:#7E8A94;}
	.st3{fill:#5F6C76;}
	.st4{fill:#EAEAEA;}
	.st5{fill:#C7C2C9;}
	.st6{fill:#F3D333;}
	.st7{fill:#E8A42B;}
</style>
<g>
	<g>
		<g>
			<path class="st0" d="M49.4,32.5h5.6v24.2h-5.6V32.5z"/>
			<path class="st0" d="M10.3,31.9h5.6v25.3h-5.6V31.9z"/>
			<g>
				<path class="st1" d="M15.8,31.9h-3.8h-1.8v4.8v20.5h1.8V37.5c0-0.4,0.3-0.7,0.7-0.7h3V31.9z"/>
				<path class="st1" d="M54.9,32.5h-3.8h-1.8v4.2v20h1.8V37.5c0-0.4,0.3-0.7,0.7-0.7h3V32.5z"/>
				<path class="st1" d="M49.4,32.5h5.6v4.2h-5.6V32.5z"/>
				<path class="st1" d="M10.3,31.9h5.6v4.8h-5.6V31.9z"/>
			</g>
			<path class="st0" d="M49.4,7.8V3.6c0-1.5,1.2-2.8,2.8-2.8S55,2.1,55,3.6v4.2L49.4,7.8z"/>
			<path class="st1" d="M53.1,1c-1.1,0.4-1.9,1.4-1.9,2.7v4.2l-1.8,0V3.6c0-1.5,1.2-2.8,2.8-2.8C52.5,0.8,52.8,0.9,53.1,1z"/>
			<path class="st0" d="M10.6,7.8V3.6c0-1.5,1.2-2.8,2.8-2.8c1.5,0,2.8,1.3,2.8,2.8v4.2H10.6z"/>
			<path class="st1" d="M14.3,1c-1.1,0.4-1.9,1.4-1.9,2.7v4.2h-1.8V3.6c0-1.5,1.2-2.8,2.8-2.8C13.7,0.8,14,0.9,14.3,1z"/>
			<path class="st2" d="M17.8,54.9H8.3c-0.7,0-1.2,0.5-1.2,1.2v4.4c0,0.7,0.5,1.2,1.2,1.2h9.4c0.7,0,1.2-0.5,1.2-1.2v-4.4
				C19,55.4,18.4,54.9,17.8,54.9z"/>
			<path class="st2" d="M56.9,54.9h-9.4c-0.7,0-1.2,0.5-1.2,1.2v4.4c0,0.7,0.5,1.2,1.2,1.2h9.4c0.7,0,1.2-0.5,1.2-1.2v-4.4
				C58.1,55.4,57.6,54.9,56.9,54.9z"/>
			<path class="st2" d="M48.5,11.2c-1.2,0-2.2-1-2.2-2.3s1-2.3,2.2-2.3h7.4c1.2,0,2.2,1,2.2,2.3s-1,2.3-2.2,2.3l-3.7,1.2L48.5,11.2z
				"/>
			<path class="st2" d="M9.7,11.2c-1.2,0-2.2-1-2.2-2.3s1-2.3,2.2-2.3H17c1.2,0,2.2,1,2.2,2.3s-1,2.3-2.2,2.3l-4,1.2L9.7,11.2z"/>
			<path class="st3" d="M10.1,61.7H8.3c-0.7,0-1.2-0.5-1.2-1.2v-4.4c0-0.7,0.5-1.2,1.2-1.2h1.8c-0.7,0-1.2,0.5-1.2,1.2v4.4
				C8.9,61.2,9.5,61.7,10.1,61.7z"/>
			<path class="st3" d="M49.3,61.7h-1.8c-0.7,0-1.2-0.5-1.2-1.2v-4.4c0-0.7,0.5-1.2,1.2-1.2h1.8c-0.7,0-1.2,0.5-1.2,1.2v4.4
				C48,61.2,48.6,61.7,49.3,61.7z"/>
			<path class="st3" d="M48.5,11.2c-1.2,0-2.2-1-2.2-2.3c0-0.6,0.3-1.2,0.7-1.6c0.4-0.4,1-0.7,1.6-0.7h1.8c-0.6,0-1.2,0.3-1.6,0.7
				c-0.4,0.4-0.7,1-0.7,1.6c0,1.3,1,2.3,2.2,2.3H48.5z"/>
			<path class="st3" d="M9.7,11.2c-1.2,0-2.2-1-2.2-2.3c0-0.6,0.3-1.2,0.7-1.6c0.4-0.4,1-0.7,1.6-0.7h1.8c-0.6,0-1.2,0.3-1.6,0.7
				c-0.4,0.4-0.7,1-0.7,1.6c0,1.3,1,2.3,2.2,2.3H9.7z"/>
			<path class="st4" d="M58.5,11.2c2,0,3.6,1.6,3.6,3.7v16.2c0,2-1.6,3.7-3.6,3.7H5.5c-2,0-3.6-1.6-3.6-3.7V14.9
				c0-2,1.6-3.7,3.6-3.7H58.5z"/>
			<path class="st5" d="M60.9,32.3c0.4,0,0.7-0.1,1.1-0.2c-0.5,1.5-1.8,2.6-3.5,2.6H5.5c-2,0-3.6-1.6-3.6-3.7V14.9
				c0-1.7,1.1-3.1,2.6-3.5c-0.1,0.3-0.2,0.7-0.2,1.1v16.2c0,0.7,0.2,1.3,0.5,1.8c0.6,1.1,1.8,1.8,3.1,1.8H60.9z"/>
			<path class="st6" d="M48.9,11.2l-8.7,23.6H27.9l8.7-23.6H48.9z"/>
			<path class="st6" d="M24.2,11.2l-8.8,23.6H5.5c-0.8,0-1.5-0.2-2.1-0.7l8.4-22.9H24.2z"/>
			<path class="st6" d="M62.1,14.9v16.2c0,2-1.6,3.7-3.6,3.7h-5.9l8.3-22.6C61.6,12.8,62.1,13.8,62.1,14.9z"/>
			<path class="st7" d="M41.1,32.3l-0.9,2.5H27.9l0.9-2.5H41.1z"/>
			<path class="st7" d="M16.4,32.3l-0.9,2.5H5.5c-0.7,0-1.5-0.2-2.1-0.7l1.3-3.6c0.6,1.1,1.8,1.8,3.1,1.8H16.4z"/>
			<path class="st7" d="M60.9,32.3c0.4,0,0.7-0.1,1.1-0.2c-0.5,1.5-1.8,2.6-3.5,2.6h-5.9l0.9-2.5H60.9z"/>
		</g>
		<path d="M61.7,11.6c-0.8-0.8-1.8-1.3-2.9-1.3c0.2-0.4,0.3-0.9,0.3-1.4c0-1.8-1.4-3.2-3.1-3.2V3.6c0-2.1-1.7-3.7-3.7-3.7
			s-3.7,1.7-3.7,3.7v2.1c-1.7,0-3.1,1.4-3.1,3.2c0,0.5,0.1,0.9,0.3,1.3H32.2c-0.5,0-0.9,0.4-0.9,0.9c0,0.5,0.4,0.9,0.9,0.9h3
			l-8,21.7H16.8l8-21.7H28c0.5,0,0.9-0.4,0.9-0.9c0-0.5-0.4-0.9-0.9-0.9h-8.1c0.2-0.4,0.3-0.9,0.3-1.3c0-1.8-1.4-3.2-3.1-3.2V3.6
			c0-2.1-1.7-3.7-3.7-3.7S9.7,1.6,9.7,3.6v2.1c-1.7,0-3.1,1.4-3.1,3.2c0,0.5,0.1,0.9,0.3,1.3H5.5C3,10.3,1,12.4,1,14.9v16.2
			c0,2.5,2,4.6,4.5,4.6h4.1v18.3h-1c-1.2,0-2.1,1-2.1,2.1v4.4c0,1.2,1,2.1,2.1,2.1h4.5c0.5,0,0.9-0.4,0.9-0.9s-0.4-0.9-0.9-0.9H8.6
			c-0.2,0-0.3-0.1-0.3-0.3v-4.4c0-0.2,0.1-0.3,0.3-0.3H18c0.2,0,0.3,0.1,0.3,0.3v4.4c0,0.2-0.1,0.3-0.3,0.3h-0.7
			c-0.5,0-0.9,0.4-0.9,0.9s0.4,0.9,0.9,0.9H18c1.2,0,2.1-1,2.1-2.1v-4.4c0-1.2-1-2.1-2.1-2.1h-1V35.7h31.5v8.4
			c0,0.5,0.4,0.9,0.9,0.9s0.9-0.4,0.9-0.9v-8.4H54v18.3h-3.8v-5.6c0-0.5-0.4-0.9-0.9-0.9s-0.9,0.4-0.9,0.9v5.6h-1
			c-1.2,0-2.1,1-2.1,2.1v4.4c0,1.2,1,2.1,2.1,2.1h9.4c1.2,0,2.1-1,2.1-2.1v-4.4c0-1.2-1-2.1-2.1-2.1h-1V35.7h2.6
			c2.5,0,4.5-2.1,4.5-4.6V14.9C63,13.6,62.5,12.5,61.7,11.6L61.7,11.6z M57.2,56.1v4.4c0,0.2-0.1,0.3-0.3,0.3h-9.4
			c-0.2,0-0.3-0.1-0.3-0.3v-4.4c0-0.2,0.1-0.3,0.3-0.3h9.4C57.1,55.8,57.2,55.9,57.2,56.1z M50.3,3.6c0-1,0.8-1.9,1.9-1.9
			s1.9,0.8,1.9,1.9v2.1h-3.8V3.6z M47.2,8.9c0-0.7,0.6-1.3,1.3-1.3h7.4c0.7,0,1.3,0.6,1.3,1.3s-0.6,1.3-1.3,1.3h-7.4
			C47.8,10.3,47.2,9.7,47.2,8.9z M37.2,12.1h10.4l-4.2,11.2c-0.2,0.5,0.1,1,0.5,1.2c0.5,0.2,1-0.1,1.2-0.5l4.4-11.9h8.9
			c0.5,0,1,0.1,1.4,0.4l-7.9,21.3H41.5l2.1-5.8c0.2-0.5-0.1-1-0.5-1.2c-0.5-0.2-1,0.1-1.2,0.5l-2.4,6.4H29.2L37.2,12.1z M11.5,3.6
			c0-1,0.8-1.9,1.9-1.9s1.9,0.8,1.9,1.9v2.1h-3.8V3.6z M8.3,8.9c0-0.7,0.6-1.3,1.3-1.3H17c0.7,0,1.3,0.6,1.3,1.3s-0.6,1.3-1.3,1.3
			H9.7C8.9,10.3,8.3,9.7,8.3,8.9z M2.8,14.9c0-1.5,1.2-2.8,2.7-2.8h5L3.1,32.3c-0.2-0.4-0.3-0.8-0.3-1.2L2.8,14.9z M4.5,33.7l8-21.5
			h10.4l-8,21.7H5.5C5.2,33.8,4.9,33.8,4.5,33.7z M11.4,53.9V35.7h3.8v18.3H11.4z M61.2,31.1c0,1.5-1.2,2.8-2.7,2.8h-4.6l7.2-19.5
			c0,0.2,0.1,0.4,0.1,0.6V31.1z"/>
	</g>
</g>
</svg>
