<?xml version="1.0" encoding="utf-8"?>
<!-- Generator: Adobe Illustrator 22.1.0, SVG Export Plug-In . SVG Version: 6.00 Build 0)  -->
<svg version="1.1" id="图层_1" xmlns="http://www.w3.org/2000/svg" xmlns:xlink="http://www.w3.org/1999/xlink" x="0px" y="0px"
	 viewBox="0 0 2000 1299" style="enable-background:new 0 0 2000 1299;" xml:space="preserve">
<style type="text/css">
	.st0{clip-path:url(#SVGID_2_);fill:#F4F3D4;}
	.st1{clip-path:url(#SVGID_4_);fill:#8B616C;}
	.st2{clip-path:url(#SVGID_6_);fill:#8B616C;}
	.st3{clip-path:url(#SVGID_8_);fill:#E264A3;}
	.st4{clip-path:url(#SVGID_10_);fill:#DDC3B1;}
	.st5{clip-path:url(#SVGID_12_);fill:#E9BC9B;}
	.st6{clip-path:url(#SVGID_14_);fill:#8E5139;}
	.st7{clip-path:url(#SVGID_16_);fill:#E264A3;}
	.st8{clip-path:url(#SVGID_18_);fill:#FFFFFF;}
	.st9{clip-path:url(#SVGID_20_);fill:#E9BC9B;}
	.st10{clip-path:url(#SVGID_22_);fill:#DDC3B1;}
	.st11{clip-path:url(#SVGID_24_);fill:#8E5139;}
	.st12{clip-path:url(#SVGID_26_);fill:#CEAE88;}
	.st13{clip-path:url(#SVGID_28_);fill:#8B616C;}
	.st14{clip-path:url(#SVGID_30_);fill:#8B616C;}
	.st15{clip-path:url(#SVGID_32_);fill:#C1C189;}
	.st16{clip-path:url(#SVGID_34_);fill:#E0E0A3;}
	.st17{clip-path:url(#SVGID_36_);fill:#FFFFFF;}
	.st18{clip-path:url(#SVGID_38_);fill:#8B616C;}
	.st19{clip-path:url(#SVGID_40_);fill:#E57C48;}
	.st20{clip-path:url(#SVGID_42_);fill:#E57C48;}
	.st21{clip-path:url(#SVGID_44_);fill:#EFBB54;}
	.st22{clip-path:url(#SVGID_46_);fill:#FBE97B;}
	.st23{clip-path:url(#SVGID_48_);fill:#FFFFFF;}
	.st24{clip-path:url(#SVGID_50_);fill:#8E5139;}
	.st25{clip-path:url(#SVGID_52_);fill:#E0E0A3;}
	.st26{clip-path:url(#SVGID_54_);fill:#E1E1A5;}
	.st27{clip-path:url(#SVGID_56_);fill:#DFDFA3;}
	.st28{clip-path:url(#SVGID_58_);fill:#E0E0A4;}
	.st29{clip-path:url(#SVGID_60_);fill:#E0E0A5;}
	.st30{clip-path:url(#SVGID_62_);fill:#D46629;}
	.st31{clip-path:url(#SVGID_64_);fill:#E264A3;}
	.st32{clip-path:url(#SVGID_66_);fill:#E264A3;}
	.st33{clip-path:url(#SVGID_68_);fill:#FDD759;}
	.st34{clip-path:url(#SVGID_70_);fill:#8B616C;}
	.st35{clip-path:url(#SVGID_72_);fill:#E264A3;}
	.st36{clip-path:url(#SVGID_74_);fill:#F6F6B4;}
	.st37{clip-path:url(#SVGID_76_);fill:#F6F6B4;}
	.st38{clip-path:url(#SVGID_78_);fill:#F6F6B4;}
	.st39{clip-path:url(#SVGID_80_);fill:#F6F6B4;}
	.st40{clip-path:url(#SVGID_82_);fill:#F6F6B4;}
	.st41{clip-path:url(#SVGID_84_);fill:#F6F6B4;}
	.st42{clip-path:url(#SVGID_86_);fill:#E264A3;}
	.st43{clip-path:url(#SVGID_88_);fill:#114458;}
	.st44{clip-path:url(#SVGID_90_);fill:#E264A3;}
	.st45{clip-path:url(#SVGID_92_);fill:#ABBFC6;}
	.st46{clip-path:url(#SVGID_94_);fill:#114458;}
	.st47{clip-path:url(#SVGID_96_);fill:#ABBFC6;}
	.st48{clip-path:url(#SVGID_98_);fill:#BEBE87;}
	.st49{clip-path:url(#SVGID_100_);fill:#CECE94;}
	.st50{clip-path:url(#SVGID_102_);fill:#CECE94;}
	.st51{clip-path:url(#SVGID_104_);fill:#CECE94;}
	.st52{clip-path:url(#SVGID_106_);fill:#F6F6B4;}
	.st53{clip-path:url(#SVGID_108_);fill:#F6F6B4;}
	.st54{clip-path:url(#SVGID_110_);fill:#F6F6B4;}
	.st55{clip-path:url(#SVGID_112_);fill:#F6F6B4;}
	.st56{clip-path:url(#SVGID_114_);fill:#F6F6B4;}
	.st57{clip-path:url(#SVGID_116_);fill:#F6F6B4;}
	.st58{clip-path:url(#SVGID_118_);fill:#F6F6B4;}
	.st59{clip-path:url(#SVGID_120_);fill:#F6F6B4;}
	.st60{clip-path:url(#SVGID_122_);fill:#CECE94;}
	.st61{clip-path:url(#SVGID_124_);fill:#F6F6B4;}
	.st62{clip-path:url(#SVGID_126_);fill:#114458;}
	.st63{clip-path:url(#SVGID_128_);fill:#114458;}
	.st64{clip-path:url(#SVGID_130_);fill:#ACBFC6;}
	.st65{clip-path:url(#SVGID_132_);fill:#CECE94;}
	.st66{clip-path:url(#SVGID_134_);fill:#CECE94;}
	.st67{clip-path:url(#SVGID_136_);fill:#CECE94;}
	.st68{clip-path:url(#SVGID_138_);fill:#CECE94;}
	.st69{clip-path:url(#SVGID_140_);fill:#CECE94;}
	.st70{clip-path:url(#SVGID_142_);fill:#ABBEC5;}
	.st71{clip-path:url(#SVGID_144_);fill:#E1E2E4;}
	.st72{clip-path:url(#SVGID_146_);fill:#E1E2E4;}
	.st73{clip-path:url(#SVGID_148_);fill:#E1E2E4;}
	.st74{clip-path:url(#SVGID_150_);fill:#E1E2E4;}
	.st75{clip-path:url(#SVGID_152_);fill:#E1E2E4;}
	.st76{clip-path:url(#SVGID_154_);fill:#E1E2E4;}
	.st77{clip-path:url(#SVGID_156_);fill:#E1E2E4;}
	.st78{display:none;}
	.st79{display:inline;}
	.st80{clip-path:url(#SVGID_158_);fill:#F5F6F7;}
	.st81{clip-path:url(#SVGID_160_);fill:#ACBFC6;}
	.st82{clip-path:url(#SVGID_162_);fill:#FDFDFD;}
	.st83{clip-path:url(#SVGID_164_);fill:#E1E2E4;}
	.st84{clip-path:url(#SVGID_166_);fill:#ECECEE;}
	.st85{clip-path:url(#SVGID_168_);fill:#FDFDFD;}
	.st86{clip-path:url(#SVGID_170_);fill:#EBEBED;}
	.st87{clip-path:url(#SVGID_172_);fill:#FDFDFD;}
	.st88{clip-path:url(#SVGID_174_);fill:#ABBEC5;}
	.st89{clip-path:url(#SVGID_176_);fill:#114458;}
	.st90{clip-path:url(#SVGID_178_);fill:#114458;}
	.st91{clip-path:url(#SVGID_180_);fill:#124559;}
	.st92{clip-path:url(#SVGID_182_);fill:#124559;}
	.st93{clip-path:url(#SVGID_184_);fill:#D6D8E4;}
	.st94{clip-path:url(#SVGID_186_);fill:#A9BDC4;}
	.st95{clip-path:url(#SVGID_188_);fill:#A9BDC4;}
	.st96{clip-path:url(#SVGID_190_);fill:#EBEBED;}
	.st97{clip-path:url(#SVGID_192_);fill:#EBEBED;}
	.st98{clip-path:url(#SVGID_194_);fill:#EBEBED;}
	.st99{clip-path:url(#SVGID_196_);fill:#EBEBED;}
	.st100{clip-path:url(#SVGID_198_);fill:#E1E2E4;}
	.st101{clip-path:url(#SVGID_200_);fill:#FDFDFD;}
	.st102{clip-path:url(#SVGID_202_);fill:#F5F6F7;}
	.st103{clip-path:url(#SVGID_204_);fill:#ACBFC6;}
	.st104{clip-path:url(#SVGID_206_);fill:#134559;}
	.st105{clip-path:url(#SVGID_208_);fill:#F4F5F6;}
	.st106{clip-path:url(#SVGID_210_);fill:#F2F4F5;}
	.st107{clip-path:url(#SVGID_212_);fill:#ACBFC6;}
	.st108{clip-path:url(#SVGID_214_);fill:#ACBFC6;}
	.st109{clip-path:url(#SVGID_216_);fill:#F3F4F6;}
	.st110{clip-path:url(#SVGID_218_);fill:#F1F3F4;}
	.st111{clip-path:url(#SVGID_220_);fill:#ACBFC6;}
	.st112{clip-path:url(#SVGID_222_);fill:#A9BDC4;}
	.st113{clip-path:url(#SVGID_224_);fill:#124458;}
	.st114{clip-path:url(#SVGID_226_);fill:#547886;}
	.st115{clip-path:url(#SVGID_228_);fill:#406979;}
	.st116{clip-path:url(#SVGID_230_);fill:#ACBFC6;}
	.st117{fill:#114458;}
</style>
<g>
	<g>
		<g>
			<g>
				<g>
					<g>
						<g>
							<g>
								<defs>
									<rect id="SVGID_1_" y="-44" width="2000" height="1460"/>
								</defs>
								<clipPath id="SVGID_2_">
									<use xlink:href="#SVGID_1_"  style="overflow:visible;"/>
								</clipPath>
								<path class="st0" d="M2001.7-40.6V761c-11,1.5-21.5-2.2-31.7-4.9c-35.7-9.7-72.2-11.7-108.8-11.9
									c-24.9-0.1-49.9-1.5-74.8,1.3c-20,2.3-38.8,9.3-58,14.7c-19.3,5.4-38.2,11.6-56.3,20.4c-4.2,2-8.5,4-13.3,4.6
									c-8.2,3.4-16.4,2-24.6,0.1c-35.2-8-71.1-11.1-106.7-16.2c-3.3-0.5-6.6-0.7-9.4-2.9c-21.7-25.9-43.6-51.8-66.2-77
									c-10.7-12-19.2-25.8-30.9-37.1c-3.9-3.8-4.5-9.4-5.3-14.6c-4.7-29.6-8.5-59.3-10.2-89.2c-0.4-7.5-2.2-14.9-1.7-22.4
									c0.4-7.3-2.9-12.7-9.4-15.2c-18.2-7-36.7-12.8-56.6-8c-6.4,1.5-11.7,4.9-15.4,10.6c-4,6-7.1,12.6-10.2,19.1
									c-3.2,6.8-6,14.2-11.3,19.3c-14.3,14-14.5,30.8-10.6,48.3c4.2,19.5,1.4,39.3,3.6,58.9c1.2,10.4-4.6,18-14.5,22
									c-17.2,6.9-31.3,18.9-46.7,28.7c-8.4,5.3-13.2,12.9-13.7,23.4c-0.5,9.6-4.9,18.2-9.7,26.4c-1.6,2.7-3.8,4.8-7.1,5.4
									c-1.8,0.3-3.5,0.2-5.3-0.1c-2.1-0.4-4.2-1.1-6.4-0.9c-2.2,0-4.5-0.3-6.6-1c-27.1-9-50.8,0-73,14.5
									c-15.9,10.4-32.5,17.8-51.2,20.4c-9.9,1.4-19.1-1.8-28.5-4.3c-26.4-6.8-50.9-18.7-76.6-27.4c-25.3-8.5-51.3-14.3-78.3-12.9
									c-12.1,0.7-24,3.6-35.8,6.5c-4.8,1.2-8.9,4.5-12.2,8.4c-2.3,2.7-4.6,5.7-8.6,6c-7.3-1.2-10.5-6.7-13.3-12.6
									c-5.4-11.7-8.9-24.3-9.1-37c-0.4-28.9-2.1-57.7-5.8-86.3c-3.8-29.4-9.8-58.4-19.2-86.8c-6.9-20.8-17.4-39.5-28.8-57.9
									c-3.6-5.8-4.4-11,0.2-16.8c3.3-4.1,1.2-6.6-3.6-7.3c-0.5-0.1-1.1-0.2-1.7-0.2c-22.3,1.5-44.2-3.1-66.4-3.9
									c-26.8-1-53.7-1.1-80.6-3.8c-22.3-2.2-44.8-2.1-67.3-3.5c-5-0.3-9.2,2.4-11.9,6.5c-6.9,10.4-16.5,18.8-22.7,29.7
									c-2.7,4.8-6.9,7.9-11.9,10c-8.7,3.8-16.7,8.8-25.4,12.5c-6.1,2.6-9.2,6.8-9.9,13.9c-1.6,17-8.2,32.8-12.9,49
									c-12.8,44.2-25.7,88.5-38.8,132.7c-1.7,5.8-3.1,11.8-6.5,17.1c-1.7,2.3-4,4-6.9,4.2c-10.9,0.6-22,2.3-32.7-1.5
									c-8.8-4.7-11.7-13.4-13.2-22.1c-2.7-15.8-7.3-31.3-8.3-47.4c-0.5-8.3-2.7-16.4-4.7-24.5c-3.3-13.2-12.3-19.2-25.1-20.5
									c-5.5-0.6-11.1-0.3-16.6-0.3c-5.8,0-9.8-2-12-8.1c-2.5-7.1-5.6-8-10.6-2.9c-5.4,5.5-11.9,8.9-18.6,12.2
									c-7.5,3.6-15.3,6.8-21.9,11.9c-18.3,14.2-40.2,15-61.6,16.6c-15.6,1.1-23-4.9-27.1-19.6c-1.8-6.5-5.9-8.9-11.9-9.7
									c-21.4-3-42.8-6.4-64.3-8.7c-13.2-1.4-26.3-3.9-39.6-5.3c-3.2-0.3-5.8-1.8-7.8-4.3V232.7c4.6-4.3,10.4-3.2,15.9-3.2
									c107.7-0.1,215.4,0,323,0c9.2,0,18.3-0.1,27.5,0c7.4,0.1,14.3-1.9,20.8-5.1c14.1-6.9,19.8-18.3,17-34.1
									c-3.5-15.6-14.7-22.3-29.1-25.1c-3.3-0.7-6.4-1.8-7.8-5.3c-3-10.1,0.5-20.2,0.2-30.3c-0.1-3.5-0.3-6.4-3.2-8.6
									c-1.3-16.5-12.1-22.4-26.7-26c-13.9-3.5-27.5-2.1-41.2-1c-5.4-4-9.9-0.3-14.3,1.9c-9.3,4.7-16.9,12-26.3,16.6
									c-6.2,0.8-10.4-3.3-14.9-6.3c-23.1-15.5-48-25.8-76.8-24.2c-10.8,0.6-21.6,1-32.3,2c-4.3-1.8-8.5-1-12.7,0.7
									c-13.4,5.3-24.7,13.5-33.8,24.4c-7.1,8.5-14.9,16-23.5,23c-18.1,7-37.1,9.8-55.9,14c-2,0.4-3.8-0.2-5.3-1.6v-185
									c2.9-1.6,6-0.8,9-0.8c660.7,0,1321.3,0,1982,0C1995.7-41.4,1998.8-42.2,2001.7-40.6"/>
							</g>
						</g>
					</g>
				</g>
			</g>
		</g>
	</g>
	<g>
		<g>
			<g>
				<g>
					<g>
						<g>
							<g>
								<defs>
									<rect id="SVGID_3_" y="-44" width="2000" height="1460"/>
								</defs>
								<clipPath id="SVGID_4_">
									<use xlink:href="#SVGID_3_"  style="overflow:visible;"/>
								</clipPath>
								<path class="st1" d="M2001.7,1044.4V1321c-3.3,1.6-5.9-0.5-8.5-1.9c-38.5-22.2-77.1-44.1-115.6-66.2
									c-44.1-25.3-88.1-50.7-132.3-75.8c-30.7-17.4-61.1-35.2-91.7-52.7c-36.9-21-73.7-42.3-110.6-63.4
									c-39.8-22.7-79.6-45.4-119.2-68.3c-55.1-31.8-110.3-63.2-165.5-94.8c-31.8-18.2-63.6-36.3-95.2-54.9
									c-2.4-1.4-4.8-2.8-6.7-4.9c-2.3-2.5-1.7-4.4,1.3-5.8c9.3-2.4,18.7-1.1,28.1-1.2c12.4-0.2,24.9-0.3,37.3,0.1
									c12.1,0.2,24.1-0.4,36.2-0.2c5.5,0.1,11,0,16.4,1.4c47.3,13.9,94.9,27.2,142.3,40.9c74.6,21.5,149.3,42.8,224.1,64.1
									c46.2,13.1,92.3,26.3,138.5,39.5c51.7,14.8,103.5,29.7,155.2,44.5c18.4,5.2,36.8,10.7,55.2,16
									C1995.2,1038.7,1999.5,1039.8,2001.7,1044.4"/>
							</g>
						</g>
					</g>
				</g>
			</g>
		</g>
	</g>
	<g>
		<g>
			<g>
				<g>
					<g>
						<g>
							<g>
								<defs>
									<rect id="SVGID_5_" y="-44" width="2000" height="1460"/>
								</defs>
								<clipPath id="SVGID_6_">
									<use xlink:href="#SVGID_5_"  style="overflow:visible;"/>
								</clipPath>
								<path class="st2" d="M1.7,1434.4V1361c0.8-0.7,1.4-1.5,1.9-2.4c0.5-0.6,1-1.1,1.5-1.5c0.9-0.7,1.8-1.4,2.7-2
									c64.6-39.2,129.7-77.5,194.4-116.4c74.5-44.8,149.1-89.3,223.7-133.8c67-40,134-79.9,201-119.9
									c49.8-29.7,99.5-59.7,149.4-89.3c33.9-20.1,67.1-41.4,101.6-60.5c1.6-0.9,3.4-1.4,5.2-1.7c10.4-1.1,20.9-0.9,31.3-0.3
									c4.1,0.2,8.2,0.4,12.3-0.6c1.4-0.1,2.7,0,4,0.5c3.6,5.5-1.7,7.2-4.5,9.5c-29.2,23.1-58.1,46.5-87.1,69.7
									c-70.3,56.2-140.5,112.4-210.7,168.6c-63.7,51-127.6,101.9-191.2,153c-66.9,53.8-134,107.1-200.8,161
									c-15.8,12.7-31.6,25.3-47.5,38c-2.2,1.8-4.3,3.5-7.3,3.8c-56.9,0.1-113.8,0-170.6,0.1C7.6,1436.9,4.2,1437.2,1.7,1434.4"/>
							</g>
						</g>
					</g>
				</g>
			</g>
		</g>
	</g>
	<g>
		<g>
			<g>
				<g>
					<g>
						<g>
							<g>
								<defs>
									<rect id="SVGID_7_" y="-44" width="2000" height="1460"/>
								</defs>
								<clipPath id="SVGID_8_">
									<use xlink:href="#SVGID_7_"  style="overflow:visible;"/>
								</clipPath>
								<path class="st3" d="M1154.9,835.1c17.3,10.9,35.4,20.6,53.1,30.9c37.9,21.8,75.8,43.7,113.7,65.5c31,17.8,62.1,35.3,93,53
									c34.3,19.7,68.5,39.7,102.8,59.3c42.3,24.2,84.7,48.1,127,72.3c33.6,19.3,67,38.9,100.6,58.2
									c34.1,19.6,68.4,38.8,102.5,58.3c24.5,14,48.9,28.2,73.4,42.3c24.2,13.9,48.5,27.7,72.8,41.6c2.6,1.5,5.2,3.1,7.8,4.7v113.3
									c-1.5,1.3-3.3,1.9-5.4,1.9c-31-0.8-62.1,0.2-93.1-0.5c-5.9-0.4-10.3-3.8-14.6-7.3c-49.6-38.9-99.5-77.5-149-116.5
									c-64.4-50.7-129.1-100.9-193.5-151.4c-52.9-41.5-106-82.6-158.9-124.1c-64.2-50.4-128.9-100.2-192.8-151
									c-18.1-14.3-36.6-28-54.3-42.7c-2.8-2.3-7.7-4.5-4-9.8c5.8-2.1,11.5-2.1,17.3-0.1C1154.2,833.4,1154.7,834.1,1154.9,835.1"
									/>
							</g>
						</g>
					</g>
				</g>
			</g>
		</g>
	</g>
	<g>
		<g>
			<g>
				<g>
					<g>
						<g>
							<g>
								<defs>
									<rect id="SVGID_9_" y="-44" width="2000" height="1460"/>
								</defs>
								<clipPath id="SVGID_10_">
									<use xlink:href="#SVGID_9_"  style="overflow:visible;"/>
								</clipPath>
								<path class="st4" d="M881.8,835.7l-3.4,2c-10.4,1.5-21,1.4-31.6,1c-9.2-0.3-17.5,2-25.8,5.4c-62.4,26-125.2,50.9-187.8,76.5
									c-68.7,28.1-137.6,56-206.3,84c-77.5,31.5-155.1,63.1-232.6,94.5c-59.8,24.2-119.6,48.3-179.3,72.9c-4.1,1.7-8,4.1-12.6,3.7
									c-0.8-0.3-1.6-0.7-2.3-1.3V947.7c0.9-0.5,1.8-0.4,2.5,0.4c2.5,3.4,2,7.4,2.1,11.3c0.1,12.8,0.2,25.6,0,38.3
									c-0.1,6.7,2.7,8.3,8.7,6.8c23.2-5.8,46.7-10.6,69.9-15.9c38.3-8.7,76.3-17.8,114.6-26.3c35.6-8,71-16.2,106.5-24.5
									c44.2-10.3,88.4-20.2,132.6-30.4c65-15.1,130.2-29.8,195.2-44.8c35.5-8.2,71.1-15.9,106.5-24.5c6.9-1.7,14.5-0.9,20.5-5.8
									c4-1.4,8.2-1.2,12.3-1.2c30.5,0,60.8,0,91.3-0.1c5.3,0,10.4,1.3,15.7,0.8C881.1,832,882.9,832.7,881.8,835.7"/>
							</g>
						</g>
					</g>
				</g>
			</g>
		</g>
	</g>
	<g>
		<g>
			<g>
				<g>
					<g>
						<g>
							<g>
								<defs>
									<rect id="SVGID_11_" y="-44" width="2000" height="1460"/>
								</defs>
								<clipPath id="SVGID_12_">
									<use xlink:href="#SVGID_11_"  style="overflow:visible;"/>
								</clipPath>
								<path class="st5" d="M884.1,833.5c-2.6,2.4-5.8,1.5-8.9,1.5c-35.4,0.1-70.9,0.1-106.3,0.1c-2.5,0-5,0.1-7.5,0.2
									c-6.4,3.4-13.6,2.5-20.3,2.9c-14.4,0.7-28.8-0.1-43.2,0.9c-8.6-2.3-17.2-1.8-25.8-1.2c-14.5,0.9-29,0.6-43.5,0.4
									c-12-1.4-24.1-1-36-0.4c-16.8,0.8-33.5,0.6-50.2,0.6c-175.2,0.1-350.4,0-525.6,0c-5.7,0-11.9,1.3-16.8-3.3v-36.7
									c12.8-9.8,27.8-15.3,42.6-21c61.5-23.6,125.9-34.3,191-41.5c34.9-3.9,70.1-6.2,105.3-6.3c2.2,0,4.3,1,6.6,0.5
									c6.1,2.7,12.6,1.4,18.9,1.6c4.1,0.1,8.4-0.2,12.5,0.1c3.1,0.2,5.2-1.3,7-3.4c42.9,1.8,85.9,2.8,128.7,6.5
									c63.2,5.5,125.8,14.8,187.7,28.8c53.2,12,105.3,27.8,154.8,51c7.5,3.6,15,7.5,22.1,11.8
									C880.2,828.2,883.3,829.8,884.1,833.5"/>
							</g>
						</g>
					</g>
				</g>
			</g>
		</g>
	</g>
	<g>
		<g>
			<g>
				<g>
					<g>
						<g>
							<g>
								<defs>
									<rect id="SVGID_13_" y="-44" width="2000" height="1460"/>
								</defs>
								<clipPath id="SVGID_14_">
									<use xlink:href="#SVGID_13_"  style="overflow:visible;"/>
								</clipPath>
								<path class="st6" d="M344.9,729.5c-1.3,3.1-4.2,2.2-6.5,2.3c-9.7,0.4-19.4,0.5-29.1,1c-31,1.6-62,4-92.9,7.7
									c-16.8,2-33.6,4.3-50.2,7.2c-29.8,5.2-59.3,11.5-88.2,20.5c-18.5,5.8-36.7,12.3-54.5,20.3c-5,2.3-9.9,4.9-14.9,7.4
									c-2.2,1.1-4.2,2.8-7,1.8V599.4c4.7,2,9.8,1.5,14.8,2.2c25.6,3.4,51.1,6.6,76.7,10c8.5,1.1,16.9,2.9,25.4,4
									c5.2,0.7,7.8,3.6,8.9,8.4c0.3,1.4,0.7,2.7,1,4c0.9,3.4-0.4,7.8,3,9.9c5.1,3.1,10.3,6.3,16.9,6.1c9.5-0.3,18.7-1.9,28.1-2.7
									c12.8-1,24.1-5.2,34.6-12.3c9.2-6.2,18.9-11.5,29.1-15.7c4.7-1.9,8.6-5,11.5-9.2c2.1-3,4.8-4.2,8.5-4.3
									c4.2-0.1,7.1,0.8,7.1,5.7c0,1.1,0.7,2.2,0.7,3.2c0,4.9,2.8,6,7.1,5.7c5.3-0.3,10.5-0.4,15.8-0.4c8.3,0,16.2,2.7,22.6,7.4
									c4.7,3.5,6.4,10.2,8.2,16c2,6.3,4.1,12.8,4.2,19.5c0.1,14.6,5.3,28.3,6.9,42.6c0.7,6.7,2.4,13,4.7,19.3
									C338.8,723.2,341,727,344.9,729.5"/>
							</g>
						</g>
					</g>
				</g>
			</g>
		</g>
	</g>
	<g>
		<g>
			<g>
				<g>
					<g>
						<g>
							<g>
								<defs>
									<rect id="SVGID_15_" y="-44" width="2000" height="1460"/>
								</defs>
								<clipPath id="SVGID_16_">
									<use xlink:href="#SVGID_15_"  style="overflow:visible;"/>
								</clipPath>
								<path class="st7" d="M2001.7,1044.4c-7.2-4.5-15.7-5.5-23.6-7.8c-34.5-10.2-69.3-19.7-103.9-29.5
									c-26.9-7.6-53.8-15.3-80.7-23.1c-25.3-7.3-50.5-14.8-75.8-22.1c-24.2-7-48.5-13.6-72.8-20.5c-24-6.8-47.9-13.9-71.8-20.8
									c-17.6-5-35.2-9.9-52.7-14.9c-18.6-5.3-37.3-10.7-55.9-16c-14.1-4-28.2-8.1-42.3-12.2c-20.5-5.9-41-11.9-61.5-17.7
									c-13.6-3.9-27.2-7.5-40.8-11.4c-14.4-4.1-28.7-8.4-43-12.7c0.6-4.2,4.2-4.3,7-4.3c27.9,0.1,55.8-2,83.6,1.2
									c42.7,8.4,85.6,15.4,128.4,23.3c65.7,12.1,131.6,23.7,197.3,35.6c54.8,10,109.7,19.9,164.6,29.6
									c44.2,7.8,88.4,15.9,132.7,23.8c4.4,0.8,8.9,1.4,11.2,6L2001.7,1044.4L2001.7,1044.4z"/>
							</g>
						</g>
					</g>
				</g>
			</g>
		</g>
	</g>
	<g>
		<g>
			<g>
				<g>
					<g>
						<g>
							<g>
								<defs>
									<rect id="SVGID_17_" y="-44" width="2000" height="1460"/>
								</defs>
								<clipPath id="SVGID_18_">
									<use xlink:href="#SVGID_17_"  style="overflow:visible;"/>
								</clipPath>
								<path class="st8" d="M1.7,144.4c17.2-4,34.4-7.7,51.5-12c3.4-0.9,7.3-0.2,10.2-2.9c2.1-2.2,4.9-2.8,7.6-2.6
									c8.9,0.7,13.5-4.3,17.4-11.4c7.4-13.8,18.1-24.2,32.4-30.9c1-0.5,2-0.9,3.1-1.3c0.7-0.3,1.3-0.4,2-0.6c1.3-0.2,2.6-0.9,4-1
									c0.7,0.1,1.3,0.3,1.8,0.8c6.3-2,12.8-3.5,19.5-3.1c11,0.7,21.9-1.8,32.9-0.2c3.3,0.5,6.6,0.8,9.7,1.9
									c14.9,4.9,30,9.4,43.5,17.7c5.2,3.2,9.4,7.7,14.9,10.4c2,1,3.9,2.1,6.2,1.9c0.3,0,0.7-0.1,1-0.1c0.7-0.1,1.3-0.2,2-0.1
									c1,0.2,2,0.5,2.9,0.9c1,0.4,1.9,0.9,2.9,1.4c4,1.5,5.6-1.2,7-4c3.7-7.6,9.8-12.5,17.2-16.2c1-0.6,2.1-1,3.3-1.2
									c0.8,0,1.5,0.2,2.1,0.7c19.4-5.5,38.2-3.4,56.6,4.3c10.8,4.5,15.1,12.3,13.7,24.2c2.8,3,1.4,6.2,0.6,9.4
									c-0.6,2.4-1.8,4.6-2.6,7c-1.6,4.7-5.8,8.9-5.9,13.6c-0.1,5.9,8.7,3.6,10.8,8.5c1.8,2,4.1,3.1,6.6,3.1
									c9.8,0.1,16.9,6.1,24.6,10.8c5.3,3.3,4.1,9.2,5.4,14.1c0,0.4,0,0.9,0.1,1.3c0,0.9,0,1.8,0,2.7c-1.7,5.3-5.8,8.4-10.3,11.1
									c-8.2,3.8-16.8,5.2-25.9,5.2c-117.9-0.1-235.8-0.1-353.8-0.1c-5.2,0-10.7,0.9-15-3.3L1.7,144.4L1.7,144.4z"/>
							</g>
						</g>
					</g>
				</g>
			</g>
		</g>
	</g>
	<g>
		<g>
			<g>
				<g>
					<g>
						<g>
							<g>
								<defs>
									<rect id="SVGID_19_" y="-44" width="2000" height="1460"/>
								</defs>
								<clipPath id="SVGID_20_">
									<use xlink:href="#SVGID_19_"  style="overflow:visible;"/>
								</clipPath>
								<path class="st9" d="M1368.5,835.7c-29.2-2.6-58.4-0.6-87.6-1.2c-1.4,0-2.7,0.3-3.9,1.2c-9.3-2.1-18.7-1.1-28-1.3
									c-8.6-0.1-17.1-0.1-25.7-0.1c-0.5-6.7,4.6-9,9.3-11.1c9.9-4.5,20.4-7.2,31.1-8.7c13-1.9,25.3-5.7,37.2-11.3
									c20.3-9.6,41.3-17.8,62.3-25.2c22.8-8.1,46.7-13.7,71.3-15c19.6-1,39.2-3.9,58.9-3c8.4,0.4,17.3-0.3,25,4.5
									c6.7,2.9,14.1,1.7,21.1,3.1c11,2.3,22.4,2.8,33.6,4c10,1.1,20.1,2.9,30.1,4.8c13.5,2.6,27,5.2,40.5,7.7
									c5,0.9,9.9-0.1,14.7-1.2c15.1,5.6,31,7.9,46.6,11.5c25.6,5.9,51.1,12.5,77.1,17.3c12.3,2.3,24.4,5.2,37,4.6
									c14.5-0.8,28.7,2.5,43.1,3.3c21.2,1.2,41.9-3.9,62.8-5.5c23.1-1.7,45.5-6.7,67.7-13c2.9-0.8,5.9-1.8,8.9-0.1v33.3
									c-4.3,4.2-9.8,3.3-15,3.3c-83.8,0-167.6,0-251.4,0c-82.4,0-164.8,0.2-247.3-0.2c-16.9-0.1-33.8-1.3-50.7-0.2
									c-20.8,0.4-41.6,1-62.3-1.9C1372.8,835.2,1370.6,834.9,1368.5,835.7"/>
							</g>
						</g>
					</g>
				</g>
			</g>
		</g>
	</g>
	<g>
		<g>
			<g>
				<g>
					<g>
						<g>
							<g>
								<defs>
									<rect id="SVGID_21_" y="-44" width="2000" height="1460"/>
								</defs>
								<clipPath id="SVGID_22_">
									<use xlink:href="#SVGID_21_"  style="overflow:visible;"/>
								</clipPath>
								<path class="st10" d="M0,834.4c204.8,0,409.5,0,614.3,0c4.2,0,8.3,0.1,12.5,0.1c-0.8,4.5-4.7,4.2-7.7,4.7
									c-21.5,3.5-43.1,5.3-64.6,8.1c-34.5,4.6-69,8.2-103.6,12.5c-32,3.9-64.1,7.4-96.2,11.4c-32,4-64.1,7.6-96.1,11.6
									c-33.4,4.1-66.9,7.8-100.3,11.9c-31.5,3.8-63,7.4-94.4,11.7c-16.8,2.3-33.8,3.3-50.5,5.9c-4.6,0.7-9.5,0.9-13.4-2.8L0,834.4
									L0,834.4L0,834.4z"/>
							</g>
						</g>
					</g>
				</g>
			</g>
		</g>
	</g>
	<g>
		<g>
			<g>
				<g>
					<g>
						<g>
							<g>
								<defs>
									<rect id="SVGID_23_" y="-44" width="2000" height="1460"/>
								</defs>
								<clipPath id="SVGID_24_">
									<use xlink:href="#SVGID_23_"  style="overflow:visible;"/>
								</clipPath>
								<path class="st11" d="M2001.7,801c-13.7,5.2-28,8.4-42.4,11.5c-14.7,3.2-29.7,3.7-44.5,5.4c-8.8,1-17.4,3.2-26.3,3.7
									c-14.7,1-29.4,1.3-44-0.9c-8-1.2-16-1.3-24.1-1.2c-14.5,0.2-28.6-2.4-42.7-6.1c-8.5-2.3-17.4-3.6-26.1-4.8
									c-12.1-1.7-23.6-6-35.5-8.8c-8.4-2-16.8-4-25.2-5.3c-10.3-1.5-19.8-5.3-29.8-7.6c-1.7-0.4-5-0.8-2.7-4.2
									c5.8-2.4,11.7-4.8,17.4-7.6c12.2-6,25.1-10.1,38-14.1c20.8-6.5,41.9-12.4,63.1-17.6c9.3-2.3,19.2-2.6,28.9-2.7
									c22.5-0.3,44.9-0.2,67.4,0.3c21.6,0.4,43.2,2.5,64.7,4.6c8.9,0.9,17.2,4.2,25.8,6.1c7.6,1.7,15.1,3.3,22.8,4.3
									c5.3,0.7,10.1,2.8,14.9,4.8V801H2001.7z"/>
							</g>
						</g>
					</g>
				</g>
			</g>
		</g>
	</g>
	<g>
		<g>
			<g>
				<g>
					<g>
						<g>
							<g>
								<defs>
									<rect id="SVGID_25_" y="-44" width="2000" height="1460"/>
								</defs>
								<clipPath id="SVGID_26_">
									<use xlink:href="#SVGID_25_"  style="overflow:visible;"/>
								</clipPath>
								<path class="st12" d="M1436.6,834.5c59.9,0,119.8-0.1,179.7-0.1c128.4,0,256.9,0,385.3,0v70c-2.9,2.5-6.2,1.9-9.5,1.5
									c-65-7.9-130-15.9-195-23.7c-56.7-6.9-113.5-13.9-170.2-20.9c-50.4-6.2-100.8-12.1-151.2-18.2c-10.2-1.2-20.4-2.6-30.5-3.9
									C1441.9,838.7,1437.7,839.3,1436.6,834.5"/>
							</g>
						</g>
					</g>
				</g>
			</g>
		</g>
	</g>
	<g>
		<g>
			<g>
				<g>
					<g>
						<g>
							<g>
								<defs>
									<rect id="SVGID_27_" y="-44" width="2000" height="1460"/>
								</defs>
								<clipPath id="SVGID_28_">
									<use xlink:href="#SVGID_27_"  style="overflow:visible;"/>
								</clipPath>
								<path class="st13" d="M1436.6,834.5c6.5,2.7,13.5,2.1,20.3,3.1c19.7,2.8,39.7,3.9,59.3,7.2c19.1,3.2,38.4,4.6,57.6,7.3
									c16.9,2.3,34,4.5,51.1,5.9c9.1,0.7,18.1,2.4,27.1,3.6c7.9,1,15.9,1.9,23.9,2.8c14.8,1.8,29.7,3.3,44.4,5.6
									c7.9,1.2,15.9,1.9,23.9,2.6c11.3,0.9,22.4,3.6,33.7,4.3c12.7,0.8,25.2,3.6,37.9,4.4c9.6,0.6,19.3,1.8,28.8,3.6
									c7.9,1.5,16,1.4,23.9,2.6c15.8,2.5,31.9,3.5,47.7,6.4c4.7,0.9,9.4,0.8,14.1,1.2c11.9,0.9,23.5,3.3,35.4,4.4
									c12.1,1.2,24.2,2.5,36.1,4.9V951c-11.8-4.4-24.4-5.3-36.6-7.5c-18-3.2-35.9-6.7-53.9-9.8c-31.1-5.3-62.3-10.4-93.2-16.4
									c-21.5-4.2-43-7.9-64.5-12c-27.8-5.2-55.6-9.8-83.4-14.8c-30.8-5.6-61.4-12-92.3-17c-21.6-3.5-43-8.1-64.6-11.4
									c-21.1-3.2-41.9-7.8-62.9-11.6c-21.5-3.9-43.1-7.6-64.6-11.4c-5.7-1-11.4-2.3-17.1-3.5c2.7-2,5.8-1.2,8.8-1.2
									C1397,834.4,1416.8,834.5,1436.6,834.5"/>
							</g>
						</g>
					</g>
				</g>
			</g>
		</g>
	</g>
	<g>
		<g>
			<g>
				<g>
					<g>
						<g>
							<g>
								<defs>
									<rect id="SVGID_29_" y="-44" width="2000" height="1460"/>
								</defs>
								<clipPath id="SVGID_30_">
									<use xlink:href="#SVGID_29_"  style="overflow:visible;"/>
								</clipPath>
								<path class="st14" d="M0,909.4c9.8,0.6,19.3-0.8,29-2.5c7.3-1.3,14.8-2,22.3-2.4c12.7-0.7,25.3-3.5,37.9-4.6
									c16.8-1.4,33.6-4,50.3-5.9c13.7-1.5,27.6-3,41.2-5.1c7.4-1.1,14.8-2.5,22.3-2.7c11.7-0.4,23.1-3.4,34.7-4.2
									c11.6-0.7,23.1-2.9,34.6-4.3c10.1-1.3,20.5-1.8,30.5-3.7c8.8-1.7,17.6-1.3,26.5-2.8c15.8-2.6,31.9-3.6,47.7-6.3
									c7.1-1.2,14.3-2,21.5-2.2c11.4-0.3,22.5-3.3,33.8-4.2c12.7-1,25.4-2.8,38-4.3c9.6-1.1,19.3-1.9,28.9-3.7
									c7.9-1.5,15.9-1.5,24-2.6c16.7-2.3,33.5-4.2,50.2-6.5c11.2-1.6,22.7-2.1,33.9-3.8c6.5-1,13.2-0.6,19.5-3.2
									c19.8,0,39.7,0,59.5,0c3,0,6.1-0.6,8.9,1.1c-1.1,2.4-3.4,2.8-5.6,3.6c-1.3,0.5-2.7,0.8-4,1.2c-34.3,5.9-68.7,11.2-103,16.7
									c-109.2,17.6-218.2,35-327.3,52.6c-72,11.6-144.1,22.8-215.9,34.9c-8.2,1.4-16.5,2.4-24.7,4c-4.2,0.8-8.8,2.2-12.9-0.9
									L1,947.5l-1,0.2V909.4L0,909.4z"/>
							</g>
						</g>
					</g>
				</g>
			</g>
		</g>
	</g>
	<g>
		<g>
			<g>
				<g>
					<g>
						<g>
							<g>
								<defs>
									<rect id="SVGID_31_" y="-44" width="2000" height="1460"/>
								</defs>
								<clipPath id="SVGID_32_">
									<use xlink:href="#SVGID_31_"  style="overflow:visible;"/>
								</clipPath>
								<path class="st15" d="M1.7,204.4c8.1,0,16.1,0.1,24.2,0.1c112.5,0,224.9-0.1,337.4,0.2c12.1,0,23.7-1.3,35-5.5
									c5.5,2.3,3.3,6.3,1.5,9.4c-3.9,6.8-10,11.2-17.5,13.2c-9.1,2.5-18.3,4.3-27.9,4.3c-111.3,0-222.6,0-333.9-0.1
									c-6.6,0-13.5,0.6-18.7-4.9L1.7,204.4L1.7,204.4z"/>
							</g>
						</g>
					</g>
				</g>
			</g>
		</g>
	</g>
	<g>
		<g>
			<g>
				<g>
					<g>
						<g>
							<g>
								<defs>
									<rect id="SVGID_33_" y="-44" width="2000" height="1460"/>
								</defs>
								<clipPath id="SVGID_34_">
									<use xlink:href="#SVGID_33_"  style="overflow:visible;"/>
								</clipPath>
								<path class="st16" d="M1.7,221c16.5,2.8,33.2,1.6,49.8,1.6c101.4,0.1,202.7,0,304.1,0.1c9.3,0,18.1-2.3,27-4.2
									c6.7-1.5,11.6-6.4,15.4-12c1.5-2.2,3.2-4.8,0.2-7.4c1.9-3.6,6.5-5.2,7-9.8c0.5-0.6,0.9-1.2,1.3-1.8v-0.1
									c5.2,5.4,4,11.9,2.6,18.1c-1.8,8.1-6.1,14.7-13.6,19.1c-8.5,4.9-17.4,8.2-27.5,8.2c-122.1-0.1-244.3-0.1-366.4-0.1L1.7,221
									L1.7,221z"/>
							</g>
						</g>
					</g>
				</g>
			</g>
		</g>
	</g>
	<g>
		<g>
			<g>
				<g>
					<g>
						<g>
							<g>
								<defs>
									<rect id="SVGID_35_" y="-44" width="2000" height="1460"/>
								</defs>
								<clipPath id="SVGID_36_">
									<use xlink:href="#SVGID_35_"  style="overflow:visible;"/>
								</clipPath>
								<path class="st17" d="M2001.7-40.6c-2.5,0-5,0-7.5,0c-661.7,0-1323.3,0-1985,0c-2.5,0-5,0-7.5,0c0.4-0.5-0.8-1.7,0.8-1.7
									c2.2,0.1,4.4,0,6.7,0c661.7,0,1323.3,0,1985,0.1C1996.6-42.2,1999.8-44.1,2001.7-40.6"/>
							</g>
						</g>
					</g>
				</g>
			</g>
		</g>
	</g>
	<g>
		<g>
			<g>
				<g>
					<g>
						<g>
							<g>
								<defs>
									<rect id="SVGID_37_" y="-44" width="2000" height="1460"/>
								</defs>
								<clipPath id="SVGID_38_">
									<use xlink:href="#SVGID_37_"  style="overflow:visible;"/>
								</clipPath>
								<path class="st18" d="M1.7,1174.4c0.6,0,1.2,0.1,1.8,0.1c3.1,3,3.2,7,3.2,10.9c0.1,54.4,0,108.9,0.1,163.3
									c0,3.7-1,7.1-1.9,10.6c-0.6,1.3-1.9,1.5-3.1,1.8L1.7,1174.4L1.7,1174.4z"/>
							</g>
						</g>
					</g>
				</g>
			</g>
		</g>
	</g>
	<g>
		<g>
			<g>
				<g>
					<g>
						<g>
							<g>
								<defs>
									<rect id="SVGID_39_" y="-44" width="2000" height="1460"/>
								</defs>
								<clipPath id="SVGID_40_">
									<use xlink:href="#SVGID_39_"  style="overflow:visible;"/>
								</clipPath>
								<path class="st19" d="M882.8,831.7c-23.4-13.6-48.1-24.6-73.5-34c-26.4-9.7-53.4-17.9-80.8-24.9
									c-15.9-4.1-31.8-7.6-47.8-11.3c-13.2-3.1-26.6-5.4-39.9-7.7c-16.1-2.8-32.3-5.6-48.5-7.8c-16.5-2.2-33.1-4.2-49.6-6.3
									c-28.6-3.6-57.5-4.2-86.2-7.5c-3.1-0.4-6.2-0.3-9.3-0.3c-21.8-0.5-43.6-1.1-65.4-1.6c-2.7-0.1-6,0.6-6.4-3.5
									c13.7-45.7,27.5-91.4,41.2-137c4.2-13.8,8.3-27.6,12.5-41.4c2.2-7.4,4.9-14.8,4.2-22.7c-0.3-3.5,1.5-5.8,4.2-7.6
									c4.2-2.8,8.3-5.5,13.2-7.2c9-3.1,16.9-8.9,25.9-12.2c3.1-1.2,4.4-4.2,5.8-6.9c6.3-12.6,17.7-21.4,25.5-32.9
									c2.6-3.8,7.5-4.7,12.2-4.4c26.6,1.5,53.2,2.8,79.7,4.6c29.1,2,58.3,2.4,87.4,3.5c2.5,0.1,5.1,0,7.6,0.4
									c11.8,2.1,23.6,3.2,35.5,2.5c4.2-0.2,8.5,0.1,12.7,0.3c3.3,0.1,5.1,2,6,4.9c0.9,3.2,0.3,6-2.4,8.2c-6,4.9-6.2,5-1.9,11
									c8.1,11.4,14,24,21.6,35.7c0.6,0.9,1.3,1.9,1.6,2.9c9.5,26.7,17.8,53.6,23,81.5c5,26.8,6.8,53.8,9,80.8
									c0.8,9.4,0.8,18.8,1.1,28.2c0.3,12.9,3.5,25.1,7.6,37.3c2.4,7,6.5,12.2,12.8,15.9c13.2,4.6,24.1,13,36,19.8
									c23.2,13.1,45,28.6,70.2,38.1c1.8,0.7,3.6,1.6,4.3,3.7c-2.2,1.7-4.8,1.2-7.3,1.2c-13.5-0.1-26.9-0.2-40.4-0.3
									C884.3,833.4,884,832.3,882.8,831.7"/>
							</g>
						</g>
					</g>
				</g>
			</g>
		</g>
	</g>
	<g>
		<g>
			<g>
				<g>
					<g>
						<g>
							<g>
								<defs>
									<rect id="SVGID_41_" y="-44" width="2000" height="1460"/>
								</defs>
								<clipPath id="SVGID_42_">
									<use xlink:href="#SVGID_41_"  style="overflow:visible;"/>
								</clipPath>
								<path class="st20" d="M1518.5,764.4c-5.8,0.3-11.5-0.4-17.3-1.2c-9.6-1.4-19.5-1.5-29-0.1c-10.7,1.5-21.5,1.8-32.3,2.4
									c-11.7,0.6-23,2.9-34.5,4.4c-7.6,0.9-14.9,4.2-22.5,5.5c-15.5,2.6-29.2,9.7-43.5,15.6c-6.8,2.8-13.4,6-20.9,7.6
									c-7.6,1.6-14.8,6-21.9,9.7c-10.9,5.7-22.5,7.5-34.2,9.5c-10.4,1.8-20.5,4.7-30.3,8.5c-4,1.5-6.6,4.8-9,8.2
									c-19.5,0.1-39,0.1-58.5,0.2c-3.3,0-6.6,0.3-9.9,0.5v-0.6c-1.4-6.9,2.7-11.8,6.9-15.9c16.6-16.1,29.8-34.7,40.3-55.2
									c2.4-0.4,3.8-2,4.9-4.1c4.9-10,10-19.8,9.6-31.4c-0.2-5.7,3.2-10.1,6.9-13.8c5.9-5.8,12-11.4,19.8-14.9
									c3.5-1.6,7.2-3.4,9.8-6.1c5.8-5.9,13.1-9,20.4-12.3c16.4-7.5,18.9-7.3,17.4-28.8c-0.3-4.7-0.7-9.4-0.6-14.1
									c0.3-21.7-3.2-43.1-5.8-64.5c-0.3-2.6,0.4-4.3,1.9-5.9c12.8-14.5,21.4-31.5,29.6-48.9c5.6-11.9,14.6-18.9,28.4-19.7
									c9.8-0.5,19.4-0.8,28.6,3c2.1,0.9,4.3,0.9,6.5,1.1c4.8,0.4,9.2,1.9,13.5,3.8c9.8,4.3,15.6,10.3,14,22.2
									c-1.2,9,2,18.2,2.1,27.3c0.1,19.2,3.7,38,5.9,57c1.2,10.7,2.3,21.5,5.2,32c0.7,2.4,1.2,5.1,3.5,6.4c5.7,3.4,9.2,8.8,13,13.8
									c17.4,23,37.2,44,55.7,66.1c7.1,8.5,14.6,16.7,21.8,25.1C1516.1,758.9,1518.8,760.9,1518.5,764.4"/>
							</g>
						</g>
					</g>
				</g>
			</g>
		</g>
	</g>
	<g>
		<g>
			<g>
				<g>
					<g>
						<g>
							<g>
								<defs>
									<rect id="SVGID_43_" y="-44" width="2000" height="1460"/>
								</defs>
								<clipPath id="SVGID_44_">
									<use xlink:href="#SVGID_43_"  style="overflow:visible;"/>
								</clipPath>
								<path class="st21" d="M1657.8,364.4c-66,0-119.7-53.7-119.7-119.7S1591.8,125,1657.8,125s119.7,53.7,119.7,119.7
									S1723.8,364.4,1657.8,364.4"/>
							</g>
						</g>
					</g>
				</g>
			</g>
		</g>
	</g>
	<g>
		<g>
			<g>
				<g>
					<g>
						<g>
							<g>
								<defs>
									<rect id="SVGID_45_" y="-44" width="2000" height="1460"/>
								</defs>
								<clipPath id="SVGID_46_">
									<use xlink:href="#SVGID_45_"  style="overflow:visible;"/>
								</clipPath>
								<path class="st22" d="M1657.8,140c57.8,0,104.7,46.9,104.7,104.7s-46.9,104.7-104.7,104.7c-57.8,0-104.7-46.9-104.7-104.7
									C1553,186.9,1599.9,140,1657.8,140 M1657.8,110c-36,0-69.8,14-95.3,39.5c-25.4,25.4-39.5,59.3-39.5,95.3s14,69.8,39.5,95.3
									c25.4,25.4,59.3,39.5,95.3,39.5s69.8-14,95.3-39.5c25.4-25.4,39.5-59.3,39.5-95.3s-14-69.8-39.5-95.3
									C1727.6,124,1693.7,110,1657.8,110"/>
							</g>
						</g>
					</g>
				</g>
			</g>
		</g>
	</g>
	<g>
		<g>
			<g>
				<g>
					<g>
						<g>
							<g>
								<defs>
									<rect id="SVGID_47_" y="-44" width="2000" height="1460"/>
								</defs>
								<clipPath id="SVGID_48_">
									<use xlink:href="#SVGID_47_"  style="overflow:visible;"/>
								</clipPath>
								<path class="st23" d="M1226.7,92.5c12.7-2.6,25.4-5.2,38.1-7.4c5.1-0.9,10.6,0.9,15.4-2.3c0.8-1.3,2-2.2,3.3-2.2
									c11.9-0.2,16.7-7.6,20.8-17.6c4.3-10.6,13.9-16.7,23.8-22c4.6-2.5,9.3-4.8,14.1-6.8c0.7-0.3,1.4-0.5,2.2-0.7
									c0.7-0.2,1.4-0.5,2-0.7c1.3-0.4,2.5-1.1,3.9-1.5c1.3-0.2,2.6-0.2,3.8-0.6c1.2-0.3,2.4-0.4,3.5-0.8c0.6-0.2,1.1-0.3,1.7-0.4
									c0.6,0,1.2-0.1,1.8,0c0.3,0,0.6,0,0.9,0c7,0.6,13.7-1.6,20.7-1.8c20.9-0.7,40.5,3.5,59.7,11.7c16.1,6.9,31.6,14.7,45.2,25.9
									c5.8,4.8,6.1,4.5,12,0.1c12.4-9.1,26.8-14.2,41.1-19.2c2.6-0.9,5.3-1.5,8-2.3c5.8-1.7,11.5-3.1,17.9-1.7
									c5,1.1,10.5,0.5,15.8,0.4c10.4-0.3,20.7,1.2,30.3,4.2c15.7,5,27.9,14.5,32,31.8c1.6,6.6-0.9,12.6-2,18.8
									c-1.1,6.8-1,7.5,6,8.7c10.7,1.8,21.1,4.1,31.3,8c11.8,4.5,17.5,12.8,18.4,25c-0.2,4.3-3.9,5.8-6.6,8.1
									c-1.4,1.1-2.7,2.3-4,3.6c-1.4,1.3-2.9,2.6-4.6,3.5c-0.8,0.4-1.6,0.6-2.4,0.8c-2.2,0.7-4.4,1.6-6.7,2
									c-4.4,0.8-8.9,0.6-13.3,0.6c-145.5,0-291.1,0-436.6,0.1c-11.3,0-22-2.1-32.6-5.7c-6-2-11.1-5.1-14.4-10.7
									c-0.6-0.9-1-1.8-1.4-2.8c-0.4-0.9-0.7-1.9-0.9-2.8c-0.3-5.1-0.9-10.2-0.2-15.3c3.2-10.3,10.7-16.4,20.1-20.6
									c1-0.6,1.9-1.2,3-1.6c1-0.5,2-0.8,3-1.1c0.9-0.3,1.9-0.6,2.8-0.9c1.2-0.2,2.5-0.6,3.7-0.8c0.9-0.2,1.8-0.5,2.6-0.8
									c0.6-0.3,1.2-0.5,1.7-0.8c0.9-0.4,1.8-0.8,2.8-1c1-0.1,2.1-0.1,3.1-0.2c1.9,0.2,3.5-1,5.2-1.5
									C1224,91.1,1225.5,91.3,1226.7,92.5"/>
							</g>
						</g>
					</g>
				</g>
			</g>
		</g>
	</g>
	<g>
		<g>
			<g>
				<g>
					<g>
						<g>
							<g>
								<defs>
									<rect id="SVGID_49_" y="-44" width="2000" height="1460"/>
								</defs>
								<clipPath id="SVGID_50_">
									<use xlink:href="#SVGID_49_"  style="overflow:visible;"/>
								</clipPath>
								<path class="st24" d="M1202.5,763.3c1.6,2.4,0.8,4.5-0.5,6.8c-10.4,18.2-22.1,35.5-37.8,49.6c-4.6,4.1-5.8,9.9-8.9,14.7
									c-6.8,0.2-13.6,0.4-20.4,0.6c-9,4.7-18.6,1.8-27.9,1.9c-3.2,0.8-6.5-0.2-9.7,0.6c-3.2,0.4-6.3-1.2-9.5-0.4
									c-2.4-0.1-4.8-0.4-7.2,0.2c-17.6,0.1-35.3,0.8-52.9-0.3c-2.1,0-4.2,0-6.3,0c-19.8,1.2-39.7,0.4-59.5,0.5
									c-2.4-0.3-4.8-0.9-7.3-0.4c-2.8-0.5-5.6,0.7-8.4,0.4c-4.8-1.4-10.4,1.4-14.8-2.7c-0.9,0-1.8-0.1-2.8-0.1
									c-11.1-2.8-21.3-7.7-31.1-13.5c-24-14.2-47.8-28.8-71.7-43.2c-2.2-1.3-4-2.9-5.5-5c1.6-1.9,3.3-3.8,4.8-5.8
									c6.8-9.1,16.3-12.8,27.3-13.2c3.4-0.1,6.5-0.6,9.8-1.6c6.4-2,12.8-3.5,19.6-2.1c2.7,0.5,5.6,0.5,8.3,0.3
									c15-1.3,29.3,2.2,43.3,6.5c8.2,2.5,16.6,4.2,24.9,6.6c7.8,2.3,14.9,5.7,22.2,9c11.4,5,22.6,10.3,35.2,12.2
									c5.9,0.9,11.5,3.8,17.3,5.8c2.4,0.8,4.8,1.5,7.1,2.3c12.7,4.3,25,0.8,37.4-2c12.8-2.9,23.2-10.3,33.6-17.5
									c9.3-6.4,19.4-10.5,30.2-13.3c6.9-1.8,13.5-4.7,21.1-4.1c5.5,0.5,11,0.5,16.3,2.5c4.4,1.6,9.2,1.9,13.8,2.8
									c1.3,0.6,2.7,0.2,4,0.7C1198.6,762.6,1200.5,763,1202.5,763.3"/>
							</g>
						</g>
					</g>
				</g>
			</g>
		</g>
	</g>
	<g>
		<g>
			<g>
				<g>
					<g>
						<g>
							<g>
								<defs>
									<rect id="SVGID_51_" y="-44" width="2000" height="1460"/>
								</defs>
								<clipPath id="SVGID_52_">
									<use xlink:href="#SVGID_51_"  style="overflow:visible;"/>
								</clipPath>
								<path class="st25" d="M1216.7,94.1l-3.3,0.3c-0.6,0.5-1.1,1-1.7,1.4c-0.5,0.1-1.1,0.2-1.6,0.2c-0.5,0.5-1.1,0.9-1.7,1.3
									c-1.6,0.1-3.2,0.3-4.9,0.4c-0.6,0.4-1.2,0.9-1.8,1.3c-1.1,0.1-2.2,0.2-3.2,0.3c-0.6,0.5-1.2,1-1.7,1.6
									c-8.5,4.1-15.5,10-20.1,18.4c-3.5,4.4-5.9,9.4-7.3,14.8c-3.2,12.4,1.7,24.3,13.3,30c7.2,3.5,14.8,6,23.1,6
									c152.9,0,305.7,0,458.6,0c15.4,0,26-10.1,25.8-24.1c2.7-2.3,5.3-4.6,8-6.9c6.2,5.5,4.3,12.3,1.8,18.3
									c-6.9,16.1-20.4,23.3-37.1,25.2c-1.6,0.2-3.3,0-5,0c-147.9,0-295.9,0-443.8,0c-11.2,0-22.1-2.3-32.4-6.1
									c-14.5-5.3-23-19.9-23.3-33.3c-0.5-19.1,8.6-32.1,24.6-41.1c12.5-7,26.1-10.4,40.1-12.7c1.9-0.3,5.1-1.2,3.7,3
									c-1.7,0.1-3.3,0.1-5,0.2C1220.3,94.2,1218.1,92.9,1216.7,94.1"/>
							</g>
						</g>
					</g>
				</g>
			</g>
		</g>
	</g>
	<g>
		<g>
			<g>
				<g>
					<g>
						<g>
							<g>
								<defs>
									<rect id="SVGID_53_" y="-44" width="2000" height="1460"/>
								</defs>
								<clipPath id="SVGID_54_">
									<use xlink:href="#SVGID_53_"  style="overflow:visible;"/>
								</clipPath>
								<path class="st26" d="M1360,30.9c-0.5,0.1-1.1,0.2-1.7,0.2c-0.9,1-2.3,0.6-3.3,1.4l-5,0.3c-0.9,1-2.4,0.6-3.4,1.5l-0.1,0.1
									c-0.4,0.6-0.9,1-1.6,1.4c-10.1,3.7-19.6,8.9-28.1,15.4c-5.6,4.3-10.8,9.7-12.3,17c-2.3,11.4-10.3,14.3-20.4,14.6
									c-1.4,0-2.8,0.1-4.1,0.1c-1.3-0.3-3.1,0.2-3.8-1.1c-1-1.7,0.6-2.4,1.8-3c6.1-3.1,10.2-8.3,13.9-13.9
									c6.6-9.9,15.6-17,25.9-22.7c11.2-6.2,22.8-11.1,35.4-13.7c3-0.6,5.9-1.6,8.5,1h-0.1C1361.2,29.9,1360.6,30.4,1360,30.9"/>
							</g>
						</g>
					</g>
				</g>
			</g>
		</g>
	</g>
	<g>
		<g>
			<g>
				<g>
					<g>
						<g>
							<g>
								<defs>
									<rect id="SVGID_55_" y="-44" width="2000" height="1460"/>
								</defs>
								<clipPath id="SVGID_56_">
									<use xlink:href="#SVGID_55_"  style="overflow:visible;"/>
								</clipPath>
								<path class="st27" d="M123.3,85.7c-15.1,7.5-26.7,18.6-34.3,33.8c-3.5,7-9,11-17.3,9.9c-2.7-0.4-5.5,0-8.3,0
									c-0.6-0.7-0.9-1.8-0.1-2.1c10.3-4.3,15.4-14.1,22.5-21.6c11.5-12.1,24.4-21.6,40.9-25.5c2.5-0.6,4.4-0.7,4.9,2.4
									c-0.5,0.1-1.1,0.2-1.6,0.2c-0.9,1-2.4,0.6-3.3,1.5c-0.5,0.1-1.1,0.1-1.6,0.2C124.5,84.9,124,85.4,123.3,85.7"/>
							</g>
						</g>
					</g>
				</g>
			</g>
		</g>
	</g>
	<g>
		<g>
			<g>
				<g>
					<g>
						<g>
							<g>
								<defs>
									<rect id="SVGID_57_" y="-44" width="2000" height="1460"/>
								</defs>
								<clipPath id="SVGID_58_">
									<use xlink:href="#SVGID_57_"  style="overflow:visible;"/>
								</clipPath>
								<path class="st28" d="M369.9,159.5c-1.9-0.4-3.8-0.7-5.6-1.3c-10.9-3.4-10.7-3.3-5.7-13.1c3.9-7.6,7.7-15.3,8.4-24.1
									c2.9-1.4,4.4-0.1,4.5,2.7c0.2,5.8,0.7,11.7-0.1,17.5c-0.7,5.3-2,10.3-0.1,15.5C371.7,157.8,370.7,158.7,369.9,159.5"/>
							</g>
						</g>
					</g>
				</g>
			</g>
		</g>
	</g>
	<g>
		<g>
			<g>
				<g>
					<g>
						<g>
							<g>
								<defs>
									<rect id="SVGID_59_" y="-44" width="2000" height="1460"/>
								</defs>
								<clipPath id="SVGID_60_">
									<use xlink:href="#SVGID_59_"  style="overflow:visible;"/>
								</clipPath>
								<path class="st29" d="M263.3,112.8c-1.1-0.1-2.2-0.3-3.3-0.4c-0.6-0.4-1.2-0.8-1.7-1.3l0,0c0.2-1.4,0.8-2.6,2-3.4
									c7.3-4.8,14.6-9.7,22-14.3c3.7-2.3,7.9-3.8,12.4-4c2.4-0.1,2.8,1.1,2,3.1c-0.5,0.1-1.1,0.2-1.6,0.2c-0.6,0.5-1.1,1-1.7,1.4
									c-1.1,0.8-2.1,1.9-3.3,2.4c-7.7,2.7-11.4,9-14.8,15.7c-3.4,6.5-3.4,6.4-10.2,2C264.4,113.8,263.8,113.3,263.3,112.8"/>
							</g>
						</g>
					</g>
				</g>
			</g>
		</g>
	</g>
	<g>
		<g>
			<g>
				<g>
					<g>
						<g>
							<g>
								<defs>
									<rect id="SVGID_61_" y="-44" width="2000" height="1460"/>
								</defs>
								<clipPath id="SVGID_62_">
									<use xlink:href="#SVGID_61_"  style="overflow:visible;"/>
								</clipPath>
								<path class="st30" d="M1196.3,762.2c-1.5,0.5-2.9,0.5-4-0.7C1193.7,761.1,1195.1,761.1,1196.3,762.2"/>
							</g>
						</g>
					</g>
				</g>
			</g>
		</g>
	</g>
	<g>
		<g>
			<g>
				<g>
					<g>
						<g>
							<g>
								<defs>
									<rect id="SVGID_63_" y="-44" width="2000" height="1460"/>
								</defs>
								<clipPath id="SVGID_64_">
									<use xlink:href="#SVGID_63_"  style="overflow:visible;"/>
								</clipPath>
								<path class="st31" d="M1.5,1357.1c-2-2.4-1.4-5.3-1.4-8c0-58.9,0-117.9,0-176.8c15.2-6.1,30.4-12.2,45.5-18.3
									c27.3-11.1,54.6-22.3,81.9-33.4c18.5-7.5,37.3-14.7,55.8-22.2c21.4-8.7,42.6-17.7,64-26.3c21.2-8.5,42.5-16.4,63.5-25.3
									c16.6-7.1,33.4-13.9,50.2-20.6c21.2-8.5,42.2-17.4,63.6-25.5c16.6-6.3,32.9-13.6,49.5-20.2c18.3-7.4,36.7-14.5,55-21.9
									c21.4-8.7,42.6-17.7,64.1-26.3c17-6.9,34.1-13.3,51.2-20.2c21.2-8.5,42.2-17.3,63.4-25.9c13.4-5.4,27-10.6,40.4-16
									c17.8-7.2,35.5-14.6,53.3-21.9c11.4-4.6,22.4-11,34.1-13.2c14.9-2.8,49.6-1.3,46.3,0.6c26.2-15.4-52.2,31.1-78.3,46.6
									c-33.3,19.7-66.7,39.2-100,58.9c-24,14.2-47.7,28.6-71.7,42.9c-22.8,13.5-45.5,26.9-68.3,40.4
									c-24.9,14.7-49.9,29.5-74.7,44.3c-27.6,16.3-55.1,32.6-82.7,49c-21.8,12.9-43.5,26-65.4,38.9
									c-33.3,19.7-66.7,39.3-99.9,59.1c-24,14.2-47.8,28.5-71.8,42.7c-38.6,22.9-77.2,45.7-115.7,68.6
									c-14.8,8.8-29.6,17.8-44.4,26.6c-1.6,1-3.5,1.5-5.3,2.3C2.7,1356.4,2.1,1356.8,1.5,1357.1L1.5,1357.1z"/>
							</g>
						</g>
					</g>
				</g>
			</g>
		</g>
	</g>
	<g>
		<g>
			<g>
				<g>
					<g>
						<g>
							<g>
								<defs>
									<rect id="SVGID_65_" y="-44" width="2000" height="1460"/>
								</defs>
								<clipPath id="SVGID_66_">
									<use xlink:href="#SVGID_65_"  style="overflow:visible;"/>
								</clipPath>
								<path class="st32" d="M931.2,834.9c5.3-0.3,10.7-1.1,15.9,0.6c0.3,3.2-1.8,4.9-3.9,6.9c-33.4,30.5-67,60.8-100.4,91.2
									c-32.7,29.7-65.5,59.2-98.1,88.8c-32.2,29.3-64.6,58.4-97,87.6c-25,22.4-49.7,45.1-74.6,67.6c-26.3,23.8-52.6,47.7-79,71.5
									c-45.7,41.3-91.4,82.6-136.9,124.2c-19.7,18-39.6,35.6-59.3,53.5c-2.5,2.2-5,4.5-8,6c-1.3,0.8-2.9,0.8-4.3,1.2
									c-30.3,0-60.5,0.1-90.8,0.1c-3.3,0-6.7-0.2-10-0.2c13-12.1,27.3-22.6,41.1-33.7c55.8-44.8,111.6-89.5,167.4-134.1
									c47.8-38.3,95.8-76.4,143.6-114.6c43.5-34.8,86.8-69.8,130.3-104.6c34.2-27.4,68.5-54.5,102.7-81.9
									c43.5-34.8,86.9-69.8,130.4-104.6C910.7,851.8,921.4,843.9,931.2,834.9"/>
							</g>
						</g>
					</g>
				</g>
			</g>
		</g>
	</g>
	<g>
		<g>
			<g>
				<g>
					<g>
						<g>
							<g>
								<defs>
									<rect id="SVGID_67_" y="-44" width="2000" height="1460"/>
								</defs>
								<clipPath id="SVGID_68_">
									<use xlink:href="#SVGID_67_"  style="overflow:visible;"/>
								</clipPath>
								<path class="st33" d="M5,1359.1c0.6-0.4,1.2-0.8,1.8-1.2C6.2,1358.3,5.6,1358.7,5,1359.1"/>
							</g>
						</g>
					</g>
				</g>
			</g>
		</g>
	</g>
	<g>
		<g>
			<g>
				<g>
					<g>
						<g>
							<g>
								<defs>
									<rect id="SVGID_69_" y="-44" width="2000" height="1460"/>
								</defs>
								<clipPath id="SVGID_70_">
									<use xlink:href="#SVGID_69_"  style="overflow:visible;"/>
								</clipPath>
								<path class="st34" d="M1105.4,835c9.7-0.6,19.4-0.7,29.1,0c11.1,10.1,23.2,18.8,35,28.1c44.3,34.7,88.8,69.2,133.1,103.8
									c52,40.6,103.9,81.4,155.8,122.1c47.6,37.2,95.3,74.3,143,111.5c43.5,33.9,86.9,67.9,130.4,101.9
									c44.3,34.7,88.6,69.4,132.9,104.1c11.6,9,23.3,17.9,34.9,26.9c-6.8,1.5-13.8,0.8-20.7,0.8c-30.7,0.3-61.5,0.3-92.2,0.5
									c-22.4,0.2-44.8,0.6-67.2,1.1c-4,0.1-7.7-0.2-10.8-3.1c-4.5-1.8-8-4.8-11.3-8.2c-67.7-68-136.5-135.1-204.7-202.6
									c-52.8-52.3-105.2-105.1-158.6-156.8c-47.9-46.3-94.3-94-142-140.5c-27-26.3-54.1-52.6-80.6-79.4
									C1108.7,842.3,1104.6,840.1,1105.4,835"/>
							</g>
						</g>
					</g>
				</g>
			</g>
		</g>
	</g>
	<g>
		<g>
			<g>
				<g>
					<g>
						<g>
							<g>
								<defs>
									<rect id="SVGID_71_" y="-44" width="2000" height="1460"/>
								</defs>
								<clipPath id="SVGID_72_">
									<use xlink:href="#SVGID_71_"  style="overflow:visible;"/>
								</clipPath>
								<path class="st35" d="M688,836.4c2.2-0.3,4.5-0.5,6.7-0.8c21.1-2.1,42.3-0.7,63.5-1c-0.8,4-4.5,3.9-7.2,4.4
									c-26.4,5.2-52.5,11.9-78.7,17.8c-11.3,2.6-22.8,5.1-34.1,7.5c-15.8,3.3-31.3,7.3-47.1,10.9c-18.4,4.2-36.9,8.2-55.2,12.4
									c-9.4,2.2-18.9,4.6-28.4,6.7c-25.5,5.7-51,10.9-76.4,17c-19.7,4.8-39.5,9.2-59.2,13.7c-19.5,4.4-39.2,8.1-58.4,13.2
									c-10.7,2.8-21.7,5-32.4,7.7c-18,4.5-36.5,7.4-54.4,12.2c-16.4,4.4-33,7.5-49.5,11.5c-17.3,4.2-34.8,7.1-51.9,11.7
									c-14.8,4-29.6,7.1-44.5,10.6c-10.2,2.4-20.5,5.1-30.8,7c-14.2,2.6-28.1,6.3-42.3,9.4c-6.7,1.5-7.3,1.1-7.3-5.6
									c-0.1-18.3,0-36.7,0-55c13.2-2.2,26.3-4.3,39.6-6.5c22.2-3.7,44.5-7.5,66.7-11.1c16-2.6,31.9-4.8,47.9-7.3
									c13-2,25.8-4.3,38.8-6.3c15.2-2.4,30.2-4.7,45.4-7.1c13.2-2.1,26.4-4.2,39.6-6.4c16.2-2.6,32.4-5.3,48.6-8
									c16.8-2.7,33.5-5.5,50.2-8.1c23.4-3.7,46.8-6.8,70.1-11c21.9-3.9,44-7,65.9-10.9c14.8-2.6,29.7-4.7,44.5-7
									c14.3-2.2,28.5-4.7,42.9-7c17.1-2.7,34-5.3,51.1-8.1c11.8-1.9,23.6-3.9,35.4-5.8C687.1,836.9,687.6,836.7,688,836.4"/>
							</g>
						</g>
					</g>
				</g>
			</g>
		</g>
	</g>
	<g>
		<g>
			<g>
				<g>
					<g>
						<g>
							<g>
								<defs>
									<rect id="SVGID_73_" y="-44" width="2000" height="1460"/>
								</defs>
								<clipPath id="SVGID_74_">
									<use xlink:href="#SVGID_73_"  style="overflow:visible;"/>
								</clipPath>
								<path class="st36" d="M126.7,84.2c0.8-1.1,2-1.5,3.3-1.5C129.2,83.9,128.1,84.3,126.7,84.2"/>
							</g>
						</g>
					</g>
				</g>
			</g>
		</g>
	</g>
	<g>
		<g>
			<g>
				<g>
					<g>
						<g>
							<g>
								<defs>
									<rect id="SVGID_75_" y="-44" width="2000" height="1460"/>
								</defs>
								<clipPath id="SVGID_76_">
									<use xlink:href="#SVGID_75_"  style="overflow:visible;"/>
								</clipPath>
								<path class="st37" d="M406.6,187.6c-0.5,0.6-0.9,1.2-1.4,1.8C405.7,188.8,406.1,188.2,406.6,187.6"/>
							</g>
						</g>
					</g>
				</g>
			</g>
		</g>
	</g>
	<g>
		<g>
			<g>
				<g>
					<g>
						<g>
							<g>
								<defs>
									<rect id="SVGID_77_" y="-44" width="2000" height="1460"/>
								</defs>
								<clipPath id="SVGID_78_">
									<use xlink:href="#SVGID_77_"  style="overflow:visible;"/>
								</clipPath>
								<path class="st38" d="M263.3,112.8c0.6,0.5,1.2,1,1.7,1.5C264.4,113.8,263.8,113.3,263.3,112.8"/>
							</g>
						</g>
					</g>
				</g>
			</g>
		</g>
	</g>
	<g>
		<g>
			<g>
				<g>
					<g>
						<g>
							<g>
								<defs>
									<rect id="SVGID_79_" y="-44" width="2000" height="1460"/>
								</defs>
								<clipPath id="SVGID_80_">
									<use xlink:href="#SVGID_79_"  style="overflow:visible;"/>
								</clipPath>
								<path class="st39" d="M258.3,111.1c0.6,0.4,1.1,0.9,1.7,1.3C259.4,112,258.9,111.5,258.3,111.1"/>
							</g>
						</g>
					</g>
				</g>
			</g>
		</g>
	</g>
	<g>
		<g>
			<g>
				<g>
					<g>
						<g>
							<g>
								<defs>
									<rect id="SVGID_81_" y="-44" width="2000" height="1460"/>
								</defs>
								<clipPath id="SVGID_82_">
									<use xlink:href="#SVGID_81_"  style="overflow:visible;"/>
								</clipPath>
								<path class="st40" d="M293.3,94.2c0.6-0.5,1.1-1,1.7-1.4C294.5,93.2,293.9,93.7,293.3,94.2"/>
							</g>
						</g>
					</g>
				</g>
			</g>
		</g>
	</g>
	<g>
		<g>
			<g>
				<g>
					<g>
						<g>
							<g>
								<defs>
									<rect id="SVGID_83_" y="-44" width="2000" height="1460"/>
								</defs>
								<clipPath id="SVGID_84_">
									<use xlink:href="#SVGID_83_"  style="overflow:visible;"/>
								</clipPath>
								<path class="st41" d="M123.3,85.7c0.6-0.4,1.1-0.9,1.7-1.3C124.5,84.8,123.9,85.3,123.3,85.7"/>
							</g>
						</g>
					</g>
				</g>
			</g>
		</g>
	</g>
	<g>
		<g>
			<g>
				<g>
					<g>
						<g>
							<g>
								<defs>
									<rect id="SVGID_85_" y="-44" width="2000" height="1460"/>
								</defs>
								<clipPath id="SVGID_86_">
									<use xlink:href="#SVGID_85_"  style="overflow:visible;"/>
								</clipPath>
								<path class="st42" d="M688.3,836.4c-0.3,0.5-0.8,0.8-1.4,0.6C687.3,836.6,687.7,836.3,688.3,836.4"/>
							</g>
						</g>
					</g>
				</g>
			</g>
		</g>
	</g>
	<g>
		<g>
			<g>
				<g>
					<g>
						<g>
							<g>
								<defs>
									<rect id="SVGID_87_" y="-44" width="2000" height="1460"/>
								</defs>
								<clipPath id="SVGID_88_">
									<use xlink:href="#SVGID_87_"  style="overflow:visible;"/>
								</clipPath>
								<path class="st43" d="M1026.4,834.9c18.5-0.6,37.1-0.6,55.6,0c6.1,3.6,10.4,9.1,14.7,14.5c60.7,74,121.6,147.9,182.4,221.9
									c38.4,46.7,76.7,93.6,115.1,140.3c56,68.2,112,136.5,168.1,204.6c4.3,5.3,11.2,9.5,10.5,17.9c-55.3,0-110.7,0.1-166,0.1
									c-3.2-1.2-6.6-0.6-9.9-0.6c-129.2,0-258.4,0-387.6-0.1c-3.2,0-6.7,1-9.7-1.1c-2.6-12-1.6-24.1-0.8-36.1
									c0.8-10.7,1.2-21.4,1.2-32.1c0-5.3,0.6-10.4,2.8-15.3c5.5-7.6,13.6-11.5,22.2-13.5c17.8-4.2,35.8-7.2,54.1-8.8
									c23.6-2.1,47.6-2.2,70.3-10.9c17.1-6.5,31.9-15.6,40.6-32.4c2.8-5.5,4.9-11.2,5.6-17.3c0.3-1.3,0.4-2.6,0.7-3.8
									c1.8-6.7,1.6-13.4,0.3-20.2c-0.4-1.2-0.6-2.4-0.7-3.7c0-2-0.5-4-1.3-5.8c-6-19.5-17.3-35.9-30.4-51.2
									c-8.1-9.5-16.8-18.5-23.7-29c-2.4-3.7-4.6-7.6-6-11.9c-0.2-0.8-0.3-1.7-0.4-2.6c-0.1-4.9-0.1-9.8-0.1-14.7
									c0.3-5.6,3.6-9.8,6.7-14.1c2.6-3.6,1.9-5.9-1.8-8c-16.1-8.8-31.4-18.9-47.4-27.8c-4.2-2.3-8.4-2.5-12.8-1.7
									c-17.1,3-34.3,2.8-51.3-0.7c-5.3-1.1-11.3-1.8-13.3-8.4c-2.1-8.3,0.5-16.5,0.5-24.7c0-33.2,2.4-66.3,3.9-99.4
									c1.4-32,1.6-64.1,5.3-96C1024.3,839.8,1023.9,836.9,1026.4,834.9"/>
							</g>
						</g>
					</g>
				</g>
			</g>
		</g>
	</g>
	<g>
		<g>
			<g>
				<g>
					<g>
						<g>
							<g>
								<defs>
									<rect id="SVGID_89_" y="-44" width="2000" height="1460"/>
								</defs>
								<clipPath id="SVGID_90_">
									<use xlink:href="#SVGID_89_"  style="overflow:visible;"/>
								</clipPath>
								<path class="st44" d="M1105.4,835c16.1,16.1,32.1,32.2,48.2,48.3c26.4,26.1,52.9,52.2,79.3,78.3
									c33.7,33.3,67.5,66.6,101.2,100c36.5,36.1,72.8,72.3,109.3,108.4c49.5,48.9,99.1,97.7,148.6,146.7
									c37.9,37.4,75.7,74.9,113.5,112.4c1.2,1.2,2.1,2.5,3.2,3.8c-25.7,0.1-51.4,0.2-77.1,0.2c-4.4,0-8.9,0.9-13.1-1.1
									c-4.4,0.6-6.3-2.9-8.6-5.5c-34-38.5-67.6-77.2-101.4-115.8c-29.1-33.2-58.2-66.3-87.1-99.6c-26.4-30.4-53.1-60.4-79.8-90.5
									c-20.6-23.3-40.7-46.9-61.2-70.2c-25.3-28.7-50.7-57.4-75.6-86.4c-23-26.7-46.5-53-69.8-79.4
									c-10.3-11.6-20.5-23.3-30.8-34.9c-3.6-4-8.4-7.5-8.3-13.8C1099,834,1102.2,834.6,1105.4,835"/>
							</g>
						</g>
					</g>
				</g>
			</g>
		</g>
	</g>
	<g>
		<g>
			<g>
				<g>
					<g>
						<g>
							<g>
								<defs>
									<rect id="SVGID_91_" y="-44" width="2000" height="1460"/>
								</defs>
								<clipPath id="SVGID_92_">
									<use xlink:href="#SVGID_91_"  style="overflow:visible;"/>
								</clipPath>
								<path class="st45" d="M1000.3,1431.1c1.7,2.4,4.3,2.2,6.8,2.2c4.7,0,9.4,0,14.2,0c125,0,250,0,375,0c3.6,0,7.2-0.7,10.7,0.8
									c-3.3,0.9-6.6,0.5-9.9,0.5c-128.6,0-257.2,0-385.8,0c-129.4,0-258.9,0-388.3-0.1c-93.6,0-187.2-0.1-280.8-0.1
									c-15.8,0-31.7,0-47.5,0c-3,0-6.1,0.3-9.1-0.6c1-0.4,1.9-0.9,2.8-1.3c4.5-3,9.6-2.5,14.5-2.3c5.6,0.2,10.1-1.7,14.2-5.5
									c48.3-44.7,96.3-89.7,144.5-134.5c36.8-34.2,73.6-68.4,110.4-102.7c36.2-33.7,72.2-67.5,108.4-101.2
									c36.4-33.8,72.8-67.6,109.2-101.5c27.4-25.5,54.8-51.1,82.2-76.7c25.1-23.5,50.3-46.9,75.8-70c1.7-1.5,3.5-2.7,5.7-3.4
									c2.2,0,4.4,0,6.5,0c0.7,5.7-3.8,8.4-7.1,11.5c-28.4,26.9-56.6,54.1-85.1,81c-28.2,26.7-56.3,53.6-84.4,80.4
									c-46.6,44.5-93.3,88.8-139.8,133.4c-40.9,39.2-81.8,78.3-122.9,117.3c-41,39-81.9,78.2-123.1,117.1
									c-18.7,17.7-37.5,35.2-56.1,53.9c5,0.9,9.1,0.4,13.2,0.4c195.2,0,390.4,0,585.7,0c10.6,0,21.8,2.6,30-7.4
									c3,4,7.1,4.3,11.7,4.2C988.3,1426.6,995.2,1425.2,1000.3,1431.1"/>
							</g>
						</g>
					</g>
				</g>
			</g>
		</g>
	</g>
	<g>
		<g>
			<g>
				<g>
					<g>
						<g>
							<g>
								<defs>
									<rect id="SVGID_93_" y="-44" width="2000" height="1460"/>
								</defs>
								<clipPath id="SVGID_94_">
									<use xlink:href="#SVGID_93_"  style="overflow:visible;"/>
								</clipPath>
								<path class="st46" d="M1095.9,835.7c21.7,24.8,43.4,49.7,65.2,74.5c44,50.3,88.1,100.5,132.1,150.8
									c42.6,48.6,85.1,97.2,127.7,145.8c51.4,58.6,102.8,117.2,154.2,175.8c14.4,16.5,29,32.8,43.5,49.2c0.4,2.7-1.6,2.2-3.1,2.2
									c-6.2,0.1-12.4,0-18.6,0c-5.7-1.6-9.3-5.8-12.9-10.1c-40.2-48.5-81.4-96.2-122-144.4c-34-40.3-68.1-80.6-102.4-120.6
									c-39.2-45.7-78-91.8-117-137.7c-38.8-45.7-77.8-91.3-116.4-137.2c-11.6-13.8-22.6-28.1-35.1-41.2c-2.1-2.2-4.1-4.6-3-8.1
									C1090.9,834.3,1093.5,834.4,1095.9,835.7"/>
							</g>
						</g>
					</g>
				</g>
			</g>
		</g>
	</g>
	<g>
		<g>
			<g>
				<g>
					<g>
						<g>
							<g>
								<defs>
									<rect id="SVGID_95_" y="-44" width="2000" height="1460"/>
								</defs>
								<clipPath id="SVGID_96_">
									<use xlink:href="#SVGID_95_"  style="overflow:visible;"/>
								</clipPath>
								<path class="st47" d="M1088.2,834.9c13.9,16.6,27.7,33.2,41.7,49.7c65.8,77.6,131.7,155.2,197.5,232.8
									c55.3,65.1,110.5,130.2,165.8,195.3c32.8,38.7,65.7,77.4,98.6,116c1.6,1.9,3.4,3.6,5.1,5.4l-24.1-0.1
									c-5.8-9.9-13.8-18-21-26.7c-38.6-47.2-77.3-94.2-116-141.3c-52.1-63.4-104.1-126.7-156.2-190.1
									c-43.1-52.4-86.3-104.8-129.4-157.2c-21.8-26.5-43.7-53-65.5-79.6c-1-1.3-1.8-2.8-2.7-4.2
									C1084.1,834.9,1086.2,834.9,1088.2,834.9"/>
							</g>
						</g>
					</g>
				</g>
			</g>
		</g>
	</g>
	<g>
		<g>
			<g>
				<g>
					<g>
						<g>
							<g>
								<defs>
									<rect id="SVGID_97_" y="-44" width="2000" height="1460"/>
								</defs>
								<clipPath id="SVGID_98_">
									<use xlink:href="#SVGID_97_"  style="overflow:visible;"/>
								</clipPath>
								<path class="st48" d="M1681.6,152.9l1.6-0.5c4,6.9-1.4,9.8-5.9,12.2c-6.2,3.3-13.1,4.1-20.2,4.1
									c-90.6-0.1-181.1-0.1-271.7-0.1c-57.2,0-114.4-0.1-171.7,0.1c-9,0-17.7-1.5-26.2-4c-8.2-2.4-14-7.9-17.1-15.8
									c-1.9-4.9-3-10.3,2.1-14.4c1.9-0.9,3.1,0.1,4,1.7l0,0c0.5,0.5,0.9,1,1.2,1.6c3.3,7.2,9.5,9.9,16.7,12.3
									c10.8,3.5,21.6,4.3,32.8,4.3c142.8-0.1,285.5-0.1,428.3-0.1c6.9,0,13.9,0.1,20.8,0.1C1678,153,1680.1,154.1,1681.6,152.9"/>
							</g>
						</g>
					</g>
				</g>
			</g>
		</g>
	</g>
	<g>
		<g>
			<g>
				<g>
					<g>
						<g>
							<g>
								<defs>
									<rect id="SVGID_99_" y="-44" width="2000" height="1460"/>
								</defs>
								<clipPath id="SVGID_100_">
									<use xlink:href="#SVGID_99_"  style="overflow:visible;"/>
								</clipPath>
								<path class="st49" d="M1176.7,136c-0.6-0.5-1.1-1.1-1.7-1.6c-4.4-2.1-4.5,1.4-4.9,4c-0.7,5.7,0.8,10.9,4.2,15.6
									c0.4,0.6,0.7,1.3,1,1.9c0.2,0.3,0.4,0.6,0.7,0.9c0.5,0.5,1,1.1,1.5,1.5c0.3,0.2,0.6,0.4,0.9,0.7c0.7,0.3,1.3,0.7,2,1.1
									c5.9,4.2,12.5,6.1,19.7,6.4c1.1,0.6,2.2,1.1,3.5,1.2c5.7,0.2,11.5-0.2,17.2,0.3c1.8,0.4,3.5,0.2,5.3-0.1
									c143.7-0.2,287.4-0.1,431.1,0c5.9,0,11.5-0.7,17.1-2.6c7.5-2.7,12.2-7.5,12.4-15.8c0.8-1.4,1.9-2.6,3.5-3.3
									c4.4,1.2,3.3,4.5,2.5,7.4c-2.5,8.8-14.8,18.5-24.2,19.2c-2.2,0.1-4.4,0-6.7,0c-151.3,0-302.5,0-453.8,0.1
									c-8.3,0-16-1.9-23.4-4.7c-10.9-4.1-17.3-12.7-19.4-24.1c-1.5-8.4,4.7-21.5,11.3-24.6C1176.6,124.9,1176.7,130.5,1176.7,136"
									/>
							</g>
						</g>
					</g>
				</g>
			</g>
		</g>
	</g>
	<g>
		<g>
			<g>
				<g>
					<g>
						<g>
							<g>
								<defs>
									<rect id="SVGID_101_" y="-44" width="2000" height="1460"/>
								</defs>
								<clipPath id="SVGID_102_">
									<use xlink:href="#SVGID_101_"  style="overflow:visible;"/>
								</clipPath>
								<path class="st50" d="M1200,167.7c-8.3,1.4-14.8-3.4-21.7-6.7c-0.5-0.6-1.1-1.1-1.7-1.7c-0.6-0.6-1.1-1.1-1.7-1.7
									c-0.6-0.5-1.1-1.2-1.7-1.7c-1.5-3.6-3.3-7-4.3-10.7c-1.8-6.2-0.6-11.8,4.1-17.1c2.4,1.9,1.7,4.2,1.9,6.2
									c-5.5,3.7-3.8,8.9-2.2,13.5c2.4,6.8,7.6,11.9,14.4,14c7.3,2.3,14.9,4.2,22.8,4.2c150.1,0,300.2,0,450.2,0.1
									c5.8,0,10.9-1.7,16.1-3.7c4.4-1.7,7.4-4.9,7-10.1c0.7-1.5,1.8-2.5,3.4-3c3.7,0.7,3.5,2.7,2,5.4
									c-5.4,10.3-14.9,13.4-25.5,14.5c-2.5,0.3-5,0.1-7.5,0.1h-432.3c-0.6,0.6-1.1,0.6-1.7,0c-6.7,0-13.3,0-20,0
									C1201.2,168.8,1200.5,168.3,1200,167.7"/>
							</g>
						</g>
					</g>
				</g>
			</g>
		</g>
	</g>
	<g>
		<g>
			<g>
				<g>
					<g>
						<g>
							<g>
								<defs>
									<rect id="SVGID_103_" y="-44" width="2000" height="1460"/>
								</defs>
								<clipPath id="SVGID_104_">
									<use xlink:href="#SVGID_103_"  style="overflow:visible;"/>
								</clipPath>
								<path class="st51" d="M1681.6,152.9c-1.4,1.6-3.2,1.6-5.1,1.4C1678,152.9,1679.7,152.7,1681.6,152.9"/>
							</g>
						</g>
					</g>
				</g>
			</g>
		</g>
	</g>
	<g>
		<g>
			<g>
				<g>
					<g>
						<g>
							<g>
								<defs>
									<rect id="SVGID_105_" y="-44" width="2000" height="1460"/>
								</defs>
								<clipPath id="SVGID_106_">
									<use xlink:href="#SVGID_105_"  style="overflow:visible;"/>
								</clipPath>
								<path class="st52" d="M1216.7,94.1c1.4-1.6,3.2-1.5,5-1.4C1220.3,94.4,1218.5,94.4,1216.7,94.1"/>
							</g>
						</g>
					</g>
				</g>
			</g>
		</g>
	</g>
	<g>
		<g>
			<g>
				<g>
					<g>
						<g>
							<g>
								<defs>
									<rect id="SVGID_107_" y="-44" width="2000" height="1460"/>
								</defs>
								<clipPath id="SVGID_108_">
									<use xlink:href="#SVGID_107_"  style="overflow:visible;"/>
								</clipPath>
								<path class="st53" d="M1355,32.5c0.9-1.1,2-1.4,3.3-1.4C1357.5,32.2,1356.4,32.6,1355,32.5"/>
							</g>
						</g>
					</g>
				</g>
			</g>
		</g>
	</g>
	<g>
		<g>
			<g>
				<g>
					<g>
						<g>
							<g>
								<defs>
									<rect id="SVGID_109_" y="-44" width="2000" height="1460"/>
								</defs>
								<clipPath id="SVGID_110_">
									<use xlink:href="#SVGID_109_"  style="overflow:visible;"/>
								</clipPath>
								<path class="st54" d="M1346.7,34.3c0.8-1.2,2-1.5,3.4-1.5C1349.2,33.9,1348,34.3,1346.7,34.3"/>
							</g>
						</g>
					</g>
				</g>
			</g>
		</g>
	</g>
	<g>
		<g>
			<g>
				<g>
					<g>
						<g>
							<g>
								<defs>
									<rect id="SVGID_111_" y="-44" width="2000" height="1460"/>
								</defs>
								<clipPath id="SVGID_112_">
									<use xlink:href="#SVGID_111_"  style="overflow:visible;"/>
								</clipPath>
								<path class="st55" d="M1360,30.9c0.6-0.5,1.2-1,1.7-1.4C1361.2,29.9,1360.6,30.4,1360,30.9"/>
							</g>
						</g>
					</g>
				</g>
			</g>
		</g>
	</g>
	<g>
		<g>
			<g>
				<g>
					<g>
						<g>
							<g>
								<defs>
									<rect id="SVGID_113_" y="-44" width="2000" height="1460"/>
								</defs>
								<clipPath id="SVGID_114_">
									<use xlink:href="#SVGID_113_"  style="overflow:visible;"/>
								</clipPath>
								<path class="st56" d="M1196.7,101c0.6-0.5,1.2-1,1.7-1.6C1197.9,100,1197.3,100.5,1196.7,101"/>
							</g>
						</g>
					</g>
				</g>
			</g>
		</g>
	</g>
	<g>
		<g>
			<g>
				<g>
					<g>
						<g>
							<g>
								<defs>
									<rect id="SVGID_115_" y="-44" width="2000" height="1460"/>
								</defs>
								<clipPath id="SVGID_116_">
									<use xlink:href="#SVGID_115_"  style="overflow:visible;"/>
								</clipPath>
								<path class="st57" d="M1201.7,99.1c0.6-0.4,1.2-0.9,1.8-1.3C1202.9,98.2,1202.3,98.7,1201.7,99.1"/>
							</g>
						</g>
					</g>
				</g>
			</g>
		</g>
	</g>
	<g>
		<g>
			<g>
				<g>
					<g>
						<g>
							<g>
								<defs>
									<rect id="SVGID_117_" y="-44" width="2000" height="1460"/>
								</defs>
								<clipPath id="SVGID_118_">
									<use xlink:href="#SVGID_117_"  style="overflow:visible;"/>
								</clipPath>
								<path class="st58" d="M1208.3,97.4c0.6-0.4,1.2-0.9,1.7-1.3C1209.5,96.5,1208.9,97,1208.3,97.4"/>
							</g>
						</g>
					</g>
				</g>
			</g>
		</g>
	</g>
	<g>
		<g>
			<g>
				<g>
					<g>
						<g>
							<g>
								<defs>
									<rect id="SVGID_119_" y="-44" width="2000" height="1460"/>
								</defs>
								<clipPath id="SVGID_120_">
									<use xlink:href="#SVGID_119_"  style="overflow:visible;"/>
								</clipPath>
								<path class="st59" d="M1345,35.7c0.5-0.5,1-0.9,1.6-1.4C1346,34.8,1345.5,35.3,1345,35.7"/>
							</g>
						</g>
					</g>
				</g>
			</g>
		</g>
	</g>
	<g>
		<g>
			<g>
				<g>
					<g>
						<g>
							<g>
								<defs>
									<rect id="SVGID_121_" y="-44" width="2000" height="1460"/>
								</defs>
								<clipPath id="SVGID_122_">
									<use xlink:href="#SVGID_121_"  style="overflow:visible;"/>
								</clipPath>
								<path class="st60" d="M1177.9,137.7c-0.4-0.5-0.8-1.1-1.2-1.6C1177.1,136.6,1177.5,137.1,1177.9,137.7"/>
							</g>
						</g>
					</g>
				</g>
			</g>
		</g>
	</g>
	<g>
		<g>
			<g>
				<g>
					<g>
						<g>
							<g>
								<defs>
									<rect id="SVGID_123_" y="-44" width="2000" height="1460"/>
								</defs>
								<clipPath id="SVGID_124_">
									<use xlink:href="#SVGID_123_"  style="overflow:visible;"/>
								</clipPath>
								<path class="st61" d="M1211.7,95.9c0.6-0.5,1.2-1,1.7-1.4C1212.8,94.9,1212.2,95.4,1211.7,95.9"/>
							</g>
						</g>
					</g>
				</g>
			</g>
		</g>
	</g>
	<g>
		<g>
			<g>
				<g>
					<g>
						<g>
							<g>
								<defs>
									<rect id="SVGID_125_" y="-44" width="2000" height="1460"/>
								</defs>
								<clipPath id="SVGID_126_">
									<use xlink:href="#SVGID_125_"  style="overflow:visible;"/>
								</clipPath>
								<path class="st62" d="M969.8,1422.3c-2.1,3,0.4,7.9-2.8,9.9c-3.2,2.1-7.6,0.8-11.4,0.8c-114.7,0-229.4,0.1-344.1,0
									c-89.2,0-178.3-0.1-267.5-0.2c-2.7,0-5.3,0-8,0c0.1-3.1,1.8-4.1,3.2-5.4c66-62.9,132.1-125.8,198.1-188.7
									c62.4-59.5,124.6-119.1,187-178.7c75.4-71.9,150.9-143.8,226.3-215.7c3.2-3,6.8-5.7,9.3-9.5c20.6-0.5,41.2-0.5,61.8,0
									c2.9,2.6,2.2,5.9,2,9.3c-3.1,41.2-7.1,82.3-10.6,123.5c-2.2,26.3-4.8,52.5-7,78.7c-0.4,4.4-1,8.8-2.9,12.9
									c-0.5,0.9-1.1,1.7-1.8,2.4c-1.4,1.3-3.1,2.2-4.9,2.8c-23.2,4.9-45.8,2.3-67.9-5.8c-4.7-1.7-9-2-13.7-0.3
									c-16.9,6.3-33.4,13.6-50.5,19.5c-6.4,2.2-8.4,5-4.9,11.5c8.5,15.7,6.9,30.3-5.4,43.6c-1.6,1.8-3.3,3.5-4.5,5.6
									c-6,6.7-12.6,12.8-19.2,18.9c-8.7,6.9-16.8,14.5-23.7,23.4c-8.9,11.6-13.1,25-14.9,39.2c-1.5,4.4-1.1,9-1,13.6
									c0.3,2,0.2,4,0,6c-0.1,1.1-0.1,2.3-0.1,3.4c0,0.7,0,1.4,0,2.1c0,1.7,0,3.4,0.7,5c0.3,0.6,0.5,1.3,0.7,1.9
									c0.5,2.3,1.4,4.5,2.3,6.8c0.4,0.6,0.8,1.2,1.2,1.8c0.4,0.6,0.8,1.3,1.2,1.9c0.5,0.7,0.8,1.4,1.2,2.1
									c8.2,15.8,20.7,26.8,36.6,34.8c20.8,10.5,43.4,13,65.7,16.8c16.4,2.8,32.5,6.8,48.4,11.8c10.3,3.2,20.2,7.8,27.3,16.6
									c5.1,12.3,0.5,24.7,0.1,37c-0.4,10.8-1.7,21.5-2.9,32.3C972.8,1417.1,972.7,1420.3,969.8,1422.3"/>
							</g>
						</g>
					</g>
				</g>
			</g>
		</g>
	</g>
	<g>
		<g>
			<g>
				<g>
					<g>
						<g>
							<g>
								<defs>
									<rect id="SVGID_127_" y="-44" width="2000" height="1460"/>
								</defs>
								<clipPath id="SVGID_128_">
									<use xlink:href="#SVGID_127_"  style="overflow:visible;"/>
								</clipPath>
								<path class="st63" d="M953.3,834.8c-9,10.2-19.5,18.9-29.4,28.1C880,904,836,945,792,986c-48.3,44.9-96.6,89.8-144.9,134.8
									c-41.4,38.5-82.7,77.1-124.1,115.7c-40.4,37.6-80.7,75.2-121.1,112.7c-28.4,26.4-56.8,52.8-85.1,79.4
									c-3.3,3.1-6.6,4.6-11.1,4.3c-5.8-0.3-11.7-0.2-17.5-0.3c9.2-10,19.7-18.6,29.7-27.7c40.1-36.5,80.5-72.8,120.7-109.1
									c53.4-48.3,106.8-96.5,160.1-144.8c55.2-50,110.3-100,165.5-149.9c59.7-54,119.5-108,179.2-162c1.2-1.1,2.3-2.4,3.5-3.5
									C949.2,834.9,951.2,834.2,953.3,834.8"/>
							</g>
						</g>
					</g>
				</g>
			</g>
		</g>
	</g>
	<g>
		<g>
			<g>
				<g>
					<g>
						<g>
							<g>
								<defs>
									<rect id="SVGID_129_" y="-44" width="2000" height="1460"/>
								</defs>
								<clipPath id="SVGID_130_">
									<use xlink:href="#SVGID_129_"  style="overflow:visible;"/>
								</clipPath>
								<path class="st64" d="M973.4,1344.4c5.7,3.4,9.3,9,13.9,13.5c3.8,3.8,5,4,8.3-0.2c2.9-3.6,5.7-7.2,9.6-9.8
									c-1.5,4.8-1.5,9.8-1.7,14.8c-0.8,20.4-1.5,40.8-2.3,61.2c-0.1,2.5,0.1,5-1,7.3c-8.6-1.6-17.2-2.9-25.8-0.7
									c-2.8,0.7-4.2-0.4-4.4-3.2c-0.1-1.6-0.2-3.3-0.3-4.9c0.3-18.8,3.1-37.4,4.4-56.1c0.3-4.7,0.6-9.4,1.1-14
									C975.6,1349.2,975.1,1346.7,973.4,1344.4"/>
							</g>
						</g>
					</g>
				</g>
			</g>
		</g>
	</g>
	<g>
		<g>
			<g>
				<g>
					<g>
						<g>
							<g>
								<defs>
									<rect id="SVGID_131_" y="-44" width="2000" height="1460"/>
								</defs>
								<clipPath id="SVGID_132_">
									<use xlink:href="#SVGID_131_"  style="overflow:visible;"/>
								</clipPath>
								<path class="st65" d="M1176.7,159.4c0.6,0.6,1.1,1.1,1.7,1.7C1177.8,160.5,1177.2,159.9,1176.7,159.4"/>
							</g>
						</g>
					</g>
				</g>
			</g>
		</g>
	</g>
	<g>
		<g>
			<g>
				<g>
					<g>
						<g>
							<g>
								<defs>
									<rect id="SVGID_133_" y="-44" width="2000" height="1460"/>
								</defs>
								<clipPath id="SVGID_134_">
									<use xlink:href="#SVGID_133_"  style="overflow:visible;"/>
								</clipPath>
								<path class="st66" d="M1200,167.7c0.6,0.6,1.1,1.1,1.7,1.7C1201.1,168.8,1200.6,168.3,1200,167.7"/>
							</g>
						</g>
					</g>
				</g>
			</g>
		</g>
	</g>
	<g>
		<g>
			<g>
				<g>
					<g>
						<g>
							<g>
								<defs>
									<rect id="SVGID_135_" y="-44" width="2000" height="1460"/>
								</defs>
								<clipPath id="SVGID_136_">
									<use xlink:href="#SVGID_135_"  style="overflow:visible;"/>
								</clipPath>
								<path class="st67" d="M1221.7,169.4c0.6,0,1.1,0,1.7,0C1222.8,170.2,1222.2,170.2,1221.7,169.4"/>
							</g>
						</g>
					</g>
				</g>
			</g>
		</g>
	</g>
	<g>
		<g>
			<g>
				<g>
					<g>
						<g>
							<g>
								<defs>
									<rect id="SVGID_137_" y="-44" width="2000" height="1460"/>
								</defs>
								<clipPath id="SVGID_138_">
									<use xlink:href="#SVGID_137_"  style="overflow:visible;"/>
								</clipPath>
								<path class="st68" d="M1173.3,156c0.6,0.6,1.1,1.1,1.7,1.7C1174.4,157.1,1173.9,156.6,1173.3,156"/>
							</g>
						</g>
					</g>
				</g>
			</g>
		</g>
	</g>
	<g>
		<g>
			<g>
				<g>
					<g>
						<g>
							<g>
								<defs>
									<rect id="SVGID_139_" y="-44" width="2000" height="1460"/>
								</defs>
								<clipPath id="SVGID_140_">
									<use xlink:href="#SVGID_139_"  style="overflow:visible;"/>
								</clipPath>
								<path class="st69" d="M1175,157.7l1.7,1.7L1175,157.7z"/>
							</g>
						</g>
					</g>
				</g>
			</g>
		</g>
	</g>
	<g>
		<g>
			<g>
				<g>
					<g>
						<g>
							<g>
								<defs>
									<rect id="SVGID_141_" y="-44" width="2000" height="1460"/>
								</defs>
								<clipPath id="SVGID_142_">
									<use xlink:href="#SVGID_141_"  style="overflow:visible;"/>
								</clipPath>
								<path class="st70" d="M1000.1,1061.1c2.9-4.5,2.1-9.7,2.6-14.5c2.7-27.8,4.9-55.7,7.4-83.5c2.5-28.1,5.1-56.2,7.7-84.3
									c1.3-14.6,2.6-29.2,3.9-43.8c1.6,0,3.2,0,4.8,0c-1.3,30.8-2.5,61.6-3.8,92.3c-0.7,15.8-1.6,31.6-2.2,47.4
									c-1.3,29.9-2.5,59.9-3.8,89.8C1010.1,1067.9,1005.4,1062.9,1000.1,1061.1"/>
							</g>
						</g>
					</g>
				</g>
			</g>
		</g>
	</g>
	<g>
		<g>
			<g>
				<g>
					<g>
						<g>
							<g>
								<defs>
									<rect id="SVGID_143_" y="-44" width="2000" height="1460"/>
								</defs>
								<clipPath id="SVGID_144_">
									<use xlink:href="#SVGID_143_"  style="overflow:visible;"/>
								</clipPath>
								<path class="st71" d="M1200.2,1257.1c-0.3-7.5-0.6-15.1-0.9-22.6C1201.8,1241.9,1202.1,1249.5,1200.2,1257.1"/>
							</g>
						</g>
					</g>
				</g>
			</g>
		</g>
	</g>
	<g>
		<g>
			<g>
				<g>
					<g>
						<g>
							<g>
								<defs>
									<rect id="SVGID_145_" y="-44" width="2000" height="1460"/>
								</defs>
								<clipPath id="SVGID_146_">
									<use xlink:href="#SVGID_145_"  style="overflow:visible;"/>
								</clipPath>
								<path class="st72" d="M1198.9,1231.3c-1.7-1.4-1.6-3.3-1.4-5.2C1198.5,1227.7,1198.9,1229.4,1198.9,1231.3"/>
							</g>
						</g>
					</g>
				</g>
			</g>
		</g>
	</g>
	<g>
		<g>
			<g>
				<g>
					<g>
						<g>
							<g>
								<defs>
									<rect id="SVGID_147_" y="-44" width="2000" height="1460"/>
								</defs>
								<clipPath id="SVGID_148_">
									<use xlink:href="#SVGID_147_"  style="overflow:visible;"/>
								</clipPath>
								<path class="st73" d="M790.2,1224.9c0,5.3,2,10.7-0.9,15.8C788.8,1235.4,788.5,1230.1,790.2,1224.9"/>
							</g>
						</g>
					</g>
				</g>
			</g>
		</g>
	</g>
	<g>
		<g>
			<g>
				<g>
					<g>
						<g>
							<g>
								<defs>
									<rect id="SVGID_149_" y="-44" width="2000" height="1460"/>
								</defs>
								<clipPath id="SVGID_150_">
									<use xlink:href="#SVGID_149_"  style="overflow:visible;"/>
								</clipPath>
								<path class="st74" d="M791.4,1257.4c3.4,2.6,3.8,6.2,3.6,10C792.6,1264.5,791.9,1261,791.4,1257.4"/>
							</g>
						</g>
					</g>
				</g>
			</g>
		</g>
	</g>
	<g>
		<g>
			<g>
				<g>
					<g>
						<g>
							<g>
								<defs>
									<rect id="SVGID_151_" y="-44" width="2000" height="1460"/>
								</defs>
								<clipPath id="SVGID_152_">
									<use xlink:href="#SVGID_151_"  style="overflow:visible;"/>
								</clipPath>
								<path class="st75" d="M789.7,1252.4c1.8,1.2,1.8,3.1,1.7,5C789.5,1256.2,789.5,1254.3,789.7,1252.4"/>
							</g>
						</g>
					</g>
				</g>
			</g>
		</g>
	</g>
	<g>
		<g>
			<g>
				<g>
					<g>
						<g>
							<g>
								<defs>
									<rect id="SVGID_153_" y="-44" width="2000" height="1460"/>
								</defs>
								<clipPath id="SVGID_154_">
									<use xlink:href="#SVGID_153_"  style="overflow:visible;"/>
								</clipPath>
								<path class="st76" d="M789.5,1247.4c1.6,1.1,1.6,2.2,0.1,3.3C789.5,1249.6,789.5,1248.5,789.5,1247.4"/>
							</g>
						</g>
					</g>
				</g>
			</g>
		</g>
	</g>
	<g>
		<g>
			<g>
				<g>
					<g>
						<g>
							<g>
								<defs>
									<rect id="SVGID_155_" y="-44" width="2000" height="1460"/>
								</defs>
								<clipPath id="SVGID_156_">
									<use xlink:href="#SVGID_155_"  style="overflow:visible;"/>
								</clipPath>
								<path class="st77" d="M794.9,1267.3c0.9,0.4,1.4,1.1,1.5,2C795.4,1269.1,794.9,1268.5,794.9,1267.3"/>
							</g>
						</g>
					</g>
				</g>
			</g>
		</g>
	</g>
	<g class="st78">
		<g class="st79">
			<g>
				<g>
					<g>
						<g>
							<g>
								<defs>
									<rect id="SVGID_157_" y="-44" width="2000" height="1460"/>
								</defs>
								<clipPath id="SVGID_158_">
									<use xlink:href="#SVGID_157_"  style="overflow:visible;"/>
								</clipPath>
								<path class="st80" d="M989.2,1192.6c2.3,1.6,1.6,3.6,1.3,5.9c-0.9,6.8-5.5,12.6-5,19.7c-2.9,12.4-5.9,24.8-8.6,37.2
									c-0.7,3.3-2.1,4.8-5.5,4.5c-5-0.4-10-0.4-14.9-0.7c-7.1-0.5-7.1-0.5-8.9-8.3c-6.2,3.9-12.7,6.9-19.7,8.4
									c-21,4.7-41,2.6-58-11.4c-12.6-10.4-16.2-24.8-12.1-40.6c7.8-29.8,26.8-48.8,56.2-57.7c19.4-5.9,38.2-4.6,56.8,3
									c7.7,3.1,13.7,8.2,18.3,14.9c0.5,1,1,1.9,1.6,2.9c5.5,9,4.9,10.2-5.4,10.6c-6,0.3-12.1,0.6-18.1,0.9c-2.2,0.1-4.5-0.2-6,1.9
									c-4.1,3.5-7,0.9-9.9-2c-11.2-11.2-21.6-10.2-30.8,2.8c-4.4,6.2-7.4,13-9,20.4c-1.1,5.3-3.3,11.1,1.9,15.5
									c5.3,4.5,11.3,3.4,17.4,1.1c-1.9-1.5-3.8-0.6-5.6-0.9c-7.4-0.9-9-3.3-7.2-10.6c0.3-1.1-0.1,0.3,0.2-0.8
									c5.6-19.8,7.7-21.5,28.3-21.2c8.3,0.1,16.6,1,24.9,1.5c4.3,1.3,8.6,1.1,13,0.9C986.1,1190.5,987.8,1191.2,989.2,1192.6"/>
							</g>
						</g>
					</g>
				</g>
			</g>
		</g>
	</g>
	<g>
		<g>
			<g>
				<g>
					<g>
						<g>
							<g>
								<defs>
									<rect id="SVGID_159_" y="-44" width="2000" height="1460"/>
								</defs>
								<clipPath id="SVGID_160_">
									<use xlink:href="#SVGID_159_"  style="overflow:visible;"/>
								</clipPath>
								<path class="st81" d="M971.1,1191.9c4.6-0.5,9.1-0.8,13.5,1C980,1193.7,975.5,1194.2,971.1,1191.9"/>
							</g>
						</g>
					</g>
				</g>
			</g>
		</g>
	</g>
	<g class="st78">
		<g class="st79">
			<g>
				<g>
					<g>
						<g>
							<g>
								<defs>
									<rect id="SVGID_161_" y="-44" width="2000" height="1460"/>
								</defs>
								<clipPath id="SVGID_162_">
									<use xlink:href="#SVGID_161_"  style="overflow:visible;"/>
								</clipPath>
								<path class="st82" d="M995.5,1061c2.9-0.7,5.7-1.3,8.7,0.7c2.3,1.5,5,2.4,7.9,2.2c16.5,6,33.5,7.1,50.8,4.8
									c5.5-0.7,10.9-2,16.3-3.2c2.6-0.6,4.8-0.3,7.2,1c18.9,10.4,37.8,20.7,56.6,31.1c0.7,0.4,1.2,1.1,2.3,2
									c-5.1,5.5-9.5,11.5-11.5,18.8c-1.8,6.3,1.1,13.1-3.5,19.6c-2.4,3.3,2.2,8.6,5.2,12.3c8.3,10.3,18,19.5,25.7,30.4
									c13.1,18.5,24.3,37.7,22.6,61.6c-0.1,1.6,0.1,3.3,0.4,5c-1.6,21.7-14.2,36.3-31.8,46.9c-21.1,12.7-45,14.5-68.8,17.2
									c-19.2,2.1-38.8,2.7-56.7,11.3c-7.6,3.6-14.2,8.4-20.1,14.5c-5.4,5.6-10.6,6.4-15.4,1.4c-18.5-19-42.5-23.8-67.2-27.6
									c-17.2-2.7-34.7-3.4-51.7-8c-16.9-4.6-32.5-10.8-45.2-23.4c-9.1-9.1-15.3-19.6-19.3-31.7c-4-29.8,2.2-56.8,22.5-79.6
									c11.2-12.6,23.9-23.9,31.2-39.6c-2.4,2.9-3.9,6.7-7.2,8.8c-1.4,0.9-3.4,3.7-4.9-0.2c2.1-3.9,4-7.9,6.5-11.5
									c4.6-6.9,4.3-13.9,1.6-21.4c-2.4-6.8-6-13-9.8-19.8c9.5-4.1,18.6-8,27.7-11.9c11.7-5,23.5-9.8,35.2-14.8
									c3.6-1.5,6.8-3,11-1.1c17.2,7.5,35.3,9,53.8,7.6c5.5-0.4,11-1.3,16.5-2C993,1061.8,994.5,1062,995.5,1061L995.5,1061z"/>
							</g>
						</g>
					</g>
				</g>
			</g>
		</g>
	</g>
	<g class="st78">
		<g class="st79">
			<g>
				<g>
					<g>
						<g>
							<g>
								<defs>
									<rect id="SVGID_163_" y="-44" width="2000" height="1460"/>
								</defs>
								<clipPath id="SVGID_164_">
									<use xlink:href="#SVGID_163_"  style="overflow:visible;"/>
								</clipPath>
								<path class="st83" d="M809.5,1246.7c1.5,2.9,3.3,5.7,4.5,8.8c4.7,12.4,13.3,21.6,23.9,29c3.2,2.2,5.9,4.9,9.3,6.9
									c7.5,4.5,16.1,5.2,24.1,8.2c7.1,2.7,15,3.4,22.6,5.1c1.3,0.3,2.7,1,4,0.9c16-1.1,31.3,3.3,46.7,6
									c18,3.2,34.9,10.2,47.7,24.4c4.2,4.6,7.6,4.9,11.5-0.1c8.1-10.3,19.7-15,30.8-20.4c4.1-2,9.1-2.5,13.7-2.7
									c7-0.3,13.8-1.1,20.4-3.4c3-1,6-0.9,9.1-0.9c17.3,0.1,34.1-3.2,50.7-7.3c13.8-3.4,26.7-9.5,36.4-20.3
									c8.7-9.6,17-19.9,16.5-34.1c0.9-1.2,0.6-2.6,0.6-4c-0.1-11.2-0.1-11,10.6-9.6c4.7,0.6,6.6,3,6.9,7.6
									c0.4,6.2-0.4,12.5,0.6,18.7c-1.7,17.6-10.1,31.5-24.2,41.6c-19.7,14-41.8,21-66,21.9c-5,0.2-9.7,2-14.7,2.4
									c-21.5,2-42.6,5.7-63.6,10.6c-8.3,2-14.6,7.8-22.1,11.2c-2.4,3.3-3.7,7.4-6.5,10.5c-5.3,5.8-8,5.9-13.9,0.9
									c-4.8-4-7.6-9.4-11.5-13.9c-21.4-14.9-46.4-17.7-71.1-22.3c-17.1-3.2-34.7-3.4-51.5-8.6c-16.2-5.1-31.7-11.9-44.2-23.7
									c-6.2-5.8-11.9-12.3-14.4-20.9c-0.8-5.1-2.2-10-4.2-14.7c-2.5-6.2-0.5-9.2,5.9-8.3C802,1246.9,805.8,1245.4,809.5,1246.7"/>
							</g>
						</g>
					</g>
				</g>
			</g>
		</g>
	</g>
	<g class="st78">
		<g class="st79">
			<g>
				<g>
					<g>
						<g>
							<g>
								<defs>
									<rect id="SVGID_165_" y="-44" width="2000" height="1460"/>
								</defs>
								<clipPath id="SVGID_166_">
									<use xlink:href="#SVGID_165_"  style="overflow:visible;"/>
								</clipPath>
								<path class="st84" d="M1200.1,1259.7c-2.3-1.8-1.8-4.5-2-6.9c-0.2-3.9-0.1-7.8-0.4-11.6c-0.5-5.4-1.2-6.2-6.4-3.9
									c-3.8,1.6-4.5-2.4-7.4-2.6c-3,3.7,0.9,8.8-2.5,12.4c-0.2-4.1-0.4-8.3-0.4-12.4c0.1-12-3.9-22.7-10.3-32.7
									c-0.9-1.4-1.8-2.8-2.3-4.4c-2.8-9.3-10.1-15.7-15.6-23.1c-5.9-7.9-13.2-14.8-19.7-22.3c-2.3-2.7-4.4-5.6-5.5-9.1
									c-1.9-5.8-2.1-6.1,3.5-10.6c1.7-1.4,1.2-2.8,1.4-4.3c0.2-3.2-1.2-6.7,1.4-9.6c-0.4,5.6,0.1,11.1,0.7,16.6
									c-0.4,0.4-0.9,1-0.3,1.5c0.8,0.7-0.5-0.1,0.6-0.3c6.1,13.6,17.1,23.5,26.9,34.2c12.5,13.7,24.3,27.8,32,44.8
									c1.6,3.5,3.3,7,3.8,10.9c1.2,1.5,0.3,3.6,1.4,5.2c0.2,1,0.3,2.1,0.5,3.1c1.5,7.5,1.5,15.1,0.9,22.6
									C1200.6,1258,1200.6,1258.8,1200.1,1259.7"/>
							</g>
						</g>
					</g>
				</g>
			</g>
		</g>
	</g>
	<g>
		<g>
			<g>
				<g>
					<g>
						<g>
							<g>
								<defs>
									<rect id="SVGID_167_" y="-44" width="2000" height="1460"/>
								</defs>
								<clipPath id="SVGID_168_">
									<use xlink:href="#SVGID_167_"  style="overflow:visible;"/>
								</clipPath>
								<path class="st85" d="M1134.8,1136.1c-0.4,0.2-0.8,0.4-1.2,0.7c-0.4-1,0.3-1.4,0.9-1.9
									C1134.9,1135.3,1135,1135.7,1134.8,1136.1"/>
							</g>
						</g>
					</g>
				</g>
			</g>
		</g>
	</g>
	<g class="st78">
		<g class="st79">
			<g>
				<g>
					<g>
						<g>
							<g>
								<defs>
									<rect id="SVGID_169_" y="-44" width="2000" height="1460"/>
								</defs>
								<clipPath id="SVGID_170_">
									<use xlink:href="#SVGID_169_"  style="overflow:visible;"/>
								</clipPath>
								<path class="st86" d="M809.5,1246.7c-3.6,3.3-7.4,4.7-12,2c-1.1-0.7-2.7-1.4-3.7,0c-1.1,1.5-0.7,3.2,0.4,4.6
									c3.4,3.8,2.1,9,3.7,13.3c0.2,0.7-0.9,1.9-1.4,2.8v-0.1c0.1-1.1-0.8-1.5-1.5-2v0.1c-1-3.4-1.6-7-3.6-10l0,0
									c-1.5-1.3-0.2-3.6-1.7-5c0-0.6-0.1-1.1-0.1-1.7c1-1.1,1-2.3-0.1-3.3c-0.8-2.2-0.8-4.4-0.1-6.7c1.8-5.2-0.6-10.6,0.9-15.8
									c0.8-20.9,10-38,24.3-52.5c4.2-4.2,8.2-8.9,13.6-11.7c7.5-4.2,11.8-11.8,18-17.3c0.3-0.1,0.4-0.2,0.4-0.2
									c0.3-0.6,0.3-0.7,0-0.3c-0.5-0.1-0.7-0.3-0.7-0.8c0.5-2.1,1.7-3.7,3.6-4.8c4.4,0.2,5.5-3.8,7.6-6.4c1-1.2,1.4-3,2.3-4.4
									c1.5-2.5,4.1-5.1,6.6-3.7c3,1.7-0.2,4.2-1.2,6.3c-7.6,15.4-19.4,27.4-31.1,39.6c-12.4,12.9-20.1,28.4-22.8,45.9
									C809.2,1225.1,808.3,1235.9,809.5,1246.7"/>
							</g>
						</g>
					</g>
				</g>
			</g>
		</g>
	</g>
	<g>
		<g>
			<g>
				<g>
					<g>
						<g>
							<g>
								<defs>
									<rect id="SVGID_171_" y="-44" width="2000" height="1460"/>
								</defs>
								<clipPath id="SVGID_172_">
									<use xlink:href="#SVGID_171_"  style="overflow:visible;"/>
								</clipPath>
								<path class="st87" d="M847.9,1142.2c-4.6,6.9-10.7,12.4-16.4,18.2c-1,1.1-2.1,1.8-3.4,0.2c5.9-6.2,11.8-12.4,17.7-18.6
									C846.5,1142.2,847.2,1142.2,847.9,1142.2L847.9,1142.2z"/>
							</g>
						</g>
					</g>
				</g>
			</g>
		</g>
	</g>
	<g>
		<g>
			<g>
				<g>
					<g>
						<g>
							<g>
								<defs>
									<rect id="SVGID_173_" y="-44" width="2000" height="1460"/>
								</defs>
								<clipPath id="SVGID_174_">
									<use xlink:href="#SVGID_173_"  style="overflow:visible;"/>
								</clipPath>
								<path class="st88" d="M995.5,1061c-0.8,1.5-2.1,1.9-3.7,1.4C992.8,1061.3,994,1060.7,995.5,1061"/>
							</g>
						</g>
					</g>
				</g>
			</g>
		</g>
	</g>
	<g>
		<g>
			<g>
				<g>
					<g>
						<g>
							<g>
								<defs>
									<rect id="SVGID_175_" y="-44" width="2000" height="1460"/>
								</defs>
								<clipPath id="SVGID_176_">
									<use xlink:href="#SVGID_175_"  style="overflow:visible;"/>
								</clipPath>
								<path class="st89" d="M832.3,1176.1c8.2-7.7,16.2-15.7,23.7-24.1c6.5-7.3,11.8-15.3,15.8-24.1c1-2.3,2.2-4.5,3.9-6.3
									c1.7-1.5,3.7-2.7,6-2.6c16.8,1.3,33.6,1.2,50.4,2.1c10.2,0.5,20.3,2.3,30.5,1.7c8.3-0.5,16.5,1.8,24.8,1.3
									c2.3-0.1,4.3,1,5.8,2.8c3.8,9.3,2.3,33-2.6,41c-2.9,1.4-4.9-0.5-6.5-2.3c-20.5-22-66.2-21.6-92-3
									c-14.6,10.5-25.5,23.7-30.8,41.2c-7.2,23.6,5.4,45.9,29.4,52.1c16.4,4.2,32.4,4.1,47.8-3.5c4.8-2.4,8.5-2.4,13.3,1.7
									c5,4.3,12.5,3.8,19.1,2.5c3.2-0.6,3.4-4.1,4.1-6.7c2.3-8,3.7-16.2,6-24.2c0.9-3.1,0.8-7.5,5.8-7.7c3.6,3.1,3.6,7.4,3.3,11.5
									c-1.6,25.8-3,51.7-4.4,77.5c-0.2,3.9-0.3,8.5-5.8,9.5c-10.9-8.1-23.8-11.2-36.8-14c-21-4.5-42.5-6.5-63.7-9.5
									c-13.3-1.9-26-6.4-37.1-13.5c-19.9-12.7-29.4-31.4-28-55.5c0.8-14.1,4.2-27.2,11.5-39.3c1-0.9,0.4-2.7,2-3.2l-0.1,0.1
									c0.2-1,0.7-1.6,1.7-1.8l-0.1,0.1c0.1-1,0.8-1.5,1.5-2l-0.1,0.1C831.1,1177.2,831.8,1176.7,832.3,1176.1"/>
							</g>
						</g>
					</g>
				</g>
			</g>
		</g>
	</g>
	<g>
		<g>
			<g>
				<g>
					<g>
						<g>
							<g>
								<defs>
									<rect id="SVGID_177_" y="-44" width="2000" height="1460"/>
								</defs>
								<clipPath id="SVGID_178_">
									<use xlink:href="#SVGID_177_"  style="overflow:visible;"/>
								</clipPath>
								<path class="st90" d="M1114.1,1132.7c1,0.9,2.4,1.6,2.7,3.1c2,11,9.5,18.5,16.4,26.4c10,11.4,20.5,22.4,28.4,35.6
									c8.7,14.6,13.9,29.9,11.9,47.3c-1.6,14.5-8.6,25.5-19.8,34.1c-16.4,12.5-36.1,16.3-55.9,18.8c-13.2,1.7-26.6,1.1-39.7,3.3
									c-16,2.8-32.1,5.6-46.2,14.6c-4.9-0.8-4.8-4.9-5.1-8.3c-1.9-22.3,0.7-44.6-0.2-66.9c-0.1-3,1-6,3.4-8.2c3.5-2.1,5.1,1,6.7,3
									c16.3,20.1,38.2,28.2,63.1,28.2c22.4-0.1,42.8-11.4,50.7-32.4c7.6-20.3,0.8-46.7-16.9-60.2c-21.5-16.5-45.8-20.3-71.6-12
									c-9.4,3-17,9.1-23.4,16.7c-2,2.3-3.5,6-7.8,4.8c-2.7-2.5-3.3-5.9-3-9.1c1.2-13.7-0.4-27.5,1.6-41.1c0.4-1,1.1-1.8,1.9-2.5
									c4.3-2.4,9.1-1.4,13.6-1.8c18,0,35.8,2.1,53.8,3c9.4,0.5,18.8-0.6,28.2,1C1109.4,1130.5,1112.2,1130,1114.1,1132.7"/>
							</g>
						</g>
					</g>
				</g>
			</g>
		</g>
	</g>
	<g>
		<g>
			<g>
				<g>
					<g>
						<g>
							<g>
								<defs>
									<rect id="SVGID_179_" y="-44" width="2000" height="1460"/>
								</defs>
								<clipPath id="SVGID_180_">
									<use xlink:href="#SVGID_179_"  style="overflow:visible;"/>
								</clipPath>
								<path class="st91" d="M877.1,1118c-1.7-0.9-2.1-2.4-2.1-4.2c0.1-10-2.8-19.1-8.3-27.6c4.3-4.2,9.8-5.1,14.8-7.2
									c10.2-4.2,20.5-8.3,30.7-12.4c2.6-1,5-1.8,8-0.5c17.5,7.8,35.9,8.7,54.7,7.3c3-0.2,6.1-0.6,9.1-0.9c3.2-1.6,7,0.3,10.1-1.7
									l0,0c5.4,1,4.3,5.5,4.7,9.1c0.5,4.4-2,8.6-1.8,13c-4.2,6.3-4.9,6.4-8.5,0.3c-4-6.8-7.7-7.3-13.6-1.8c-1.4,1.3-2.5,3-4,4.2
									c-3.7,3-6.5,2.5-8.2-2.2c-0.5-1.3-0.8-2.7-1.3-4c-0.9-2.6-3.1-3-5.4-2.9c-3.1,0.2-3.4,2.5-3.3,4.8
									c0.1,5.8,1.4,11.6,2.4,17.3c0.7,4.2,5.6,4.8,10,1.6c2.9-2.2,4.6-5.5,7.4-7.9c3.7-3.1,7.7-2.5,7.9,2.3
									c0.4,8.3,6.2,8.6,11.8,10c2.6,1.7,3.7,4,2.9,7.1c-0.4,0.9-1,1.6-1.9,2.1c-2.9,0.9-5.9,0.3-8.8,0.6
									c-33.9-2-67.9-3.1-101.8-5.1C880.7,1119.4,878.7,1119.4,877.1,1118"/>
							</g>
						</g>
					</g>
				</g>
			</g>
		</g>
	</g>
	<g>
		<g>
			<g>
				<g>
					<g>
						<g>
							<g>
								<defs>
									<rect id="SVGID_181_" y="-44" width="2000" height="1460"/>
								</defs>
								<clipPath id="SVGID_182_">
									<use xlink:href="#SVGID_181_"  style="overflow:visible;"/>
								</clipPath>
								<path class="st92" d="M1017.5,1075.4c18.7,4.1,37.4,3,56-0.6c3.1-0.6,5.9-1,8.8,0.6c13.6,7.8,27.3,15.6,40.9,23.4
									c0.4,0.3,0.7,0.8,1.5,1.9c-6.4,8-9.4,17.5-9,28c-4.4,3.5-9.5,2.5-14.3,2.1c-25.1-2.3-50.4-2.2-75.6-4
									c-4.6-0.9-9.3-0.1-13.9-1.3c-0.8-0.4-1.5-1-2-1.8c-1.2-8.1,6.7-6.2,10.1-9.1c7.3-5.5,14.6-5.9,21.8,0.3
									c2.3,1.9,5.3,2.5,7.7,1c2.8-1.7,0.9-4.5,0.2-6.7c-1.4-4.2-2.8-8.4-4.6-12.4c-3.7-8.2-11.8-9.4-17.8-2.7
									c-2.8,3.1-4.8,6.7-7.4,10c-2,2.5-3.7,5.7-7.8,5.2c-5-4-2.9-9.6-3.2-14.6c0-0.8,0.1-1.6,0.1-2.4c0.5-2.2,1.1-4.5,0.4-6.8
									c-0.1-0.8-0.2-1.6-0.2-2.4C1010.6,1078.7,1009.9,1072.6,1017.5,1075.4"/>
							</g>
						</g>
					</g>
				</g>
			</g>
		</g>
	</g>
	<g class="st78">
		<g class="st79">
			<g>
				<g>
					<g>
						<g>
							<g>
								<defs>
									<rect id="SVGID_183_" y="-44" width="2000" height="1460"/>
								</defs>
								<clipPath id="SVGID_184_">
									<use xlink:href="#SVGID_183_"  style="overflow:visible;"/>
								</clipPath>
								<path class="st93" d="M1024.4,1124.9c24.9,1.2,49.9,2.3,74.8,3.7c5.6,0.3,11.1,0.8,16.6,0l-1.6,4.1
									c-24.5-1.2-49-2.4-73.5-3.6c-5.5-0.3-11-0.6-16.5-0.9c-4.5-0.7-8.9-1-13.3,0.7l0,0c-5.9-2.7-12.2-0.8-18.3-1.2
									c-7-1.8-14.3-1.7-21.5-2.1c-29.9-1.6-59.8-2.7-89.7-4c-1.9-0.1-3.9-0.1-5.8-0.1c0.5-1.2,1-2.3,1.4-3.5
									c12.7-0.7,25.5,0,38.1,1.1c20.2,1.8,40.4,1.5,60.5,2.8c3.3,0.2,6.6,0.7,9.9,1c2.8,0.9,5.6,1.5,8.1-0.7l-0.1,0.1
									c6-3.7,11.8-2.1,17.5,1l-0.2-0.1C1015.1,1126.5,1020.1,1122.8,1024.4,1124.9"/>
							</g>
						</g>
					</g>
				</g>
			</g>
		</g>
	</g>
	<g>
		<g>
			<g>
				<g>
					<g>
						<g>
							<g>
								<defs>
									<rect id="SVGID_185_" y="-44" width="2000" height="1460"/>
								</defs>
								<clipPath id="SVGID_186_">
									<use xlink:href="#SVGID_185_"  style="overflow:visible;"/>
								</clipPath>
								<path class="st94" d="M1017.5,1075.4c-3.5-0.3-5.9,0.6-5.4,4.9c0.2,1.6-0.4,3.3-0.6,4.9c-5.3,3.3-10.7,6.4-16.3,9.2
									c0.3-5.5,0.6-11,0.7-16.5c0.1-2.4,0.9-5.1-1.7-6.8c0.2-0.2,0.4-0.6,0.5-0.6C1002.3,1071.9,1010,1073,1017.5,1075.4"/>
							</g>
						</g>
					</g>
				</g>
			</g>
		</g>
	</g>
	<g class="st78">
		<g class="st79">
			<g>
				<g>
					<g>
						<g>
							<g>
								<defs>
									<rect id="SVGID_187_" y="-44" width="2000" height="1460"/>
								</defs>
								<clipPath id="SVGID_188_">
									<use xlink:href="#SVGID_187_"  style="overflow:visible;"/>
								</clipPath>
								<path class="st95" d="M994.1,1071c-3.1,2.3-6.6,1.9-10.1,1.7C987.1,1070.4,990.7,1071,994.1,1071"/>
							</g>
						</g>
					</g>
				</g>
			</g>
		</g>
	</g>
	<g>
		<g>
			<g>
				<g>
					<g>
						<g>
							<g>
								<defs>
									<rect id="SVGID_189_" y="-44" width="2000" height="1460"/>
								</defs>
								<clipPath id="SVGID_190_">
									<use xlink:href="#SVGID_189_"  style="overflow:visible;"/>
								</clipPath>
								<path class="st96" d="M827.8,1181.4c-0.2,1.3-0.5,2.6-2,3.2C825.8,1183.2,826.3,1181.9,827.8,1181.4"/>
							</g>
						</g>
					</g>
				</g>
			</g>
		</g>
	</g>
	<g>
		<g>
			<g>
				<g>
					<g>
						<g>
							<g>
								<defs>
									<rect id="SVGID_191_" y="-44" width="2000" height="1460"/>
								</defs>
								<clipPath id="SVGID_192_">
									<use xlink:href="#SVGID_191_"  style="overflow:visible;"/>
								</clipPath>
								<path class="st97" d="M832.3,1176.1c-0.2,0.9-0.6,1.6-1.5,1.9C830.9,1177,831.4,1176.4,832.3,1176.1"/>
							</g>
						</g>
					</g>
				</g>
			</g>
		</g>
	</g>
	<g>
		<g>
			<g>
				<g>
					<g>
						<g>
							<g>
								<defs>
									<rect id="SVGID_193_" y="-44" width="2000" height="1460"/>
								</defs>
								<clipPath id="SVGID_194_">
									<use xlink:href="#SVGID_193_"  style="overflow:visible;"/>
								</clipPath>
								<path class="st98" d="M830.9,1177.9c0,1.1-0.5,1.7-1.5,2C829.4,1178.9,830,1178.2,830.9,1177.9"/>
							</g>
						</g>
					</g>
				</g>
			</g>
		</g>
	</g>
	<g>
		<g>
			<g>
				<g>
					<g>
						<g>
							<g>
								<defs>
									<rect id="SVGID_195_" y="-44" width="2000" height="1460"/>
								</defs>
								<clipPath id="SVGID_196_">
									<use xlink:href="#SVGID_195_"  style="overflow:visible;"/>
								</clipPath>
								<path class="st99" d="M829.4,1179.7c-0.2,1-0.7,1.6-1.7,1.8C827.9,1180.6,828.4,1180,829.4,1179.7"/>
							</g>
						</g>
					</g>
				</g>
			</g>
		</g>
	</g>
	<g>
		<g>
			<g>
				<g>
					<g>
						<g>
							<g>
								<defs>
									<rect id="SVGID_197_" y="-44" width="2000" height="1460"/>
								</defs>
								<clipPath id="SVGID_198_">
									<use xlink:href="#SVGID_197_"  style="overflow:visible;"/>
								</clipPath>
								<path class="st100" d="M1195.7,1230.2c-0.2,0.4-0.4,0.9-0.7,1.3c-0.8-0.5-0.9-1.3-0.8-2c0.1-0.5,0.4-0.9,0.6-1.3
									C1195.7,1228.6,1195.7,1229.4,1195.7,1230.2"/>
							</g>
						</g>
					</g>
				</g>
			</g>
		</g>
	</g>
	<g>
		<g>
			<g>
				<g>
					<g>
						<g>
							<g>
								<defs>
									<rect id="SVGID_199_" y="-44" width="2000" height="1460"/>
								</defs>
								<clipPath id="SVGID_200_">
									<use xlink:href="#SVGID_199_"  style="overflow:visible;"/>
								</clipPath>
								<path class="st101" d="M847.9,1142.2c0.1-0.2,0.2-0.4,0.3-0.6L847.9,1142.2L847.9,1142.2"/>
							</g>
						</g>
					</g>
				</g>
			</g>
		</g>
	</g>
	<g class="st78">
		<g class="st79">
			<g>
				<g>
					<g>
						<g>
							<g>
								<defs>
									<rect id="SVGID_201_" y="-44" width="2000" height="1460"/>
								</defs>
								<clipPath id="SVGID_202_">
									<use xlink:href="#SVGID_201_"  style="overflow:visible;"/>
								</clipPath>
								<path class="st102" d="M1012.1,1232.6c-6-10.5-5.9-22.1-5.7-33.7c0.1-6.8,4-12.4,6-18.5c10.4-18.9,27.8-26.7,48-28.1
									c19.3-1.3,37.3,3.4,53.2,15.2c24.5,18.1,30.3,54.7,11.8,78.5c-10.9,14-26.4,19.8-43.7,20.4c-23.2,0.9-43.6-6.1-60.8-21.9
									C1017.2,1241.1,1014,1237.3,1012.1,1232.6"/>
							</g>
						</g>
					</g>
				</g>
			</g>
		</g>
	</g>
	<g>
		<g>
			<g>
				<g>
					<g>
						<g>
							<g>
								<defs>
									<rect id="SVGID_203_" y="-44" width="2000" height="1460"/>
								</defs>
								<clipPath id="SVGID_204_">
									<use xlink:href="#SVGID_203_"  style="overflow:visible;"/>
								</clipPath>
								<path class="st103" d="M1010.9,1128.9c4.3-3,8.7-2.5,13.3-0.7C1019.8,1128.4,1015.3,1128.6,1010.9,1128.9"/>
							</g>
						</g>
					</g>
				</g>
			</g>
		</g>
	</g>
	<g>
		<g>
			<g>
				<g>
					<g>
						<g>
							<g>
								<defs>
									<rect id="SVGID_205_" y="-44" width="2000" height="1460"/>
								</defs>
								<clipPath id="SVGID_206_">
									<use xlink:href="#SVGID_205_"  style="overflow:visible;"/>
								</clipPath>
								<path class="st104" d="M971.1,1191.9c-12.5-0.3-25-0.4-37.5-1.1c-4.9-0.3-6.9,1.6-8.3,5.9c-2.1,6.8-4.8,13.5-7.5,21.2
									c7.1,0.3,13.2,0.5,19.3,0.8c1,1.9,0.1,3.1-1,3.8c-6.4,3.8-13.3,5.6-20.7,3.3c-5.9-1.8-8-4.7-8.4-10.9
									c-0.2-3.1,0.5-6.1,1.2-9c2.5-10.7,6.8-20.5,14.3-28.7c5.8-6.4,17.2-8.2,24.5-4.2c2.7,1.5,5.1,3.5,5.8,6.7
									c1,4.9,4.1,5.3,8.1,4.1c7.2,0.3,14.3-0.3,21.4-0.9c7-0.6,7.1-0.5,7,6.3c0,1.1-0.2,2.2-0.2,3.3c-1.5,0.1-3,0.2-4.5,0.4
									C980.2,1191,975.5,1193.6,971.1,1191.9"/>
							</g>
						</g>
					</g>
				</g>
			</g>
		</g>
	</g>
	<g class="st78">
		<g class="st79">
			<g>
				<g>
					<g>
						<g>
							<g>
								<defs>
									<rect id="SVGID_207_" y="-44" width="2000" height="1460"/>
								</defs>
								<clipPath id="SVGID_208_">
									<use xlink:href="#SVGID_207_"  style="overflow:visible;"/>
								</clipPath>
								<path class="st105" d="M995.1,1094.4c3.3-6.9,8.8-9.8,16.3-9.2l0,0c0.8,1.8,1,3.6,0.1,5.4c0,0.5-0.1,1-0.3,1.4
									c-2.3,7.4-6.8,13.6-11.4,19.6c-1.9,2.5-3.8,5.6-7.8,4.6c-4.1-0.3-9,1.5-12.1-1.1c-3.2-2.7-1.1-7.9-2-11.8
									c-0.1-0.6-0.2-1.1-1.5-1.4c-3.6,2.4-5.3,6.9-8.3,10.2c-2.4,2.7-12.2,4.5-15,2.6c-1-0.7-1.3-1.7-1.4-2.8
									c-0.5-8.3-1-16.6-1.6-24.8c-0.2-2.7,0.7-4.3,3.7-3.9c0.3,0,0.6,0.1,0.8,0.1c10-0.2,10-0.2,10.7,10c0.1,1-0.4,2.2,1.3,3.2
									c3.3-1.7,4.8-5.4,7.2-8.1c3.2-3.7,9.8-5.4,14.1-3.5c1.8,0.8,2.1,2.4,2.3,4c0.4,2.7,0.8,5.5,1.1,8.1
									C993.9,1097.6,994.2,1095.6,995.1,1094.4"/>
							</g>
						</g>
					</g>
				</g>
			</g>
		</g>
	</g>
	<g class="st78">
		<g class="st79">
			<g>
				<g>
					<g>
						<g>
							<g>
								<defs>
									<rect id="SVGID_209_" y="-44" width="2000" height="1460"/>
								</defs>
								<clipPath id="SVGID_210_">
									<use xlink:href="#SVGID_209_"  style="overflow:visible;"/>
								</clipPath>
								<path class="st106" d="M943,1088.3c-7.8,5.2-15.3,0-23.2,0.1c2.2,3.8,5.3,4.1,8.3,4.4c3.4,0.4,6.4,1.5,9,3.9
									c3.7,3.3,4,7.3,0.6,10.7c-1.6,1.5-3.4,3.1-5.5,3.7c-12.3,3.8-24.5,4.1-36.1-2.7c-2.3-1.3-3.7-3.2-3.9-6.7
									c6.6,0.2,13-3.2,19.5,1.6c1.9,1.4,5.2,1.9,8.4-0.2c-1.4-2.4-3.9-2.6-6.1-3.3c-3.2-0.9-6.5-1.3-9.4-3.2
									c-4.4-3-4.9-7.7-0.9-11.1c2.5-2.1,5.4-3.7,8.8-4.5c9.3-2.1,18.1-0.2,26.8,3C941.3,1084.8,942.5,1086.2,943,1088.3"/>
							</g>
						</g>
					</g>
				</g>
			</g>
		</g>
	</g>
	<g>
		<g>
			<g>
				<g>
					<g>
						<g>
							<g>
								<defs>
									<rect id="SVGID_211_" y="-44" width="2000" height="1460"/>
								</defs>
								<clipPath id="SVGID_212_">
									<use xlink:href="#SVGID_211_"  style="overflow:visible;"/>
								</clipPath>
								<path class="st107" d="M992,1116.2c5.7-3.4,7.8-9.7,11.7-14.5c2.5-3.2,3.8-7.3,7.5-9.6c0.2,4,0.3,8,0.6,11.9
									c0.1,1.7-0.5,3.9,1.9,4.7c0,3.2-1.3,7.4,4.8,6.1c1.5-0.3,3.1,0.6,4,2.1c-1.6,2.8-4.3,1.7-6.5,1.6c-3.7-0.2-4.6,1.8-4.7,4.9
									c-5.9,1.5-11.6-0.8-17.5-1C993.5,1120.2,993.7,1118,992,1116.2"/>
							</g>
						</g>
					</g>
				</g>
			</g>
		</g>
	</g>
	<g>
		<g>
			<g>
				<g>
					<g>
						<g>
							<g>
								<defs>
									<rect id="SVGID_213_" y="-44" width="2000" height="1460"/>
								</defs>
								<clipPath id="SVGID_214_">
									<use xlink:href="#SVGID_213_"  style="overflow:visible;"/>
								</clipPath>
								<path class="st108" d="M993.8,1122.3c-2.5,3.2-5.2,2.8-8.1,0.7C988.4,1122.8,991.1,1122.5,993.8,1122.3"/>
							</g>
						</g>
					</g>
				</g>
			</g>
		</g>
	</g>
	<g class="st78">
		<g class="st79">
			<g>
				<g>
					<g>
						<g>
							<g>
								<defs>
									<rect id="SVGID_215_" y="-44" width="2000" height="1460"/>
								</defs>
								<clipPath id="SVGID_216_">
									<use xlink:href="#SVGID_215_"  style="overflow:visible;"/>
								</clipPath>
								<path class="st109" d="M1022.4,1116.9c-4.5,0.1-9,0.3-13.6,0.4c-0.2-4.5,4.2-5.4,4.8-8.6c4.3-6.1,8.4-12.3,13-18.2
									c5.1-6.6,17.7-4.5,20.7,3.3c3,8,5.8,16.1,8.9,24.7c-4.8,1.4-9.1,0.3-13.3,0.5c-1.5,0.1-3-0.5-3.3-2
									c-1.1-5.8-5.7-3.8-9.2-4.6C1026.3,1111.5,1024.3,1114.1,1022.4,1116.9"/>
							</g>
						</g>
					</g>
				</g>
			</g>
		</g>
	</g>
	<g class="st78">
		<g class="st79">
			<g>
				<g>
					<g>
						<g>
							<g>
								<defs>
									<rect id="SVGID_217_" y="-44" width="2000" height="1460"/>
								</defs>
								<clipPath id="SVGID_218_">
									<use xlink:href="#SVGID_217_"  style="overflow:visible;"/>
								</clipPath>
								<path class="st110" d="M1088.8,1110c-0.6,0-1.1,0-1.7,0c-8.1-0.3-8.2-0.3-9.7,7.8c-0.4,2.4-1.4,3.1-3.8,3.2
									c-12.6,0.4-12.9,0.2-11.7-12.2c0.5-5.2,1.1-10.4,1.8-15.6c0.2-1.9,0.4-4.2,3.1-4.1c9.6,0.5,19.4-0.7,28.5,3.6
									c1.5,0.7,2.9,1.7,4,2.9c4.5,4.7,3.4,9.8-2.5,12.5C1094.3,1109.2,1091.7,1110.1,1088.8,1110"/>
							</g>
						</g>
					</g>
				</g>
			</g>
		</g>
	</g>
	<g>
		<g>
			<g>
				<g>
					<g>
						<g>
							<g>
								<defs>
									<rect id="SVGID_219_" y="-44" width="2000" height="1460"/>
								</defs>
								<clipPath id="SVGID_220_">
									<use xlink:href="#SVGID_219_"  style="overflow:visible;"/>
								</clipPath>
								<path class="st111" d="M1024.4,1124.9c-4.5,0-9.3,2-13.4-1.6C1015.4,1124.3,1020.1,1123,1024.4,1124.9"/>
							</g>
						</g>
					</g>
				</g>
			</g>
		</g>
	</g>
	<g>
		<g>
			<g>
				<g>
					<g>
						<g>
							<g>
								<defs>
									<rect id="SVGID_221_" y="-44" width="2000" height="1460"/>
								</defs>
								<clipPath id="SVGID_222_">
									<use xlink:href="#SVGID_221_"  style="overflow:visible;"/>
								</clipPath>
								<path class="st112" d="M1011.5,1090.6c0-1.8,0-3.6-0.1-5.4C1014.9,1087,1013.1,1088.8,1011.5,1090.6"/>
							</g>
						</g>
					</g>
				</g>
			</g>
		</g>
	</g>
	<g>
		<g>
			<g>
				<g>
					<g>
						<g>
							<g>
								<defs>
									<rect id="SVGID_223_" y="-44" width="2000" height="1460"/>
								</defs>
								<clipPath id="SVGID_224_">
									<use xlink:href="#SVGID_223_"  style="overflow:visible;"/>
								</clipPath>
								<path class="st113" d="M1088.6,1198.3c-0.2,8.4-0.7,16.6-3.7,24.5c-2.4,6.2-7.2,9.4-14.1,9.4c-7.8,0-13.8-3.4-15.6-9.9
									c-3.6-13.4-1.6-26.4,4-38.8c3-6.6,9.3-7.2,15.7-6.4c6.5,0.8,11.4,5,12.7,11.3C1088.4,1191.6,1088.3,1195,1088.6,1198.3"/>
							</g>
						</g>
					</g>
				</g>
			</g>
		</g>
	</g>
	<g>
		<g>
			<g>
				<g>
					<g>
						<g>
							<g>
								<defs>
									<rect id="SVGID_225_" y="-44" width="2000" height="1460"/>
								</defs>
								<clipPath id="SVGID_226_">
									<use xlink:href="#SVGID_225_"  style="overflow:visible;"/>
								</clipPath>
								<path class="st114" d="M1034,1100c1.3,0.4,1.4,1.5,1.4,2.6c0,1.3-0.8,2-2.1,1.8c-1.3-0.2-1.8-1.1-1.5-2.3
									C1032.1,1100.9,1032.8,1100.2,1034,1100"/>
							</g>
						</g>
					</g>
				</g>
			</g>
		</g>
	</g>
	<g class="st78">
		<g class="st79">
			<g>
				<g>
					<g>
						<g>
							<g>
								<defs>
									<rect id="SVGID_227_" y="-44" width="2000" height="1460"/>
								</defs>
								<clipPath id="SVGID_228_">
									<use xlink:href="#SVGID_227_"  style="overflow:visible;"/>
								</clipPath>
								<path class="st115" d="M1082.9,1102c-2.1-0.2-4.5,0.2-4.2-2.9c0.2-1.6,1.2-2.6,2.8-2.4c2.1,0.2,4.9,0.2,4.9,3.2
									C1086.5,1102.3,1084.1,1101.5,1082.9,1102"/>
							</g>
						</g>
					</g>
				</g>
			</g>
		</g>
	</g>
	<g id="_x39_8">
		<g>
			<g>
				<g>
					<g>
						<g>
							<g>
								<defs>
									<rect id="SVGID_229_" y="-44" width="2000" height="1460"/>
								</defs>
								<clipPath id="SVGID_230_">
									<use xlink:href="#SVGID_229_"  style="overflow:visible;"/>
								</clipPath>
								<path class="st116" d="M1029.7,1196.6c-4.2,2.6-3.4,6.7-3.4,10.4c-0.3,31.6-0.6,63.4-0.8,95c0,3.1-1.2,7,3.7,8.6
									c-6.1,5.2-14.4,7.8-19.8,13.7c-3,3.3-7.3,2.3-10.1-0.4c-5.6-5.3-13.1-8.2-19.5-12.6c4.5-2.5,3.6-6.7,3.9-10.3
									c2.7-37.6,5-75.3,7.2-112.9c0.2-3.8,2.5-8.3-2.7-11.4c-5.5-4.7-2.2-9.7-0.6-14.6c2.2-6.8,5.5-13.4,3.4-20.8
									c-1.1-7.3-6.6-8.3-13.7-8.5c-9.1-0.1-18.6,2.5-27.2-2.5c-0.9-6.2,4.7-6,8.9-6.7c7.5-1.2,15.3-1,22.9-1.1
									c8.4,0,14.7-1.5,10.9-10.8c-0.6-1.5-0.2-2.9,0.9-4.2c4.4-2.6,3.1-7,3.4-10.4c1.1-14.8,1.7-29.4,2.5-44.2
									c11.5-5.7,20.3-5.2,28.6,1.6c1.4,20-0.3,40-0.2,59.9c0,3.6-1.9,7.7,2.5,10.5c2.5,2.2,2.3,4.9,1.1,7.4
									c-8.7,18.9-7,37.8-0.6,56.7C1031.6,1191.7,1032.2,1194.5,1029.7,1196.6"/>
							</g>
						</g>
					</g>
				</g>
			</g>
		</g>
	</g>
	
		<rect x="956.3" y="1081.3" transform="matrix(2.955876e-02 -0.9996 0.9996 2.955876e-02 -100.4271 2273.0161)" class="st117" width="328.1" height="213.8"/>
	
		<rect x="721.8" y="1078.5" transform="matrix(6.892566e-02 -0.9976 0.9976 6.892566e-02 -357.7885 1987.4226)" class="st117" width="328.1" height="213.8"/>
	<g>
		<defs>
			<rect id="SVGID_231_" x="864.6" y="951.5" width="285.9" height="229.5"/>
		</defs>
		<clipPath id="SVGID_232_">
			<use xlink:href="#SVGID_231_"  style="overflow:visible;"/>
		</clipPath>
		<g style="clip-path:url(#SVGID_232_);enable-background:new    ;">
			
				<image style="overflow:visible;" width="502" height="403" id="GO" xlink:href="398F5460.png"  transform="matrix(0.5696 0 0 0.5696 864.6016 951.5107)">
			</image>
		</g>
	</g>
	
		<image style="display:none;overflow:visible;enable-background:new    ;" width="502" height="403" id="_x37_77" xlink:href="398F5460.png"  transform="matrix(0.5714 0 0 0.5714 864.1426 951.1422)">
	</image>
</g>
</svg>
